<?xml version="1.0" encoding="UTF-8"?>
<svg width="284px" height="146px" viewBox="0 0 284 146" version="1.1" xmlns="http://www.w3.org/2000/svg" xmlns:xlink="http://www.w3.org/1999/xlink">
    <!-- Generator: Sketch 42 (36781) - http://www.bohemiancoding.com/sketch -->
    <title>logo/wht-org</title>
    <desc>Created with Sketch.</desc>
    <defs>
        <path d="M73.9889516,1.4938733 L93.1732871,1.4938733 C101.108453,1.4938733 107.013062,3.41454834 110.88729,7.25595605 C115.788422,12.2355586 118.238952,19.8471227 118.238952,30.0908765 C118.238952,37.9633911 116.943672,44.2826491 114.353074,49.0488401 C111.762475,53.8150312 108.063343,56.7671798 103.255566,57.9053747 L123.140059,111.32913 L108.366721,111.32913 L88.5522428,57.5496906 L88.5522428,111.32913 L73.9889516,111.32913 L73.9889516,1.4938733 Z M88.5522428,50.1514609 C94.2002141,50.1514609 98.1910761,48.8235868 100.524949,46.1677988 C102.858821,43.5120107 104.02574,39.0304356 104.02574,32.722939 C104.02574,29.3083544 103.780687,26.3917738 103.290574,23.9731097 C102.80046,21.5544456 102.030294,19.5863465 100.980051,18.0687533 C99.9298088,16.5511601 98.5761831,15.4366944 96.9191336,14.7253226 C95.2620842,14.0139508 93.2899916,13.6582702 91.0027966,13.6582702 L88.5522428,13.6582702 L88.5522428,50.1514609 Z M135.014253,1.4938733 L149.577544,1.4938733 L149.577544,111.32913 L135.014253,111.32913 L135.014253,1.4938733 Z M202.901106,3.77025167 L202.901106,18.2110269 C198.466748,14.9861415 194.475886,13.3737229 190.9284,13.3737229 C187.100849,13.3737229 183.973507,14.7490211 181.54628,17.4996587 C179.119052,20.108022 177.905457,23.5936915 177.905457,27.9567718 C177.905457,31.7981795 178.768977,35.0941527 180.496042,37.8447904 C181.382914,39.3149587 182.841562,41.2119217 184.872031,43.5357363 C186.9025,45.8595508 189.528067,48.6575712 192.748811,51.9298815 C198.676847,58.047679 202.714386,63.3354633 204.861549,67.7933933 C207.008711,72.1090488 208.082277,77.3968332 208.082277,83.656905 C208.082277,92.1459418 205.725101,99.1409929 201.010678,104.642268 C196.296256,110.001269 190.251617,112.680729 182.87658,112.680729 C176.66848,112.680729 171.370669,110.94975 166.982988,107.487741 L166.982988,92.8335553 C172.164185,96.674963 176.878537,98.595638 181.126185,98.595638 C185.093768,98.595638 188.197772,97.2559079 190.438289,94.5764075 C192.678807,91.8969071 193.799049,88.2571093 193.799049,83.656905 C193.799049,79.6732229 192.935529,76.0927053 191.208463,72.9152446 C190.321592,71.3976514 189.084658,69.6548167 187.497625,67.686688 C185.910591,65.7185594 183.926829,63.5251959 181.54628,61.1065318 C177.858761,57.4073985 174.801434,54.1351373 172.374207,51.2896501 C169.946979,48.4441629 168.149925,45.954399 166.982988,43.8202836 C164.742471,39.6469024 163.622229,34.38283 163.622229,28.0279086 C163.622229,19.4440223 165.816036,12.6386675 170.203716,7.61164017 C174.638074,2.53718802 180.589359,0 188.057751,0 C193.238948,0 198.186683,1.25673799 202.901106,3.77025167 Z M220.936692,1.4938733 L259.655442,1.4938733 L259.655442,14.0139543 L235.499983,14.0139543 L235.499983,48.7998613 L256.924825,48.7998613 L256.924825,61.3199423 L235.499983,61.3199423 L235.499983,98.8090485 L259.655442,98.8090485 L259.655442,111.32913 L220.936692,111.32913 L220.936692,1.4938733 Z" id="path-1"></path>
        <filter x="-50%" y="-50%" width="200%" height="200%" filterUnits="objectBoundingBox" id="filter-2">
            <feOffset dx="10" dy="12" in="SourceAlpha" result="shadowOffsetOuter1"></feOffset>
            <feGaussianBlur stdDeviation="5" in="shadowOffsetOuter1" result="shadowBlurOuter1"></feGaussianBlur>
            <feColorMatrix values="0 0 0 0 0   0 0 0 0 0   0 0 0 0 0  0 0 0 0.05 0" type="matrix" in="shadowBlurOuter1"></feColorMatrix>
        </filter>
        <polygon id="path-3" points="13.597007 86.3694407 13.597007 111.049059 0.155682066 111.049059"></polygon>
        <filter x="-50%" y="-50%" width="200%" height="200%" filterUnits="objectBoundingBox" id="filter-4">
            <feOffset dx="10" dy="12" in="SourceAlpha" result="shadowOffsetOuter1"></feOffset>
            <feGaussianBlur stdDeviation="5" in="shadowOffsetOuter1" result="shadowBlurOuter1"></feGaussianBlur>
            <feColorMatrix values="0 0 0 0 0   0 0 0 0 0   0 0 0 0 0  0 0 0 0.05 0" type="matrix" in="shadowBlurOuter1"></feColorMatrix>
        </filter>
        <polygon id="path-5" points="29.1061156 57.499427 29.1061156 111.049059 15.6647907 111.049059 15.6647907 82.0952408"></polygon>
        <filter x="-50%" y="-50%" width="200%" height="200%" filterUnits="objectBoundingBox" id="filter-6">
            <feOffset dx="10" dy="12" in="SourceAlpha" result="shadowOffsetOuter1"></feOffset>
            <feGaussianBlur stdDeviation="5" in="shadowOffsetOuter1" result="shadowBlurOuter1"></feGaussianBlur>
            <feColorMatrix values="0 0 0 0 0   0 0 0 0 0   0 0 0 0 0  0 0 0 0.05 0" type="matrix" in="shadowBlurOuter1"></feColorMatrix>
        </filter>
        <polygon id="path-7" points="44.6152243 28.8662407 44.6152243 111.049059 31.1738994 111.049059 31.1738994 53.9463736"></polygon>
        <filter x="-50%" y="-50%" width="200%" height="200%" filterUnits="objectBoundingBox" id="filter-8">
            <feOffset dx="10" dy="12" in="SourceAlpha" result="shadowOffsetOuter1"></feOffset>
            <feGaussianBlur stdDeviation="5" in="shadowOffsetOuter1" result="shadowBlurOuter1"></feGaussianBlur>
            <feColorMatrix values="0 0 0 0 0   0 0 0 0 0   0 0 0 0 0  0 0 0 0.05 0" type="matrix" in="shadowBlurOuter1"></feColorMatrix>
        </filter>
        <polygon id="path-9" points="60.1243329 0.0561726708 60.1243329 111.049059 46.683008 111.049059 46.683008 25.1611685"></polygon>
        <filter x="-50%" y="-50%" width="200%" height="200%" filterUnits="objectBoundingBox" id="filter-10">
            <feOffset dx="10" dy="12" in="SourceAlpha" result="shadowOffsetOuter1"></feOffset>
            <feGaussianBlur stdDeviation="5" in="shadowOffsetOuter1" result="shadowBlurOuter1"></feGaussianBlur>
            <feColorMatrix values="0 0 0 0 0   0 0 0 0 0   0 0 0 0 0  0 0 0 0.05 0" type="matrix" in="shadowBlurOuter1"></feColorMatrix>
        </filter>
        <rect id="path-11" x="0.225421573" y="119.887039" width="263.721697" height="4.27895458"></rect>
        <filter x="-50%" y="-50%" width="200%" height="200%" filterUnits="objectBoundingBox" id="filter-12">
            <feOffset dx="10" dy="12" in="SourceAlpha" result="shadowOffsetOuter1"></feOffset>
            <feGaussianBlur stdDeviation="5" in="shadowOffsetOuter1" result="shadowBlurOuter1"></feGaussianBlur>
            <feColorMatrix values="0 0 0 0 0   0 0 0 0 0   0 0 0 0 0  0 0 0 0.05 0" type="matrix" in="shadowBlurOuter1"></feColorMatrix>
        </filter>
    </defs>
    <g id="Home-Page" stroke="none" stroke-width="1" fill="none" fill-rule="evenodd">
        <g id="RISE-Home-Page-Concept-3" transform="translate(-568.000000, -290.000000)">
            <g id="Hero">
                <g id="Group-2" transform="translate(450.000000, 290.000000)">
                    <g id="logo/wht-org" transform="translate(118.000000, 0.000000)">
                        <g id="RISE">
                            <use fill="black" fill-opacity="1" filter="url(#filter-2)" xlink:href="#path-1"></use>
                            <use fill="#FFFFFF" fill-rule="evenodd" xlink:href="#path-1"></use>
                        </g>
                        <g id="Group" transform="translate(3.634751, 1.095109)">
                            <g id="Path-Copy">
                                <use fill="black" fill-opacity="1" filter="url(#filter-4)" xlink:href="#path-3"></use>
                                <use fill="#FFFFFF" fill-rule="evenodd" xlink:href="#path-3"></use>
                            </g>
                            <g id="Path-Copy-2">
                                <use fill="black" fill-opacity="1" filter="url(#filter-6)" xlink:href="#path-5"></use>
                                <use fill="#FFFFFF" fill-rule="evenodd" xlink:href="#path-5"></use>
                            </g>
                            <g id="Path-Copy-3">
                                <use fill="black" fill-opacity="1" filter="url(#filter-8)" xlink:href="#path-7"></use>
                                <use fill="#FFFFFF" fill-rule="evenodd" xlink:href="#path-7"></use>
                            </g>
                            <g id="Path-Copy-4">
                                <use fill="black" fill-opacity="1" filter="url(#filter-10)" xlink:href="#path-9"></use>
                                <use fill="#FFFFFF" fill-rule="evenodd" xlink:href="#path-9"></use>
                            </g>
                        </g>
                        <path d="M4.70623839,132.039795 L1.73325883,132.039795 L1.73325883,134.021677 L4.44184298,134.021677 L4.44184298,135.525997 L1.73325883,135.525997 L1.73325883,139.447974 L0,139.447974 L0,130.499658 L4.70623839,130.499658 L4.70623839,132.039795 Z M18.1802205,134.970831 C18.1802205,136.32791 17.7307527,137.458128 16.8318038,138.361521 C15.9328549,139.264913 14.8214261,139.716602 13.4974839,139.716602 C12.1735417,139.716602 11.0621128,139.264913 10.1631639,138.361521 C9.26421501,137.458128 8.8147473,136.32791 8.8147473,134.970831 C8.8147473,133.613753 9.26421501,132.484529 10.1631639,131.583126 C11.0621128,130.681724 12.1735417,130.231029 13.4974839,130.231029 C14.8214261,130.231029 15.9328549,130.681724 16.8318038,131.583126 C17.7307527,132.484529 18.1802205,133.613753 18.1802205,134.970831 Z M16.335328,134.970831 C16.335328,134.027642 16.0748522,133.270515 15.5538927,132.699427 C15.0329332,132.12834 14.3474704,131.842801 13.4974839,131.842801 C12.6474973,131.842801 11.9620346,132.12834 11.4410751,132.699427 C10.9201156,133.270515 10.6596398,134.027642 10.6596398,134.970831 C10.6596398,135.902082 10.9210948,136.657219 11.4440128,137.236265 C11.9669308,137.815312 12.6514143,138.104831 13.4974839,138.104831 C14.3435534,138.104831 15.0280369,137.815312 15.5509549,137.236265 C16.0738729,136.657219 16.335328,135.902082 16.335328,134.970831 Z M29.2805192,139.447974 L27.2534877,139.447974 L25.1265735,135.525997 L24.873929,135.525997 L24.873929,139.447974 L23.1406701,139.447974 L23.1406701,130.499658 L25.7787488,130.499658 C26.4759728,130.499658 27.0635123,130.634966 27.5413849,130.905586 C28.2738618,131.327434 28.6400948,132.03581 28.6400948,133.030736 C28.6400948,134.336078 28.0505968,135.157875 26.8715832,135.496149 L29.2805192,139.447974 Z M26.8715832,133.030736 C26.8715832,132.330308 26.4583471,131.9801 25.6318625,131.9801 L24.873929,131.9801 L24.873929,134.164945 L25.6318625,134.164945 C26.0823162,134.164945 26.401546,134.077393 26.5895615,133.902286 C26.7775769,133.72718 26.8715832,133.436666 26.8715832,133.030736 Z M46.0992012,136.707963 C46.0992012,137.495944 45.8641854,138.130697 45.3941468,138.612241 C44.8496854,139.169399 44.0388809,139.447974 42.961709,139.447974 L40.0122312,139.447974 L40.0122312,130.499658 L42.6503099,130.499658 C44.5343815,130.499658 45.4764031,131.281658 45.4764031,132.845681 C45.4764031,133.621723 45.1747995,134.180862 44.5715833,134.523117 C45.0533729,134.682305 45.4333151,134.970829 45.7114213,135.388698 C45.9699425,135.778709 46.0992012,136.218459 46.0992012,136.707963 Z M43.7078916,132.917315 C43.7078916,132.308421 43.3259909,132.003978 42.5621781,132.003978 L41.7219882,132.003978 L41.7219882,133.944073 L42.8030717,133.944073 C43.406288,133.944073 43.7078916,133.601824 43.7078916,132.917315 Z M44.295437,136.707963 C44.295437,135.820489 43.8586993,135.376759 42.9852108,135.376759 L41.7219882,135.376759 L41.7219882,137.943654 L42.8383244,137.943654 C43.8097376,137.943654 44.295437,137.531761 44.295437,136.707963 Z M59.9903405,134.970831 C59.9903405,136.32791 59.5408728,137.458128 58.6419239,138.361521 C57.742975,139.264913 56.6315461,139.716602 55.3076039,139.716602 C53.9836617,139.716602 52.8722329,139.264913 51.973284,138.361521 C51.0743351,137.458128 50.6248673,136.32791 50.6248673,134.970831 C50.6248673,133.613753 51.0743351,132.484529 51.973284,131.583126 C52.8722329,130.681724 53.9836617,130.231029 55.3076039,130.231029 C56.6315461,130.231029 57.742975,130.681724 58.6419239,131.583126 C59.5408728,132.484529 59.9903405,133.613753 59.9903405,134.970831 Z M58.145448,134.970831 C58.145448,134.027642 57.8849722,133.270515 57.3640127,132.699427 C56.8430532,132.12834 56.1575905,131.842801 55.3076039,131.842801 C54.4576174,131.842801 53.7721546,132.12834 53.2511951,132.699427 C52.7302356,133.270515 52.4697598,134.027642 52.4697598,134.970831 C52.4697598,135.902082 52.7312149,136.657219 53.2541329,137.236265 C53.7770509,137.815312 54.4615344,138.104831 55.3076039,138.104831 C56.1536735,138.104831 56.838157,137.815312 57.361075,137.236265 C57.883993,136.657219 58.145448,135.902082 58.145448,134.970831 Z M71.1728956,130.499658 L68.3350515,135.388698 L68.3350515,139.447974 L66.6017927,139.447974 L66.6017927,135.388698 L63.7580731,130.499658 L65.6499692,130.499658 L67.4654844,133.836622 L69.2809996,130.499658 L71.1728956,130.499658 Z M81.1392319,136.904957 C81.1392319,137.712836 80.8709222,138.373457 80.3342947,138.886839 C79.7545804,139.440017 78.9594436,139.716602 77.9488605,139.716602 C76.9735303,139.716602 76.2175628,139.471854 75.6809354,138.982351 C75.124723,138.476929 74.846621,137.744675 74.846621,136.785566 L76.6503852,136.785566 C76.6503852,137.310887 76.7541839,137.682984 76.9617843,137.901867 C77.1576337,138.108812 77.4866558,138.212283 77.9488605,138.212283 C78.4384841,138.212283 78.7939455,138.115776 79.0152554,137.922761 C79.2365652,137.729745 79.3472185,137.39446 79.3472185,136.916896 C79.3472185,136.602499 79.2473368,136.341833 79.0475703,136.134888 C78.816468,135.904066 78.3542703,135.623501 77.6609633,135.293185 C76.7483049,134.859398 76.1215961,134.445515 75.7808181,134.051525 C75.455708,133.673453 75.2931554,133.185947 75.2931554,132.588991 C75.2931554,131.964178 75.5281712,131.424936 75.9982099,130.97125 C76.5074184,130.477767 77.1576288,130.231029 77.9488605,130.231029 C78.6852544,130.231029 79.319797,130.457869 79.8525075,130.911555 C80.3969689,131.38116 80.6691956,131.952239 80.6691956,132.624808 L78.900684,132.624808 C78.900684,132.031833 78.5834127,131.735349 77.9488605,131.735349 C77.6668373,131.735349 77.44651,131.811957 77.287872,131.965176 C77.1292339,132.118395 77.0499161,132.302453 77.0499161,132.517357 C77.0499161,132.815835 77.1409847,133.052623 77.3231247,133.22773 C77.5052647,133.402837 77.9116461,133.641616 78.5422813,133.944073 C79.5567814,134.429597 80.2559534,134.907154 80.6398183,135.376759 C80.9727623,135.782688 81.1392319,136.292083 81.1392319,136.904957 Z M99.8968136,139.447974 L98.0930493,139.447974 L97.235233,137.466092 L93.7628399,137.466092 L92.8932728,139.447974 L91.0895085,139.447974 L95.4902233,130.057913 L99.8968136,139.447974 Z M96.612435,136.039376 L95.4902233,133.472481 L94.385638,136.039376 L96.612435,136.039376 Z M111.972438,139.889719 L105.72683,134.164945 L105.72683,139.447974 L104.028824,139.447974 L104.028824,130.057913 L110.274432,135.770747 L110.274432,130.487719 L111.972438,130.487719 L111.972438,139.889719 Z M124.764867,134.970831 C124.764867,136.292092 124.412343,137.340728 123.707285,138.11677 C122.900386,139.004244 121.690054,139.447974 120.076255,139.447974 L117.402924,139.447974 L117.402924,130.499658 L120.076255,130.499658 C121.68222,130.499658 122.892552,130.949358 123.707285,131.84877 C124.412343,132.628792 124.764867,133.669468 124.764867,134.970831 Z M122.961103,134.970831 C122.961103,133.956007 122.749589,133.223753 122.326554,132.774046 C121.868266,132.284543 121.080963,132.039795 119.964621,132.039795 L119.112681,132.039795 L119.112681,137.907837 L119.964621,137.907837 C121.080963,137.907837 121.868266,137.661099 122.326554,137.167616 C122.749589,136.71791 122.961103,135.985655 122.961103,134.970831 Z M145.343839,139.447974 L143.610581,139.447974 L142.923153,134.935014 L140.349704,139.889719 L137.776255,134.935014 L137.088827,139.447974 L135.355568,139.447974 L136.977193,130.057913 L140.349704,136.588572 L143.716339,130.057913 L145.343839,139.447974 Z M155.069282,139.447974 L149.981139,139.447974 L149.981139,130.499658 L155.069282,130.499658 L155.069282,132.039795 L151.714398,132.039795 L151.714398,133.944073 L154.699128,133.944073 L154.699128,135.412576 L151.714398,135.412576 L151.714398,137.907837 L155.069282,137.907837 L155.069282,139.447974 Z M168.155484,139.889719 L161.909877,134.164945 L161.909877,139.447974 L160.211871,139.447974 L160.211871,130.057913 L166.457478,135.770747 L166.457478,130.487719 L168.155484,130.487719 L168.155484,139.889719 Z M188.898969,134.970831 C188.898969,136.32791 188.449502,137.458128 187.550553,138.361521 C186.651604,139.264913 185.540175,139.716602 184.216233,139.716602 C182.89229,139.716602 181.780862,139.264913 180.881913,138.361521 C179.982964,137.458128 179.533496,136.32791 179.533496,134.970831 C179.533496,133.613753 179.982964,132.484529 180.881913,131.583126 C181.780862,130.681724 182.89229,130.231029 184.216233,130.231029 C185.540175,130.231029 186.651604,130.681724 187.550553,131.583126 C188.449502,132.484529 188.898969,133.613753 188.898969,134.970831 Z M187.054077,134.970831 C187.054077,134.027642 186.793601,133.270515 186.272641,132.699427 C185.751682,132.12834 185.066219,131.842801 184.216233,131.842801 C183.366246,131.842801 182.680783,132.12834 182.159824,132.699427 C181.638864,133.270515 181.378389,134.027642 181.378389,134.970831 C181.378389,135.902082 181.639844,136.657219 182.162762,137.236265 C182.68568,137.815312 183.370163,138.104831 184.216233,138.104831 C185.062302,138.104831 185.746786,137.815312 186.269704,137.236265 C186.792622,136.657219 187.054077,135.902082 187.054077,134.970831 Z M198.565657,132.039795 L195.592678,132.039795 L195.592678,134.021677 L198.301262,134.021677 L198.301262,135.525997 L195.592678,135.525997 L195.592678,139.447974 L193.859419,139.447974 L193.859419,130.499658 L198.565657,130.499658 L198.565657,132.039795 Z M216.242156,139.167406 C215.52143,139.533539 214.687124,139.716602 213.739212,139.716602 C212.364349,139.716602 211.24019,139.254964 210.366702,138.331673 C209.516715,137.43226 209.091728,136.311991 209.091728,134.970831 C209.091728,133.677428 209.516715,132.575067 210.366702,131.663715 C211.259775,130.708586 212.391768,130.231029 213.762714,130.231029 C214.722376,130.231029 215.548849,130.410113 216.242156,130.768286 L216.242156,132.684504 C215.431339,132.123366 214.604867,131.842801 213.762714,131.842801 C212.983233,131.842801 212.313438,132.141274 211.753309,132.738229 C211.181429,133.347124 210.895493,134.091317 210.895493,134.970831 C210.895493,135.890142 211.159885,136.642295 211.688679,137.227311 C212.217472,137.812327 212.904894,138.104831 213.750963,138.104831 C214.546112,138.104831 215.376501,137.818297 216.242156,137.24522 L216.242156,139.167406 Z M230.021661,134.970831 C230.021661,136.32791 229.572193,137.458128 228.673245,138.361521 C227.774296,139.264913 226.662867,139.716602 225.338925,139.716602 C224.014982,139.716602 222.903554,139.264913 222.004605,138.361521 C221.105656,137.458128 220.656188,136.32791 220.656188,134.970831 C220.656188,133.613753 221.105656,132.484529 222.004605,131.583126 C222.903554,130.681724 224.014982,130.231029 225.338925,130.231029 C226.662867,130.231029 227.774296,130.681724 228.673245,131.583126 C229.572193,132.484529 230.021661,133.613753 230.021661,134.970831 Z M228.176769,134.970831 C228.176769,134.027642 227.916293,133.270515 227.395333,132.699427 C226.874374,132.12834 226.188911,131.842801 225.338925,131.842801 C224.488938,131.842801 223.803475,132.12834 223.282516,132.699427 C222.761556,133.270515 222.50108,134.027642 222.50108,134.970831 C222.50108,135.902082 222.762536,136.657219 223.285454,137.236265 C223.808372,137.815312 224.492855,138.104831 225.338925,138.104831 C226.184994,138.104831 226.869478,137.815312 227.392396,137.236265 C227.915314,136.657219 228.176769,135.902082 228.176769,134.970831 Z M239.817609,139.447974 L235.017364,139.447974 L235.017364,130.499658 L236.750622,130.499658 L236.750622,137.907837 L239.817609,137.907837 L239.817609,139.447974 Z M253.185833,134.970831 C253.185833,136.32791 252.736365,137.458128 251.837417,138.361521 C250.938468,139.264913 249.827039,139.716602 248.503097,139.716602 C247.179154,139.716602 246.067726,139.264913 245.168777,138.361521 C244.269828,137.458128 243.82036,136.32791 243.82036,134.970831 C243.82036,133.613753 244.269828,132.484529 245.168777,131.583126 C246.067726,130.681724 247.179154,130.231029 248.503097,130.231029 C249.827039,130.231029 250.938468,130.681724 251.837417,131.583126 C252.736365,132.484529 253.185833,133.613753 253.185833,134.970831 Z M251.340941,134.970831 C251.340941,134.027642 251.080465,133.270515 250.559505,132.699427 C250.038546,132.12834 249.353083,131.842801 248.503097,131.842801 C247.65311,131.842801 246.967647,132.12834 246.446688,132.699427 C245.925728,133.270515 245.665252,134.027642 245.665252,134.970831 C245.665252,135.902082 245.926708,136.657219 246.449626,137.236265 C246.972543,137.815312 247.657027,138.104831 248.503097,138.104831 C249.349166,138.104831 250.03365,137.815312 250.556568,137.236265 C251.079486,136.657219 251.340941,135.902082 251.340941,134.970831 Z M264.286132,139.447974 L262.2591,139.447974 L260.132186,135.525997 L259.879542,135.525997 L259.879542,139.447974 L258.146283,139.447974 L258.146283,130.499658 L260.784362,130.499658 C261.481586,130.499658 262.069125,130.634966 262.546998,130.905586 C263.279475,131.327434 263.645707,132.03581 263.645707,133.030736 C263.645707,134.336078 263.05621,135.157875 261.877196,135.496149 L264.286132,139.447974 Z M261.877196,133.030736 C261.877196,132.330308 261.46396,131.9801 260.637475,131.9801 L259.879542,131.9801 L259.879542,134.164945 L260.637475,134.164945 C261.087929,134.164945 261.407159,134.077393 261.595174,133.902286 C261.78319,133.72718 261.877196,133.436666 261.877196,133.030736 Z" id="FOR-BOYS-AND-MEN-OF" fill="#FF9C45"></path>
                        <g id="Rectangle">
                            <use fill="black" fill-opacity="1" filter="url(#filter-12)" xlink:href="#path-11"></use>
                            <use fill="#FFFFFF" fill-rule="evenodd" xlink:href="#path-11"></use>
                        </g>
                    </g>
                </g>
            </g>
        </g>
    </g>
</svg>