<?xml version="1.0" encoding="UTF-8"?>
<svg width="172px" height="46px" viewBox="0 0 172 46" version="1.1" xmlns="http://www.w3.org/2000/svg" xmlns:xlink="http://www.w3.org/1999/xlink">
    <!-- Generator: Sketch 42 (36781) - http://www.bohemiancoding.com/sketch -->
    <title>logo-rossier-knockout</title>
    <desc>Created with Sketch.</desc>
    <defs></defs>
    <g id="Symbols" stroke="none" stroke-width="1" fill="none" fill-rule="evenodd">
        <g id="footer/dark/centered" transform="translate(-544.000000, -43.000000)" fill-rule="nonzero">
            <g id="logos" transform="translate(544.000000, 42.000000)">
                <g id="logo-rossier-knockout" transform="translate(0.000000, 1.000000)">
                    <g id="Layer_1">
                        <path d="M79.0356207,13.7696143 C79.591654,13.8788575 80.0006319,13.9154788 80.7037206,13.9154788 C87.4505945,13.9154788 88.7475848,9.3576769 88.7475848,7.8282715 C88.7475848,6.14989803 87.9687595,4.5466293 86.893299,3.67330405 C85.4473599,2.54300891 83.8164972,1.99493059 80.7409578,1.99493059 C80.2966361,1.99493059 79.8138149,2.06941462 79.4793113,2.286039 C79.2224378,2.46976628 79.0343584,2.86887654 79.0343584,3.45233477 L79.0356207,13.7696143 Z M75.6994209,10.1621044 C75.6994209,7.46454115 75.6994209,5.13194963 75.6621837,4.07303501 C75.6236842,2.86887654 75.1787314,2.25065909 74.2528507,2.25065909 L72.7703057,2.25065909 C72.585382,2.25065909 72.5481448,2.14079515 72.5481448,1.99430989 L72.5481448,1.08560473 C72.5481448,0.903739558 72.585382,0.828634828 72.7703057,0.828634828 C73.1041781,0.828634828 74.2528507,0.936636671 77.3643651,0.936636671 C79.4427052,0.936636671 82.8887232,0.828634828 83.556468,0.828634828 C86.6332698,0.827393428 89.080195,1.74044349 90.4876345,3.05198311 C91.7114127,4.21889957 92.4157636,5.85941032 92.4157636,7.20757125 C92.4157636,11.7635111 90.3014486,13.4785058 85.5584404,14.4970749 L85.5584404,14.5721797 C86.4483461,14.8968059 86.9671422,15.5547482 87.2631463,15.9563412 C87.7068369,16.4305562 90.3399481,20.1460679 90.6359522,20.6209036 C90.8246627,20.986496 93.1952201,24.3004146 93.8976776,24.813113 C94.6765029,25.3599499 95.5298026,25.4338133 96.568657,25.4338133 C96.8261617,25.4338133 96.8646612,25.5790571 96.8646612,25.7249217 L96.8646612,26.5262457 C96.8646612,26.7459736 96.827424,26.8545961 96.568657,26.8545961 C96.2713907,26.8545961 95.3063794,26.7453529 93.6755167,26.7453529 C92.6006873,26.7453529 91.2311161,26.8179748 90.6725582,26.8545961 C90.2654737,26.488383 89.4506735,25.2507067 89.1180633,24.7777331 C88.8220592,24.338898 86.8175623,20.8766321 86.6326386,20.5849029 C86.4849522,20.327933 84.7045096,17.7054745 84.2595567,17.1965003 C83.2977011,16.0637224 82.4071643,15.0811539 80.2581366,15.0811539 C79.9223707,15.0811539 79.5556791,15.0811539 79.0343584,15.1891557 L79.0343584,17.2331216 C79.0343584,19.3826066 79.073489,23.4655728 79.1094639,24.0093062 C79.1820449,24.7777331 79.4786801,25.4338133 80.0366069,25.4338133 L82.3711893,25.4338133 C82.6293251,25.4338133 82.6684557,25.5442979 82.6684557,25.7261631 L82.6684557,26.5274871 C82.6684557,26.7807328 82.6299563,26.8545961 82.2601089,26.8545961 C81.8517621,26.8545961 80.9271437,26.7453529 77.4053891,26.7453529 C74.0338456,26.7453529 73.1799147,26.8545961 72.7715679,26.8545961 C72.4749327,26.8545961 72.4749327,26.7453529 72.4749327,26.5634877 L72.4749327,25.7280252 C72.4749327,25.5449186 72.4749327,25.434434 72.6604875,25.434434 L74.1777452,25.434434 C74.9963323,25.434434 75.6236842,25.1774641 75.6236842,24.1955163 C75.6987898,20.586765 75.6987898,17.1592583 75.6987898,13.6969923 L75.6987898,10.1621044 L75.6994209,10.1621044 Z" id="Shape" fill="#FFFFFF"></path>
                        <path d="M107.461482,18.7985276 C107.461482,14.7509413 104.459786,12.1998633 102.567632,12.1998633 C101.566645,12.1998633 100.606683,12.4195912 99.7148841,13.3674005 C98.268945,14.8248047 97.7488866,16.3206923 97.7488866,19.0902568 C97.7488866,21.1311192 97.9729409,22.5165221 99.1588508,24.1942749 C100.010888,25.397192 101.08698,26.0892727 102.829554,26.0892727 C105.646958,26.0892727 107.461482,22.6996287 107.461482,18.7985276 M96.750425,24.6684899 C95.0457191,22.6623867 94.7118466,21.3142257 94.7118466,18.7259057 C94.7118466,16.8675292 95.7128328,14.5349377 97.8997288,12.8571849 C99.8253333,11.3997807 101.642382,11.1074309 102.86616,11.1074309 C104.904107,11.1074309 106.941424,12.1278621 108.056015,13.2209152 C109.724115,14.8968059 110.578045,16.7918037 110.578045,19.162258 C110.578045,23.135981 106.942686,27.1823259 102.383339,27.1823259 C100.606683,27.1823259 98.3061822,26.4890037 96.750425,24.6684899" id="Shape" fill="#FFFFFF"></path>
                        <path d="M112.797761,26.1240319 C112.614099,26.0160301 112.614099,25.7956815 112.574337,25.6138163 L111.943199,22.1521711 C111.904699,21.9703059 112.019566,21.8958219 112.167253,21.8610627 L112.646918,21.7499573 C112.794605,21.7120946 112.90821,21.7853372 112.982053,21.9696852 L113.907934,23.7535777 C114.648891,25.1042214 115.168949,26.0160301 117.132422,26.0160301 C118.431937,26.0160301 120.0628,25.2488446 120.0628,23.5357119 C120.0628,21.8958219 119.245475,20.949254 116.465939,20.1814478 C114.279043,19.5619889 112.090885,18.4347973 112.090885,15.5541275 C112.090885,13.0384294 114.499311,11.1068102 117.279477,11.1068102 C119.059289,11.1068102 120.022407,11.5431625 120.690152,11.8702715 C121.247447,12.1266207 121.32129,12.3084859 121.357265,12.5251103 L121.913299,15.0780504 C121.913299,15.2251563 121.840718,15.3331582 121.653269,15.4070215 L121.209579,15.5522654 C121.061892,15.5901281 120.986156,15.5522654 120.875706,15.3704002 L119.617216,13.6926474 C119.173525,13.001808 118.464756,12.2718646 117.021342,12.2718646 C115.613902,12.2718646 114.168594,13.1085685 114.168594,14.6776987 C114.168594,16.7905623 115.909275,17.1940175 117.725061,17.7036124 C120.432016,18.4689358 122.137984,19.5601268 122.175221,22.3681748 C122.137984,25.3208458 119.689796,27.1792224 116.540414,27.1804638 C114.72589,27.1817052 113.241451,26.4517617 112.797761,26.1240319" id="Shape" fill="#FFFFFF"></path>
                        <path d="M124.507279,26.1240319 C124.323618,26.0147887 124.323618,25.7956815 124.283225,25.6125749 L123.653348,22.1490676 C123.617373,21.9703059 123.728454,21.8958219 123.877403,21.8579592 L124.359593,21.7499573 C124.507279,21.7120946 124.61836,21.7853372 124.692203,21.9696852 L125.616821,23.7535777 C126.360303,25.1017386 126.879099,26.0147887 128.842572,26.0147887 C130.143349,26.0147887 131.774211,25.2476032 131.774211,23.5344705 C131.774211,21.8958219 130.955624,20.9480126 128.177351,20.1808271 C125.990455,19.5607475 123.801035,18.4335559 123.801035,15.5528861 C123.801035,13.0378087 126.20946,11.1061895 128.990889,11.1061895 C130.770701,11.1061895 131.733819,11.5431625 132.401563,11.8702715 C132.957597,12.1266207 133.03144,12.3066238 133.068677,12.5251103 L133.625973,15.0761883 C133.625973,15.2251563 133.552129,15.3325375 133.364681,15.4057801 L132.920991,15.5522654 C132.773304,15.5888867 132.697568,15.5522654 132.58838,15.3704002 L131.327365,13.6926474 C130.883675,13.0011873 130.17743,12.2718646 128.732753,12.2718646 C127.324052,12.2718646 125.879375,13.1085685 125.879375,14.6776987 C125.879375,16.7905623 127.620056,17.1927761 129.438367,17.7036124 C132.142796,18.4670737 133.850027,19.5601268 133.887264,22.3669334 C133.850027,25.3196044 131.403102,27.1792224 128.252457,27.1792224 C126.435408,27.1804638 124.95097,26.4517617 124.507279,26.1240319" id="Shape" fill="#FFFFFF"></path>
                        <path d="M135.919531,5.01712009 C135.919531,4.10593213 136.699619,3.12026014 138.18027,3.12026014 C139.479785,3.12026014 140.1084,4.10593213 140.1084,4.90787684 C140.1084,5.85568612 139.441286,6.91211794 137.957478,6.91211794 C137.144572,6.91211794 135.919531,6.18465725 135.919531,5.01712009 L135.919531,5.01712009 Z M137.588262,16.1351029 C137.588262,14.8974266 137.366101,14.240105 135.512447,13.9477552 C135.25368,13.9117546 135.179836,13.8391327 135.179836,13.6932681 L135.179836,13.3661591 C135.179836,13.2550537 135.25368,13.1842939 135.438603,13.1098099 C136.625776,12.6715955 138.030691,12.088758 139.441286,11.3252967 C139.73729,11.1800528 139.924738,11.1055688 140.145006,11.1055688 C140.329929,11.1055688 140.368429,11.287434 140.329929,11.5419211 C140.256086,12.1620006 140.258611,14.4604536 140.258611,17.4845052 L140.258611,21.4576075 C140.258611,22.8777697 140.258611,24.1905507 140.295848,24.5927644 C140.368429,25.2836038 140.479509,25.5380909 140.887856,25.5380909 L142.592562,25.5380909 C142.889828,25.5380909 142.963672,25.6485756 142.964934,25.8664413 L142.964934,26.488383 C142.964934,26.7416287 142.891091,26.8521133 142.632324,26.8521133 C142.335057,26.8521133 140.627827,26.7416287 139.073332,26.7416287 C136.923673,26.7416287 135.476472,26.8521133 135.069387,26.8521133 C134.884464,26.8521133 134.773383,26.77825 134.773383,26.5597635 L134.773383,25.8310614 C134.772121,25.6125749 134.883201,25.539953 135.14323,25.539953 L136.960279,25.539953 C137.367364,25.539953 137.51505,25.3922264 137.552918,24.8087681 C137.588262,23.7175771 137.588262,22.589144 137.588262,21.4942288 L137.588262,16.1351029 Z" id="Shape" fill="#FFFFFF"></path>
                        <path d="M151.634888,15.9519963 C152.338608,15.9519963 152.634612,15.7695104 152.634612,15.4430221 C152.634612,14.602594 152.190921,12.1980012 149.781233,12.1980012 C148.151633,12.1980012 146.595875,13.2562951 145.890893,15.9519963 L151.634888,15.9519963 L151.634888,15.9519963 Z M145.742576,17.0462908 C145.66747,17.3733999 145.630233,17.9587202 145.630233,18.7972862 C145.630233,22.3687955 147.930734,25.0644966 150.893931,25.0644966 C153.155932,25.0644966 154.748296,23.7889576 155.379434,22.5854198 C155.452015,22.4414174 155.602857,22.3681748 155.713307,22.402934 L156.194235,22.6592832 C156.305315,22.6946631 156.38042,22.804527 156.194235,23.2048787 C155.528383,24.664145 153.600885,27.1798431 150.301923,27.1798431 C148.18887,27.1798431 145.85555,26.5603842 144.482192,24.5902816 C143.183939,22.7337672 142.851329,21.3831235 142.851329,18.8332869 C142.851329,17.4087798 143.221176,14.966945 145.184649,13.0347052 C146.777012,11.4332985 148.631298,11.1024653 150.484953,11.1024653 C154.746402,11.1024653 155.934836,15.0389463 155.934836,16.4634533 C155.934836,16.9711861 155.488621,17.0456701 154.896613,17.0456701 L145.742576,17.0456701 L145.742576,17.0462908 Z" id="Shape" fill="#FFFFFF"></path>
                        <path d="M159.380223,17.0462908 C159.380223,15.1860522 159.082957,14.8210805 158.045365,14.2748643 L157.341645,13.9111339 C157.119484,13.838512 157.045641,13.8018907 157.045641,13.6547847 L157.045641,13.4350568 C157.045641,13.2891923 157.119484,13.2178117 157.341645,13.1091892 L161.011086,11.2483299 C161.231985,11.1390866 161.380933,11.103086 161.52862,11.103086 C161.750781,11.103086 161.787387,11.3221932 161.787387,11.540059 L161.973573,14.0569985 L162.122521,14.0569985 C163.233326,12.3804871 164.9759,10.8858409 166.568894,10.8858409 C167.82991,10.8858409 168.458524,11.6493022 168.461049,12.4897303 C168.461049,13.5461622 167.571143,14.275485 166.901505,14.275485 C166.495682,14.275485 166.125204,14.1302411 165.827937,13.9843765 C165.531933,13.8025114 165.08698,13.691406 164.60479,13.691406 C164.012151,13.691406 163.047771,14.0569985 162.417894,15.2245356 C162.196996,15.6230252 162.049309,16.2809674 162.049309,16.3889693 L162.049309,24.0440654 C162.049309,25.1712571 162.305552,25.539953 163.085008,25.539953 L164.829476,25.539953 C165.049112,25.539953 165.08698,25.6479549 165.08698,25.867062 L165.08698,26.5231422 C165.08698,26.7428701 165.051006,26.8514926 164.903319,26.8514926 C164.679896,26.8514926 162.973928,26.7422494 160.97448,26.7422494 C158.676504,26.7422494 157.118853,26.8514926 156.896692,26.8514926 C156.749006,26.8514926 156.674531,26.7788707 156.674531,26.4852795 L156.674531,25.867062 C156.674531,25.6100921 156.747112,25.539953 157.082247,25.539953 L158.525661,25.539953 C159.081695,25.539953 159.341724,25.318363 159.341724,24.8466308 C159.378961,23.6437138 159.378961,22.3687955 159.378961,20.4725562 L159.378961,17.0462908 L159.380223,17.0462908 Z" id="Shape" fill="#FFFFFF"></path>
                        <path d="M3.30211829,3.76454699 C3.30211829,2.51011179 3.00106508,1.91982586 2.02658674,1.91982586 L0.300422077,1.91982586 C0.0751055193,1.92044656 0,1.84596253 0,1.58899263 L0,0.737391892 C0,0.517664005 0.0751055193,0.443179975 0.37363418,0.443179975 C0.751686332,0.443179975 2.54916968,0.554285319 6.15234119,0.554285319 C9.30298617,0.554285319 11.1061498,0.443179975 11.5561517,0.443179975 C11.7795749,0.443179975 11.8559427,0.517664005 11.8559427,0.700770577 L11.8559427,1.62313114 C11.8559427,1.84472113 11.7795749,1.91982586 11.5561517,1.91982586 L9.98019812,1.91982586 C8.85361533,1.91982586 8.17892794,2.58149232 8.13979733,3.35612623 C8.10445356,3.8005476 8.0287169,6.01458538 8.0287169,8.15351843 L8.0287169,12.7293206 C8.0287169,14.5759039 8.06406067,17.1946382 8.13979733,18.3752101 C8.25466459,20.0722045 8.55382439,21.7704404 9.45319721,22.9491502 C10.7287288,24.6461447 12.7546844,25.2364306 14.5559545,25.2364306 C16.2827504,25.2364306 18.3831803,24.5735227 19.5823441,23.4661935 C21.009349,22.0646523 21.7604041,19.9250986 21.7604041,17.2293974 L21.7604041,10.5903876 C21.7604041,7.63833722 21.4593509,4.39331634 21.3463771,3.542957 C21.2340344,2.58273372 20.6338214,1.92106726 19.8076606,1.92106726 L18.458917,1.92106726 C18.2323382,1.92106726 18.1578638,1.80809982 18.1578638,1.66099386 L18.1578638,0.737391892 C18.1578638,0.517664005 18.231707,0.443179975 18.458917,0.443179975 C18.8338135,0.443179975 20.5574536,0.554285319 23.0353046,0.554285319 C25.3616822,0.554285319 26.560846,0.443179975 26.8612681,0.443179975 C27.1989273,0.443179975 27.2386891,0.554285319 27.2386891,0.737391892 L27.2386891,1.58899263 C27.2386891,1.80809982 27.1995585,1.92044656 27.0114791,1.92044656 L25.6621043,1.92044656 C24.3114672,1.92044656 24.1593628,2.95267107 24.0861507,3.35674693 C24.0116763,3.8011683 24.0116763,8.96663575 24.0116763,9.44705774 C24.0116763,9.96223894 23.9378331,16.3827623 23.7869909,17.8581668 C23.5616743,20.8853219 22.6604081,23.1726023 20.6344525,24.941598 C19.0578677,26.3456219 16.6601714,27.2307405 13.8055305,27.2307405 C12.0055226,27.2307405 9.83061822,26.9359079 8.40424449,26.3456219 C6.22934013,25.459262 4.72912316,23.7635089 3.97554341,21.4005031 C3.45043592,19.7786133 3.30274943,17.3448477 3.30274943,12.5089721 L3.30274943,3.76454699 L3.30211829,3.76454699 Z" id="Shape" fill="#FFCD05"></path>
                        <path d="M28.2901664,18.4496941 C28.438484,18.4496941 28.5135895,18.522316 28.5135895,18.7451474 C28.5893262,19.9250986 28.8897482,21.3278811 29.9412255,22.9510123 C31.0652837,24.7218701 33.016765,25.6057472 34.8931407,25.6057472 C36.9197274,25.6057472 39.7705814,24.3531741 39.7705814,21.2900184 C39.7705814,17.8941674 38.1946278,16.7887002 34.2190844,15.3132958 C33.0173961,14.8707365 30.5408074,13.8366499 28.7389061,12.212898 C27.4646368,11.0341883 26.8637926,9.18884644 26.8637926,6.93570455 C26.8637926,4.87063483 27.6893222,3.17426106 29.4899612,1.7714785 C30.9914405,0.516422604 32.6418685,0 34.817404,0 C37.2939927,0 38.7935786,0.592148034 39.5440026,0.886980651 C39.9207925,1.03346591 40.1435845,0.96084398 40.332295,0.774633907 L40.8201653,0.295453317 C40.9703763,0.147726658 41.1199562,0.0751047297 41.3440105,0.0751047297 C41.5705894,0.0751047297 41.6444326,0.295453317 41.6444326,0.665390663 C41.6444326,1.2556766 42.2452767,6.42114404 42.2452767,6.78983999 C42.2452767,6.93570455 42.1701712,7.01142998 42.0212225,7.04867199 L41.4197472,7.23364066 C41.2707984,7.27026198 41.1199562,7.23364066 41.0454819,7.01205068 C40.6699543,5.97920547 40.0697412,4.50318028 38.718473,3.09915633 C37.7427324,2.06817322 36.5429375,1.55050921 34.8167729,1.55050921 C31.8150767,1.55050921 30.6146506,3.91227365 30.6146506,5.27843489 C30.6146506,6.53287009 30.7648617,7.63895792 31.6661279,8.5985605 C32.6412374,9.55816308 34.7429296,10.4432816 36.2418843,10.8864616 C38.4193132,11.5499902 40.2205834,12.2898649 41.6444326,13.7652693 C42.846752,15.0190838 43.5214394,16.5683517 43.5214394,19.0406007 C43.5214394,23.5419189 40.5197432,27.2313612 35.5678281,27.2313612 C32.4910263,27.2313612 30.6903873,26.5672119 29.1901703,25.4598827 C28.7382749,25.1650501 28.5135895,25.0173234 28.2901664,25.0173234 C28.0642187,25.0173234 27.9140076,25.312156 27.6886911,25.6814727 C27.4646368,26.05141 27.3137946,26.1240319 27.0146348,26.1240319 C26.7135816,26.1240319 26.5633705,25.9036834 26.5633705,25.533746 C26.6384761,25.0924281 27.1635836,19.1150848 27.2374268,18.6712841 C27.274664,18.4509355 27.3137946,18.3745894 27.4640056,18.3745894 L28.2901664,18.4496941 Z" id="Shape" fill="#FFCD05"></path>
                        <path d="M69.1835438,20.6631112 C69.2952553,20.7735958 69.3324925,20.8828391 69.2580181,21.0318071 C67.0073771,24.2054475 63.4048367,27.2301198 58.0780251,27.2301198 C53.2782144,27.2301198 50.5744157,25.82982 48.2505626,23.7628882 C45.4722895,21.3266397 44.196758,17.0462908 44.196758,13.7987872 C44.196758,10.1844496 45.397184,6.71597666 48.0233526,3.91165295 C50.0493082,1.7714785 53.2775833,0.000620700246 57.7757096,0.000620700246 C61.2293012,0.000620700246 64.0044186,1.03346591 65.356318,1.7714785 C65.8820566,2.06631112 66.0328988,2.06631112 66.1061109,1.7714785 L66.406533,0.813117322 C66.4810073,0.592768735 66.5554817,0.592768735 67.006746,0.592768735 C67.456748,0.592768735 67.5324846,0.665390663 67.5324846,1.18243397 C67.5324846,1.84596253 68.2822775,7.74882187 68.4324886,8.854289 C68.4684635,9.07774109 68.4324886,9.18760504 68.2829087,9.22546775 L67.5709841,9.44519564 C67.3822736,9.51967967 67.2686686,9.37257371 67.1575882,9.07774109 C66.706955,7.74820117 65.8056888,5.90472144 64.2309975,4.28034889 C62.5799383,2.73108108 60.6284571,1.55112991 57.7037598,1.55112991 C51.7016296,1.55112991 49.2225164,6.86308262 49.2225164,12.1762767 C49.2225164,14.4641778 49.8990972,18.8177693 52.676108,21.7704404 C55.1526967,24.3531741 57.3282322,24.6473861 59.1295024,24.6473861 C63.2565191,24.6473861 66.5201379,22.6176963 68.0967227,20.3682786 C68.2835398,20.1088259 68.4331197,19.9989619 68.5454624,20.1088259 L69.1835438,20.6631112 Z" id="Shape" fill="#FFCD05"></path>
                        <g id="Group" transform="translate(109.187015, 36.621314)" fill="#FFFFFF">
                            <path d="M1.08303421,7.99834337 C0.530787745,7.34971161 0.423494147,6.91398004 0.423494147,6.07603471 C0.423494147,5.47457617 0.746637221,4.71980467 1.45414384,4.17731265 C2.07770899,3.70558047 2.66593037,3.61123403 3.0616544,3.61123403 C3.72119447,3.61123403 4.38073453,3.94206726 4.73922138,4.2958664 C5.27884507,4.83835842 5.55528387,5.45161026 5.55528387,6.21817506 C5.55528387,7.50302457 4.38073453,8.81270209 2.90513198,8.81270209 C2.32953338,8.81270209 1.58605185,8.5880086 1.08303421,7.99834337 Z M4.54861746,6.10024201 C4.54861746,4.7918059 3.57729482,3.96627457 2.9657213,3.96627457 C2.64131595,3.96627457 2.32953338,4.0370344 2.04236521,4.34303962 C1.57532249,4.81539251 1.40617729,5.2982973 1.40617729,6.19458845 C1.40617729,6.85439281 1.47875825,7.30315909 1.86249065,7.84503041 C2.13892945,8.23420946 2.4860558,8.45828225 3.04966277,8.45828225 C3.96039608,8.45828225 4.54861746,7.36150491 4.54861746,6.10024201 Z" id="Shape"></path>
                            <path d="M7.2580964,4.31945301 L6.43067341,4.31945301 C6.37134636,4.31945301 6.34673195,4.2958664 6.37134636,4.18972666 L6.41931291,3.83592752 C6.43067341,3.76578839 6.46601719,3.75337439 6.56258142,3.75337439 L7.2580964,3.75337439 L7.2580964,3.5293016 C7.2580964,2.36176443 7.59449339,1.59582033 8.06153612,1.07691493 C8.69772404,0.392903256 9.35726411,0.145864558 10.0275335,0.145864558 C10.5911405,0.145864558 11.1187725,0.358144042 11.1187725,0.805668919 C11.1187725,1.08870823 10.80699,1.31216032 10.6157549,1.31216032 C10.4964697,1.31216032 10.375291,1.28857371 10.2793579,1.24140049 C10.1720643,1.18305467 10.0401563,1.02912101 9.99218976,0.970154484 C9.83692961,0.781461609 9.66778441,0.698908477 9.44120557,0.698908477 C9.12942299,0.698908477 8.80501764,0.781461609 8.54120162,1.11105344 C8.09751103,1.66595946 8.12212544,2.69197697 8.12212544,3.51688759 L8.12212544,3.75275369 L9.57311358,3.75275369 C9.65705505,3.75275369 9.66778441,3.82351351 9.65705505,3.87006603 L9.59646572,4.25924509 C9.58384294,4.3064183 9.53587639,4.31883231 9.44120557,4.31883231 L8.12212544,4.31883231 L8.12212544,5.36781572 C8.12212544,6.75880498 8.12212544,7.843789 8.13348594,7.97351536 C8.15810035,8.17400154 8.19407527,8.28014128 8.44526852,8.28014128 L9.12942299,8.28014128 C9.23671659,8.28014128 9.26133101,8.30372789 9.26133101,8.37448771 L9.26133101,8.56318059 C9.26133101,8.65690633 9.23671659,8.70470025 9.17738954,8.70470025 C9.10480858,8.70470025 8.66111799,8.66932033 7.7377619,8.66932033 C7.07822184,8.66932033 6.46664832,8.70470025 6.3719775,8.70470025 C6.29939654,8.70470025 6.2760444,8.68173434 6.2760444,8.62214711 L6.2760444,8.36269441 C6.2760444,8.30372789 6.29939654,8.28014128 6.39532964,8.28014128 L6.97092824,8.28014128 C7.19876935,8.28014128 7.24736704,8.13800092 7.2580964,7.86737561 L7.2580964,5.65085504 L7.2580964,4.31945301 L7.2580964,4.31945301 Z" id="Shape"></path>
                            <path d="M15.5922845,4.15496744 C15.6882176,4.15496744 16.9719539,4.10779423 17.1145913,4.08358692 C17.4623488,4.02524109 17.5582819,3.93089466 17.6668378,3.56530221 C17.7028127,3.44736916 17.7507792,3.21150307 17.7627709,2.98743028 C17.7627709,2.92784306 17.7987458,2.90487715 17.8467123,2.90487715 L18.1465033,2.91667045 C18.2058303,2.91667045 18.2304447,2.96322297 18.217822,3.01039619 C18.1818471,3.21088237 18.1818471,4.17793335 18.1818471,4.35483292 C18.1818471,4.76759859 18.2298136,5.33367721 18.2531657,5.58195731 C18.2531657,5.64030313 18.2298136,5.66451044 18.1818471,5.67568305 L17.918031,5.71168366 C17.8574417,5.72285627 17.8340896,5.68747635 17.8220979,5.60492322 C17.7987458,5.45223096 17.7261648,5.18036425 17.6901899,5.0506379 C17.6188712,4.8035992 17.4869632,4.62607893 17.1751806,4.59069902 C16.6115737,4.53173249 15.7847818,4.53173249 15.5922845,4.53173249 L15.5922845,5.26291738 C15.5922845,5.89913514 15.6168989,7.04370639 15.6168989,7.27895178 C15.6282594,7.89220362 15.9274192,8.12806972 16.2997911,8.19882955 C16.5389927,8.24600276 16.8880125,8.28138268 17.1871723,8.28138268 C17.390399,8.28138268 17.9893497,8.26896867 18.2424364,8.24600276 C18.4456631,8.22241615 18.9732951,8.0926898 19.2850777,7.8332371 C19.4296085,7.71530405 20.0998779,6.86618612 20.2677608,6.59494011 C20.304998,6.53597359 20.3403418,6.48880037 20.4122916,6.52480098 L20.604789,6.63032002 C20.664116,6.66632064 20.664116,6.70170055 20.6281411,6.79604699 L19.9932155,8.52904208 C19.9572405,8.63580252 19.8726679,8.70594165 19.7293994,8.70594165 C19.6688101,8.70594165 19.4049941,8.69414834 18.6867581,8.68297574 C17.9666287,8.68297574 16.8034399,8.67056173 14.9333756,8.67056173 C14.489685,8.67056173 14.1545503,8.68297574 13.9140864,8.68297574 C13.6628931,8.69476904 13.5070018,8.70594165 13.3990771,8.70594165 C13.3277584,8.70594165 13.2917835,8.68297574 13.2917835,8.62338851 L13.2917835,8.30496929 C13.2917835,8.25779607 13.3277584,8.24600276 13.4110687,8.24600276 L13.8907342,8.24600276 C14.4417184,8.24600276 14.489685,8.16344963 14.489685,7.72709736 L14.489685,4.93270485 L14.489685,3.776961 C14.489685,2.79811671 14.4663328,1.32395362 14.4537101,1.20602058 C14.4057435,0.829255528 14.2858271,0.746702396 13.8421365,0.746702396 L13.4104376,0.746702396 C13.3498483,0.746702396 13.3145045,0.734288391 13.3145045,0.664149263 L13.3145045,0.345109337 C13.3145045,0.309729423 13.3378566,0.286142813 13.398446,0.286142813 C13.662262,0.286142813 14.0826004,0.321522727 14.8727862,0.321522727 L15.4004183,0.321522727 C16.5875904,0.321522727 17.7747625,0.309729423 18.9619346,0.309729423 C19.154432,0.309729423 19.3822731,0.286142813 19.4416001,0.286142813 C19.5021895,0.286142813 19.5255416,0.309729423 19.5375332,0.345109337 C19.5854998,0.510215602 20.1131318,2.12589834 20.1491067,2.24383139 C20.1617295,2.29100461 20.1617295,2.32638452 20.1131318,2.34997113 L19.9332573,2.44431757 C19.8972824,2.46790418 19.8493158,2.43252426 19.8373242,2.40831695 C19.813972,2.36114373 18.9265909,1.24077979 18.6394227,1.06388022 C18.3869672,0.898773956 18.0512013,0.757875 17.7274271,0.746081695 L15.5935468,0.698908477 L15.5935468,4.15496744 L15.5922845,4.15496744 Z" id="Shape"></path>
                            <path d="M25.3648379,1.48968059 C25.3648379,1.04153501 25.2808965,0.900015356 24.6093648,0.794496314 C24.5380461,0.78208231 24.5254233,0.7584957 24.5254233,0.711322482 L24.5254233,0.510836302 C24.5254233,0.463663084 24.5500377,0.440697174 24.6213564,0.42828317 C25.0883991,0.333936732 25.7125954,0.22841769 25.9404365,0.181244472 C26.0489924,0.168830467 26.1329339,0.145864558 26.2168753,0.145864558 C26.2762024,0.145864558 26.288194,0.22841769 26.2762024,0.358144042 C26.2402275,0.947188575 26.2282358,2.65721775 26.2282358,4.15496744 L26.2282358,6.76004638 C26.2282358,7.19639865 26.2528503,7.71530405 26.3487834,7.8332371 C26.456077,7.95117015 26.7072702,8.02192998 26.8764154,8.03372328 C27.0442983,8.04551658 27.0922649,8.05668919 27.115617,8.11627641 L27.1402314,8.21062285 C27.1515919,8.28076198 27.1276087,8.31614189 27.05629,8.3403492 L25.7006038,8.78787408 C25.6292851,8.81208139 25.5686958,8.77608077 25.5453436,8.69414834 L25.3900835,8.17524294 C25.0057199,8.55262869 24.2388863,8.81208139 23.6273128,8.81208139 C23.2315887,8.81208139 22.7752754,8.8350473 22.2122995,8.26896867 C21.600726,7.67992414 21.4568264,7.14860473 21.4568264,6.35907402 C21.4568264,5.62788913 21.7332652,4.90849754 22.296241,4.35483292 C22.7632837,3.85951413 23.4120944,3.61185473 24.0823639,3.61185473 C24.574021,3.61185473 25.0057199,3.68323526 25.3654691,3.7887543 L25.3654691,1.48968059 L25.3648379,1.48968059 Z M25.3648379,5.22753747 C25.3648379,5.0624312 25.3648379,4.83835842 25.2575443,4.64904484 C25.0883991,4.33062561 24.7052979,4.01282709 23.9977913,4.01282709 C23.6266816,4.01282709 23.218966,4.11896683 22.9065522,4.43738606 C22.4395095,4.93332555 22.3555681,5.55775 22.3555681,6.00589558 C22.3555681,7.3379183 23.2896535,8.30496929 23.9864308,8.30496929 C24.6567002,8.30496929 25.1723406,7.96296345 25.2928881,7.65633753 C25.3522152,7.47943796 25.3642068,7.38509152 25.3642068,7.25536517 L25.3642068,5.22753747 L25.3648379,5.22753747 Z" id="Shape"></path>
                            <path d="M32.2606607,6.27714158 C32.2606607,6.84322021 32.2606607,7.42109214 32.2840128,7.66813084 C32.3199877,8.03434398 32.4518957,8.0815172 32.5957954,8.0815172 C32.6671141,8.0815172 32.8469886,8.0815172 32.9915194,8.04551658 C33.0874525,8.02192998 33.1234274,8.04551658 33.1360502,8.0926898 L33.1720251,8.24600276 C33.1846479,8.31614189 33.1594023,8.3403492 33.1114358,8.35214251 L31.852945,8.76490817 C31.7816263,8.78787408 31.7084142,8.81208139 31.6124811,8.81208139 C31.5645145,8.81208139 31.5178103,8.78787408 31.5051875,8.66994103 L31.4092544,7.98592936 L31.3859023,7.98592936 C31.0495053,8.44524754 30.3539903,8.81146069 29.7550395,8.81146069 C29.4186426,8.81146069 29.0229185,8.77546007 28.6271945,8.26834797 C28.1367996,7.64392353 28.1601518,7.25474447 28.1601518,5.95748096 L28.1601518,4.58945762 C28.147529,4.25924509 27.9802772,4.17669195 27.7051007,4.14131204 C27.5006117,4.12889803 27.4412846,4.11772543 27.4412846,4.05875891 L27.4412846,3.84834152 C27.4412846,3.7775817 27.4646368,3.75399509 27.5731927,3.75399509 L28.6391861,3.75399509 C28.7117671,3.75399509 28.7584714,3.74158108 28.807069,3.73040848 C28.8550356,3.73040848 28.9030021,3.71861517 28.9389771,3.71861517 C29.0229185,3.71861517 29.0835078,3.7775817 29.0708851,3.86013483 C29.0595246,3.96627457 29.0229185,4.51993919 29.0229185,5.21636486 L29.0229185,6.0543102 C29.0229185,6.52604238 28.9036333,7.28019318 29.2867345,7.8233059 C29.5877878,8.24786486 29.9229225,8.27083077 30.2466967,8.27083077 C30.5698398,8.27083077 31.0488741,7.96482555 31.2773464,7.68178624 C31.3253129,7.62219902 31.3966316,7.46950676 31.3966316,7.36274631 L31.3966316,4.5565605 C31.3732795,4.22634797 31.1807821,4.16738145 30.8816223,4.14379484 C30.6783956,4.14379484 30.6178063,4.12020823 30.6178063,4.06124171 L30.6178063,3.86075553 C30.6178063,3.76702979 30.6424207,3.75461579 30.7623371,3.75461579 L31.8769283,3.75461579 C31.9608697,3.75461579 32.021459,3.74220178 32.0814172,3.73102918 C32.1407443,3.73102918 32.1887108,3.71923587 32.2246857,3.71923587 C32.2972667,3.71923587 32.3452333,3.7782024 32.3332416,3.83654822 C32.3206188,3.94330866 32.2619229,4.24931388 32.2619229,5.40505774 L32.2619229,6.27714158 L32.2606607,6.27714158 Z" id="Shape"></path>
                            <path d="M34.6469965,5.8172027 C34.6469965,6.45404115 34.9341647,7.17405344 35.25857,7.60978501 C35.6542941,8.11689711 36.1573117,8.21186425 36.5650274,8.21186425 C37.1639781,8.21186425 37.4757607,8.0821379 37.8841075,7.70475215 C37.9074597,7.68116554 37.9446968,7.66875154 37.9800406,7.70475215 L38.0993259,7.8226852 C38.1472924,7.86923771 38.1599152,7.90523833 38.0993259,7.97537746 C37.7515684,8.36455651 36.9834724,8.81332279 36.1686722,8.81332279 C35.5337466,8.81332279 34.8622149,8.67118243 34.3099684,7.98779146 C33.8675401,7.40929883 33.7709758,6.91460074 33.7709758,6.38390203 C33.7709758,5.00408538 34.753659,3.61247543 36.335924,3.61247543 C37.5836854,3.61247543 37.9667867,4.32069441 37.9667867,4.56773311 C37.9541639,4.83959982 37.7742894,4.98049877 37.5230961,4.98049877 C37.2466573,4.98049877 37.0434306,4.82718581 36.8635561,4.50876658 C36.59974,4.02586179 36.3485468,3.98986118 36.0613786,3.98986118 C35.3778553,3.98924048 34.6469965,4.60249232 34.6469965,5.8172027 Z" id="Shape"></path>
                            <path d="M42.405586,7.26715848 C42.405586,7.93937684 42.5488545,8.15165633 42.7640729,8.15165633 C42.9565702,8.15165633 43.123822,8.05730989 43.1844113,7.97475676 C43.2323779,7.91579023 43.25573,7.89220362 43.3036965,7.92758354 L43.4229818,8.02192998 C43.4589567,8.05730989 43.4835711,8.11627641 43.4116213,8.23420946 C43.3156882,8.41110903 43.0872159,8.81270209 42.4762736,8.81270209 C42.0445746,8.81270209 41.732792,8.50607617 41.6242362,8.02255068 L41.600884,8.02255068 C41.3496908,8.31738329 40.9539667,8.56504269 40.4137119,8.74132156 C40.1858708,8.81270209 39.9700213,8.81270209 39.7062053,8.81270209 C39.4190371,8.81270209 38.9860759,8.57621529 38.9860759,7.8338578 C38.9860759,7.29136579 39.2385314,6.8196336 40.1852396,6.40686794 C40.7248633,6.17100184 41.3490596,5.88796253 41.5396635,5.72223557 L41.5396635,4.96808477 C41.5163114,4.76759859 41.5036886,4.46097267 41.3717806,4.30765971 C41.2398726,4.15496744 40.9994087,4.048207 40.6516512,4.048207 C40.4124496,4.048207 40.0400777,4.14255344 39.8728259,4.2958664 C39.7055741,4.44917936 39.8134989,4.62607893 39.8134989,4.83835842 C39.8134989,5.25050338 39.6689681,5.50995608 39.177311,5.50995608 C38.9848136,5.50995608 38.8901428,5.40443704 38.8901428,5.13319103 C38.8901428,4.75642598 39.2252775,4.30765971 39.7175658,4.02524109 C40.2205834,3.72978778 40.6409219,3.61185473 41.1792833,3.61185473 C41.7441525,3.61185473 41.9707314,3.7775817 42.1392454,3.93089466 C42.3904387,4.17793335 42.4030615,4.44980006 42.4030615,4.76821929 L42.4030615,6.5725949 L42.4030615,7.26715848 L42.405586,7.26715848 Z M41.5289342,6.07665541 C41.0972352,6.39569533 39.9226859,6.63094072 39.9226859,7.60978501 C39.9226859,8.04613729 40.1865019,8.25841677 40.5462511,8.25841677 C40.8940085,8.25841677 41.5289342,7.84565111 41.5289342,7.52723188 L41.5289342,6.07665541 Z" id="Shape"></path>
                            <path d="M45.5227806,7.19639865 C45.5227806,8.0815172 45.9304963,8.23420946 46.1463458,8.23420946 C46.4215223,8.23420946 46.7686487,8.18703624 46.9377939,8.0815172 C46.9971209,8.04551658 47.0450875,8.05730989 47.0810624,8.10448311 L47.1416517,8.21124355 C47.1776266,8.25779607 47.1542745,8.30496929 47.1182996,8.3409699 C46.997752,8.45828225 46.5054638,8.81270209 45.7872278,8.81270209 C45.1990064,8.81270209 44.6234078,8.25779607 44.6234078,7.81027119 C44.6234078,7.3267457 44.660645,6.28893489 44.660645,6.12382862 L44.660645,5.86437592 C44.660645,5.65209644 44.6720055,4.86194502 44.6839971,4.36724693 L43.9531384,4.36724693 C43.8445825,4.36724693 43.7732638,4.32007371 43.7732638,4.22510657 C43.7732638,4.13013943 43.8445825,4.09538022 43.9891133,4.01282709 C44.2762815,3.84772082 45.1996376,2.92784306 45.35616,2.5268707 C45.3921349,2.43314496 45.4520931,2.40893765 45.5240429,2.40893765 C45.619976,2.40893765 45.6433281,2.49149079 45.6433281,2.58583722 L45.5840011,3.75337439 L47.2508387,3.75337439 C47.3221574,3.75337439 47.3581323,3.81296161 47.3347802,3.85951413 L47.2142327,4.27227979 C47.2028722,4.33124631 47.1782577,4.36662623 47.1069391,4.36662623 L45.5600178,4.36662623 C45.5366657,4.90849754 45.5240429,5.47457617 45.5240429,6.01706818 L45.5240429,7.19639865 L45.5227806,7.19639865 Z" id="Shape"></path>
                            <path d="M48.5446733,5.23933077 C48.5446733,4.83835842 48.4733546,4.62669963 47.8744039,4.53173249 C47.7892001,4.51931849 47.765848,4.49635258 47.765848,4.44917936 L47.765848,4.34241892 C47.765848,4.307039 47.7892001,4.2840731 47.8497894,4.25986579 C48.2328907,4.11834613 48.6892041,3.93027396 49.1455174,3.68261456 C49.2401883,3.63544134 49.3007776,3.61123403 49.3720963,3.61123403 C49.4326856,3.61123403 49.4446772,3.67082125 49.4326856,3.75337439 C49.4093335,3.95386057 49.4093335,4.69683876 49.4093335,5.67568305 L49.4093335,6.96115326 C49.4093335,7.42047144 49.4093335,7.84503041 49.420694,7.97475676 C49.4453084,8.19882955 49.4812833,8.28138268 49.6131913,8.28138268 L50.1641755,8.28138268 C50.2601086,8.28138268 50.284723,8.31676259 50.284723,8.38752242 L50.284723,8.5880086 C50.284723,8.67056173 50.2601086,8.70532095 50.1761671,8.70532095 C50.080234,8.70532095 49.5292498,8.66994103 49.0249699,8.66994103 C48.3294549,8.66994103 47.8624122,8.70532095 47.7305042,8.70532095 C47.6699149,8.70532095 47.6345711,8.68235504 47.6345711,8.61097451 L47.6345711,8.37572912 C47.6345711,8.30496929 47.670546,8.28138268 47.7538563,8.28138268 L48.3420777,8.28138268 C48.4739857,8.28138268 48.5219523,8.23420946 48.5345751,8.04551658 C48.5459356,7.69233814 48.5459356,7.326125 48.5459356,6.97232586 L48.5459356,5.23933077 L48.5446733,5.23933077 Z M48.0056807,1.64299355 C48.0056807,1.34816093 48.256874,1.02974171 48.7365395,1.02974171 C49.1556157,1.02974171 49.3601046,1.34878163 49.3601046,1.60823434 C49.3601046,1.91486026 49.1442552,2.25686609 48.6645897,2.25686609 C48.4014048,2.25624539 48.0056807,2.0197586 48.0056807,1.64299355 Z" id="Shape"></path>
                            <path d="M51.6025409,7.99834337 C51.0515567,7.34971161 50.9430008,6.91398004 50.9430008,6.07603471 C50.9430008,5.47457617 51.2674061,4.71980467 51.9749128,4.17731265 C52.5972156,3.70558047 53.185437,3.61123403 53.581161,3.61123403 C54.2407011,3.61123403 54.9002412,3.94206726 55.2599903,4.2958664 C55.7989829,4.83835842 56.0747905,5.45161026 56.0747905,6.21817506 C56.0747905,7.50302457 54.9002412,8.81270209 53.4246386,8.81270209 C52.8503023,8.81270209 52.1068208,8.5880086 51.6025409,7.99834337 Z M55.067493,6.10024201 C55.067493,4.7918059 54.0961703,3.96627457 53.4845968,3.96627457 C53.1601915,3.96627457 52.8496712,4.0370344 52.5612407,4.34303962 C52.094198,4.81539251 51.9263151,5.2982973 51.9263151,6.19458845 C51.9263151,6.85439281 51.9976338,7.30315909 52.3813662,7.84503041 C52.657805,8.23420946 53.0049313,8.45828225 53.5685383,8.45828225 C54.4799027,8.45828225 55.067493,7.36150491 55.067493,6.10024201 Z" id="Shape"></path>
                            <path d="M61.8067933,8.03434398 C61.8067933,8.22303686 61.9140869,8.28138268 62.0706093,8.28138268 L62.4537105,8.28138268 C62.5622664,8.28138268 62.5856186,8.31676259 62.5856186,8.38752242 L62.5856186,8.57621529 C62.5856186,8.65876843 62.5622664,8.70594165 62.4896855,8.70594165 C62.405744,8.70594165 62.0346344,8.67056173 61.3504799,8.67056173 C60.7389064,8.67056173 60.3558051,8.70594165 60.2718637,8.70594165 C60.200545,8.70594165 60.1759306,8.67056173 60.1759306,8.57621529 L60.1759306,8.38752242 C60.1759306,8.30496929 60.2119055,8.28138268 60.332453,8.28138268 L60.6802105,8.28138268 C60.8121185,8.28138268 60.9067893,8.22241615 60.9194121,8.00951597 C60.9320349,7.70351075 60.9440265,7.3255043 60.9440265,7.01887838 L60.9440265,5.46278286 C60.9440265,4.99042998 60.9440265,4.64842414 60.5950067,4.40138544 C60.3078386,4.18910596 60.0206704,4.18910596 59.7196172,4.18910596 C59.5283821,4.18910596 59.1080437,4.27165909 58.7495568,4.64842414 C58.5090929,4.90787684 58.473118,5.22691677 58.473118,5.45098956 L58.473118,7.89158292 C58.473118,8.21062285 58.5090929,8.28076198 58.7602862,8.28076198 L59.0600771,8.28076198 C59.1560102,8.28076198 59.1806246,8.31614189 59.1806246,8.39807432 L59.1806246,8.5991812 C59.1806246,8.66932033 59.1560102,8.70470025 59.0966832,8.70470025 C59.0127417,8.70470025 58.6889675,8.66932033 58.0527796,8.66932033 C57.4412061,8.66932033 57.0581048,8.70470025 56.9867861,8.70470025 C56.9261968,8.70470025 56.9028446,8.66932033 56.9028446,8.5991812 L56.9028446,8.38628102 C56.9028446,8.31552119 56.9261968,8.28014128 57.0221299,8.28014128 L57.3698874,8.28014128 C57.5251475,8.28014128 57.6103513,8.24476136 57.6103513,8.04427518 L57.6103513,5.28526259 C57.6103513,4.93208415 57.4178539,4.73035657 57.1186941,4.58945762 L57.022761,4.5429051 C56.9388196,4.50690448 56.9268279,4.47152457 56.9268279,4.43614466 L56.9268279,4.37717813 C56.9268279,4.31821161 56.9747945,4.2834524 57.0353838,4.25924509 L58.0660335,3.69378716 C58.1619666,3.64661394 58.2339164,3.61061333 58.281883,3.61061333 C58.3424723,3.61061333 58.3658244,3.65778655 58.3778161,3.75275369 L58.4617575,4.47152457 L58.4863719,4.47152457 C58.8341294,4.0469656 59.5290133,3.61061333 60.1285951,3.61061333 C60.4883443,3.61061333 60.8594539,3.68199386 61.1478843,3.87006603 C61.5076335,4.10655283 61.8074244,4.69559736 61.8074244,4.99042998 L61.8074244,8.03434398 L61.8067933,8.03434398 Z" id="Shape"></path>
                        </g>
                        <path d="M75.3459832,44.855524 C75.2020835,44.7493842 75.1301337,44.7140043 75.0701755,44.7140043 C74.9982257,44.7140043 74.9502591,44.7965574 74.8783093,44.9144905 C74.8063595,45.0442168 74.7464013,45.0560101 74.6624598,45.0560101 C74.5898789,45.0560101 74.5305518,44.9970436 74.553904,44.8673173 C74.6018705,44.5724846 74.7217869,43.074735 74.7577618,42.7327291 C74.7697534,42.66259 74.7943678,42.66259 74.8417033,42.66259 L75.0215778,42.675004 C75.0695444,42.675004 75.0935276,42.6979699 75.0935276,42.7687297 C75.1055193,43.1461155 75.1295026,43.5352945 75.5252266,44.1367531 C75.8849757,44.6910384 76.5445158,45.0088369 77.2040558,45.0088369 C77.922923,45.0088369 78.8342874,44.5731053 78.8342874,43.5110872 C78.8342874,42.2969975 77.9475374,41.848852 76.9882064,41.5186394 C76.6158345,41.3889131 75.7530677,41.0934598 75.2374273,40.5640025 C74.8417033,40.1748234 74.6378454,39.6199174 74.6378454,38.84218 C74.6378454,38.2525147 75.0102173,37.6752635 75.3813269,37.332637 C75.813657,36.9316646 76.4132389,36.7671791 77.0601562,36.7671791 C77.7436795,36.7671791 78.2713116,36.9670445 78.4751694,37.0620117 C78.582463,37.1209782 78.6430524,37.1091849 78.7023794,37.0495977 L78.8582707,36.908078 C78.91886,36.8609048 78.9542038,36.8373182 79.014162,36.8373182 C79.0741202,36.8373182 79.1094639,36.9316646 79.1094639,37.0378044 C79.1094639,37.45057 79.2659864,38.6534871 79.277978,38.9129398 C79.277978,38.9719063 79.2659864,38.9954929 79.2180198,39.0072862 L79.073489,39.0426662 C79.0375141,39.0550802 79.0135308,39.0426662 79.0021703,39.0072862 C78.9062372,38.6652804 78.750346,38.2047208 78.2586888,37.6982294 C77.9342835,37.3562236 77.5152073,37.191738 76.9516003,37.191738 C75.8849757,37.191738 75.5006122,37.9700961 75.5006122,38.5715547 C75.5006122,38.9011465 75.572562,39.2903256 75.8723529,39.5969515 C76.2201104,39.9389573 76.8916421,40.19841 77.2393996,40.3051705 C78.0668226,40.5646232 78.7383543,40.7644886 79.1700533,41.283394 C79.4818358,41.6489865 79.6976853,42.1089254 79.6976853,42.8872835 C79.6976853,44.2782727 78.8342874,45.4693965 77.2520224,45.4693965 C76.41387,45.4687758 75.8256487,45.2217371 75.3459832,44.855524 Z" id="Shape" fill="#FFFFFF"></path>
                        <path d="M81.4787591,42.4385172 C81.4787591,43.0753557 81.7665584,43.7953679 82.0903326,44.2310995 C82.4860566,44.7382116 82.9903365,44.8331787 83.3974211,44.8331787 C83.9970029,44.8331787 84.3087855,44.7034524 84.7158701,44.3260666 C84.7404845,44.30248 84.7764594,44.290066 84.8118032,44.3260666 L84.9317195,44.4439997 C84.9790549,44.4905522 84.9916777,44.5265528 84.9317195,44.596692 C84.5833309,44.985871 83.8164972,45.4346373 83.0010659,45.4346373 C82.3655091,45.4346373 81.6939774,45.2924969 81.1429932,44.609106 C80.6993026,44.0306133 80.6033695,43.5359152 80.6033695,43.0052165 C80.6033695,41.6253999 81.5873149,40.2337899 83.1689488,40.2337899 C84.4160791,40.2337899 84.7998115,40.9420089 84.7998115,41.1890476 C84.7878199,41.4609143 84.6079453,41.6018133 84.3561209,41.6018133 C84.0803133,41.6018133 83.8764554,41.4485003 83.6965809,41.1300811 C83.4327648,40.6471763 83.1809404,40.6111757 82.8937723,40.6111757 C82.2102489,40.610555 81.4787591,41.2238068 81.4787591,42.4385172 Z" id="Shape" fill="#FFFFFF"></path>
                        <path d="M86.3227495,38.8657666 C86.3227495,38.1469957 86.1788498,38.0172693 85.7471509,37.875129 L85.5439242,37.8049899 C85.4719744,37.7807826 85.4599827,37.7689893 85.4599827,37.7336093 L85.4599827,37.6280903 C85.4599827,37.5809171 85.4959576,37.5685031 85.6038824,37.5101572 L86.8510127,36.8615255 C86.9469458,36.8143523 87.0308872,36.7677998 87.1274515,36.7677998 C87.1987702,36.7677998 87.2467367,36.8615255 87.2233846,37.0626324 C87.1987702,37.2624979 87.1861474,39.6571594 87.1861474,40.2462039 L87.1861474,41.0009754 L87.2467367,41.0009754 C87.6658129,40.5056566 88.3625901,40.2344106 88.8902222,40.2344106 C89.3932398,40.2344106 89.7409973,40.3883443 90.076132,40.7061428 C90.6157557,41.2020823 90.5924036,41.8035408 90.5924036,42.4397586 L90.5924036,43.111977 C90.5924036,43.7717813 90.6157557,44.5029662 90.6157557,44.7276597 C90.6157557,44.8698001 90.8082531,44.9045593 91.0594463,44.9045593 L91.262673,44.9045593 C91.3586061,44.9045593 91.394581,44.9281459 91.394581,45.010699 L91.394581,45.1875986 C91.394581,45.2813243 91.3712289,45.3291182 91.2999102,45.3291182 C91.2159687,45.3291182 90.8316052,45.2937383 90.148713,45.2937383 C89.5604916,45.2937383 89.1294238,45.3291182 89.0221302,45.3291182 C88.9369265,45.3291182 88.9135743,45.2937383 88.9135743,45.1993919 L88.9135743,44.9995264 C88.9135743,44.9399392 88.9261971,44.90518 88.9975158,44.90518 L89.2739546,44.90518 C89.4771813,44.90518 89.7176452,44.8815934 89.7290057,44.6811072 C89.7416285,44.5160009 89.7290057,43.8915765 89.7290057,43.51357 L89.7290057,42.558933 C89.7290057,41.8991287 89.6823014,41.4273965 89.3332816,41.1083566 C89.09408,40.8842838 88.8428868,40.7787647 88.5418336,40.7787647 C88.1940761,40.7787647 87.7630083,40.8960771 87.4272424,41.2734628 C87.3186865,41.4031892 87.1867785,41.639676 87.1867785,41.8519555 L87.1867785,44.4222752 C87.1867785,44.7996609 87.2240157,44.9058007 87.4505945,44.9058007 L87.8103437,44.9058007 C87.8942851,44.9058007 87.9422517,44.9293873 87.9422517,45.0001471 L87.9422517,45.2000126 C87.9422517,45.2825657 87.9188996,45.3297389 87.8463186,45.3297389 C87.7516478,45.3297389 87.2593595,45.294359 86.707113,45.294359 C86.1075311,45.294359 85.6524801,45.3297389 85.5445553,45.3297389 C85.4965888,45.3297389 85.4606139,45.294359 85.4606139,45.2124266 L85.4606139,45.0001471 C85.4606139,44.917594 85.5085804,44.9058007 85.6404884,44.9058007 L85.8916817,44.9058007 C86.084179,44.9058007 86.2634224,44.8586275 86.2874057,44.7171078 C86.3233806,44.493035 86.3233806,43.1963922 86.3233806,42.4292067 L86.3233806,38.8657666 L86.3227495,38.8657666 Z" id="Shape" fill="#FFFFFF"></path>
                        <path d="M92.6915713,44.6196579 C92.1393248,43.9710261 92.0320312,43.5352945 92.0320312,42.6973492 C92.0320312,42.0958907 92.3551743,41.3411192 93.0626809,40.7986271 C93.6862461,40.326895 94.2732052,40.2325485 94.6689292,40.2325485 C95.3284693,40.2325485 95.9880093,40.5633818 96.3477585,40.9171809 C96.8873821,41.4596729 97.163821,42.0729248 97.163821,42.8394896 C97.163821,44.1243391 95.9880093,45.4340166 94.5136691,45.4340166 C93.9374393,45.4340166 93.1945889,45.2093231 92.6915713,44.6196579 Z M96.1552611,42.7215565 C96.1552611,41.4131204 95.1852008,40.5875891 94.5736272,40.5875891 C94.2492219,40.5875891 93.9374393,40.6583489 93.6502712,40.9643541 C93.1819662,41.436707 93.0140832,41.9196118 93.0140832,42.8159029 C93.0140832,43.4757073 93.0854019,43.9244736 93.4703966,44.4663449 C93.7455731,44.855524 94.0939617,45.0795967 94.6575687,45.0795967 C95.568302,45.0795967 96.1552611,43.9828194 96.1552611,42.7215565 Z" id="Shape" fill="#FFFFFF"></path>
                        <path d="M98.6627756,44.6196579 C98.1105292,43.9710261 98.0032356,43.5352945 98.0032356,42.6973492 C98.0032356,42.0958907 98.3263787,41.3411192 99.0338853,40.7986271 C99.6574504,40.326895 100.245672,40.2325485 100.641396,40.2325485 C101.300936,40.2325485 101.960476,40.5633818 102.318963,40.9171809 C102.858587,41.4596729 103.135025,42.0729248 103.135025,42.8394896 C103.135025,44.1243391 101.960476,45.4340166 100.484873,45.4340166 C99.9086437,45.4340166 99.1657933,45.2093231 98.6627756,44.6196579 Z M102.127728,42.7215565 C102.127728,41.4131204 101.156405,40.5875891 100.544832,40.5875891 C100.220426,40.5875891 99.9086437,40.6583489 99.6214755,40.9643541 C99.1544328,41.436707 98.9852876,41.9196118 98.9852876,42.8159029 C98.9852876,43.4757073 99.0578685,43.9244736 99.4416009,44.4663449 C99.7180397,44.855524 100.065166,45.0795967 100.628773,45.0795967 C101.539506,45.0795967 102.127728,43.9828194 102.127728,42.7215565 Z" id="Shape" fill="#FFFFFF"></path>
                        <path d="M105.569328,41.7780921 C105.569328,42.3907233 105.569328,44.1715123 105.58195,44.5371047 C105.593311,44.7375909 105.641278,44.9026972 105.893733,44.9026972 L106.432726,44.9026972 C106.541282,44.9026972 106.564634,44.9380771 106.564634,45.0088369 L106.564634,45.2093231 C106.564634,45.2794622 106.541282,45.3266354 106.493315,45.3266354 C106.409373,45.3266354 105.881741,45.2912555 105.138891,45.2912555 C104.370795,45.2912555 103.89113,45.3266354 103.784467,45.3266354 C103.723878,45.3266354 103.700526,45.2794622 103.700526,45.2093231 L103.700526,45.0088369 C103.700526,44.9262838 103.723878,44.9026972 103.855786,44.9026972 L104.431384,44.9026972 C104.563292,44.9026972 104.682578,44.820144 104.6952,44.6078646 C104.707823,44.2416514 104.707823,42.2138237 104.707823,41.529812 L104.707823,40.7874545 C104.707823,39.9501299 104.6952,38.8775599 104.670586,38.570934 C104.647234,38.1699616 104.454737,37.9812687 104.071635,37.862715 L103.832434,37.7801619 C103.771844,37.7571959 103.759853,37.7447819 103.759853,37.7211953 L103.759853,37.6274696 C103.759853,37.591469 103.795828,37.5678824 103.868409,37.5449165 C104.287485,37.3556029 104.82774,37.1439441 105.27143,36.8602841 C105.378724,36.7895243 105.451305,36.7665584 105.522623,36.7665584 C105.606565,36.7665584 105.631179,36.8249042 105.618557,36.9788378 C105.605934,37.6274696 105.57059,40.0798563 105.57059,40.728488 L105.57059,41.7780921 L105.569328,41.7780921 Z" id="Shape" fill="#FFFFFF"></path>
                    </g>
                </g>
            </g>
        </g>
    </g>
</svg>