<?xml version="1.0" encoding="UTF-8"?>
<svg width="19px" height="19px" viewBox="0 0 19 19" version="1.1" xmlns="http://www.w3.org/2000/svg" xmlns:xlink="http://www.w3.org/1999/xlink">
    <!-- Generator: Sketch 44 (41411) - http://www.bohemiancoding.com/sketch -->
    <title>block-1 featured-content/feature-2/icon-data</title>
    <desc>Created with Sketch.</desc>
    <defs></defs>
    <g id="Desktop" stroke="none" stroke-width="1" fill="none" fill-rule="evenodd">
        <g id="RISE-Home-Page" transform="translate(-832.000000, -1101.000000)" fill-rule="nonzero" fill="#526276">
            <g id="block-featured-content" transform="translate(144.000000, 1036.000000)">
                <g id="quadrant" transform="translate(570.000000, 0.000000)">
                    <g id="row-top">
                        <g id="feature-2">
                            <path d="M125.807384,80.6147673 C121.476726,80.6147673 118,77.1075441 118,72.8073836 C118,68.4767255 121.507223,65 125.807384,65 C130.138042,65 133.614767,68.5072231 133.614767,72.8073836 L125.807384,72.8073836 L125.807384,80.6147673 L125.807384,80.6147673 Z M137,75.3386838 C137,80.0963082 133.126806,84 128.338684,84 L127.484751,84 L127.484751,74.4847512 L136.969502,74.4847512 L136.969502,75.3386838 L137,75.3386838 Z M129.955056,82.1091493 L129.162119,81.3162119 L129.162119,82.2616372 C129.436597,82.2311396 129.711075,82.1701445 129.955056,82.1091493 Z M131.357945,81.6211878 L129.192616,79.4558587 L129.192616,80.4012841 L130.717496,81.9261637 C130.900482,81.8346709 131.144462,81.7431782 131.357945,81.6211878 Z M132.516854,80.9197432 L129.162119,77.565008 L129.162119,78.5104334 L131.9374,81.2857143 C132.150883,81.1942215 132.333868,81.0417335 132.516854,80.9197432 Z M133.492777,80.0048154 L129.65008,76.1621188 L129.162119,76.1621188 L129.162119,76.6195827 L133.035313,80.4927769 C133.187801,80.3402889 133.340289,80.187801 133.492777,80.0048154 Z M134.316212,78.9373997 L131.540931,76.1621188 L130.595506,76.1621188 L133.919743,79.4863563 C134.072231,79.3338684 134.194222,79.1508828 134.316212,78.9373997 Z M134.895666,77.6565008 L133.401284,76.1621188 L132.455859,76.1621188 L134.621188,78.3274478 C134.743178,78.1139647 134.834671,77.9004815 134.895666,77.6565008 Z M135.261637,76.1621188 L134.346709,76.1621188 L135.109149,76.9245586 C135.170144,76.6805778 135.23114,76.4365971 135.261637,76.1621188 Z" id="block-1-featured-content/feature-2/icon-data" transform="translate(127.500000, 74.500000) rotate(-90.000000) translate(-127.500000, -74.500000) "></path>
                        </g>
                    </g>
                </g>
            </g>
        </g>
    </g>
</svg>