<?xml version="1.0" encoding="UTF-8"?>
<svg width="21px" height="21px" viewBox="0 0 21 21" version="1.1" xmlns="http://www.w3.org/2000/svg" xmlns:xlink="http://www.w3.org/1999/xlink">
    <!-- Generator: Sketch 44 (41411) - http://www.bohemiancoding.com/sketch -->
    <title>block-1 featured-content/feature-3/icon-spotlight</title>
    <desc>Created with Sketch.</desc>
    <defs></defs>
    <g id="Desktop" stroke="none" stroke-width="1" fill="none" fill-rule="evenodd">
        <g id="RISE-Home-Page" transform="translate(-1117.000000, -1100.000000)" fill-rule="nonzero" fill="#7A6001">
            <g id="block-featured-content" transform="translate(144.000000, 1036.000000)">
                <g id="quadrant" transform="translate(570.000000, 0.000000)">
                    <g id="row-top">
                        <g id="feature-3" transform="translate(286.000000, 0.000000)">
                            <g id="block-1-featured-content/feature-3/icon-spotlight" transform="translate(127.500000, 74.458984) rotate(-180.000000) translate(-127.500000, -74.458984) translate(117.000000, 64.000000)">
                                <path d="M18.1531452,16.6760071 C16.6875484,14.3311703 15.2216129,11.9866709 13.7560161,9.64183405 L10.5467419,12.4461914 C12.9536129,14.5494594 15.3608226,16.6523901 17.7676935,18.7556581 C18.3116613,19.2306984 18.8552903,19.7060761 19.3992581,20.1814538 C19.5120484,20.2799707 19.6248387,20.378825 19.7379677,20.4770045 C20.0356935,20.7371295 20.4838065,20.4044664 20.262629,20.0508852 C19.5594677,18.9257009 18.8563065,17.800854 18.1531452,16.6760071" id="Shape"></path>
                                <path d="M0.673016129,3.81887884 C0.890129032,4.03615581 1.13603226,4.22340537 1.36737097,4.42583732 C2.10169355,5.06754662 2.83601613,5.70891854 3.57033871,6.35029045 C4.53058065,7.18970829 5.49116129,8.02878875 6.45174194,8.86820659 L9.86220968,3.41199061 C9.65085484,3.07426663 9.43983871,2.73654265 9.22882258,2.39881867 C9.02356452,2.07087891 8.89383871,1.72809413 8.59577419,1.46020917 C7.94240323,0.873156502 7.01908065,0.60797064 6.1706129,0.465256111 C5.05896774,0.278006552 3.89109677,0.286103831 2.78385484,0.499332157 C1.96891935,0.656216923 1.07709677,0.934223475 0.470806452,1.52869865 C0.254709677,1.74024005 0.0806129032,2.0030642 0.022016129,2.30333827 C-0.0135483871,2.48552703 -0.00541935484,2.67547568 0.0464032258,2.85395319 C0.106016129,3.06077117 0.328209677,3.47406975 0.673016129,3.81887884 L0.673016129,3.81887884 Z M3.60116129,1.06175561 C3.9236129,1.02801695 4.24809677,1.01215978 4.57258065,1.01215978 C5.46575806,1.01215978 6.38433871,1.12147303 7.22366129,1.43895382 C7.66059677,1.60461064 8.28551613,1.88093025 8.44166129,2.36980343 C8.5818871,2.80773122 8.12293548,3.16164976 7.79506452,3.35362273 C7.12103226,3.74802766 6.31320968,3.9180705 5.544,3.99904328 C4.01912903,4.15896453 2.01532258,4.06044764 0.845419355,2.94302325 C-0.130064516,1.72775674 2.99995161,1.12518429 3.60116129,1.06175561 L3.60116129,1.06175561 Z" id="Shape"></path>
                                <path d="M20.3225806,2.53039945 C20.3225806,1.0695155 18.1372258,0.521262286 17.0350645,0.418359375 C15.374371,0.263498929 13.3895323,0.300611454 12.0123387,1.23753402 C11.5605,1.54489321 11.3698065,1.95751701 11.0971452,2.39375788 C10.8525968,2.78478894 10.6083871,3.17548261 10.3638387,3.56685106 C8.25367742,6.94240392 6.14385484,10.3179568 4.03369355,13.6935096 C3.05787097,15.2549348 2.08170968,16.8163599 1.1058871,18.3774477 C0.827467742,18.8231354 0.548709677,19.2688231 0.269951613,19.7145108 C0.206951613,19.8157268 0.143612903,19.9169427 0.0802741935,20.0181587 C-0.118548387,20.3363143 0.229645161,20.786388 0.562258065,20.4969103 C1.1268871,20.1136391 1.62919355,19.5647111 2.14166129,19.1166617 C3.44129032,17.9810185 4.74125806,16.8453752 6.04122581,15.7097319 C9.28437097,12.8756845 12.5275161,10.0419745 15.771,7.20792717 C16.8071129,6.30238155 17.8435645,5.39683594 18.8796774,4.49162771 L19.5449032,3.91031061 C19.7864032,3.69944399 19.9787903,3.44168063 20.1400161,3.16468624 C20.1410323,3.16333669 20.1417097,3.16198715 20.1427258,3.16030021 C20.2551774,2.9693394 20.3225806,2.7530746 20.3225806,2.53039945 L20.3225806,2.53039945 Z M15.75,1.01215978 C16.6374194,1.01215978 17.5492258,1.12012349 18.3838065,1.43321825 C18.8237903,1.59820029 19.4412581,1.87013388 19.6102742,2.35428364 C19.8504194,3.04221491 18.7377581,3.50274761 18.2605161,3.66941658 C17.5014677,3.93527722 16.6848387,4.03514365 15.8834516,4.04762695 C14.9750323,4.06179719 14.0395161,3.95956905 13.1808871,3.65187248 C12.7239677,3.48823998 12.0899032,3.22069241 11.8951452,2.73148185 C11.7254516,2.30401304 12.1427419,1.94469632 12.4672258,1.74327652 C13.1178871,1.34009955 13.9125,1.16398374 14.6644355,1.0745763 C15.0244839,1.0317282 15.3872419,1.01215978 15.75,1.01215978 L15.75,1.01215978 Z" id="Shape"></path>
                            </g>
                        </g>
                    </g>
                </g>
            </g>
        </g>
    </g>
</svg>