<?xml version="1.0" encoding="UTF-8"?>
<svg width="10px" height="24px" viewBox="0 0 10 24" version="1.1" xmlns="http://www.w3.org/2000/svg" xmlns:xlink="http://www.w3.org/1999/xlink">
    <!-- Generator: Sketch 42 (36781) - http://www.bohemiancoding.com/sketch -->
    <title>feat5/icon</title>
    <desc>Created with Sketch.</desc>
    <defs></defs>
    <g id="Home-Page" stroke="none" stroke-width="1" fill="none" fill-rule="evenodd">
        <g id="RISE-Home-Page-Concept-3" transform="translate(-1118.000000, -1379.000000)" fill-rule="nonzero" fill="#FFD597">
            <g id="Feature-Block-1" transform="translate(145.000000, 1035.000000)">
                <g id="quadrant" transform="translate(568.000000, 0.000000)">
                    <g id="feat5" transform="translate(285.168547, 283.412323)">
                        <g id="feat5/icon" transform="translate(120.025333, 60.561603)">
                            <g id="Group">
                                <g id="Shape">
                                    <path d="M5.69485714,9.17485714 C5.66828571,9.17485714 5.64228571,9.17457143 5.616,9.17371429 C4.61257143,9.15342857 3.67742857,8.74314286 2.982,8.01857143 C2.28685714,7.29457143 1.91542857,6.34285714 1.93571429,5.33942857 C1.97857143,3.28342857 3.706,1.61771429 5.77085714,1.65914286 C6.77457143,1.68 7.71,2.09 8.40514286,2.81428571 C9.1,3.53885714 9.47085714,4.49057143 9.45028571,5.49428571 C9.40885714,7.52371429 7.724,9.17485714 5.69485714,9.17485714 Z"></path>
                                    <path d="M5.67657143,10.774 L5.47685714,10.7694286 C4.04771429,10.74 2.71485714,10.156 1.72428571,9.12428571 C0.734285714,8.09257143 0.205714286,6.73714286 0.235142857,5.30771429 C0.263714286,3.89742857 0.834857143,2.57742857 1.84257143,1.59114286 C2.87571429,0.580285714 4.24771429,0.0351428571 5.69714286,0.0651428571 L5.89685714,0.0694285714 L5.87085714,1.32742857 L5.67114286,1.32314286 C4.56171429,1.30142857 3.51342857,1.71742857 2.72314286,2.49057143 C1.95228571,3.24514286 1.51485714,4.25485714 1.49285714,5.33371429 C1.47028571,6.42742857 1.87514286,7.464 2.63228571,8.25314286 C3.39,9.04228571 4.40942857,9.48914286 5.50285714,9.512 L5.70257143,9.51628571 L5.67657143,10.774 Z"></path>
                                    <polygon points="0.461142857 23.9357143 0.455142857 21.088 1.11542857 21.0857143 1.09514286 11.2762857 8.54342857 11.2605714 8.56371429 21.0711429 9.22342857 21.07 9.22914286 23.9171429"></polygon>
                                </g>
                            </g>
                        </g>
                    </g>
                </g>
            </g>
        </g>
    </g>
</svg>