<?xml version="1.0" encoding="UTF-8"?>
<svg width="21px" height="17px" viewBox="0 0 21 17" version="1.1" xmlns="http://www.w3.org/2000/svg" xmlns:xlink="http://www.w3.org/1999/xlink">
    <!-- Generator: Sketch 44.1 (41455) - http://www.bohemiancoding.com/sketch -->
    <title>search-icon</title>
    <desc>Created with Sketch.</desc>
    <defs></defs>
    <g id="Desktop" stroke="none" stroke-width="1" fill="none" fill-rule="evenodd">
        <g id="the-pledge" transform="translate(-1288.000000, -414.000000)" fill="#D8D8D8">
            <g id="Stacked-Group" transform="translate(0.000000, -2.000000)">
                <g id="Search" transform="translate(1047.000000, 416.000000)">
                    <g id="search-icon" transform="translate(241.000000, 0.000000)">
                        <g id="Shape" fill-rule="nonzero">
                            <polygon points="15.6864706 16.0733409 15.5954118 16.2698864 15.4662353 16.4340227 15.3026471 16.5605227 15.1030588 16.6499091 14.9002941 16.7047955 14.6827059 16.6870227 14.4624706 16.6305682 14.2803529 16.5422273 14.1157059 16.3979545 14.0982353 16.3979545 10.8148235 12.7770227 11.3574706 12.4111136 11.8688824 11.9782955 11.8858235 11.9605227 15.4302353 15.0796364 15.4302353 15.0989773 15.5758235 15.2610227 15.6684706 15.4413636 15.723 15.6588182 15.7399412 15.8564091"></polygon>
                            <path d="M10.4542941,10.5449773 L10.7936471,10.212 L11.1213529,9.83197727 L11.3934706,9.43522727 L11.6327647,9.00240909 L11.8323529,8.55234091 L11.9975294,8.08240909 L12.1060588,7.61456818 L12.1807059,7.12529545 L12.1987059,6.64020455 L12.1807059,6.15406818 L12.1060588,5.66531818 L11.9975294,5.17918182 L11.8323529,4.72911364 L11.6327647,4.27747727 L11.3934706,3.84570455 L11.1038824,3.45 L10.7936471,3.06893182 L10.4442353,2.72759091 L10.0604118,2.40402273 L9.64164706,2.13220455 L9.20435294,1.8975 L8.74376471,1.69834091 L8.289,1.55511364 L7.79452941,1.44586364 L7.30217647,1.37581818 L6.80876471,1.35752273 L6.31429412,1.37581818 L5.82352941,1.44586364 L5.34547059,1.57184091 L4.87270588,1.73440909 L4.41529412,1.932 L3.99705882,2.16722727 L3.57617647,2.45577273 L3.21194118,2.76365909 L2.86358824,3.12329545 L2.53323529,3.50279545 L2.26005882,3.90059091 L2.02129412,4.33184091 L1.83970588,4.78243182 L1.67717647,5.25236364 L1.56652941,5.73954545 L1.51147059,6.22672727 L1.49452941,6.71286364 L1.52894118,7.20109091 L1.60517647,7.68775 L1.71370588,8.15611364 L1.87835294,8.62290909 L2.09541176,9.05886364 L2.33364706,9.49168182 L2.62694118,9.88738636 L2.95358824,10.2663636 L3.30035294,10.6097955 L3.68629412,10.9135 L4.10717647,11.1858409 L4.54341176,11.4043409 L4.99817647,11.6014091 L5.47517647,11.7467273 L5.95111765,11.8528409 L6.44241176,11.9072045 L6.93688235,11.9239318 L7.44723529,11.8904773 L7.92211765,11.8167727 L8.41605882,11.68975 L8.874,11.5292727 L9.32823529,11.3290682 L9.36,11.3045 L9.23876471,11.1502955 L9.16411765,10.9689091 L9.16411765,10.7525 L9.23876471,10.5721591 L9.36635294,10.4095909 L9.49394118,10.3003409 L9.65858824,10.2297727 L9.82376471,10.212 L9.98629412,10.2297727 L10.1514706,10.3003409 L10.278,10.4095909 L10.2975882,10.39025 L10.4542941,10.5449773 Z M13.5301765,6.09970455 L13.5497647,6.64072727 L13.5301765,7.17965909 L13.4581765,7.72277273 L13.3475294,8.26275 L13.1828824,8.78495455 L12.9827647,9.29095455 L12.7445294,9.79695455 L12.4522941,10.2653182 L12.1415294,10.6991818 L11.7772941,11.132 L11.3929412,11.5099318 L10.9556471,11.8721818 L10.5162353,12.1758864 L10.0418824,12.4665227 L9.53152941,12.7001818 L9.01905882,12.8993409 L8.48911765,13.0619091 L7.94117647,13.1690682 L7.39217647,13.2427727 L6.84423529,13.2605455 L6.29735294,13.2427727 L5.74941176,13.1690682 L5.20041176,13.0619091 L4.67152941,12.8993409 L4.16117647,12.7001818 L3.64764706,12.4665227 L3.17276471,12.1758864 L2.73441176,11.8721818 L2.29764706,11.5099318 L1.91382353,11.132 L1.54852941,10.6991818 L1.23723529,10.2653182 L0.947117647,9.79695455 L0.709411765,9.29095455 L0.506647059,8.78495455 L0.343058824,8.26275 L0.232411765,7.72277273 L0.161470588,7.17965909 L0.142411765,6.64072727 L0.161470588,6.09970455 L0.232411765,5.55868182 L0.343058824,5.01661364 L0.506647059,4.49440909 L0.709411765,3.98893182 L0.947117647,3.48502273 L1.23723529,3.01613636 L1.54852941,2.58331818 L1.91382353,2.14945455 L2.29764706,1.77152273 L2.73494118,1.40979545 L3.17329412,1.10295455 L3.64817647,0.814409091 L4.16170588,0.579704545 L4.67205882,0.382636364 L5.20094118,0.219545455 L5.74994118,0.112386364 L6.29788235,0.0412954545 L6.84476471,0.0224772727 L7.39270588,0.0412954545 L7.94170588,0.112386364 L8.48964706,0.219545455 L9.01958824,0.382636364 L9.53205882,0.579704545 L10.0424118,0.814409091 L10.5167647,1.10295455 L10.9561765,1.40979545 L11.3934706,1.77152273 L11.7778235,2.14945455 L12.1420588,2.58331818 L12.4528235,3.01613636 L12.7450588,3.48502273 L12.9832941,3.98893182 L13.1834118,4.49493182 L13.3480588,5.01713636 L13.4587059,5.55920455 L13.5301765,6.09970455 Z"></path>
                        </g>
                        <polygon id="arrow" points="21 15.5 19 17 19 14"></polygon>
                    </g>
                </g>
            </g>
        </g>
    </g>
</svg>