<?xml version="1.0" encoding="UTF-8"?>
<svg width="25px" height="21px" viewBox="0 0 25 21" version="1.1" xmlns="http://www.w3.org/2000/svg" xmlns:xlink="http://www.w3.org/1999/xlink">
    <!-- Generator: Sketch 42 (36781) - http://www.bohemiancoding.com/sketch -->
    <title>Shape</title>
    <desc>Created with Sketch.</desc>
    <defs></defs>
    <g id="Home-Page" stroke="none" stroke-width="1" fill="none" fill-rule="evenodd">
        <g id="RISE-Home-Page-Concept-3" transform="translate(-163.000000, -5883.000000)" fill-rule="nonzero" fill="#FFFFFF">
            <g id="Quadrant-x-Feature" transform="translate(0.000000, 5439.000000)">
                <g id="Group-25" transform="translate(25.000000, 444.000000)">
                    <path d="M160.451612,5.71885129 C160.451612,5.49689467 160.451612,5.27593786 160.436615,5.05598085 C161.44025,4.33003359 162.306605,3.43117781 162.995115,2.40149966 C162.059177,2.81622038 161.066321,3.0881941 160.04969,3.20834196 C161.120225,2.56744928 161.921448,1.55943623 162.30425,0.371896345 C161.297604,0.969234911 160.196308,1.39020934 159.047886,1.61665306 C157.45828,-0.0736223004 154.93241,-0.487323138 152.88664,0.607530218 C150.840869,1.70238357 149.783972,4.03350642 150.308594,6.29373893 C146.185296,6.08702887 142.343627,4.13948325 139.73966,0.935786133 C138.378549,3.27897289 139.073778,6.27660176 141.32735,7.78144816 C140.51125,7.75726043 139.712945,7.53710909 138.999805,7.13957361 L138.999805,7.20456091 C139.000473,9.64567677 140.72122,11.748208 143.114,12.2315784 C142.359018,12.4374782 141.566883,12.4675766 140.798453,12.3195612 C141.47027,14.4085757 143.39552,15.8396571 145.589517,15.8808651 C143.773607,17.3080181 141.53037,18.0827625 139.220761,18.0804352 C138.812745,18.0796519 138.405125,18.0549477 138,18.0064497 C140.345178,19.5114321 143.073922,20.3097164 145.860464,20.3060002 C155.29262,20.3099995 160.451612,12.4955268 160.451612,5.71885129 Z" id="Shape"></path>
                </g>
            </g>
        </g>
    </g>
</svg>