<?xml version="1.0" encoding="UTF-8"?>
<svg width="10px" height="24px" viewBox="0 0 10 24" version="1.1" xmlns="http://www.w3.org/2000/svg" xmlns:xlink="http://www.w3.org/1999/xlink">
    <!-- Generator: Sketch 44 (41411) - http://www.bohemiancoding.com/sketch -->
    <title>block-1 featured-content/feature-5/icon-initiative</title>
    <desc>Created with Sketch.</desc>
    <defs></defs>
    <g id="Desktop" stroke="none" stroke-width="1" fill="none" fill-rule="evenodd">
        <g id="RISE-Home-Page" transform="translate(-1120.000000, -1381.000000)" fill-rule="nonzero" fill="#F6C1F9">
            <g id="block-featured-content" transform="translate(144.000000, 1036.000000)">
                <g id="quadrant" transform="translate(570.000000, 0.000000)">
                    <g id="row-btm" transform="translate(0.000000, 285.000000)">
                        <g id="feature-5" transform="translate(286.000000, 0.000000)">
                            <g id="block-1-featured-content/feature-5/icon-initiative" transform="translate(120.025333, 60.088465)">
                                <path d="M5.69485714,9.10317857 C5.66828571,9.10317857 5.64228571,9.10289509 5.616,9.10204464 C4.61257143,9.08191741 3.67742857,8.67483705 2.982,7.95592634 C2.28685714,7.23758259 1.91542857,6.29330357 1.93571429,5.29771429 C1.97857143,3.25777679 3.706,1.60507589 5.77085714,1.6461808 C6.77457143,1.666875 7.71,2.07367187 8.40514286,2.79229911 C9.1,3.51120982 9.47085714,4.45548884 9.45028571,5.45136161 C9.40885714,7.46493527 7.724,9.10317857 5.69485714,9.10317857 Z" id="Shape"></path>
                                <path d="M5.67657143,10.6898281 L5.47685714,10.6852924 C4.04771429,10.6560937 2.71485714,10.0766562 1.72428571,9.05300223 C0.734285714,8.02934821 0.205714286,6.68450893 0.235142857,5.26624777 C0.263714286,3.86697991 0.834857143,2.55729241 1.84257143,1.57871205 C2.87571429,0.575752232 4.24771429,0.0348683036 5.69714286,0.0646339286 L5.89685714,0.0688861607 L5.87085714,1.31705804 L5.67114286,1.3128058 C4.56171429,1.29126116 3.51342857,1.70401116 2.72314286,2.47111384 C1.95228571,3.21979018 1.51485714,4.22161607 1.49285714,5.29204464 C1.47028571,6.37721429 1.87514286,7.4056875 2.63228571,8.18866518 C3.39,8.97164286 4.40942857,9.41500893 5.50285714,9.4376875 L5.70257143,9.44193973 L5.67657143,10.6898281 Z" id="Shape"></path>
                                <polygon id="Shape" points="0.461142857 23.7487165 0.455142857 20.92325 1.11542857 20.9209821 1.09514286 11.1881897 8.54342857 11.1725982 8.56371429 20.9065246 9.22342857 20.9053906 9.22914286 23.7302902"></polygon>
                            </g>
                        </g>
                    </g>
                </g>
            </g>
        </g>
    </g>
</svg>