<?xml version="1.0" encoding="UTF-8"?>
<svg width="259px" height="71px" viewBox="0 0 259 71" version="1.1" xmlns="http://www.w3.org/2000/svg" xmlns:xlink="http://www.w3.org/1999/xlink">
    <!-- Generator: Sketch 44 (41411) - http://www.bohemiancoding.com/sketch -->
    <title>block-4 funders/logo-usc-red</title>
    <desc>Created with Sketch.</desc>
    <defs></defs>
    <g id="About-(Final)" stroke="none" stroke-width="1" fill="none" fill-rule="evenodd">
        <g id="About-RISE" transform="translate(-420.000000, -3464.000000)">
            <g id="block-4-funders+co-conveneers" transform="translate(143.000000, 3114.000000)">
                <g id="Co-conveners" transform="translate(5.000000, 265.000000)">
                    <g id="stack-coconveners+logos" transform="translate(272.000000, 0.000000)">
                        <g id="stack-logos" transform="translate(0.000000, 85.000000)">
                            <g id="logo/USC/red">
                                <g id="logo-rossier-red">
                                    <g id="Layer_1" fill-rule="nonzero">
                                        <path d="M118.781858,21.2531003 C119.617515,21.4217148 120.232164,21.478239 121.288829,21.478239 C131.428639,21.478239 133.377873,14.4433709 133.377873,12.0827669 C133.377873,9.49223392 132.207384,7.01762348 130.591085,5.66966495 C128.417998,3.92507896 125.96699,3.079132 121.344792,3.079132 C120.677025,3.079132 119.951398,3.19409648 119.448676,3.52845151 C119.062623,3.81203056 118.779961,4.42804857 118.779961,5.32860366 L118.781858,21.2531003 Z M113.767916,15.6849873 C113.767916,11.521357 113.767916,7.92105269 113.711952,6.286641 C113.654092,4.42804857 112.985377,3.47384338 111.59388,3.47384338 L109.365777,3.47384338 C109.087857,3.47384338 109.031894,3.30427077 109.031894,3.07817396 L109.031894,1.6756073 C109.031894,1.39490236 109.087857,1.27897984 109.365777,1.27897984 C109.867551,1.27897984 111.59388,1.44567834 116.270144,1.44567834 C119.393661,1.44567834 124.572648,1.27897984 125.576195,1.27897984 C130.20029,1.27706377 133.87775,2.68633669 135.992977,4.71066958 C137.832181,6.51177977 138.890743,9.04387245 138.890743,11.1247295 C138.890743,18.1567236 135.71316,20.8037807 128.584939,22.37592 L128.584939,22.4918425 C129.92237,22.9928961 130.702063,24.0084156 131.146925,24.6282658 C131.813743,25.3602063 135.77102,31.0950178 136.215882,31.8279164 C136.499493,32.3922004 140.06218,37.5071617 141.117897,38.2985005 C142.288386,39.1425314 143.570802,39.2565379 145.132086,39.2565379 C145.519087,39.2565379 145.576947,39.4807186 145.576947,39.7058574 L145.576947,40.9426836 C145.576947,41.2818288 145.520984,41.4494853 145.132086,41.4494853 C144.685327,41.4494853 143.235021,41.2808708 140.784014,41.2808708 C139.168663,41.2808708 137.110348,41.3929611 136.270897,41.4494853 C135.659093,40.8842433 134.434538,38.9739169 133.934662,38.2438924 C133.4898,37.56656 130.477261,32.2226278 130.199341,31.7723502 C129.977385,31.3757227 127.301575,27.328015 126.63286,26.5424244 C125.187296,24.7940062 123.848917,23.2774331 120.619165,23.2774331 C120.114546,23.2774331 119.563448,23.2774331 118.779961,23.4441316 L118.779961,26.5989486 C118.779961,29.9166319 118.83877,36.2186015 118.892836,37.0578422 C119.001917,38.2438924 119.447727,39.2565379 120.28623,39.2565379 L123.794851,39.2565379 C124.182801,39.2565379 124.24161,39.4270685 124.24161,39.7077735 L124.24161,40.9445997 C124.24161,41.3354789 124.183749,41.4494853 123.627909,41.4494853 C123.014209,41.4494853 121.624609,41.2808708 116.331799,41.2808708 C111.264739,41.2808708 109.981375,41.4494853 109.367674,41.4494853 C108.921864,41.4494853 108.921864,41.2808708 108.921864,41.0001658 L108.921864,39.7106476 C108.921864,39.4280266 108.921864,39.2574959 109.200733,39.2574959 L111.481004,39.2574959 C112.711251,39.2574959 113.654092,38.8608685 113.654092,37.3452534 C113.766967,31.7752243 113.766967,26.4849421 113.766967,21.1410099 L113.766967,15.6849873 L113.767916,15.6849873 Z" id="Shape" fill="#870000"></path>
                                        <path d="M161.502805,29.0151188 C161.502805,22.7677573 156.991585,18.8302238 154.147885,18.8302238 C152.643513,18.8302238 151.200796,19.1693691 149.860519,20.6322921 C147.687432,22.8817637 146.905841,25.1906337 146.905841,29.4653963 C146.905841,32.6154231 147.24257,34.7537624 149.024862,37.3433373 C150.305381,39.2000137 151.922629,40.2682253 154.541526,40.2682253 C158.775775,40.2682253 161.502805,35.0363834 161.502805,29.0151188 M145.405263,38.0752778 C142.843277,34.9789012 142.341504,32.8980441 142.341504,28.9030284 C142.341504,26.0346646 143.845876,22.4343603 147.13254,19.8447854 C150.026513,17.5953137 152.757337,17.1440781 154.596541,17.1440781 C157.659352,17.1440781 160.721215,18.7190915 162.396323,20.4061953 C164.903294,22.9928961 166.186658,25.917784 166.186658,29.5765286 C166.186658,35.7098837 160.723112,41.955329 153.870914,41.955329 C151.200796,41.955329 147.743395,40.8852013 145.405263,38.0752778" id="Shape" fill="#870000"></path>
                                        <path d="M169.522646,40.3218754 C169.246623,40.1551769 169.246623,39.8150736 169.186866,39.5343687 L168.238333,34.1913945 C168.180473,33.9106895 168.353106,33.7957251 168.575062,33.742075 L169.295947,33.5705863 C169.517903,33.512146 169.688639,33.6251944 169.799617,33.9097315 L171.191114,36.6631308 C172.304691,38.74782 173.086282,40.1551769 176.037166,40.1551769 C177.990194,40.1551769 180.441202,38.9710427 180.441202,36.3268597 C180.441202,33.7957251 179.212852,32.3347181 175.035516,31.1496259 C171.748851,30.1935047 168.46029,28.4537089 168.46029,24.0074576 C168.46029,20.1245323 172.079889,17.1431201 176.258174,17.1431201 C178.933035,17.1431201 180.380496,17.8166203 181.384043,18.321506 C182.221597,18.7171754 182.332575,18.9978804 182.386641,19.3322354 L183.222298,23.272643 C183.222298,23.4996978 183.113217,23.6663963 182.831503,23.7804027 L182.164685,24.0045835 C181.942728,24.0630238 181.828904,24.0045835 181.662911,23.7238785 L179.771538,21.1343036 C179.10472,20.0680081 178.039518,18.9413562 175.870224,18.9413562 C173.754997,18.9413562 171.582858,20.2327905 171.582858,22.6547089 C171.582858,25.915868 174.19891,26.5385922 176.927838,27.3251409 C180.996093,28.5064009 183.559976,30.1906306 183.615939,34.5247915 C183.559976,39.0821751 179.880619,41.9505389 175.147443,41.9524549 C172.420412,41.954371 170.189464,40.8277191 169.522646,40.3218754" id="Shape" fill="#870000"></path>
                                        <path d="M187.120766,40.3218754 C186.844743,40.1532608 186.844743,39.8150736 186.784037,39.5324526 L185.837402,34.1866043 C185.783336,33.9106895 185.950277,33.7957251 186.174131,33.7372848 L186.89881,33.5705863 C187.120766,33.512146 187.287708,33.6251944 187.398686,33.9097315 L188.788286,36.6631308 C189.905657,38.7439879 190.685351,40.1532608 193.636235,40.1532608 C195.59116,40.1532608 198.042167,38.9691267 198.042167,36.3249436 C198.042167,33.7957251 196.811921,32.332802 192.636482,31.1486679 C189.349817,30.1915886 186.059359,28.4517928 186.059359,24.0055415 C186.059359,20.1235742 189.678958,17.142162 193.85914,17.142162 C196.534001,17.142162 197.981461,17.8166203 198.985009,18.321506 C199.820666,18.7171754 199.931644,18.9950063 199.987607,19.3322354 L200.825161,23.2697688 C200.825161,23.4996978 200.714183,23.6654383 200.432469,23.7784867 L199.765651,24.0045835 C199.543694,24.0611077 199.42987,24.0045835 199.265774,23.7238785 L197.370607,21.1343036 C196.703788,20.06705 195.642381,18.9413562 193.47119,18.9413562 C191.354066,18.9413562 189.182876,20.2327905 189.182876,22.6547089 C189.182876,25.915868 191.798928,26.5366762 194.531649,27.3251409 C198.59611,28.5035268 201.16189,30.1906306 201.217854,34.5228754 C201.16189,39.080259 197.48443,41.9505389 192.749357,41.9505389 C190.018533,41.9524549 187.787584,40.8277191 187.120766,40.3218754" id="Shape" fill="#870000"></path>
                                        <path d="M204.272128,7.74381578 C204.272128,6.33741698 205.444514,4.81605369 207.669771,4.81605369 C209.622799,4.81605369 210.567537,6.33741698 210.567537,7.57520121 C210.567537,9.03812423 209.564938,10.6687038 207.334939,10.6687038 C206.113229,10.6687038 204.272128,9.54588401 204.272128,7.74381578 L204.272128,7.74381578 Z M206.780047,24.9041805 C206.780047,22.9938541 206.446164,21.9792926 203.660324,21.528057 C203.271426,21.4724908 203.160448,21.3604004 203.160448,21.1352617 L203.160448,20.630376 C203.160448,20.4588873 203.271426,20.349671 203.549346,20.2347066 C205.333535,19.5583322 207.444968,18.6587352 209.564938,17.4803492 C210.0098,17.2561685 210.291514,17.141204 210.622552,17.141204 C210.900472,17.141204 210.958332,17.421909 210.900472,17.8147043 C210.789493,18.7717836 210.793288,22.3193958 210.793288,26.9869537 L210.793288,33.1193507 C210.793288,35.3113401 210.793288,37.3375891 210.849251,37.9583973 C210.958332,39.0246928 211.125274,39.4174881 211.738974,39.4174881 L214.30096,39.4174881 C214.747719,39.4174881 214.858697,39.5880188 214.860594,39.9242899 L214.860594,40.8842433 C214.860594,41.2751225 214.749616,41.4456532 214.360718,41.4456532 C213.913959,41.4456532 211.348179,41.2751225 209.011944,41.2751225 C205.781243,41.2751225 203.606258,41.4456532 202.994455,41.4456532 C202.716535,41.4456532 202.549593,41.3316467 202.549593,40.9944176 L202.549593,39.8696818 C202.547696,39.5324526 202.714638,39.4203623 203.105433,39.4203623 L205.836258,39.4203623 C206.448061,39.4203623 206.670018,39.1923494 206.726929,38.2917943 C206.780047,36.6075646 206.780047,34.8658528 206.780047,33.1758749 L206.780047,24.9041805 Z" id="Shape" fill="#870000"></path>
                                        <path d="M227.890583,24.6215595 C228.948196,24.6215595 229.393058,24.3398966 229.393058,23.8359689 C229.393058,22.5387864 228.72624,18.8273497 225.104743,18.8273497 C222.655633,18.8273497 220.317501,20.4608034 219.25799,24.6215595 L227.890583,24.6215595 L227.890583,24.6215595 Z M219.035085,26.3105794 C218.92221,26.815465 218.866246,27.7188942 218.866246,29.0132027 C218.866246,34.5257495 222.323646,38.6865057 226.777006,38.6865057 C230.176546,38.6865057 232.569693,36.7177389 233.518225,34.8601045 C233.627306,34.6378399 233.854005,34.5247915 234.019999,34.5784416 L234.74278,34.974111 C234.909722,35.0287191 235.022597,35.1982917 234.74278,35.8162258 C233.742079,38.0685716 230.845261,41.9514969 225.887282,41.9514969 C222.711596,41.9514969 219.204872,40.9953756 217.140866,37.9545651 C215.189735,35.0890755 214.689858,33.0043862 214.689858,29.0687688 C214.689858,26.8700732 215.245698,23.1011543 218.196582,20.1187841 C220.589729,17.6470477 223.376517,17.1364138 226.162357,17.1364138 C232.566847,17.1364138 234.352933,23.2122866 234.352933,25.4109823 C234.352933,26.1946568 233.682321,26.3096213 232.792598,26.3096213 L219.035085,26.3096213 L219.035085,26.3105794 Z" id="Shape" fill="#870000"></path>
                                        <path d="M239.530971,26.3105794 C239.530971,23.4393415 239.084213,22.8760155 237.524826,22.0329426 L236.467212,21.4715328 C236.133329,21.3594424 236.02235,21.3029182 236.02235,21.0758633 L236.02235,20.7367181 C236.02235,20.5115794 236.133329,20.4014051 236.467212,20.2337485 L241.981979,17.3615526 C242.313965,17.192938 242.537819,17.1373719 242.759775,17.1373719 C243.093659,17.1373719 243.148674,17.475559 243.148674,17.8118301 L243.428491,21.6966715 L243.652344,21.6966715 C245.321761,19.1090127 247.940659,16.8020588 250.334755,16.8020588 C252.229922,16.8020588 253.17466,17.9804447 253.178455,19.2776273 C253.178455,20.9082068 251.841024,22.0339007 250.834631,22.0339007 C250.224725,22.0339007 249.667936,21.8097199 249.221178,21.5845812 C248.776316,21.3038762 248.107601,21.1323876 247.382922,21.1323876 C246.49225,21.1323876 245.042893,21.6966715 244.096258,23.4987398 C243.764271,24.1137997 243.542315,25.1293193 243.542315,25.2960178 L243.542315,37.1114923 C243.542315,38.8512881 243.927419,39.4203623 245.098856,39.4203623 L247.7206,39.4203623 C248.050689,39.4203623 248.107601,39.5870608 248.107601,39.9252479 L248.107601,40.9378934 C248.107601,41.2770386 248.053534,41.4446951 247.831578,41.4446951 C247.495797,41.4446951 244.931915,41.2760806 241.926964,41.2760806 C238.473358,41.2760806 236.13238,41.4446951 235.798497,41.4446951 C235.57654,41.4446951 235.464613,41.3326048 235.464613,40.8794531 L235.464613,39.9252479 C235.464613,39.5286205 235.573695,39.4203623 236.077365,39.4203623 L238.246659,39.4203623 C239.082316,39.4203623 239.473111,39.0783429 239.473111,38.3502346 C239.529074,36.4935582 239.529074,34.5257495 239.529074,31.5989454 L239.529074,26.3105794 L239.530971,26.3105794 Z" id="Shape" fill="#870000"></path>
                                        <path d="M4.96272113,5.81049644 C4.96272113,3.87430299 4.51027121,2.96320948 3.0457373,2.96320948 L0.451501388,2.96320948 C0.112875347,2.96416752 0,2.84920304 0,2.45257558 L0,1.13814835 C0,0.799003138 0.112875347,0.684038658 0.561531137,0.684038658 C1.129702,0.684038658 3.83112207,0.855527341 9.24629312,0.855527341 C13.9813665,0.855527341 16.6913234,0.684038658 17.3676269,0.684038658 C17.7034073,0.684038658 17.8181798,0.799003138 17.8181798,1.08162415 L17.8181798,2.50526763 C17.8181798,2.84728696 17.7034073,2.96320948 17.3676269,2.96320948 L14.9991417,2.96320948 C13.3060115,2.96320948 12.2920304,3.98447728 12.2332214,5.18010787 C12.1801036,5.86606261 12.0662797,9.28338178 12.0662797,12.5847784 L12.0662797,19.6474297 C12.0662797,22.4975908 12.1193975,26.5395503 12.2332214,28.3617373 C12.4058543,30.9810114 12.8554586,33.6022015 14.2071172,35.4215144 C16.124101,38.0407885 19.1688898,38.951882 21.8760011,38.951882 C24.4711855,38.951882 27.6279011,37.9286981 29.4301125,36.2195595 C31.5747441,34.0563112 32.7034976,30.7539565 32.7034976,26.5932004 L32.7034976,16.346033 C32.7034976,11.7896075 32.2510476,6.78098826 32.0812604,5.46847711 C31.9124216,3.98639335 31.0103674,2.96512555 29.7687385,2.96512555 L27.741725,2.96512555 C27.4012019,2.96512555 27.289275,2.79076276 27.289275,2.56370791 L27.289275,1.13814835 C27.289275,0.799003138 27.4002533,0.684038658 27.741725,0.684038658 C28.3051532,0.684038658 30.8955949,0.855527341 34.6195329,0.855527341 C38.115823,0.855527341 39.9180344,0.684038658 40.3695358,0.684038658 C40.8770006,0.684038658 40.9367582,0.855527341 40.9367582,1.13814835 L40.9367582,2.45257558 C40.9367582,2.79076276 40.8779492,2.96416752 40.5952865,2.96416752 L38.5673244,2.96416752 C36.5374652,2.96416752 36.3088689,4.55738361 36.1988392,5.18106591 C36.0869124,5.86702064 36.0869124,13.8398074 36.0869124,14.5813283 C36.0869124,15.3764992 35.9759341,25.2864374 35.7492349,27.5636922 C35.4106088,32.2360403 34.0561047,35.7664079 31.0113159,38.4968143 C28.6418821,40.6638947 25.0384078,42.030056 20.7481961,42.030056 C18.0429819,42.030056 14.7743395,41.5749882 12.6306565,40.6638947 C9.36201407,39.2958174 7.10735273,36.6784594 5.97480513,33.0312113 C5.18562623,30.5278597 4.96366967,26.7713953 4.96366967,19.3073264 L4.96366967,5.81049644 L4.96272113,5.81049644 Z" id="Shape" fill="#FFCD05"></path>
                                        <path d="M42.517013,28.4767018 C42.7399181,28.4767018 42.8527935,28.5887921 42.8527935,28.9327275 C42.9666173,30.7539565 43.4181187,32.9191209 44.9983736,35.4243885 C46.6877097,38.157669 49.6205716,39.5219142 52.4405582,39.5219142 C55.4862955,39.5219142 59.770816,37.5885949 59.770816,32.8606806 C59.770816,27.6192584 57.4023308,25.9129939 51.4275257,23.6357391 C49.6215201,22.9526585 45.8994793,21.3565683 43.1914195,18.8503426 C41.2763327,17.0310297 40.37333,14.1827847 40.37333,10.7051092 C40.37333,7.51771897 41.6140102,4.89940294 44.320173,2.73423856 C46.5767314,0.797087063 49.0571434,0 52.3267343,0 C56.0487752,0 58.302488,0.913967618 59.4302929,1.36903535 C59.9965667,1.59513216 60.3313986,1.4830418 60.6150098,1.1956306 L61.3482253,0.456025772 C61.573976,0.228012886 61.7987782,0.115922518 62.1355071,0.115922518 C62.4760302,0.115922518 62.5870085,0.456025772 62.5870085,1.02701602 C62.5870085,1.93810953 63.4900113,9.91089624 63.4900113,10.4799704 C63.4900113,10.7051092 63.377136,10.8219897 63.1532823,10.879472 L62.249331,11.1649671 C62.0254774,11.2214913 61.7987782,11.1649671 61.6868513,10.8229478 C61.1224746,9.22877366 60.2204204,6.95056087 58.1896127,4.78348042 C56.7231817,3.1921804 54.9200217,2.39317726 52.3257858,2.39317726 C47.8145661,2.39317726 46.0104576,6.03850933 46.0104576,8.1471495 C46.0104576,10.083343 46.2362083,11.7905655 47.5907124,13.2716912 C49.0561949,14.7528169 52.2148075,16.1189782 54.4675718,16.8030168 C57.7400083,17.8271587 60.4471196,18.9691392 62.5870085,21.246394 C64.3939626,23.1816294 65.4079437,25.5728906 65.4079437,29.3887533 C65.4079437,36.3364401 60.8967239,42.031014 53.4545393,42.031014 C48.8304442,42.031014 46.1242815,41.005914 43.8696201,39.2967754 C43.190471,38.8417077 42.8527935,38.6136948 42.517013,38.6136948 C42.1774384,38.6136948 41.9516878,39.0687626 41.6130617,39.6387948 C41.2763327,40.209785 41.0496335,40.3218754 40.6000292,40.3218754 C40.1475793,40.3218754 39.9218286,39.9817721 39.9218286,39.4107819 C40.0347039,38.7296173 40.8238828,29.5037178 40.9348611,28.8187211 C40.9908245,28.4786178 41.0496335,28.3607793 41.2753842,28.3607793 L42.517013,28.4767018 Z" id="Shape" fill="#FFCD05"></path>
                                        <path d="M103.975268,31.8930629 C104.143158,32.0635936 104.199122,32.2322081 104.087195,32.4621371 C100.704729,37.360582 95.2905061,42.0290979 87.2848932,42.0290979 C80.0713049,42.0290979 76.0077924,39.8677657 72.5152964,36.6775014 C68.3398571,32.9172048 66.4228733,26.3105794 66.4228733,21.298128 C66.4228733,15.7194766 68.2269817,10.365964 72.1738247,6.03755129 C75.2186135,2.73423856 80.0703564,0.000958037336 86.8305463,0.000958037336 C92.0209152,0.000958037336 96.1916118,1.59513216 98.223368,2.73423856 C99.0134955,3.18930629 99.2401947,3.18930629 99.3502244,2.73423856 L99.8017258,1.25502891 C99.9136526,0.914925656 100.025579,0.914925656 100.70378,0.914925656 C101.380084,0.914925656 101.493908,1.02701602 101.493908,1.82506112 C101.493908,2.84920304 102.620764,11.9601381 102.846515,13.6664026 C102.900581,14.011296 102.846515,14.1808686 102.621712,14.2393089 L101.551768,14.5784541 C101.268157,14.6934186 101.097421,14.4663638 100.930479,14.011296 C100.253227,11.9591801 98.8987231,9.11380918 96.5321349,6.60662547 C94.0507743,4.21536428 91.1179124,2.3941353 86.7224136,2.3941353 C77.7018712,2.3941353 73.9760362,10.5930188 73.9760362,18.7938184 C73.9760362,22.325144 74.9928628,29.0448179 79.1664051,33.6022015 C82.8884459,37.5885949 86.1580368,38.0427046 88.8651481,38.0427046 C95.067601,38.0427046 99.9724617,34.9099225 102.341895,31.4379952 C102.622661,31.0375356 102.847463,30.867963 103.016302,31.0375356 L103.975268,31.8930629 Z" id="Shape" fill="#FFCD05"></path>
                                        <g id="Group" transform="translate(164.096093, 56.524203)" fill="#540000">
                                            <path d="M1.62768147,12.3452691 C0.797715687,11.3441201 0.636465191,10.6715779 0.636465191,9.37822748 C0.636465191,8.4498893 1.12211374,7.2849159 2.18541848,6.44759127 C3.12256842,5.71948289 4.00660055,5.57386122 4.60133032,5.57386122 C5.5925466,5.57386122 6.58376288,6.08449512 7.12252924,6.6305764 C7.93352438,7.46790103 8.34898154,8.41444192 8.34898154,9.59761803 C8.34898154,11.5807553 6.58376288,13.6022141 4.3660943,13.6022141 C3.50103282,13.6022141 2.38366174,13.2554046 1.62768147,12.3452691 Z M6.83607248,9.41559094 C6.83607248,7.39604823 5.37628123,6.12185858 4.4571534,6.12185858 C3.96960779,6.12185858 3.50103282,6.23107483 3.06945061,6.70338724 C2.36753669,7.43245365 2.11333002,8.1778067 2.11333002,9.56121261 C2.11333002,10.5796063 2.22241124,11.2722673 2.7991189,12.1086339 C3.21457606,12.7093233 3.73626884,13.0551748 4.5833082,13.0551748 C5.95204035,13.0551748 6.83607248,11.3623228 6.83607248,9.41559094 Z" id="Shape"></path>
                                            <path d="M10.9081218,6.66698182 L9.66459588,6.66698182 C9.57543384,6.66698182 9.53844108,6.6305764 9.57543384,6.46675202 L9.6475223,5.92067073 C9.66459588,5.81241252 9.71771369,5.79325177 9.86283913,5.79325177 L10.9081218,5.79325177 L10.9081218,5.44740029 C10.9081218,3.64533206 11.4136895,2.46311399 12.1156034,1.66219478 C13.071724,0.606437634 14.0629403,0.225138774 15.0702816,0.225138774 C15.917321,0.225138774 16.710294,0.552787543 16.710294,1.24353246 C16.710294,1.68039749 16.241719,2.02529093 15.9543137,2.02529093 C15.7750411,2.02529093 15.5929229,1.98888551 15.448746,1.91607467 C15.2874955,1.82601916 15.0892523,1.5884259 15.0171638,1.49741236 C14.7838248,1.20616901 14.5296182,1.07875004 14.1890951,1.07875004 C13.7205201,1.07875004 13.2329745,1.20616901 12.836488,1.71488683 C12.1696698,2.57137221 12.2066625,4.15500793 12.2066625,5.42823954 L12.2066625,5.79229373 L14.3873383,5.79229373 C14.5134931,5.79229373 14.5296182,5.90150999 14.5134931,5.97336279 L14.422434,6.5740522 C14.4034634,6.64686304 14.3313749,6.66602378 14.1890951,6.66602378 L12.2066625,6.66602378 L12.2066625,8.28510688 C12.2066625,10.4320685 12.2066625,12.1067178 12.2237361,12.3069476 C12.2607289,12.6163937 12.3147952,12.7802181 12.6923111,12.7802181 L13.7205201,12.7802181 C13.8817706,12.7802181 13.9187634,12.8166235 13.9187634,12.9258397 L13.9187634,13.2170831 C13.9187634,13.3617467 13.8817706,13.4355156 13.7926086,13.4355156 C13.6835273,13.4355156 13.0167091,13.3809075 11.6290063,13.3809075 C10.63779,13.3809075 9.71866222,13.4355156 9.57638237,13.4355156 C9.46730115,13.4355156 9.43220546,13.4000682 9.43220546,13.3080966 L9.43220546,12.907637 C9.43220546,12.8166235 9.46730115,12.7802181 9.61147807,12.7802181 L10.4765395,12.7802181 C10.8189597,12.7802181 10.8919967,12.5608275 10.9081218,12.1431232 L10.9081218,8.7219719 L10.9081218,6.66698182 L10.9081218,6.66698182 Z" id="Shape"></path>
                                            <path d="M23.4334911,6.41310193 C23.577668,6.41310193 25.5069828,6.34029109 25.7213511,6.30292763 C26.2439924,6.21287212 26.3881693,6.06725045 26.5513169,5.50296646 C26.6053832,5.32093936 26.6774717,4.95688518 26.6954938,4.6110337 C26.6954938,4.51906211 26.7495601,4.48361473 26.8216486,4.48361473 L27.2722015,4.50181744 C27.3613635,4.50181744 27.3983563,4.57367024 27.3793856,4.64648108 C27.3253193,4.95592714 27.3253193,6.44854931 27.3253193,6.72158995 C27.3253193,7.35868478 27.3974077,8.23241483 27.4325034,8.61562976 C27.4325034,8.70568527 27.3974077,8.74304873 27.3253193,8.7602934 L26.9288328,8.81585956 C26.8377737,8.83310424 26.802678,8.77849611 26.7846558,8.65107714 C26.7495601,8.41539996 26.6404789,7.9957796 26.5864126,7.7955498 C26.4792284,7.41425094 26.2809852,7.14025226 25.8124102,7.08564414 C24.9653708,6.99463059 23.7227935,6.99463059 23.4334911,6.99463059 L23.4334911,8.12319857 C23.4334911,9.10518684 23.4704839,10.8718077 23.4704839,11.2349038 C23.4875575,12.1814447 23.9371618,12.5454989 24.4967959,12.6547152 C24.8562896,12.727526 25.380828,12.7821341 25.8304323,12.7821341 C26.1358597,12.7821341 27.0360169,12.7629734 27.4163784,12.727526 C27.7218058,12.6911206 28.5147788,12.4908908 28.9833538,12.0904312 C29.2005677,11.9084041 30.207909,10.597809 30.4602186,10.1791467 C30.516182,10.0881331 30.5692998,10.0153223 30.6774325,10.0708885 L30.9667349,10.2337548 C31.0558969,10.289321 31.0558969,10.3439291 31.0018306,10.4895508 L30.047607,13.164391 C29.9935407,13.3291735 29.8664374,13.4374317 29.6511205,13.4374317 C29.5600614,13.4374317 29.1635749,13.419229 28.0841451,13.4019843 C27.0018697,13.4019843 25.2537247,13.3828235 22.4432234,13.3828235 C21.7764052,13.3828235 21.2727345,13.4019843 20.9113437,13.4019843 C20.5338278,13.420187 20.2995403,13.4374317 20.1373413,13.4374317 C20.0301571,13.4374317 19.9760908,13.4019843 19.9760908,13.3100127 L19.9760908,12.8185396 C19.9760908,12.7457287 20.0301571,12.727526 20.1553634,12.727526 L20.876248,12.727526 C21.7043167,12.727526 21.7764052,12.600107 21.7764052,11.9266068 L21.7764052,7.61352271 L21.7764052,5.82965719 C21.7764052,4.31883231 21.7413095,2.04349364 21.7223388,1.86146654 C21.6502504,1.27993788 21.4700292,1.15251891 20.803211,1.15251891 L20.1544149,1.15251891 C20.0633558,1.15251891 20.010238,1.13335817 20.010238,1.02509995 L20.010238,0.532668759 C20.010238,0.478060631 20.0453337,0.441655212 20.1363928,0.441655212 C20.5328793,0.441655212 21.1646018,0.49626334 22.3521643,0.49626334 L23.1451373,0.49626334 C24.9293266,0.49626334 26.7135159,0.478060631 28.4977052,0.478060631 C28.7870076,0.478060631 29.1294278,0.441655212 29.2185898,0.441655212 C29.3096489,0.441655212 29.3447446,0.478060631 29.3627667,0.532668759 C29.4348552,0.78750669 30.2278282,3.28127787 30.2818945,3.46330497 C30.3008652,3.53611581 30.3008652,3.59072393 30.2278282,3.62712935 L29.9574965,3.77275103 C29.9034301,3.80915645 29.8313417,3.75454832 29.8133196,3.71718486 C29.7782239,3.64437403 28.4445874,1.91511663 28.0130052,1.64207599 C27.6335923,1.38723806 27.1289731,1.16976359 26.642376,1.15156088 L23.4353882,1.07875004 L23.4353882,6.41310193 L23.4334911,6.41310193 Z" id="Shape"></path>
                                            <path d="M38.1205657,2.29928961 C38.1205657,1.60758665 37.9944109,1.38915414 36.9851725,1.22628779 C36.8779883,1.20712704 36.8590177,1.17072162 36.8590177,1.09791079 L36.8590177,0.788464727 C36.8590177,0.71565389 36.8960104,0.680206508 37.0031946,0.661045762 C37.7051085,0.515424087 38.643207,0.35255774 38.9856272,0.279746902 C39.1487747,0.260586155 39.2749295,0.225138774 39.4010843,0.225138774 C39.4902464,0.225138774 39.5082685,0.35255774 39.4902464,0.552787543 C39.43618,1.46196497 39.4181579,4.10135783 39.4181579,6.41310193 L39.4181579,10.4339846 C39.4181579,11.1074849 39.4551507,11.9084041 39.5993276,12.0904312 C39.7605781,12.2724583 40.1380939,12.3816745 40.3923006,12.3998772 C40.6446102,12.4180799 40.7166987,12.4353246 40.7517944,12.5272962 L40.7887871,12.6729179 C40.8058607,12.7811761 40.7698165,12.8357842 40.6626323,12.8731477 L38.6251849,13.5638926 C38.5180007,13.6012561 38.4269416,13.5456899 38.3918459,13.419229 L38.158507,12.6183097 C37.5808508,13.2007964 36.428384,13.6012561 35.5092562,13.6012561 C34.9145264,13.6012561 34.2287375,13.6367034 33.3826467,12.7629734 C32.4635189,11.853796 32.2472535,11.033716 32.2472535,9.8150925 C32.2472535,8.68652452 32.6627107,7.57615925 33.5088015,6.72158995 C34.2107154,5.95707615 35.1858067,5.57481926 36.193148,5.57481926 C36.9320547,5.57481926 37.5808508,5.68499355 38.1215142,5.8478599 L38.1215142,2.29928961 L38.1205657,2.29928961 Z M38.1205657,8.06859044 C38.1205657,7.81375251 38.1205657,7.46790103 37.9593152,7.17569964 C37.7051085,6.68422649 37.1293494,6.19371138 36.0660447,6.19371138 C35.5083077,6.19371138 34.8955558,6.35753576 34.4260323,6.84900891 C33.7241183,7.61448074 33.5979635,8.5782663 33.5979635,9.26996926 C33.5979635,11.3259174 35.0017914,12.8185396 36.0489711,12.8185396 C37.0563124,12.8185396 37.8312633,12.290661 38.012433,11.8173905 C38.101595,11.5443499 38.1196172,11.3987282 38.1196172,11.1984984 L38.1196172,8.06859044 L38.1205657,8.06859044 Z" id="Shape"></path>
                                            <path d="M48.4842299,9.68863158 C48.4842299,10.5623616 48.4842299,11.4542944 48.5193256,11.8355932 C48.5733919,12.4008353 48.7716352,12.4736461 48.9879006,12.4736461 C49.0950847,12.4736461 49.3654164,12.4736461 49.5826303,12.4180799 C49.7268072,12.3816745 49.7808736,12.4180799 49.7998442,12.4908908 L49.8539106,12.727526 C49.8728812,12.8357842 49.8349399,12.8731477 49.7628515,12.8913504 L47.871478,13.5284452 C47.7642939,13.5638926 47.6542641,13.6012561 47.5100872,13.6012561 C47.4379987,13.6012561 47.3678073,13.5638926 47.3488367,13.3818655 L47.2046598,12.3261084 L47.1695641,12.3261084 C46.6639964,13.035056 45.6187137,13.600298 44.7185565,13.600298 C44.2129888,13.600298 43.618259,13.5447319 43.0235293,12.7620153 C42.2865197,11.7982298 42.3216154,11.1975404 42.3216154,9.19524235 L42.3216154,7.08372806 C42.3026447,6.5740522 42.0512836,6.44663323 41.6377236,6.3920251 C41.3303991,6.37286436 41.241237,6.35561969 41.241237,6.26460614 L41.241237,5.93983148 C41.241237,5.83061523 41.2763327,5.79420981 41.4394803,5.79420981 L43.0415514,5.79420981 C43.1506326,5.79420981 43.220824,5.77504906 43.293861,5.75780439 C43.3659495,5.75780439 43.4380379,5.73960168 43.4921043,5.73960168 C43.618259,5.73960168 43.7093182,5.83061523 43.6903475,5.95803419 C43.6732739,6.12185858 43.618259,6.97642788 43.618259,8.05134577 L43.618259,9.34469617 C43.618259,10.0728045 43.4389864,11.2368199 44.0147456,12.0751026 C44.4671955,12.7304001 44.9708661,12.7658475 45.4574632,12.7658475 C45.9431118,12.7658475 46.6630478,12.2935351 47.0064165,11.8566701 C47.078505,11.7646985 47.1856891,11.5290213 47.1856891,11.3642389 L47.1856891,7.03295208 C47.1505934,6.52327622 46.8612911,6.43226267 46.4116868,6.39585725 C46.1062593,6.39585725 46.0152002,6.35945183 46.0152002,6.26843829 L46.0152002,5.95899223 C46.0152002,5.81432859 46.052193,5.79516784 46.2324141,5.79516784 L47.9075222,5.79516784 C48.033677,5.79516784 48.1247361,5.7760071 48.2148467,5.75876243 C48.3040087,5.75876243 48.3760972,5.74055972 48.4301635,5.74055972 C48.5392448,5.74055972 48.6113332,5.83157326 48.5933111,5.92162877 C48.5743405,6.08641119 48.486127,6.5587236 48.486127,8.34258912 L48.486127,9.68863158 L48.4842299,9.68863158 Z" id="Shape"></path>
                                            <path d="M52.0706306,8.97872591 C52.0706306,9.96167222 52.5022128,11.0729955 52.9897584,11.7455377 C53.5844882,12.5282542 54.3404685,12.674834 54.9532204,12.674834 C55.8533775,12.674834 56.3219525,12.4746041 56.9356529,11.8921174 C56.9707486,11.855712 57.026712,11.8365513 57.0798298,11.8921174 L57.2591024,12.0741445 C57.3311909,12.1459973 57.3501615,12.2015635 57.2591024,12.3098217 C56.7364611,12.9105111 55.5820973,13.6031721 54.3575421,13.6031721 C53.4033185,13.6031721 52.3940801,13.3837816 51.5641144,12.3289825 C50.8991932,11.4360917 50.7540677,10.6725359 50.7540677,9.853414 C50.7540677,7.723697 52.2309326,5.57577729 54.6089031,5.57577729 C56.4841515,5.57577729 57.0599107,6.66889789 57.0599107,7.05019675 C57.04094,7.46981711 56.7706083,7.68729158 56.3930924,7.68729158 C55.9776353,7.68729158 55.6722079,7.45065636 55.4018761,6.95918321 C55.0053896,6.21383016 54.6278738,6.15826399 54.1962916,6.15826399 C53.169031,6.15730596 52.0706306,7.10384684 52.0706306,8.97872591 Z" id="Shape"></path>
                                            <path d="M63.7309385,11.2167011 C63.7309385,12.2542556 63.9462553,12.5819043 64.2697049,12.5819043 C64.5590072,12.5819043 64.8103683,12.4362827 64.9014274,12.3088637 C64.9735159,12.2178501 65.0086116,12.1814447 65.0807,12.2360529 L65.2599726,12.3816745 C65.314039,12.4362827 65.3510317,12.5272962 65.242899,12.7093233 C65.0987221,12.9823639 64.7553534,13.6022141 63.8371741,13.6022141 C63.188378,13.6022141 62.719803,13.1289436 62.5566555,12.3826326 L62.5215598,12.3826326 C62.1440439,12.8377003 61.5493142,13.2199572 60.7373705,13.4920398 C60.3949503,13.6022141 60.0705523,13.6022141 59.6740657,13.6022141 C59.2424835,13.6022141 58.5917904,13.2372019 58.5917904,12.0913892 C58.5917904,11.2540646 58.9712033,10.5259562 60.3940018,9.88886138 C61.2049969,9.52480719 62.1430954,9.08794217 62.4295522,8.8321462 L62.4295522,7.66813084 C62.3944565,7.35868478 62.3754858,6.88541433 62.1772426,6.64877911 C61.9789993,6.41310193 61.6176085,6.2483195 61.0949672,6.2483195 C60.7354734,6.2483195 60.1758393,6.39394118 59.9244783,6.6305764 C59.6731172,6.86721162 59.8353162,7.14025226 59.8353162,7.46790103 C59.8353162,8.10403782 59.6181023,8.50449743 58.8791957,8.50449743 C58.5898933,8.50449743 58.4476134,8.34163108 58.4476134,7.92296877 C58.4476134,7.3414401 58.9512841,6.64877911 59.6911393,6.21287212 C60.4471196,5.75684635 61.0788421,5.57481926 61.8879402,5.57481926 C62.7368766,5.57481926 63.0773997,5.83061523 63.3306579,6.06725045 C63.7081737,6.44854931 63.7271444,6.86816966 63.7271444,7.35964281 L63.7271444,10.1446573 L63.7271444,11.2167011 L63.7309385,11.2167011 Z M62.4134271,9.37918552 C61.764631,9.87161671 59.9994123,10.2347129 59.9994123,11.7455377 C59.9994123,12.419038 60.3958988,12.7466868 60.9365623,12.7466868 C61.4592036,12.7466868 62.4134271,12.1095919 62.4134271,11.6181188 L62.4134271,9.37918552 Z" id="Shape"></path>
                                            <path d="M68.4157397,11.1074849 C68.4157397,12.4736461 69.0284916,12.7093233 69.3528896,12.7093233 C69.7664497,12.7093233 70.2881425,12.6365125 70.5423491,12.4736461 C70.6315112,12.4180799 70.7035996,12.4362827 70.757666,12.5090935 L70.8487251,12.6738759 C70.9027914,12.7457287 70.8676957,12.8185396 70.8136294,12.8741057 C70.6324597,13.0551748 69.8926045,13.6022141 68.8131747,13.6022141 C67.9291426,13.6022141 67.0640811,12.7457287 67.0640811,12.0549838 C67.0640811,11.3086727 67.1200445,9.70683429 67.1200445,9.45199635 L67.1200445,9.05153675 C67.1200445,8.72388798 67.1371181,7.50430645 67.1551402,6.74075069 L66.0567398,6.74075069 C65.8935922,6.74075069 65.7864081,6.66793986 65.7864081,6.52136014 C65.7864081,6.37478043 65.8935922,6.32113034 66.1108061,6.19371138 C66.5423883,5.93887344 67.9300911,4.51906211 68.1653271,3.90016999 C68.2193935,3.75550636 68.309504,3.7181429 68.4176367,3.7181429 C68.5618136,3.7181429 68.5969093,3.84556187 68.5969093,3.99118354 L68.5077473,5.79325177 L71.0128212,5.79325177 C71.1200053,5.79325177 71.1740717,5.88522335 71.138976,5.95707615 L70.9578063,6.59417098 C70.9407327,6.68518453 70.90374,6.73979266 70.7965558,6.73979266 L68.4717031,6.73979266 C68.4366074,7.57615925 68.4176367,8.4498893 68.4176367,9.28721393 L68.4176367,11.1074849 L68.4157397,11.1074849 Z" id="Shape"></path>
                                            <path d="M72.9573125,8.08679315 C72.9573125,7.46790103 72.8501283,7.1412103 71.9499711,6.99463059 C71.8219193,6.97546984 71.7868236,6.94002246 71.7868236,6.86721162 L71.7868236,6.7024292 C71.7868236,6.64782107 71.8219193,6.61237369 71.9129784,6.57501024 C72.4887375,6.35657772 73.1745264,6.06629241 73.8603152,5.68403551 C74.0025951,5.61122468 74.0936542,5.57386122 74.2008383,5.57386122 C74.2918974,5.57386122 74.3099195,5.6658328 74.2918974,5.79325177 C74.2568017,6.10269783 74.2568017,7.24946852 74.2568017,8.7602934 L74.2568017,10.7443887 C74.2568017,11.4533363 74.2568017,12.1086339 74.2738753,12.3088637 C74.3108681,12.6547152 74.3649344,12.7821341 74.5631777,12.7821341 L75.3912464,12.7821341 C75.5354233,12.7821341 75.5724161,12.8367423 75.5724161,12.9459585 L75.5724161,13.2554046 C75.5724161,13.3828235 75.5354233,13.4364736 75.4092685,13.4364736 C75.2650916,13.4364736 74.4370229,13.3818655 73.6791456,13.3818655 C72.6338629,13.3818655 71.931949,13.4364736 71.7337057,13.4364736 C71.6426466,13.4364736 71.5895288,13.4010263 71.5895288,13.290852 L71.5895288,12.9277558 C71.5895288,12.8185396 71.6435952,12.7821341 71.7688014,12.7821341 L72.6528336,12.7821341 C72.8510768,12.7821341 72.9231653,12.7093233 72.9421359,12.4180799 C72.9592095,11.8729567 72.9592095,11.3077147 72.9592095,10.7616334 L72.9592095,8.08679315 L72.9573125,8.08679315 Z M72.1472658,2.53592483 C72.1472658,2.08085709 72.5247817,1.58938394 73.2456663,1.58938394 C73.8754917,1.58938394 74.1828162,2.08181513 74.1828162,2.48227474 C74.1828162,2.95554518 73.8584182,3.48342375 73.1375336,3.48342375 C72.7419956,3.48246572 72.1472658,3.11745349 72.1472658,2.53592483 Z" id="Shape"></path>
                                            <path d="M77.5529516,12.3452691 C76.7248829,11.3441201 76.5617353,10.6715779 76.5617353,9.37822748 C76.5617353,8.4498893 77.0492809,7.2849159 78.1125856,6.44759127 C79.0478385,5.71948289 79.9318707,5.57386122 80.5266004,5.57386122 C81.5178167,5.57386122 82.509033,6.08449512 83.0496964,6.6305764 C83.859743,7.46790103 84.2742516,8.41444192 84.2742516,9.59761803 C84.2742516,11.5807553 82.509033,13.6022141 80.2913644,13.6022141 C79.4282,13.6022141 78.3108289,13.2554046 77.5529516,12.3452691 Z M82.760394,9.41559094 C82.760394,7.39604823 81.3006028,6.12185858 80.381475,6.12185858 C79.8939294,6.12185858 79.4272515,6.23107483 78.9937722,6.70338724 C78.2918583,7.43245365 78.0395487,8.1778067 78.0395487,9.56121261 C78.0395487,10.5796063 78.1467328,11.2722673 78.7234405,12.1086339 C79.1388976,12.7093233 79.6605904,13.0551748 80.5076298,13.0551748 C81.8773105,13.0551748 82.760394,11.3623228 82.760394,9.41559094 Z" id="Shape"></path>
                                            <path d="M92.8888222,12.4008353 C92.8888222,12.6920786 93.0500727,12.7821341 93.2853087,12.7821341 L93.8610679,12.7821341 C94.0242154,12.7821341 94.0593111,12.8367423 94.0593111,12.9459585 L94.0593111,13.2372019 C94.0593111,13.3646208 94.0242154,13.4374317 93.9151342,13.4374317 C93.7889794,13.4374317 93.2312424,13.3828235 92.2030334,13.3828235 C91.2839055,13.3828235 90.7081464,13.4374317 90.5819916,13.4374317 C90.4748075,13.4374317 90.4378147,13.3828235 90.4378147,13.2372019 L90.4378147,12.9459585 C90.4378147,12.8185396 90.491881,12.7821341 90.6730507,12.7821341 L91.195692,12.7821341 C91.3939353,12.7821341 91.5362151,12.6911206 91.5551858,12.3625138 C91.5741564,11.8902014 91.5921785,11.3067566 91.5921785,10.8334862 L91.5921785,8.43168659 C91.5921785,7.70262018 91.5921785,7.17474161 91.0676402,6.79344275 C90.636058,6.46579398 90.2044758,6.46579398 89.7520258,6.46579398 C89.4646205,6.46579398 88.832898,6.59321294 88.2941316,7.17474161 C87.9327408,7.57520121 87.8786745,8.0676324 87.8786745,8.41348388 L87.8786745,12.1804867 C87.8786745,12.6729179 87.9327408,12.7811761 88.3102567,12.7811761 L88.7608095,12.7811761 C88.9049865,12.7811761 88.9419792,12.8357842 88.9419792,12.9622452 L88.9419792,13.2726492 C88.9419792,13.3809075 88.9049865,13.4355156 88.8158244,13.4355156 C88.6896696,13.4355156 88.2030725,13.3809075 87.246952,13.3809075 C86.3278241,13.3809075 85.752065,13.4355156 85.6448809,13.4355156 C85.5538218,13.4355156 85.5187261,13.3809075 85.5187261,13.2726492 L85.5187261,12.9440424 C85.5187261,12.8348262 85.5538218,12.7802181 85.6979987,12.7802181 L86.22064,12.7802181 C86.4539789,12.7802181 86.5820308,12.7256099 86.5820308,12.4161639 L86.5820308,8.15768791 C86.5820308,7.61256467 86.2927284,7.30120254 85.8431241,7.08372806 L85.6989472,7.01187526 C85.5727924,6.95630909 85.5547703,6.90170097 85.5547703,6.84709284 L85.5547703,6.75607929 C85.5547703,6.66506574 85.6268587,6.61141565 85.7179178,6.5740522 L87.2668711,5.70128019 C87.411048,5.62846935 87.5191807,5.57290318 87.5912692,5.57290318 C87.6823283,5.57290318 87.717424,5.64571402 87.7354461,5.79229373 L87.8616009,6.90170097 L87.8985937,6.90170097 C88.421235,6.24640343 89.4655691,5.57290318 90.3666748,5.57290318 C90.9073382,5.57290318 91.4650752,5.68307748 91.8985545,5.97336279 C92.4392179,6.33837501 92.8897708,7.24755244 92.8897708,7.70262018 L92.8897708,12.4008353 L92.8888222,12.4008353 Z" id="Shape"></path>
                                        </g>
                                        <path d="M113.236738,69.2335261 C113.020472,69.0697017 112.91234,69.0150936 112.822229,69.0150936 C112.714096,69.0150936 112.642008,69.1425126 112.533875,69.3245397 C112.425743,69.5247695 112.335632,69.5429722 112.209477,69.5429722 C112.100396,69.5429722 112.011234,69.4519586 112.04633,69.2517288 C112.118418,68.7966611 112.298639,66.484917 112.352706,65.9570384 C112.370728,65.8487802 112.40772,65.8487802 112.47886,65.8487802 L112.749192,65.8679409 C112.821281,65.8679409 112.857325,65.9033883 112.857325,66.0126046 C112.875347,66.5950913 112.911391,67.1957807 113.506121,68.1241189 C114.046784,68.9796462 115.038001,69.4701613 116.029217,69.4701613 C117.109595,69.4701613 118.479276,68.7976191 118.479276,67.1584172 C118.479276,65.2844962 117.146588,64.5927933 115.704819,64.0831174 C115.145185,63.8828876 113.848541,63.4268618 113.07359,62.609656 C112.47886,62.0089666 112.172484,61.1524812 112.172484,59.9520604 C112.172484,59.0419249 112.732119,58.1509502 113.289856,57.6221136 C113.9396,57.0032215 114.840706,56.7493416 115.812952,56.7493416 C116.840212,56.7493416 117.633185,57.0578296 117.939561,57.2044093 C118.100811,57.2954229 118.191871,57.2772202 118.281033,57.1852486 L118.51532,56.9668161 C118.606379,56.8940052 118.659497,56.8575998 118.749608,56.8575998 C118.839718,56.8575998 118.892836,57.0032215 118.892836,57.1670459 C118.892836,57.8041407 119.128072,59.660817 119.146094,60.0612767 C119.146094,60.1522902 119.128072,60.1886956 119.055984,60.2068983 L118.83877,60.2615065 C118.784703,60.2806672 118.748659,60.2615065 118.731585,60.2068983 C118.587409,59.6790198 118.353121,58.9681561 117.614214,58.1863976 C117.126669,57.658519 116.496843,57.4046391 115.649804,57.4046391 C114.046784,57.4046391 113.469128,58.6060179 113.469128,59.5343561 C113.469128,60.0430739 113.577261,60.6437634 114.027814,61.1170338 C114.550455,61.6449124 115.559693,62.045372 116.082335,62.2101544 C117.325861,62.610614 118.335099,62.919102 118.983895,63.7200212 C119.45247,64.2843052 119.776868,64.9942109 119.776868,66.1955897 C119.776868,68.3425514 118.479276,70.181025 116.101305,70.181025 C114.841654,70.180067 113.957622,69.7987681 113.236738,69.2335261 Z" id="Shape" fill="#540000"></path>
                                        <path d="M122.453626,65.5029287 C122.453626,66.485875 122.886157,67.5971983 123.372754,68.2697405 C123.967484,69.052457 124.725361,69.1990368 125.337165,69.1990368 C126.23827,69.1990368 126.706845,68.998807 127.318649,68.4163203 C127.355641,68.3799148 127.409708,68.3607541 127.462826,68.4163203 L127.643047,68.5983474 C127.714187,68.6702002 127.733157,68.7257663 127.643047,68.8340245 C127.119457,69.4347139 125.96699,70.1273749 124.741486,70.1273749 C123.786314,70.1273749 122.777076,69.9079844 121.949007,68.8531853 C121.282189,67.9602945 121.138012,67.1967387 121.138012,66.3776168 C121.138012,64.2478998 122.616774,62.0999801 124.993796,62.0999801 C126.868096,62.0999801 127.444803,63.1931007 127.444803,63.5743996 C127.426781,63.9940199 127.15645,64.2114944 126.777985,64.2114944 C126.363477,64.2114944 126.057101,63.9748592 125.786769,63.483386 C125.390282,62.738033 125.011818,62.6824668 124.580236,62.6824668 C123.552975,62.6815088 122.453626,63.6280497 122.453626,65.5029287 Z" id="Shape" fill="#540000"></path>
                                        <path d="M129.733612,59.9884658 C129.733612,58.8790586 129.517347,58.6788288 128.86855,58.4594382 L128.563123,58.35118 C128.45499,58.3138166 128.436968,58.2956138 128.436968,58.2410057 L128.436968,58.0781394 C128.436968,58.0053285 128.491035,57.9861678 128.653234,57.8961123 L130.527533,56.8949633 C130.67171,56.8221524 130.797865,56.7502996 130.942991,56.7502996 C131.050175,56.7502996 131.122263,56.8949633 131.087168,57.2053674 C131.050175,57.5138554 131.031204,61.2099634 131.031204,62.1191409 L131.031204,63.2841143 L131.122263,63.2841143 C131.752089,62.5196005 132.799268,62.1009381 133.592241,62.1009381 C134.348222,62.1009381 134.870863,62.3385314 135.374534,62.8290465 C136.185529,63.5945183 136.150433,64.5228565 136.150433,65.5048448 L136.150433,66.5423992 C136.150433,67.5607929 136.185529,68.6893609 136.185529,69.0361704 C136.185529,69.255561 136.474831,69.3092111 136.852347,69.3092111 L137.157774,69.3092111 C137.301951,69.3092111 137.356018,69.3456165 137.356018,69.4730354 L137.356018,69.7460761 C137.356018,69.8907397 137.320922,69.9645086 137.213738,69.9645086 C137.087583,69.9645086 136.509927,69.9099005 135.483615,69.9099005 C134.599583,69.9099005 133.951735,69.9645086 133.790485,69.9645086 C133.662433,69.9645086 133.627337,69.9099005 133.627337,69.7642788 L133.627337,69.4557908 C133.627337,69.3638192 133.646308,69.3101691 133.753492,69.3101691 L134.168949,69.3101691 C134.474377,69.3101691 134.835767,69.2737637 134.852841,68.9643176 C134.871812,68.7094797 134.852841,67.7456941 134.852841,67.1622494 L134.852841,65.688788 C134.852841,64.6703943 134.78265,63.9422859 134.258111,63.4498547 C133.898617,63.1040032 133.521102,62.9411369 133.068652,62.9411369 C132.54601,62.9411369 131.898163,63.1222059 131.393544,63.7046926 C131.230396,63.9049224 131.032153,64.2699347 131.032153,64.5975834 L131.032153,68.564816 C131.032153,69.1473027 131.088116,69.3111271 131.428639,69.3111271 L131.969303,69.3111271 C132.095457,69.3111271 132.167546,69.3475325 132.167546,69.4567488 L132.167546,69.7652368 C132.167546,69.8926558 132.13245,69.9654666 132.023369,69.9654666 C131.881089,69.9654666 131.141234,69.9108585 130.311268,69.9108585 C129.410162,69.9108585 128.726271,69.9654666 128.564072,69.9654666 C128.491983,69.9654666 128.437917,69.9108585 128.437917,69.7843976 L128.437917,69.4567488 C128.437917,69.3293298 128.510005,69.3111271 128.708248,69.3111271 L129.085764,69.3111271 C129.375067,69.3111271 129.64445,69.2383163 129.680494,69.0198838 C129.73456,68.6740323 129.73456,66.6726923 129.73456,65.4885582 L129.73456,59.9884658 L129.733612,59.9884658 Z" id="Shape" fill="#540000"></path>
                                        <path d="M139.305252,68.8694719 C138.475286,67.8683229 138.314035,67.1957807 138.314035,65.9024303 C138.314035,64.9740921 138.799684,63.8091187 139.862989,62.9717941 C140.800139,62.2436857 141.682274,62.098064 142.277003,62.098064 C143.26822,62.098064 144.259436,62.6086979 144.800099,63.1547792 C145.611095,63.9921038 146.026552,64.9386447 146.026552,66.1218208 C146.026552,68.1049581 144.259436,70.1264169 142.043664,70.1264169 C141.177654,70.1264169 140.061232,69.7796074 139.305252,68.8694719 Z M144.510797,65.9397937 C144.510797,63.920251 143.052903,62.6460614 142.133775,62.6460614 C141.646229,62.6460614 141.177654,62.7552776 140.746072,63.22759 C140.042261,63.9566565 139.789952,64.7020095 139.789952,66.0854154 C139.789952,67.1038091 139.897136,67.7964701 140.475741,68.6328367 C140.889301,69.2335261 141.41289,69.5793776 142.25993,69.5793776 C143.628662,69.5793776 144.510797,67.8865256 144.510797,65.9397937 Z" id="Shape" fill="#540000"></path>
                                        <path d="M148.279316,68.8694719 C147.44935,67.8683229 147.2881,67.1957807 147.2881,65.9024303 C147.2881,64.9740921 147.773748,63.8091187 148.837053,62.9717941 C149.774203,62.2436857 150.658235,62.098064 151.252965,62.098064 C152.244181,62.098064 153.235397,62.6086979 153.774164,63.1547792 C154.585159,63.9921038 155.000616,64.9386447 155.000616,66.1218208 C155.000616,68.1049581 153.235397,70.1264169 151.017729,70.1264169 C150.151719,70.1264169 149.035296,69.7796074 148.279316,68.8694719 Z M153.486758,65.9397937 C153.486758,63.920251 152.026967,62.6460614 151.107839,62.6460614 C150.620294,62.6460614 150.151719,62.7552776 149.720137,63.22759 C149.018223,63.9566565 148.764016,64.7020095 148.764016,66.0854154 C148.764016,67.1038091 148.873097,67.7964701 149.449805,68.6328367 C149.865262,69.2335261 150.386955,69.5793776 151.233994,69.5793776 C152.602726,69.5793776 153.486758,67.8865256 153.486758,65.9397937 Z" id="Shape" fill="#540000"></path>
                                        <path d="M158.659105,64.483577 C158.659105,65.4291598 158.659105,68.177769 158.678076,68.742053 C158.695149,69.051499 158.767238,69.3063369 159.146651,69.3063369 L159.956697,69.3063369 C160.119845,69.3063369 160.154941,69.3609451 160.154941,69.4701613 L160.154941,69.7796074 C160.154941,69.8878656 160.119845,69.9606764 160.047757,69.9606764 C159.921602,69.9606764 159.128629,69.9060683 158.012206,69.9060683 C156.857842,69.9060683 156.136958,69.9606764 155.976656,69.9606764 C155.885597,69.9606764 155.850501,69.8878656 155.850501,69.7796074 L155.850501,69.4701613 C155.850501,69.3427424 155.885597,69.3063369 156.08384,69.3063369 L156.948901,69.3063369 C157.147145,69.3063369 157.326417,69.178918 157.345388,68.8512692 C157.364359,68.2860272 157.364359,65.1561192 157.364359,64.1003621 L157.364359,62.9545494 C157.364359,61.662157 157.345388,60.0066685 157.308395,59.5333981 C157.2733,58.914506 156.983997,58.6232626 156.408238,58.4402775 L156.048744,58.3128585 C155.957685,58.2774111 155.939663,58.2582504 155.939663,58.221845 L155.939663,58.0771813 C155.939663,58.0216152 155.993729,57.9852097 156.102811,57.9497624 C156.732636,57.657561 157.54458,57.3308702 158.211398,56.8930472 C158.372648,56.7838309 158.48173,56.7483835 158.588914,56.7483835 C158.715069,56.7483835 158.752061,56.8384391 158.733091,57.0760323 C158.71412,58.0771813 158.661002,61.8623868 158.661002,62.8635359 L158.661002,64.483577 L158.659105,64.483577 Z" id="Shape" fill="#540000"></path>
                                    </g>
                                </g>
                            </g>
                        </g>
                    </g>
                </g>
            </g>
        </g>
    </g>
</svg>