<?xml version="1.0" encoding="UTF-8"?>
<svg width="30px" height="25px" viewBox="0 0 30 25" version="1.1" xmlns="http://www.w3.org/2000/svg" xmlns:xlink="http://www.w3.org/1999/xlink">
    <!-- Generator: Sketch 44 (41411) - http://www.bohemiancoding.com/sketch -->
    <title>block-9 footer-features/twitter/twitter</title>
    <desc>Created with Sketch.</desc>
    <defs></defs>
    <g id="Desktop" stroke="none" stroke-width="1" fill="none" fill-rule="evenodd">
        <g id="RISE-Home-Page" transform="translate(-163.000000, -5542.000000)" fill-rule="nonzero" fill="#FFFFFF">
            <g id="block-footer-features" transform="translate(0.000000, 5446.000000)">
                <g id="Qaudrant">
                    <g id="Row-1">
                        <g id="Twitter">
                            <path d="M189.9472,102.863963 C189.9472,102.597563 189.9472,102.332363 189.9292,102.068363 C191.133798,101.197056 192.173627,100.118218 193,98.8823628 C191.876655,99.380125 190.684995,99.7065572 189.4648,99.8507628 C190.749693,99.0815413 191.711348,97.8716892 192.1708,96.4463628 C190.962589,97.1633092 189.640775,97.6685773 188.2624,97.9403628 C186.354499,95.911636 183.322863,95.4150979 180.867459,96.7291788 C178.412055,98.0432596 177.14353,100.841154 177.7732,103.553963 C172.824275,103.305862 168.213371,100.968351 165.088,97.1231628 C163.454347,99.9355365 164.288785,103.533394 166.9936,105.339563 C166.014089,105.310532 165.055935,105.046299 164.2,104.569163 L164.2,104.647163 C164.200802,107.577074 166.266102,110.100605 169.138,110.680763 C168.231844,110.927891 167.281097,110.964016 166.3588,110.786363 C167.165138,113.29367 169.475889,115.011303 172.1092,115.060763 C169.929682,116.773681 167.237271,117.703556 164.4652,117.700763 C163.975484,117.699823 163.486245,117.670172 163,117.611963 C165.814763,119.418295 169.089896,120.376423 172.4344,120.371963 C183.7552,120.376763 189.9472,110.997563 189.9472,102.863963 Z" id="block-9-footer-features/twitter/twitter"></path>
                        </g>
                    </g>
                </g>
            </g>
        </g>
    </g>
</svg>