<?xml version="1.0" encoding="UTF-8"?>
<svg width="263px" height="137px" viewBox="0 0 263 137" version="1.1" xmlns="http://www.w3.org/2000/svg" xmlns:xlink="http://www.w3.org/1999/xlink">
    <!-- Generator: Sketch 44.1 (41455) - http://www.bohemiancoding.com/sketch -->
    <title>logo/flat/color</title>
    <desc>Created with Sketch.</desc>
    <defs></defs>
    <g id="Desktop" stroke="none" stroke-width="1" fill="none" fill-rule="evenodd">
        <g id="expert-directory/landing" transform="translate(-569.000000, -152.000000)" fill="#FFFFFF">
            <g id="Stacked-Group" transform="translate(-18.000000, -4.000000)">
                <g id="block">
                    <g id="logo+headers+search+cta" transform="translate(308.000000, 155.000000)">
                        <g id="logo+headers">
                            <g id="logo/flat/knockout" transform="translate(276.000000, 0.000000)">
                                <path d="M77.1275918,3.10340462 L96.1017121,3.10340462 C103.949928,3.10340462 109.789836,4.96889875 113.621611,8.69994296 C118.469039,13.5364818 120.892716,20.9293659 120.892716,30.8788171 C120.892716,38.5251547 119.611629,44.6628606 117.049418,49.2921192 C114.487206,53.9213778 110.828608,56.7887113 106.073513,57.8942059 L125.740119,109.783098 L111.128661,109.783098 L91.5313036,57.5487406 L91.5313036,109.783098 L77.1275918,109.783098 L77.1275918,3.10340462 Z M91.5313036,50.3630617 C97.1173864,50.3630617 101.064518,49.0733374 103.372817,46.49385 C105.681115,43.9143627 106.835247,39.5615431 106.835247,33.4352606 C106.835247,30.1187768 106.59288,27.2859895 106.108137,24.9368135 C105.623394,22.5876375 104.861667,20.6760818 103.822933,19.202089 C102.784198,17.7280962 101.445405,16.645649 99.8065129,15.9547149 C98.1676209,15.2637808 96.2171378,14.9183189 93.9550051,14.9183189 L91.5313036,14.9183189 L91.5313036,50.3630617 Z M137.4842,3.10340462 L151.887911,3.10340462 L151.887911,109.783098 L137.4842,109.783098 L137.4842,3.10340462 Z M204.627172,5.31438273 L204.627172,19.3402751 C200.241404,16.2080405 196.294273,14.6419466 192.785659,14.6419466 C189.000049,14.6419466 185.906975,15.9777326 183.506344,18.6493445 C181.105714,21.1827695 179.905416,24.5682959 179.905416,28.8060252 C179.905416,32.5370694 180.759474,35.7383494 182.467615,38.4099613 C183.344769,39.8378918 184.787434,41.6803552 186.795653,43.9374066 C188.803873,46.194458 191.40067,48.9120915 194.586123,52.0903884 C200.449201,58.0324218 204.442498,63.1682883 206.566133,67.4981421 C208.689768,71.689809 209.751569,76.8256756 209.751569,82.9058958 C209.751569,91.1510429 207.420222,97.9451264 202.757459,103.28835 C198.094696,108.493387 192.116292,111.095867 184.822068,111.095867 C178.681993,111.095867 173.442234,109.414619 169.102633,106.052073 L169.102633,91.8189013 C174.227056,95.5499455 178.889749,97.4154396 183.090853,97.4154396 C187.01496,97.4154396 190.084952,96.1141999 192.300918,93.5116814 C194.516885,90.9091629 195.624852,87.3739364 195.624852,82.9058958 C195.624852,79.0366648 194.770794,75.5590152 193.062653,72.4728428 C192.1855,70.9988501 190.96212,69.3060869 189.392477,67.3945025 C187.822833,65.4829181 185.860809,63.3525699 183.506344,61.0033939 C179.859232,57.4105365 176.835406,54.2322872 174.434776,51.4685508 C172.034145,48.7048143 170.256782,46.2865812 169.102633,44.2137789 C166.886666,40.1602987 165.778699,35.047463 165.778699,28.8751182 C165.778699,20.5378466 167.948467,13.9280094 172.288069,9.04540829 C176.673836,4.11674495 182.55991,1.65245024 189.946465,1.65245024 C195.070888,1.65245024 199.964408,2.8730822 204.627172,5.31438273 Z M222.46513,3.10340462 L260.759614,3.10340462 L260.759614,15.2637842 L236.868842,15.2637842 L236.868842,49.0502935 L258.058918,49.0502935 L258.058918,61.2106731 L236.868842,61.2106731 L236.868842,97.6227188 L260.759614,97.6227188 L260.759614,109.783098 L222.46513,109.783098 L222.46513,3.10340462 Z" id="RISE"></path>
                                <g id="Group" stroke-width="1" transform="translate(7.544308, 2.716097)">
                                    <polygon id="Path-Copy" points="13.4480157 83.8880502 13.4480157 107.858624 0.153976157 107.858624"></polygon>
                                    <polygon id="Path-Copy-2" points="28.787181 55.8474708 28.787181 107.858624 15.4931414 107.858624 15.4931414 79.7366479"></polygon>
                                    <polygon id="Path-Copy-3" points="44.1263463 28.0369148 44.1263463 107.858624 30.8323067 107.858624 30.8323067 52.3964965"></polygon>
                                    <polygon id="Path-Copy-4" points="59.4655115 0.0545588322 59.4655115 107.858624 46.171472 107.858624 46.171472 24.4382892"></polygon>
                                </g>
                                <path d="M8.60405429,129.898747 L5.6636516,129.898747 L5.6636516,131.82369 L8.34255603,131.82369 L8.34255603,133.284791 L5.6636516,133.284791 L5.6636516,137.09409 L3.94938521,137.09409 L3.94938521,128.402858 L8.60405429,128.402858 L8.60405429,129.898747 Z M21.9303932,132.745575 C21.9303932,134.063665 21.4858506,135.161412 20.596752,136.03885 C19.7076535,136.916288 18.6084033,137.355 17.2989684,137.355 C15.9895335,137.355 14.8902833,136.916288 14.0011847,136.03885 C13.1120862,135.161412 12.6675436,134.063665 12.6675436,132.745575 C12.6675436,131.427485 13.1120862,130.330704 14.0011847,129.455199 C14.8902833,128.579694 15.9895335,128.141947 17.2989684,128.141947 C18.6084033,128.141947 19.7076535,128.579694 20.596752,129.455199 C21.4858506,130.330704 21.9303932,131.427485 21.9303932,132.745575 Z M20.1057164,132.745575 C20.1057164,131.829483 19.8480948,131.094108 19.3328438,130.539429 C18.8175928,129.984749 18.1396411,129.707413 17.2989684,129.707413 C16.4582957,129.707413 15.780344,129.984749 15.265093,130.539429 C14.749842,131.094108 14.4922204,131.829483 14.4922204,132.745575 C14.4922204,133.650071 14.7508105,134.383513 15.2679985,134.945923 C15.7851866,135.508334 16.4621698,135.789535 17.2989684,135.789535 C18.135767,135.789535 18.8127502,135.508334 19.3299382,134.945923 C19.8471263,134.383513 20.1057164,133.650071 20.1057164,132.745575 Z M32.9090588,137.09409 L30.9042388,137.09409 L28.8006305,133.284791 L28.5507544,133.284791 L28.5507544,137.09409 L26.836488,137.09409 L26.836488,128.402858 L29.4456596,128.402858 C30.1352436,128.402858 30.7163451,128.534279 31.1889813,128.797124 C31.913432,129.206852 32.2756519,129.894877 32.2756519,130.861219 C32.2756519,132.129059 31.6926134,132.927245 30.526519,133.255801 L32.9090588,137.09409 Z M30.526519,130.861219 C30.526519,130.180914 30.117811,129.840767 29.3003827,129.840767 L28.5507544,129.840767 L28.5507544,131.962842 L29.3003827,131.962842 C29.7459005,131.962842 30.0616323,131.877806 30.2475876,131.707729 C30.4335428,131.537653 30.526519,131.255486 30.526519,130.861219 Z M49.5434475,134.432799 C49.5434475,135.198141 49.311007,135.814658 48.8461188,136.282367 C48.3076234,136.823518 47.5057034,137.09409 46.4403348,137.09409 L43.5231764,137.09409 L43.5231764,128.402858 L46.132348,128.402858 C47.9957746,128.402858 48.9274739,129.162391 48.9274739,130.68148 C48.9274739,131.435226 48.6291751,131.978302 48.0325687,132.310723 C48.509079,132.465338 48.884858,132.745573 49.1599168,133.151436 C49.4156052,133.530242 49.5434475,133.957359 49.5434475,134.432799 Z M47.178341,130.751056 C47.178341,130.159655 46.8006251,129.863959 46.0451819,129.863959 L45.2141985,129.863959 L45.2141985,131.748316 L46.2834359,131.748316 C46.8800423,131.748316 47.178341,131.415899 47.178341,130.751056 Z M47.7594483,134.432799 C47.7594483,133.570822 47.3274962,133.13984 46.4635791,133.13984 L45.2141985,133.13984 L45.2141985,135.632989 L46.3183023,135.632989 C47.2790711,135.632989 47.7594483,135.232929 47.7594483,134.432799 Z M63.2823726,132.745575 C63.2823726,134.063665 62.83783,135.161412 61.9487314,136.03885 C61.0596329,136.916288 59.9603827,137.355 58.6509478,137.355 C57.3415129,137.355 56.2422627,136.916288 55.3531641,136.03885 C54.4640656,135.161412 54.019523,134.063665 54.019523,132.745575 C54.019523,131.427485 54.4640656,130.330704 55.3531641,129.455199 C56.2422627,128.579694 57.3415129,128.141947 58.6509478,128.141947 C59.9603827,128.141947 61.0596329,128.579694 61.9487314,129.455199 C62.83783,130.330704 63.2823726,131.427485 63.2823726,132.745575 Z M61.4576958,132.745575 C61.4576958,131.829483 61.2000742,131.094108 60.6848232,130.539429 C60.1695722,129.984749 59.4916205,129.707413 58.6509478,129.707413 C57.8102751,129.707413 57.1323234,129.984749 56.6170724,130.539429 C56.1018214,131.094108 55.8441998,131.829483 55.8441998,132.745575 C55.8441998,133.650071 56.1027899,134.383513 56.619978,134.945923 C57.137166,135.508334 57.8141492,135.789535 58.6509478,135.789535 C59.4877464,135.789535 60.1647296,135.508334 60.6819176,134.945923 C61.1991057,134.383513 61.4576958,133.650071 61.4576958,132.745575 Z M74.3423932,128.402858 L71.5356452,133.151436 L71.5356452,137.09409 L69.8213788,137.09409 L69.8213788,133.151436 L67.0088197,128.402858 L68.879985,128.402858 L70.6756064,131.643951 L72.4712278,128.402858 L74.3423932,128.402858 Z M84.1995218,134.624133 C84.1995218,135.408803 83.9341521,136.050444 83.4034049,136.549076 C82.8300428,137.086362 82.0436189,137.355 81.0441094,137.355 C80.0794666,137.355 79.3317827,137.117284 78.8010354,136.641844 C78.2509178,136.150943 77.9758631,135.439726 77.9758631,134.508173 L79.7598624,134.508173 C79.7598624,135.018401 79.8625237,135.379807 80.0678492,135.592403 C80.2615526,135.793402 80.5869694,135.8939 81.0441094,135.8939 C81.5283679,135.8939 81.8799343,135.800166 82.0988191,135.612696 C82.3177039,135.425225 82.4271447,135.099573 82.4271447,134.635729 C82.4271447,134.330365 82.3283574,134.077188 82.13078,133.876189 C81.90221,133.651998 81.4450769,133.379493 80.7593669,133.058668 C79.8567091,132.637343 79.2368676,132.235351 78.8998237,131.85268 C78.578276,131.48547 78.4175046,131.01197 78.4175046,130.432165 C78.4175046,129.825303 78.6499452,129.301554 79.1148333,128.860902 C79.6184622,128.381597 80.2615477,128.141947 81.0441094,128.141947 C81.7724342,128.141947 82.4000237,128.36227 82.9268969,128.802922 C83.4653923,129.259035 83.734636,129.813706 83.734636,130.466953 L81.9855032,130.466953 C81.9855032,129.891014 81.6717084,129.603048 81.0441094,129.603048 C80.7651765,129.603048 80.5472635,129.677456 80.3903638,129.826272 C80.233464,129.975089 80.1550153,130.153859 80.1550153,130.362589 C80.1550153,130.652491 80.2450861,130.882477 80.4252302,131.052553 C80.6053743,131.222629 81.0073028,131.454548 81.6310277,131.748316 C82.6344113,132.21989 83.325922,132.683727 83.7055806,133.13984 C84.0348764,133.534108 84.1995218,134.028867 84.1995218,134.624133 Z M102.751564,137.09409 L100.967565,137.09409 L100.119149,135.169147 L96.6848048,135.169147 L95.8247661,137.09409 L94.0407668,137.09409 L98.3932601,127.973805 L102.751564,137.09409 Z M99.503175,133.78342 L98.3932601,131.290272 L97.3007785,133.78342 L99.503175,133.78342 Z M114.694868,137.523143 L108.517698,131.962842 L108.517698,137.09409 L106.838298,137.09409 L106.838298,127.973805 L113.015468,133.52251 L113.015468,128.391262 L114.694868,128.391262 L114.694868,137.523143 Z M127.347123,132.745575 C127.347123,134.028876 126.998462,135.047385 126.30113,135.801131 C125.503072,136.663108 124.306003,137.09409 122.709887,137.09409 L120.065849,137.09409 L120.065849,128.402858 L122.709887,128.402858 C124.298255,128.402858 125.495323,128.839638 126.30113,129.713211 C126.998462,130.470822 127.347123,131.4816 127.347123,132.745575 Z M125.563123,132.745575 C125.563123,131.759907 125.353927,131.04869 124.935528,130.611904 C124.482262,130.136464 123.703586,129.898747 122.599476,129.898747 L121.756871,129.898747 L121.756871,135.598201 L122.599476,135.598201 C123.703586,135.598201 124.482262,135.358551 124.935528,134.879246 C125.353927,134.44246 125.563123,133.731243 125.563123,132.745575 Z M147.700598,137.09409 L145.986331,137.09409 L145.306436,132.710787 L142.761186,137.523143 L140.215936,132.710787 L139.536041,137.09409 L137.821775,137.09409 L139.425631,127.973805 L142.761186,134.316838 L146.090931,127.973805 L147.700598,137.09409 Z M157.319472,137.09409 L152.287084,137.09409 L152.287084,128.402858 L157.319472,128.402858 L157.319472,129.898747 L154.00135,129.898747 L154.00135,131.748316 L156.953375,131.748316 L156.953375,133.174628 L154.00135,133.174628 L154.00135,135.598201 L157.319472,135.598201 L157.319472,137.09409 Z M170.262281,137.523143 L164.08511,131.962842 L164.08511,137.09409 L162.40571,137.09409 L162.40571,127.973805 L168.582881,133.52251 L168.582881,128.391262 L170.262281,128.391262 L170.262281,137.523143 Z M190.778466,132.745575 C190.778466,134.063665 190.333923,135.161412 189.444825,136.03885 C188.555726,136.916288 187.456476,137.355 186.147041,137.355 C184.837606,137.355 183.738356,136.916288 182.849257,136.03885 C181.960159,135.161412 181.515616,134.063665 181.515616,132.745575 C181.515616,131.427485 181.960159,130.330704 182.849257,129.455199 C183.738356,128.579694 184.837606,128.141947 186.147041,128.141947 C187.456476,128.141947 188.555726,128.579694 189.444825,129.455199 C190.333923,130.330704 190.778466,131.427485 190.778466,132.745575 Z M188.953789,132.745575 C188.953789,131.829483 188.696167,131.094108 188.180916,130.539429 C187.665665,129.984749 186.987714,129.707413 186.147041,129.707413 C185.306368,129.707413 184.628417,129.984749 184.113166,130.539429 C183.597915,131.094108 183.340293,131.829483 183.340293,132.745575 C183.340293,133.650071 183.598883,134.383513 184.116071,134.945923 C184.633259,135.508334 185.310242,135.789535 186.147041,135.789535 C186.98384,135.789535 187.660823,135.508334 188.178011,134.945923 C188.695199,134.383513 188.953789,133.650071 188.953789,132.745575 Z M200.33923,129.898747 L197.398827,129.898747 L197.398827,131.82369 L200.077731,131.82369 L200.077731,133.284791 L197.398827,133.284791 L197.398827,137.09409 L195.684561,137.09409 L195.684561,128.402858 L200.33923,128.402858 L200.33923,129.898747 Z M217.822035,136.821583 C217.109207,137.177196 216.284042,137.355 215.346518,137.355 C213.98672,137.355 212.87488,136.906625 212.010962,136.00986 C211.17029,135.136287 210.74996,134.048203 210.74996,132.745575 C210.74996,131.489331 211.17029,130.418641 212.010962,129.533472 C212.89425,128.605784 214.013839,128.141947 215.369762,128.141947 C216.318909,128.141947 217.136325,128.315886 217.822035,128.663769 L217.822035,130.524933 C217.020103,129.979917 216.202687,129.707413 215.369762,129.707413 C214.598823,129.707413 213.936367,129.997311 213.382376,130.577116 C212.816762,131.168517 212.533959,131.891329 212.533959,132.745575 C212.533959,133.638474 212.795455,134.369018 213.318454,134.937226 C213.841453,135.505435 214.521342,135.789535 215.35814,135.789535 C216.144576,135.789535 216.965866,135.511233 217.822035,134.95462 L217.822035,136.821583 Z M231.45055,132.745575 C231.45055,134.063665 231.006007,135.161412 230.116909,136.03885 C229.22781,136.916288 228.12856,137.355 226.819125,137.355 C225.50969,137.355 224.41044,136.916288 223.521341,136.03885 C222.632243,135.161412 222.1877,134.063665 222.1877,132.745575 C222.1877,131.427485 222.632243,130.330704 223.521341,129.455199 C224.41044,128.579694 225.50969,128.141947 226.819125,128.141947 C228.12856,128.141947 229.22781,128.579694 230.116909,129.455199 C231.006007,130.330704 231.45055,131.427485 231.45055,132.745575 Z M229.625873,132.745575 C229.625873,131.829483 229.368251,131.094108 228.853,130.539429 C228.337749,129.984749 227.659798,129.707413 226.819125,129.707413 C225.978452,129.707413 225.3005,129.984749 224.785249,130.539429 C224.269998,131.094108 224.012377,131.829483 224.012377,132.745575 C224.012377,133.650071 224.270967,134.383513 224.788155,134.945923 C225.305343,135.508334 225.982326,135.789535 226.819125,135.789535 C227.655923,135.789535 228.332907,135.508334 228.850095,134.945923 C229.367283,134.383513 229.625873,133.650071 229.625873,132.745575 Z M241.139157,137.09409 L236.391511,137.09409 L236.391511,128.402858 L238.105777,128.402858 L238.105777,135.598201 L241.139157,135.598201 L241.139157,137.09409 Z M254.360897,132.745575 C254.360897,134.063665 253.916354,135.161412 253.027256,136.03885 C252.138157,136.916288 251.038907,137.355 249.729472,137.355 C248.420037,137.355 247.320787,136.916288 246.431688,136.03885 C245.54259,135.161412 245.098047,134.063665 245.098047,132.745575 C245.098047,131.427485 245.54259,130.330704 246.431688,129.455199 C247.320787,128.579694 248.420037,128.141947 249.729472,128.141947 C251.038907,128.141947 252.138157,128.579694 253.027256,129.455199 C253.916354,130.330704 254.360897,131.427485 254.360897,132.745575 Z M252.53622,132.745575 C252.53622,131.829483 252.278598,131.094108 251.763347,130.539429 C251.248096,129.984749 250.570145,129.707413 249.729472,129.707413 C248.888799,129.707413 248.210848,129.984749 247.695597,130.539429 C247.180346,131.094108 246.922724,131.829483 246.922724,132.745575 C246.922724,133.650071 247.181314,134.383513 247.698502,134.945923 C248.21569,135.508334 248.892673,135.789535 249.729472,135.789535 C250.566271,135.789535 251.243254,135.508334 251.760442,134.945923 C252.27763,134.383513 252.53622,133.650071 252.53622,132.745575 Z M265.339562,137.09409 L263.334742,137.09409 L261.231134,133.284791 L260.981258,133.284791 L260.981258,137.09409 L259.266992,137.09409 L259.266992,128.402858 L261.876163,128.402858 C262.565747,128.402858 263.146849,128.534279 263.619485,128.797124 C264.343936,129.206852 264.706155,129.894877 264.706155,130.861219 C264.706155,132.129059 264.123117,132.927245 262.957023,133.255801 L265.339562,137.09409 Z M262.957023,130.861219 C262.957023,130.180914 262.548315,129.840767 261.730886,129.840767 L260.981258,129.840767 L260.981258,131.962842 L261.730886,131.962842 C262.176404,131.962842 262.492136,131.877806 262.678091,131.707729 C262.864046,131.537653 262.957023,131.255486 262.957023,130.861219 Z" id="FOR-BOYS-AND-MEN-OF"></path>
                                <rect id="Rectangle" x="4.17233669" y="118.095139" width="260.831927" height="4.15602039"></rect>
                            </g>
                        </g>
                    </g>
                </g>
            </g>
        </g>
    </g>
</svg>