<?xml version="1.0" encoding="UTF-8"?>
<svg width="256px" height="133px" viewBox="0 0 256 133" version="1.1" xmlns="http://www.w3.org/2000/svg" xmlns:xlink="http://www.w3.org/1999/xlink">
    <!-- Generator: Sketch 42 (36781) - http://www.bohemiancoding.com/sketch -->
    <title>logo/wht-org</title>
    <desc>Created with Sketch.</desc>
    <defs>
        <path d="M66.1712511,1.33381545 L83.3285624,1.33381545 C90.425296,1.33381545 95.7060216,3.04870388 99.1708974,6.47853218 C103.554174,10.9246059 105.745779,17.7206452 105.745779,26.8668541 C105.745779,33.8958849 104.587359,39.5380796 102.270485,43.7936073 C99.9536099,48.049135 96.6453292,50.684982 92.3455436,51.7012274 L110.129034,99.4010085 L96.9166521,99.4010085 L79.1957794,51.3836523 L79.1957794,99.4010085 L66.1712511,99.4010085 L66.1712511,1.33381545 Z M79.1957794,44.7780901 C84.2469839,44.7780901 87.8161699,43.5924882 89.9034445,41.2212489 C91.9907191,38.8500096 93.0343408,34.8486032 93.0343408,29.2169099 C93.0343408,26.1681736 92.8151802,23.5640837 92.3768525,21.4045622 C91.9385249,19.2450407 91.2497346,17.4878093 90.310461,16.1328154 C89.3711875,14.7778215 88.1605864,13.7827628 86.6786214,13.1476094 C85.1966564,12.512456 83.4329359,12.1948841 81.3874068,12.1948841 L79.1957794,12.1948841 L79.1957794,44.7780901 Z M120.748596,1.33381545 L133.773125,1.33381545 L133.773125,99.4010085 L120.748596,99.4010085 L120.748596,1.33381545 Z M181.462498,3.36629613 L181.462498,16.2598455 C177.496676,13.3804834 173.92749,11.940824 170.754833,11.940824 C167.331703,11.940824 164.534797,13.1687688 162.364031,15.6246953 C160.193266,17.953591 159.107899,21.065796 159.107899,24.9614034 C159.107899,28.3912317 159.880179,31.334065 161.424762,33.7899914 C162.217927,35.1026417 163.522454,36.7963587 165.338383,38.8711931 C167.154312,40.9460275 169.50246,43.44426 172.382899,46.3659656 C177.684577,51.8282848 181.295507,56.5495208 183.2158,60.5298154 C185.136093,64.3830793 186.096225,69.1043154 186.096225,74.6936652 C186.096225,82.2731623 183.988109,88.5187436 179.771814,93.4305965 C175.55552,98.2154187 170.149559,100.607794 163.553772,100.607794 C158.001621,100.607794 153.263579,99.0622772 149.339503,95.9711974 L149.339503,82.8871029 C153.973252,86.3169312 158.189484,88.0318197 161.988324,88.0318197 C165.53669,88.0318197 168.312724,86.8356321 170.316508,84.443221 C172.320291,82.0508099 173.322168,78.8009904 173.322168,74.6936652 C173.322168,71.1368062 172.549888,67.9399154 171.005305,65.1028969 C170.21214,63.7479031 169.105902,62.1918006 167.686555,60.4345429 C166.267208,58.6772852 164.493051,56.7189249 162.364031,54.5594034 C159.066137,51.2566058 156.331849,48.334944 154.161083,45.7943304 C151.990317,43.2537169 150.38314,41.0307134 149.339503,39.1252532 C147.335719,35.39902 146.333842,30.6989554 146.333842,25.0249184 C146.333842,17.3607342 148.295851,11.2845246 152.219927,6.79610729 C156.185749,2.26534644 161.508219,0 168.187498,0 C172.821248,0 177.246204,1.12208749 181.462498,3.36629613 Z M197.592438,1.33381545 L232.22015,1.33381545 L232.22015,12.5124592 L210.616966,12.5124592 L210.616966,43.5713047 L229.778051,43.5713047 L229.778051,54.7499485 L210.616966,54.7499485 L210.616966,88.2223647 L232.22015,88.2223647 L232.22015,99.4010085 L197.592438,99.4010085 L197.592438,1.33381545 Z" id="path-1"></path>
        <filter x="-50%" y="-50%" width="200%" height="200%" filterUnits="objectBoundingBox" id="filter-2">
            <feOffset dx="10" dy="12" in="SourceAlpha" result="shadowOffsetOuter1"></feOffset>
            <feGaussianBlur stdDeviation="5" in="shadowOffsetOuter1" result="shadowBlurOuter1"></feGaussianBlur>
            <feColorMatrix values="0 0 0 0 0   0 0 0 0 0   0 0 0 0 0  0 0 0 0.05 0" type="matrix" in="shadowBlurOuter1"></feColorMatrix>
        </filter>
        <polygon id="path-3" points="12.1603421 77.115572 12.1603421 99.1509459 0.13923264 99.1509459"></polygon>
        <filter x="-50%" y="-50%" width="200%" height="200%" filterUnits="objectBoundingBox" id="filter-4">
            <feOffset dx="10" dy="12" in="SourceAlpha" result="shadowOffsetOuter1"></feOffset>
            <feGaussianBlur stdDeviation="5" in="shadowOffsetOuter1" result="shadowBlurOuter1"></feGaussianBlur>
            <feColorMatrix values="0 0 0 0 0   0 0 0 0 0   0 0 0 0 0  0 0 0 0.05 0" type="matrix" in="shadowBlurOuter1"></feColorMatrix>
        </filter>
        <polygon id="path-5" points="26.0307524 51.3387741 26.0307524 99.1509459 14.009643 99.1509459 14.009643 73.2993221"></polygon>
        <filter x="-50%" y="-50%" width="200%" height="200%" filterUnits="objectBoundingBox" id="filter-6">
            <feOffset dx="10" dy="12" in="SourceAlpha" result="shadowOffsetOuter1"></feOffset>
            <feGaussianBlur stdDeviation="5" in="shadowOffsetOuter1" result="shadowBlurOuter1"></feGaussianBlur>
            <feColorMatrix values="0 0 0 0 0   0 0 0 0 0   0 0 0 0 0  0 0 0 0.05 0" type="matrix" in="shadowBlurOuter1"></feColorMatrix>
        </filter>
        <polygon id="path-7" points="39.9011628 25.7734292 39.9011628 99.1509459 27.8800534 99.1509459 27.8800534 48.166405"></polygon>
        <filter x="-50%" y="-50%" width="200%" height="200%" filterUnits="objectBoundingBox" id="filter-8">
            <feOffset dx="10" dy="12" in="SourceAlpha" result="shadowOffsetOuter1"></feOffset>
            <feGaussianBlur stdDeviation="5" in="shadowOffsetOuter1" result="shadowBlurOuter1"></feGaussianBlur>
            <feColorMatrix values="0 0 0 0 0   0 0 0 0 0   0 0 0 0 0  0 0 0 0.05 0" type="matrix" in="shadowBlurOuter1"></feColorMatrix>
        </filter>
        <polygon id="path-9" points="53.7715732 0.0501541703 53.7715732 99.1509459 41.7504638 99.1509459 41.7504638 22.4653291"></polygon>
        <filter x="-50%" y="-50%" width="200%" height="200%" filterUnits="objectBoundingBox" id="filter-10">
            <feOffset dx="10" dy="12" in="SourceAlpha" result="shadowOffsetOuter1"></feOffset>
            <feGaussianBlur stdDeviation="5" in="shadowOffsetOuter1" result="shadowBlurOuter1"></feGaussianBlur>
            <feColorMatrix values="0 0 0 0 0   0 0 0 0 0   0 0 0 0 0  0 0 0 0.05 0" type="matrix" in="shadowBlurOuter1"></feColorMatrix>
        </filter>
        <rect id="path-11" x="0.201603444" y="107.041999" width="235.856763" height="3.82049516"></rect>
        <filter x="-50%" y="-50%" width="200%" height="200%" filterUnits="objectBoundingBox" id="filter-12">
            <feOffset dx="10" dy="12" in="SourceAlpha" result="shadowOffsetOuter1"></feOffset>
            <feGaussianBlur stdDeviation="5" in="shadowOffsetOuter1" result="shadowBlurOuter1"></feGaussianBlur>
            <feColorMatrix values="0 0 0 0 0   0 0 0 0 0   0 0 0 0 0  0 0 0 0.05 0" type="matrix" in="shadowBlurOuter1"></feColorMatrix>
        </filter>
    </defs>
    <g id="Home-Page" stroke="none" stroke-width="1" fill="none" fill-rule="evenodd">
        <g id="RISE-Home-Page-Concept-3" transform="translate(-584.000000, -299.000000)">
            <g id="Home-Concept">
                <g id="Group-2" transform="translate(450.000000, 299.000000)">
                    <g id="logo/wht-org" transform="translate(134.000000, 0.000000)">
                        <g id="RISE">
                            <use fill="black" fill-opacity="1" filter="url(#filter-2)" xlink:href="#path-1"></use>
                            <use fill="#FFFFFF" fill-rule="evenodd" xlink:href="#path-1"></use>
                        </g>
                        <g id="Group" transform="translate(3.250702, 0.977776)">
                            <g id="Path-Copy">
                                <use fill="black" fill-opacity="1" filter="url(#filter-4)" xlink:href="#path-3"></use>
                                <use fill="#FFFFFF" fill-rule="evenodd" xlink:href="#path-3"></use>
                            </g>
                            <g id="Path-Copy-2">
                                <use fill="black" fill-opacity="1" filter="url(#filter-6)" xlink:href="#path-5"></use>
                                <use fill="#FFFFFF" fill-rule="evenodd" xlink:href="#path-5"></use>
                            </g>
                            <g id="Path-Copy-3">
                                <use fill="black" fill-opacity="1" filter="url(#filter-8)" xlink:href="#path-7"></use>
                                <use fill="#FFFFFF" fill-rule="evenodd" xlink:href="#path-7"></use>
                            </g>
                            <g id="Path-Copy-4">
                                <use fill="black" fill-opacity="1" filter="url(#filter-10)" xlink:href="#path-9"></use>
                                <use fill="#FFFFFF" fill-rule="evenodd" xlink:href="#path-9"></use>
                            </g>
                        </g>
                        <path d="M4.20897547,117.892674 L1.55012205,117.892674 L1.55012205,119.662212 L3.97251617,119.662212 L3.97251617,121.005354 L1.55012205,121.005354 L1.55012205,124.50712 L0,124.50712 L0,116.517552 L4.20897547,116.517552 L4.20897547,117.892674 Z M16.2592915,120.509671 C16.2592915,121.721348 15.8573147,122.730472 15.0533491,123.537072 C14.2493835,124.343672 13.2553886,124.746967 12.0713346,124.746967 C10.8872807,124.746967 9.89328581,124.343672 9.08932018,123.537072 C8.28535456,122.730472 7.88337777,121.721348 7.88337777,120.509671 C7.88337777,119.297993 8.28535456,118.289758 9.08932018,117.484934 C9.89328581,116.680111 10.8872807,116.277705 12.0713346,116.277705 C13.2553886,116.277705 14.2493835,116.680111 15.0533491,117.484934 C15.8573147,118.289758 16.2592915,119.297993 16.2592915,120.509671 Z M14.6093311,120.509671 C14.6093311,119.667537 14.3763772,118.991531 13.9104625,118.481632 C13.4445478,117.971732 12.8315113,117.716786 12.0713346,117.716786 C11.311158,117.716786 10.6981215,117.971732 10.2322068,118.481632 C9.76629206,118.991531 9.53333819,119.667537 9.53333819,120.509671 C9.53333819,121.341144 9.76716783,122.015374 10.2348341,122.53238 C10.7025004,123.049386 11.3146611,123.307885 12.0713346,123.307885 C12.8280082,123.307885 13.4401689,123.049386 13.9078352,122.53238 C14.3755015,122.015374 14.6093311,121.341144 14.6093311,120.509671 Z M26.1867285,124.50712 L24.3738739,124.50712 L22.4716903,121.005354 L22.2457403,121.005354 L22.2457403,124.50712 L20.6956182,124.50712 L20.6956182,116.517552 L23.0549565,116.517552 C23.6785116,116.517552 24.2039714,116.638362 24.6313518,116.879987 C25.2864349,117.256637 25.6139716,117.889116 25.6139716,118.777443 C25.6139716,119.942927 25.0867602,120.676674 24.0323216,120.978705 L26.1867285,124.50712 Z M24.0323216,118.777443 C24.0323216,118.152061 23.6627482,117.839375 22.9235902,117.839375 L22.2457403,117.839375 L22.2457403,119.79013 L22.9235902,119.79013 C23.3264488,119.79013 23.6119487,119.711958 23.7800984,119.555613 C23.948248,119.399267 24.0323216,119.13988 24.0323216,118.777443 Z M41.2283422,122.060681 C41.2283422,122.764235 41.0181583,123.330979 40.5977841,123.760929 C40.1108507,124.258392 39.3857161,124.50712 38.4223586,124.50712 L35.7845238,124.50712 L35.7845238,116.517552 L38.1438621,116.517552 C39.8288619,116.517552 40.6713492,117.215766 40.6713492,118.612215 C40.6713492,119.30511 40.4016132,119.804341 39.862133,120.109926 C40.2930165,120.252058 40.6328139,120.509669 40.8815353,120.882766 C41.1127411,121.23099 41.2283422,121.623624 41.2283422,122.060681 Z M39.0896993,118.676174 C39.0896993,118.132518 38.7481504,117.860695 38.0650423,117.860695 L37.3136272,117.860695 L37.3136272,119.592922 L38.280483,119.592922 C38.8199632,119.592922 39.0896993,119.287343 39.0896993,118.676174 Z M39.6151644,122.060681 C39.6151644,121.268294 39.2245725,120.872106 38.4433772,120.872106 L37.3136272,120.872106 L37.3136272,123.163977 L38.3120109,123.163977 C39.1807842,123.163977 39.6151644,122.796215 39.6151644,122.060681 Z M53.6517385,120.509671 C53.6517385,121.721348 53.2497617,122.730472 52.4457961,123.537072 C51.6418305,124.343672 50.6478356,124.746967 49.4637816,124.746967 C48.2797277,124.746967 47.2857328,124.343672 46.4817672,123.537072 C45.6778015,122.730472 45.2758248,121.721348 45.2758248,120.509671 C45.2758248,119.297993 45.6778015,118.289758 46.4817672,117.484934 C47.2857328,116.680111 48.2797277,116.277705 49.4637816,116.277705 C50.6478356,116.277705 51.6418305,116.680111 52.4457961,117.484934 C53.2497617,118.289758 53.6517385,119.297993 53.6517385,120.509671 Z M52.0017781,120.509671 C52.0017781,119.667537 51.7688242,118.991531 51.3029095,118.481632 C50.8369948,117.971732 50.2239583,117.716786 49.4637816,117.716786 C48.703605,117.716786 48.0905685,117.971732 47.6246538,118.481632 C47.158739,118.991531 46.9257852,119.667537 46.9257852,120.509671 C46.9257852,121.341144 47.1596148,122.015374 47.6272811,122.53238 C48.0949474,123.049386 48.7071081,123.307885 49.4637816,123.307885 C50.2204552,123.307885 50.8326159,123.049386 51.3002822,122.53238 C51.7679484,122.015374 52.0017781,121.341144 52.0017781,120.509671 Z M63.6527406,116.517552 L61.1147442,120.882766 L61.1147442,124.50712 L59.5646221,124.50712 L59.5646221,120.882766 L57.021371,116.517552 L58.7133687,116.517552 L60.3370558,119.496984 L61.960743,116.517552 L63.6527406,116.517552 Z M72.56603,122.236569 C72.56603,122.95789 72.32607,123.54773 71.8461428,124.006106 C71.3276813,124.500015 70.616559,124.746967 69.7127545,124.746967 C68.8404781,124.746967 68.1643864,124.528441 67.6844592,124.091385 C67.1870164,123.640115 66.9382988,122.986317 66.9382988,122.12997 L68.5514766,122.12997 C68.5514766,122.599006 68.6443079,122.931235 68.8299731,123.126667 C69.005129,123.311439 69.2993865,123.403824 69.7127545,123.403824 C70.1506443,123.403824 70.4685475,123.317657 70.6664737,123.145322 C70.8643998,122.972987 70.9633614,122.673625 70.9633614,122.247228 C70.9633614,121.966517 70.8740333,121.733779 70.6953742,121.549007 C70.4886903,121.342916 70.0753285,121.092411 69.4552766,120.797487 C68.6390501,120.410177 68.0785595,120.040638 67.7737883,119.688861 C67.4830295,119.351297 67.3376522,118.916024 67.3376522,118.383028 C67.3376522,117.825159 67.5478362,117.343693 67.9682104,116.938616 C68.4236157,116.498006 69.0051246,116.277705 69.7127545,116.277705 C70.3713407,116.277705 70.9388373,116.48024 71.4152614,116.885317 C71.9021949,117.304607 72.1456579,117.814499 72.1456579,118.415007 L70.564008,118.415007 C70.564008,117.885565 70.2802596,117.620848 69.7127545,117.620848 C69.46053,117.620848 69.2634825,117.689248 69.1216063,117.82605 C68.97973,117.962852 68.9087929,118.12719 68.9087929,118.319069 C68.9087929,118.585567 68.9902392,118.796985 69.1531342,118.953331 C69.3160292,119.109676 69.6794722,119.322871 70.2434742,119.592922 C71.1507819,120.026426 71.7760791,120.452816 72.1193847,120.872106 C72.4171497,121.234543 72.56603,121.68936 72.56603,122.236569 Z M89.3416785,124.50712 L87.7285007,124.50712 L86.9613216,122.737582 L83.8558229,122.737582 L83.0781345,124.50712 L81.4649567,124.50712 L85.4006903,116.123137 L89.3416785,124.50712 Z M86.4043286,121.463728 L85.4006903,119.171858 L84.4128159,121.463728 L86.4043286,121.463728 Z M100.141388,124.901535 L94.5556936,119.79013 L94.5556936,124.50712 L93.0370995,124.50712 L93.0370995,116.123137 L98.6227935,121.223882 L98.6227935,116.506892 L100.141388,116.506892 L100.141388,124.901535 Z M111.582164,120.509671 C111.582164,121.689368 111.266888,122.62565 110.636327,123.318545 C109.914685,124.110932 108.832237,124.50712 107.388953,124.50712 L104.998086,124.50712 L104.998086,116.517552 L107.388953,116.517552 C108.825231,116.517552 109.907678,116.919069 110.636327,117.722116 C111.266888,118.418564 111.582164,119.34774 111.582164,120.509671 Z M109.968986,120.509671 C109.968986,119.603578 109.779821,118.949779 109.401484,118.548256 C108.991619,118.111199 108.287503,117.892674 107.289114,117.892674 L106.52719,117.892674 L106.52719,123.131997 L107.289114,123.131997 C108.287503,123.131997 108.991619,122.911696 109.401484,122.471086 C109.779821,122.069562 109.968986,121.415764 109.968986,120.509671 Z M129.986755,124.50712 L128.436632,124.50712 L127.821838,120.477691 L125.520301,124.901535 L123.218764,120.477691 L122.60397,124.50712 L121.053848,124.50712 L122.504131,116.123137 L125.520301,121.954082 L128.531216,116.123137 L129.986755,124.50712 Z M138.684603,124.50712 L134.134075,124.50712 L134.134075,116.517552 L138.684603,116.517552 L138.684603,117.892674 L135.684197,117.892674 L135.684197,119.592922 L138.35356,119.592922 L138.35356,120.904086 L135.684197,120.904086 L135.684197,123.131997 L138.684603,123.131997 L138.684603,124.50712 Z M150.388112,124.901535 L144.802418,119.79013 L144.802418,124.50712 L143.283824,124.50712 L143.283824,116.123137 L148.869518,121.223882 L148.869518,116.506892 L150.388112,116.506892 L150.388112,124.901535 Z M168.939833,120.509671 C168.939833,121.721348 168.537856,122.730472 167.73389,123.537072 C166.929925,124.343672 165.93593,124.746967 164.751876,124.746967 C163.567822,124.746967 162.573827,124.343672 161.769862,123.537072 C160.965896,122.730472 160.563919,121.721348 160.563919,120.509671 C160.563919,119.297993 160.965896,118.289758 161.769862,117.484934 C162.573827,116.680111 163.567822,116.277705 164.751876,116.277705 C165.93593,116.277705 166.929925,116.680111 167.73389,117.484934 C168.537856,118.289758 168.939833,119.297993 168.939833,120.509671 Z M167.289872,120.509671 C167.289872,119.667537 167.056919,118.991531 166.591004,118.481632 C166.125089,117.971732 165.512053,117.716786 164.751876,117.716786 C163.991699,117.716786 163.378663,117.971732 162.912748,118.481632 C162.446833,118.991531 162.21388,119.667537 162.21388,120.509671 C162.21388,121.341144 162.447709,122.015374 162.915375,122.53238 C163.383042,123.049386 163.995202,123.307885 164.751876,123.307885 C165.50855,123.307885 166.12071,123.049386 166.588377,122.53238 C167.056043,122.015374 167.289872,121.341144 167.289872,120.509671 Z M177.585135,117.892674 L174.926282,117.892674 L174.926282,119.662212 L177.348676,119.662212 L177.348676,121.005354 L174.926282,121.005354 L174.926282,124.50712 L173.37616,124.50712 L173.37616,116.517552 L177.585135,116.517552 L177.585135,117.892674 Z M193.393928,124.256613 C192.749354,124.583517 192.003201,124.746967 191.155446,124.746967 C189.925852,124.746967 188.920472,124.334789 188.139277,123.510422 C187.3791,122.707375 186.999017,121.707135 186.999017,120.509671 C186.999017,119.354846 187.3791,118.370595 188.139277,117.556888 C188.937988,116.704095 189.950374,116.277705 191.176465,116.277705 C192.034729,116.277705 192.773876,116.437601 193.393928,116.757399 L193.393928,118.468307 C192.668782,117.967291 191.929635,117.716786 191.176465,117.716786 C190.479345,117.716786 189.88032,117.98328 189.379374,118.516276 C188.867919,119.059932 188.612195,119.72439 188.612195,120.509671 C188.612195,121.330484 188.848652,122.002049 189.321573,122.524385 C189.794494,123.046721 190.409282,123.307885 191.165956,123.307885 C191.877089,123.307885 192.619739,123.052051 193.393928,122.540375 L193.393928,124.256613 Z M205.717486,120.509671 C205.717486,121.721348 205.315509,122.730472 204.511543,123.537072 C203.707578,124.343672 202.713583,124.746967 201.529529,124.746967 C200.345475,124.746967 199.35148,124.343672 198.547514,123.537072 C197.743549,122.730472 197.341572,121.721348 197.341572,120.509671 C197.341572,119.297993 197.743549,118.289758 198.547514,117.484934 C199.35148,116.680111 200.345475,116.277705 201.529529,116.277705 C202.713583,116.277705 203.707578,116.680111 204.511543,117.484934 C205.315509,118.289758 205.717486,119.297993 205.717486,120.509671 Z M204.067525,120.509671 C204.067525,119.667537 203.834571,118.991531 203.368657,118.481632 C202.902742,117.971732 202.289705,117.716786 201.529529,117.716786 C200.769352,117.716786 200.156316,117.971732 199.690401,118.481632 C199.224486,118.991531 198.991532,119.667537 198.991532,120.509671 C198.991532,121.341144 199.225362,122.015374 199.693028,122.53238 C200.160695,123.049386 200.772855,123.307885 201.529529,123.307885 C202.286202,123.307885 202.898363,123.049386 203.366029,122.53238 C203.833696,122.015374 204.067525,121.341144 204.067525,120.509671 Z M214.47839,124.50712 L210.18534,124.50712 L210.18534,116.517552 L211.735462,116.517552 L211.735462,123.131997 L214.47839,123.131997 L214.47839,124.50712 Z M226.434122,120.509671 C226.434122,121.721348 226.032146,122.730472 225.22818,123.537072 C224.424214,124.343672 223.43022,124.746967 222.246166,124.746967 C221.062112,124.746967 220.068117,124.343672 219.264151,123.537072 C218.460186,122.730472 218.058209,121.721348 218.058209,120.509671 C218.058209,119.297993 218.460186,118.289758 219.264151,117.484934 C220.068117,116.680111 221.062112,116.277705 222.246166,116.277705 C223.43022,116.277705 224.424214,116.680111 225.22818,117.484934 C226.032146,118.289758 226.434122,119.297993 226.434122,120.509671 Z M224.784162,120.509671 C224.784162,119.667537 224.551208,118.991531 224.085293,118.481632 C223.619379,117.971732 223.006342,117.716786 222.246166,117.716786 C221.485989,117.716786 220.872952,117.971732 220.407038,118.481632 C219.941123,118.991531 219.708169,119.667537 219.708169,120.509671 C219.708169,121.341144 219.941999,122.015374 220.409665,122.53238 C220.877331,123.049386 221.489492,123.307885 222.246166,123.307885 C223.002839,123.307885 223.615,123.049386 224.082666,122.53238 C224.550332,122.015374 224.784162,121.341144 224.784162,120.509671 Z M236.361559,124.50712 L234.548705,124.50712 L232.646521,121.005354 L232.420571,121.005354 L232.420571,124.50712 L230.870449,124.50712 L230.870449,116.517552 L233.229787,116.517552 C233.853343,116.517552 234.378802,116.638362 234.806183,116.879987 C235.461266,117.256637 235.788803,117.889116 235.788803,118.777443 C235.788803,119.942927 235.261591,120.676674 234.207153,120.978705 L236.361559,124.50712 Z M234.207153,118.777443 C234.207153,118.152061 233.837579,117.839375 233.098421,117.839375 L232.420571,117.839375 L232.420571,119.79013 L233.098421,119.79013 C233.50128,119.79013 233.78678,119.711958 233.954929,119.555613 C234.123079,119.399267 234.207153,119.13988 234.207153,118.777443 Z" id="FOR-BOYS-AND-MEN-OF" fill="#FF9C45"></path>
                        <g id="Rectangle">
                            <use fill="black" fill-opacity="1" filter="url(#filter-12)" xlink:href="#path-11"></use>
                            <use fill="#FFFFFF" fill-rule="evenodd" xlink:href="#path-11"></use>
                        </g>
                    </g>
                </g>
            </g>
        </g>
    </g>
</svg>