<?xml version="1.0" encoding="UTF-8"?>
<svg width="691px" height="604px" viewBox="0 0 691 604" version="1.1" xmlns="http://www.w3.org/2000/svg" xmlns:xlink="http://www.w3.org/1999/xlink">
    <!-- Generator: Sketch 42 (36781) - http://www.bohemiancoding.com/sketch -->
    <title>datactr-prototype</title>
    <desc>Created with Sketch.</desc>
    <defs>
        <rect id="path-1" x="1.13686838e-13" y="0" width="692" height="604"></rect>
        <linearGradient x1="44.1835026%" y1="94.652798%" x2="69.4581488%" y2="0%" id="linearGradient-3">
            <stop stop-color="#790861" offset="0%"></stop>
            <stop stop-color="#9E1B11" offset="18.1566367%"></stop>
            <stop stop-color="#9E1B11" offset="38.8843688%"></stop>
            <stop stop-color="#BC4422" offset="59.6551199%"></stop>
            <stop stop-color="#F3790D" offset="80.8404849%"></stop>
            <stop stop-color="#FFEA00" offset="100%"></stop>
        </linearGradient>
        <rect id="path-4" x="-1.13686838e-13" y="0" width="1038.2" height="602" rx="4"></rect>
        <filter x="-50%" y="-50%" width="200%" height="200%" filterUnits="objectBoundingBox" id="filter-5">
            <feOffset dx="-5" dy="-2" in="SourceAlpha" result="shadowOffsetOuter1"></feOffset>
            <feGaussianBlur stdDeviation="7.5" in="shadowOffsetOuter1" result="shadowBlurOuter1"></feGaussianBlur>
            <feColorMatrix values="0 0 0 0 0   0 0 0 0 0   0 0 0 0 0  0 0 0 0.2 0" type="matrix" in="shadowBlurOuter1"></feColorMatrix>
        </filter>
        <path d="M213,23.9205862 L213,3.99261888 C213,1.79099276 211.211574,0 209.005439,0 L3.99456137,0 C1.79331275,0 0,1.78755636 0,3.99261888 L0,183.023563 C0,185.225189 1.78842604,187.016182 3.99456137,187.016182 L209.005439,187.016182 C211.206687,187.016182 213,185.228625 213,183.023563 L213,37.2361659 C213.054467,37.2041921 213.105814,37.1647978 213.152596,37.1180156 L219.160705,31.1099065 C219.456917,30.8136942 219.454233,30.3404757 219.160705,30.0469478 L213.152596,24.0388387 C213.105696,23.9919388 213.054359,23.9525319 213,23.9205862 Z" id="path-6"></path>
        <filter x="-50%" y="-50%" width="200%" height="200%" filterUnits="objectBoundingBox" id="filter-7">
            <feOffset dx="5" dy="2" in="SourceAlpha" result="shadowOffsetOuter1"></feOffset>
            <feGaussianBlur stdDeviation="7.5" in="shadowOffsetOuter1" result="shadowBlurOuter1"></feGaussianBlur>
            <feColorMatrix values="0 0 0 0 0   0 0 0 0 0   0 0 0 0 0  0 0 0 0.2 0" type="matrix" in="shadowBlurOuter1"></feColorMatrix>
        </filter>
    </defs>
    <g id="Home-Page" stroke="none" stroke-width="1" fill="none" fill-rule="evenodd">
        <g id="RISE-Home-Page-Concept-3" transform="translate(-709.000000, -1654.000000)">
            <g id="Data-Center" transform="translate(0.000000, 1654.000000)">
                <g id="datactr-prototype" transform="translate(709.000000, 0.000000)">
                    <mask id="mask-2" fill="white">
                        <use xlink:href="#path-1"></use>
                    </mask>
                    <g id="Mask"></g>
                    <g id="prototype-window-outline-gradient2" opacity="0.854336504" mask="url(#mask-2)">
                        <g transform="translate(1.000000, 1.000000)">
                            <g id="prototype-window-copy" stroke="none" fill-rule="evenodd">
                                <g id="window">
                                    <g id="Rectangle-7" opacity="0.25">
                                        <use fill="black" fill-opacity="1" filter="url(#filter-5)" xlink:href="#path-4"></use>
                                        <use fill="url(#linearGradient-3)" fill-rule="evenodd" xlink:href="#path-4"></use>
                                    </g>
                                    <rect id="Rectangle-7-Copy" fill="#FFFFFF" x="4" y="4" width="1030.19995" height="594"></rect>
                                </g>
                                <g id="Circles" transform="translate(22.000000, 18.000000)" fill="#C7C8CA">
                                    <ellipse id="Oval" cx="6" cy="6" rx="6" ry="6"></ellipse>
                                    <ellipse id="Oval-Copy" cx="26" cy="6" rx="6" ry="6"></ellipse>
                                    <ellipse id="Oval-Copy-2" cx="46" cy="6" rx="6" ry="6"></ellipse>
                                </g>
                                <g id="Lines" transform="translate(983.000000, 14.000000)" fill="#C7C8CA">
                                    <rect id="line-one" x="0" y="0" width="26" height="3"></rect>
                                    <rect id="line-two" x="0" y="8" width="26" height="3"></rect>
                                    <rect id="line-three" x="0" y="16" width="26" height="3"></rect>
                                </g>
                            </g>
                            <path d="M3.99,47 L1035.43996,46.8834205" id="Path-3" stroke="#C7C8CA"></path>
                        </g>
                    </g>
                    <g id="icons/data-backdrop-black" opacity="0.0700000003" mask="url(#mask-2)">
                        <g transform="translate(35.000000, 82.000000)" id="Group-9">
                            <g>
                                <g id="row-1" fill="#000000">
                                    <g id="Group-2-Copy-2">
                                        <path d="M310.321659,47.9118002 L315.112839,47.9118002 L315.112839,19.1647201 L310.321659,19.1647201 L310.321659,47.9118002 Z M319.904019,57.4941602 L324.695199,57.4941602 L324.695199,9.58236004 L319.904019,9.58236004 L319.904019,57.4941602 Z M300.739299,38.3294402 L305.530479,38.3294402 L305.530479,28.7470801 L300.739299,28.7470801 L300.739299,38.3294402 Z M329.486379,47.9118002 L334.277559,47.9118002 L334.277559,19.1647201 L329.486379,19.1647201 L329.486379,47.9118002 Z M339.068739,28.7470801 L339.068739,38.3294402 L343.859919,38.3294402 L343.859919,28.7470801 L339.068739,28.7470801 Z" id="Page-1"></path>
                                        <path d="M138.575873,14.3735401 L105.037613,14.3735401 C102.390486,14.3735401 100.246433,16.5175931 100.246433,19.1647201 L100.246433,52.7029802 C100.246433,55.350106 102.390486,57.4941602 105.037613,57.4941602 L138.575873,57.4941602 C141.223,57.4941602 143.367053,55.350106 143.367053,52.7029802 L143.367053,19.1647201 C143.367053,16.5175931 141.223,14.3735401 138.575873,14.3735401 Z M114.619973,47.9118002 L109.828793,47.9118002 L109.828793,31.1426701 L114.619973,31.1426701 L114.619973,47.9118002 Z M124.202333,47.9118002 L119.411153,47.9118002 L119.411153,23.9559001 L124.202333,23.9559001 L124.202333,47.9118002 Z M133.784693,47.9118002 L128.993513,47.9118002 L128.993513,38.3294402 L133.784693,38.3294402 L133.784693,47.9118002 Z" id="Page-1"></path>
                                        <path d="M23.9559001,9.58236004 C10.780155,9.58236004 0,20.3625151 0,33.5382601 C0,46.7140052 10.780155,57.4941602 23.9559001,57.4941602 C37.1316452,57.4941602 47.9118002,46.7140052 47.9118002,33.5382601 C47.9118002,20.3625151 37.1316452,9.58236004 23.9559001,9.58236004 Z M26.3514901,14.5412314 C34.99957,15.6192469 41.8749134,22.5185461 42.9529289,31.1426701 L26.3514901,31.1426701 L26.3514901,14.5412314 Z M4.79118002,33.5382601 C4.79118002,23.8121647 12.1456414,15.7150705 21.5603101,14.5412314 L21.5603101,52.5592412 C12.1456414,51.3614462 4.79118002,43.2643556 4.79118002,33.5382601 Z M26.3514901,52.5352901 L26.3514901,35.9338502 L42.9529289,35.9338502 C41.8749134,44.5819301 34.99957,51.4572722 26.3514901,52.5352901 Z" id="Page-1"></path>
                                        <polygon id="Page-1" transform="translate(229.239946, 28.747080) scale(-1, 1) translate(-229.239946, -28.747080) " points="204.086251 57.4941602 218.459791 43.0966643 228.042151 52.6790243 248.404666 29.7771838 245.026884 26.3994019 228.042151 45.4922543 218.459791 35.9098943 200.492866 53.9007752"></polygon>
                                    </g>
                                    <g id="Group-3-Copy-2" transform="translate(393.000000, 0.000000)">
                                        <g id="Graph" transform="translate(100.001294, 29.500000) scale(-1, 1) translate(-100.001294, -29.500000) translate(82.001294, 13.000000)" fill-rule="nonzero">
                                            <g id="Layer_1">
                                                <rect id="Rectangle-path" x="-3.69482223e-13" y="0" width="9.58236004" height="32.3404651"></rect>
                                                <rect id="Rectangle-path" x="13.1757451" y="5.98897503" width="9.58236004" height="26.3514901"></rect>
                                                <rect id="Rectangle-path" x="26.3514901" y="10.780155" width="9.58236004" height="21.5603101"></rect>
                                            </g>
                                        </g>
                                        <g id="Page-1" transform="translate(0.985732, 10.000000)">
                                            <path d="M15.3317761,24.9141361 C15.3317761,29.1478863 11.8996382,32.5800241 7.66588803,32.5800241 C3.43213785,32.5800241 0,29.1478863 0,24.9141361 C0,20.6803859 3.43213785,17.2482481 7.66588803,17.2482481 C11.8996382,17.2482481 15.3317761,20.6803859 15.3317761,24.9141361 Z" id="Fill-1"></path>
                                            <path d="M30.6635521,33.5382601 C30.6635521,36.1843558 28.518469,38.3294402 25.8723721,38.3294402 C23.2262753,38.3294402 21.0811921,36.1843558 21.0811921,33.5382601 C21.0811921,30.8921633 23.2262753,28.7470801 25.8723721,28.7470801 C28.518469,28.7470801 30.6635521,30.8921633 30.6635521,33.5382601 Z" id="Fill-3"></path>
                                            <path d="M38.3294402,11.498832 C38.3294402,17.8494573 33.1812334,22.9976641 26.8306081,22.9976641 C20.4799828,22.9976641 15.3317761,17.8494573 15.3317761,11.498832 C15.3317761,5.14820678 20.4799828,0 26.8306081,0 C33.1812334,0 38.3294402,5.14820678 38.3294402,11.498832 Z" id="Fill-4"></path>
                                        </g>
                                        <path d="M208.665367,29.7771838 L205.287585,26.3994019 L198.460154,34.0892458 C193.525238,28.531477 186.697807,25.177651 178.984007,25.177651 C172.060752,25.177651 165.712438,27.9565354 160.753567,32.364421 L164.155305,35.7661589 C168.227808,32.1967297 173.378326,29.968831 178.984007,29.968831 C185.547924,29.968831 191.17756,32.9872744 195.202151,37.7305427 L188.302852,45.4922543 L178.720492,35.9098943 L160.753567,53.9007752 L164.346952,57.4941602 L178.720492,43.0966643 L188.302852,52.6790243 L198.004992,41.7790898 C199.801684,45.0131363 200.999479,48.7263008 201.454641,52.6790243 L206.269777,52.6790243 C205.742748,47.1691673 203.993967,42.1623842 201.382774,37.9701017 L208.665367,29.7771838 Z" id="Page-1"></path>
                                        <path d="M282.56031,9.58236004 L282.56031,57.4941602 C270.414669,56.2963652 261,46.0192841 261,33.5382601 C261,21.0572362 270.414669,10.780155 282.56031,9.58236004 Z M287.423358,9.58236004 L287.423358,31.1187142 L308.9118,31.1187142 C307.785873,19.7636176 298.754499,10.7082873 287.423358,9.58236004 Z M287.423358,35.9578061 L287.423358,57.4941602 C298.778454,56.3682341 307.785873,47.3129027 308.9118,35.9578061 L287.423358,35.9578061 Z" id="Page-1"></path>
                                    </g>
                                </g>
                                <g id="row-2" transform="translate(10.000000, 111.000000)" fill="#000000">
                                    <g id="Group-2-Copy" transform="translate(353.000000, 0.000000)">
                                        <path d="M310.321659,47.9118002 L315.112839,47.9118002 L315.112839,19.1647201 L310.321659,19.1647201 L310.321659,47.9118002 Z M319.904019,57.4941602 L324.695199,57.4941602 L324.695199,9.58236004 L319.904019,9.58236004 L319.904019,57.4941602 Z M300.739299,38.3294402 L305.530479,38.3294402 L305.530479,28.7470801 L300.739299,28.7470801 L300.739299,38.3294402 Z M329.486379,47.9118002 L334.277559,47.9118002 L334.277559,19.1647201 L329.486379,19.1647201 L329.486379,47.9118002 Z M339.068739,28.7470801 L339.068739,38.3294402 L343.859919,38.3294402 L343.859919,28.7470801 L339.068739,28.7470801 Z" id="Page-1"></path>
                                        <path d="M138.575873,14.3735401 L105.037613,14.3735401 C102.390486,14.3735401 100.246433,16.5175931 100.246433,19.1647201 L100.246433,52.7029802 C100.246433,55.350106 102.390486,57.4941602 105.037613,57.4941602 L138.575873,57.4941602 C141.223,57.4941602 143.367053,55.350106 143.367053,52.7029802 L143.367053,19.1647201 C143.367053,16.5175931 141.223,14.3735401 138.575873,14.3735401 Z M114.619973,47.9118002 L109.828793,47.9118002 L109.828793,31.1426701 L114.619973,31.1426701 L114.619973,47.9118002 Z M124.202333,47.9118002 L119.411153,47.9118002 L119.411153,23.9559001 L124.202333,23.9559001 L124.202333,47.9118002 Z M133.784693,47.9118002 L128.993513,47.9118002 L128.993513,38.3294402 L133.784693,38.3294402 L133.784693,47.9118002 Z" id="Page-1"></path>
                                        <path d="M23.9559001,9.58236004 C10.780155,9.58236004 0,20.3625151 0,33.5382601 C0,46.7140052 10.780155,57.4941602 23.9559001,57.4941602 C37.1316452,57.4941602 47.9118002,46.7140052 47.9118002,33.5382601 C47.9118002,20.3625151 37.1316452,9.58236004 23.9559001,9.58236004 Z M26.3514901,14.5412314 C34.99957,15.6192469 41.8749134,22.5185461 42.9529289,31.1426701 L26.3514901,31.1426701 L26.3514901,14.5412314 Z M4.79118002,33.5382601 C4.79118002,23.8121647 12.1456414,15.7150705 21.5603101,14.5412314 L21.5603101,52.5592412 C12.1456414,51.3614462 4.79118002,43.2643556 4.79118002,33.5382601 Z M26.3514901,52.5352901 L26.3514901,35.9338502 L42.9529289,35.9338502 C41.8749134,44.5819301 34.99957,51.4572722 26.3514901,52.5352901 Z" id="Page-1"></path>
                                        <polygon id="Page-1" transform="translate(229.239946, 28.747080) scale(-1, 1) translate(-229.239946, -28.747080) " points="204.086251 57.4941602 218.459791 43.0966643 228.042151 52.6790243 248.404666 29.7771838 245.026884 26.3994019 228.042151 45.4922543 218.459791 35.9098943 200.492866 53.9007752"></polygon>
                                    </g>
                                    <g id="Group-3-Copy">
                                        <g id="Graph" transform="translate(100.034369, 29.170233) scale(-1, 1) translate(-100.034369, -29.170233) translate(82.067444, 13.000000)" fill-rule="nonzero">
                                            <g id="Layer_1">
                                                <rect id="Rectangle-path" x="0" y="0" width="9.58236004" height="32.3404651"></rect>
                                                <rect id="Rectangle-path" x="13.1757451" y="5.98897503" width="9.58236004" height="26.3514901"></rect>
                                                <rect id="Rectangle-path" x="26.3514901" y="10.780155" width="9.58236004" height="21.5603101"></rect>
                                            </g>
                                        </g>
                                        <g id="Page-1" transform="translate(0.985732, 10.000000)">
                                            <path d="M15.3317761,24.9141361 C15.3317761,29.1478863 11.8996382,32.5800241 7.66588803,32.5800241 C3.43213785,32.5800241 0,29.1478863 0,24.9141361 C0,20.6803859 3.43213785,17.2482481 7.66588803,17.2482481 C11.8996382,17.2482481 15.3317761,20.6803859 15.3317761,24.9141361 Z" id="Fill-1"></path>
                                            <path d="M30.6635521,33.5382601 C30.6635521,36.1843558 28.518469,38.3294402 25.8723721,38.3294402 C23.2262753,38.3294402 21.0811921,36.1843558 21.0811921,33.5382601 C21.0811921,30.8921633 23.2262753,28.7470801 25.8723721,28.7470801 C28.518469,28.7470801 30.6635521,30.8921633 30.6635521,33.5382601 Z" id="Fill-3"></path>
                                            <path d="M38.3294402,11.498832 C38.3294402,17.8494573 33.1812334,22.9976641 26.8306081,22.9976641 C20.4799828,22.9976641 15.3317761,17.8494573 15.3317761,11.498832 C15.3317761,5.14820678 20.4799828,0 26.8306081,0 C33.1812334,0 38.3294402,5.14820678 38.3294402,11.498832 Z" id="Fill-4"></path>
                                        </g>
                                        <path d="M208.665367,29.7771838 L205.287585,26.3994019 L198.460154,34.0892458 C193.525238,28.531477 186.697807,25.177651 178.984007,25.177651 C172.060752,25.177651 165.712438,27.9565354 160.753567,32.364421 L164.155305,35.7661589 C168.227808,32.1967297 173.378326,29.968831 178.984007,29.968831 C185.547924,29.968831 191.17756,32.9872744 195.202151,37.7305427 L188.302852,45.4922543 L178.720492,35.9098943 L160.753567,53.9007752 L164.346952,57.4941602 L178.720492,43.0966643 L188.302852,52.6790243 L198.004992,41.7790898 C199.801684,45.0131363 200.999479,48.7263008 201.454641,52.6790243 L206.269777,52.6790243 C205.742748,47.1691673 203.993967,42.1623842 201.382774,37.9701017 L208.665367,29.7771838 Z" id="Page-1"></path>
                                        <path d="M282.56031,9.58236004 L282.56031,57.4941602 C270.414669,56.2963652 261,46.0192841 261,33.5382601 C261,21.0572362 270.414669,10.780155 282.56031,9.58236004 Z M287.423358,9.58236004 L287.423358,31.1187142 L308.9118,31.1187142 C307.785873,19.7636176 298.754499,10.7082873 287.423358,9.58236004 Z M287.423358,35.9578061 L287.423358,57.4941602 C298.778454,56.3682341 307.785873,47.3129027 308.9118,35.9578061 L287.423358,35.9578061 Z" id="Page-1"></path>
                                    </g>
                                </g>
                                <g id="row-3" transform="translate(6.000000, 211.000000)" fill="#000000">
                                    <g id="Group-4">
                                        <path d="M110.321659,47.9118002 L115.112839,47.9118002 L115.112839,19.1647201 L110.321659,19.1647201 L110.321659,47.9118002 Z M119.904019,57.4941602 L124.695199,57.4941602 L124.695199,9.58236004 L119.904019,9.58236004 L119.904019,57.4941602 Z M100.739299,38.3294402 L105.530479,38.3294402 L105.530479,28.7470801 L100.739299,28.7470801 L100.739299,38.3294402 Z M129.486379,47.9118002 L134.277559,47.9118002 L134.277559,19.1647201 L129.486379,19.1647201 L129.486379,47.9118002 Z M139.068739,28.7470801 L139.068739,38.3294402 L143.859919,38.3294402 L143.859919,28.7470801 L139.068739,28.7470801 Z" id="Page-1"></path>
                                        <polygon id="Page-1" transform="translate(29.239946, 28.747080) scale(-1, 1) translate(-29.239946, -28.747080) " points="4.08625078 57.4941602 18.4597908 43.0966643 28.0421509 52.6790243 48.404666 29.7771838 45.0268841 26.3994019 28.0421509 45.4922543 18.4597908 35.9098943 0.492865764 53.9007752"></polygon>
                                        <g id="Group-7" transform="translate(284.000000, 21.000000)" fill-rule="nonzero">
                                            <rect id="Rectangle-path" x="27.0012945" y="0" width="9.58236004" height="32.3404651"></rect>
                                            <rect id="Rectangle-path" x="13.8255494" y="5.98897503" width="9.58236004" height="26.3514901"></rect>
                                            <rect id="Rectangle-path" x="0.649804368" y="10.780155" width="9.58236004" height="21.5603101"></rect>
                                        </g>
                                        <g id="Group-6" transform="translate(193.000000, 18.000000)">
                                            <path d="M16.3175076,24.9141361 C16.3175076,29.1478863 12.8853697,32.5800241 8.65161956,32.5800241 C4.41786938,32.5800241 0.985731527,29.1478863 0.985731527,24.9141361 C0.985731527,20.6803859 4.41786938,17.2482481 8.65161956,17.2482481 C12.8853697,17.2482481 16.3175076,20.6803859 16.3175076,24.9141361 Z" id="Fill-1"></path>
                                            <path d="M31.6492837,33.5382601 C31.6492837,36.1843558 29.5042005,38.3294402 26.8581036,38.3294402 C24.2120068,38.3294402 22.0669236,36.1843558 22.0669236,33.5382601 C22.0669236,30.8921633 24.2120068,28.7470801 26.8581036,28.7470801 C29.5042005,28.7470801 31.6492837,30.8921633 31.6492837,33.5382601 Z" id="Fill-3"></path>
                                            <path d="M39.3151717,11.498832 C39.3151717,17.8494573 34.1669649,22.9976641 27.8163396,22.9976641 C21.4657144,22.9976641 16.3175076,17.8494573 16.3175076,11.498832 C16.3175076,5.14820678 21.4657144,0 27.8163396,0 C34.1669649,0 39.3151717,5.14820678 39.3151717,11.498832 Z" id="Fill-4"></path>
                                        </g>
                                    </g>
                                    <g id="Group-8" transform="translate(349.000000, 0.000000)">
                                        <path d="M330.32944,14.3735401 L296.79118,14.3735401 C294.144053,14.3735401 292,16.5175931 292,19.1647201 L292,52.7029802 C292,55.350106 294.144053,57.4941602 296.79118,57.4941602 L330.32944,57.4941602 C332.976567,57.4941602 335.12062,55.350106 335.12062,52.7029802 L335.12062,19.1647201 C335.12062,16.5175931 332.976567,14.3735401 330.32944,14.3735401 Z M306.37354,47.9118002 L301.58236,47.9118002 L301.58236,31.1426701 L306.37354,31.1426701 L306.37354,47.9118002 Z M315.9559,47.9118002 L311.16472,47.9118002 L311.16472,23.9559001 L315.9559,23.9559001 L315.9559,47.9118002 Z M325.53826,47.9118002 L320.74708,47.9118002 L320.74708,38.3294402 L325.53826,38.3294402 L325.53826,47.9118002 Z" id="Page-1-Copy-3"></path>
                                        <path d="M178.9559,9.58236004 C165.780155,9.58236004 155,20.3625151 155,33.5382601 C155,46.7140052 165.780155,57.4941602 178.9559,57.4941602 C192.131645,57.4941602 202.9118,46.7140052 202.9118,33.5382601 C202.9118,20.3625151 192.131645,9.58236004 178.9559,9.58236004 Z M181.35149,14.5412314 C189.99957,15.6192469 196.874913,22.5185461 197.952929,31.1426701 L181.35149,31.1426701 L181.35149,14.5412314 Z M159.79118,33.5382601 C159.79118,23.8121647 167.145641,15.7150705 176.56031,14.5412314 L176.56031,52.5592412 C167.145641,51.3614462 159.79118,43.2643556 159.79118,33.5382601 Z M181.35149,52.5352901 L181.35149,35.9338502 L197.952929,35.9338502 C196.874913,44.5819301 189.99957,51.4572722 181.35149,52.5352901 Z" id="Page-1-Copy-2"></path>
                                        <path d="M87.58236,47.9118002 L92.3735401,47.9118002 L92.3735401,19.1647201 L87.58236,19.1647201 L87.58236,47.9118002 Z M97.1647201,57.4941602 L101.9559,57.4941602 L101.9559,9.58236004 L97.1647201,9.58236004 L97.1647201,57.4941602 Z M78,38.3294402 L82.79118,38.3294402 L82.79118,28.7470801 L78,28.7470801 L78,38.3294402 Z M106.74708,47.9118002 L111.53826,47.9118002 L111.53826,19.1647201 L106.74708,19.1647201 L106.74708,47.9118002 Z M116.32944,28.7470801 L116.32944,38.3294402 L121.12062,38.3294402 L121.12062,28.7470801 L116.32944,28.7470801 Z" id="Page-1-Copy"></path>
                                        <g id="Group-5" transform="translate(233.000000, 9.000000)">
                                            <path d="M15.3317761,24.9141361 C15.3317761,29.1478863 11.8996382,32.5800241 7.66588803,32.5800241 C3.43213785,32.5800241 0,29.1478863 0,24.9141361 C0,20.6803859 3.43213785,17.2482481 7.66588803,17.2482481 C11.8996382,17.2482481 15.3317761,20.6803859 15.3317761,24.9141361 Z" id="Fill-1-Copy"></path>
                                            <path d="M30.6635521,33.5382601 C30.6635521,36.1843558 28.518469,38.3294402 25.8723721,38.3294402 C23.2262753,38.3294402 21.0811921,36.1843558 21.0811921,33.5382601 C21.0811921,30.8921633 23.2262753,28.7470801 25.8723721,28.7470801 C28.518469,28.7470801 30.6635521,30.8921633 30.6635521,33.5382601 Z" id="Fill-3-Copy"></path>
                                            <path d="M38.3294402,11.498832 C38.3294402,17.8494573 33.1812334,22.9976641 26.8306081,22.9976641 C20.4799828,22.9976641 15.3317761,17.8494573 15.3317761,11.498832 C15.3317761,5.14820678 20.4799828,0 26.8306081,0 C33.1812334,0 38.3294402,5.14820678 38.3294402,11.498832 Z" id="Fill-4-Copy"></path>
                                        </g>
                                        <path d="M47.9118002,29.7771838 L44.5340183,26.3994019 L37.7065868,34.0892458 C32.7716713,28.531477 25.9442398,25.177651 18.23044,25.177651 C11.3071848,25.177651 4.95887132,27.9565354 0,32.364421 L3.40173781,35.7661589 C7.47424083,32.1967297 12.6247594,29.968831 18.23044,29.968831 C24.7943566,29.968831 30.4239931,32.9872744 34.4485843,37.7305427 L27.5492851,45.4922543 L17.9669251,35.9098943 L0,53.9007752 L3.59338502,57.4941602 L17.9669251,43.0966643 L27.5492851,52.6790243 L37.2514247,41.7790898 C39.0481172,45.0131363 40.2459122,48.7263008 40.7010743,52.6790243 L45.5162102,52.6790243 C44.9891804,47.1691673 43.2403997,42.1623842 40.6292066,37.9701017 L47.9118002,29.7771838 Z" id="Page-1-Copy-4"></path>
                                    </g>
                                </g>
                                <g id="row-4" transform="translate(0.000000, 324.000000)" fill="#000000">
                                    <g id="Group-2">
                                        <path d="M310.321659,47.9118002 L315.112839,47.9118002 L315.112839,19.1647201 L310.321659,19.1647201 L310.321659,47.9118002 Z M319.904019,57.4941602 L324.695199,57.4941602 L324.695199,9.58236004 L319.904019,9.58236004 L319.904019,57.4941602 Z M300.739299,38.3294402 L305.530479,38.3294402 L305.530479,28.7470801 L300.739299,28.7470801 L300.739299,38.3294402 Z M329.486379,47.9118002 L334.277559,47.9118002 L334.277559,19.1647201 L329.486379,19.1647201 L329.486379,47.9118002 Z M339.068739,28.7470801 L339.068739,38.3294402 L343.859919,38.3294402 L343.859919,28.7470801 L339.068739,28.7470801 Z" id="Page-1"></path>
                                        <path d="M138.575873,14.3735401 L105.037613,14.3735401 C102.390486,14.3735401 100.246433,16.5175931 100.246433,19.1647201 L100.246433,52.7029802 C100.246433,55.350106 102.390486,57.4941602 105.037613,57.4941602 L138.575873,57.4941602 C141.223,57.4941602 143.367053,55.350106 143.367053,52.7029802 L143.367053,19.1647201 C143.367053,16.5175931 141.223,14.3735401 138.575873,14.3735401 Z M114.619973,47.9118002 L109.828793,47.9118002 L109.828793,31.1426701 L114.619973,31.1426701 L114.619973,47.9118002 Z M124.202333,47.9118002 L119.411153,47.9118002 L119.411153,23.9559001 L124.202333,23.9559001 L124.202333,47.9118002 Z M133.784693,47.9118002 L128.993513,47.9118002 L128.993513,38.3294402 L133.784693,38.3294402 L133.784693,47.9118002 Z" id="Page-1"></path>
                                        <path d="M23.9559001,9.58236004 C10.780155,9.58236004 0,20.3625151 0,33.5382601 C0,46.7140052 10.780155,57.4941602 23.9559001,57.4941602 C37.1316452,57.4941602 47.9118002,46.7140052 47.9118002,33.5382601 C47.9118002,20.3625151 37.1316452,9.58236004 23.9559001,9.58236004 Z M26.3514901,14.5412314 C34.99957,15.6192469 41.8749134,22.5185461 42.9529289,31.1426701 L26.3514901,31.1426701 L26.3514901,14.5412314 Z M4.79118002,33.5382601 C4.79118002,23.8121647 12.1456414,15.7150705 21.5603101,14.5412314 L21.5603101,52.5592412 C12.1456414,51.3614462 4.79118002,43.2643556 4.79118002,33.5382601 Z M26.3514901,52.5352901 L26.3514901,35.9338502 L42.9529289,35.9338502 C41.8749134,44.5819301 34.99957,51.4572722 26.3514901,52.5352901 Z" id="Page-1"></path>
                                        <polygon id="Page-1" transform="translate(229.239946, 28.747080) scale(-1, 1) translate(-229.239946, -28.747080) " points="204.086251 57.4941602 218.459791 43.0966643 228.042151 52.6790243 248.404666 29.7771838 245.026884 26.3994019 228.042151 45.4922543 218.459791 35.9098943 200.492866 53.9007752"></polygon>
                                    </g>
                                    <g id="Group-3" transform="translate(393.000000, 0.000000)">
                                        <g id="Graph" transform="translate(100.034369, 29.170233) scale(-1, 1) translate(-100.034369, -29.170233) translate(82.067444, 13.000000)" fill-rule="nonzero">
                                            <g id="Layer_1">
                                                <rect id="Rectangle-path" x="0" y="0" width="9.58236004" height="32.3404651"></rect>
                                                <rect id="Rectangle-path" x="13.1757451" y="5.98897503" width="9.58236004" height="26.3514901"></rect>
                                                <rect id="Rectangle-path" x="26.3514901" y="10.780155" width="9.58236004" height="21.5603101"></rect>
                                            </g>
                                        </g>
                                        <g id="Page-1" transform="translate(0.985732, 10.000000)">
                                            <path d="M15.3317761,24.9141361 C15.3317761,29.1478863 11.8996382,32.5800241 7.66588803,32.5800241 C3.43213785,32.5800241 0,29.1478863 0,24.9141361 C0,20.6803859 3.43213785,17.2482481 7.66588803,17.2482481 C11.8996382,17.2482481 15.3317761,20.6803859 15.3317761,24.9141361 Z" id="Fill-1"></path>
                                            <path d="M30.6635521,33.5382601 C30.6635521,36.1843558 28.518469,38.3294402 25.8723721,38.3294402 C23.2262753,38.3294402 21.0811921,36.1843558 21.0811921,33.5382601 C21.0811921,30.8921633 23.2262753,28.7470801 25.8723721,28.7470801 C28.518469,28.7470801 30.6635521,30.8921633 30.6635521,33.5382601 Z" id="Fill-3"></path>
                                            <path d="M38.3294402,11.498832 C38.3294402,17.8494573 33.1812334,22.9976641 26.8306081,22.9976641 C20.4799828,22.9976641 15.3317761,17.8494573 15.3317761,11.498832 C15.3317761,5.14820678 20.4799828,0 26.8306081,0 C33.1812334,0 38.3294402,5.14820678 38.3294402,11.498832 Z" id="Fill-4"></path>
                                        </g>
                                        <path d="M208.665367,29.7771838 L205.287585,26.3994019 L198.460154,34.0892458 C193.525238,28.531477 186.697807,25.177651 178.984007,25.177651 C172.060752,25.177651 165.712438,27.9565354 160.753567,32.364421 L164.155305,35.7661589 C168.227808,32.1967297 173.378326,29.968831 178.984007,29.968831 C185.547924,29.968831 191.17756,32.9872744 195.202151,37.7305427 L188.302852,45.4922543 L178.720492,35.9098943 L160.753567,53.9007752 L164.346952,57.4941602 L178.720492,43.0966643 L188.302852,52.6790243 L198.004992,41.7790898 C199.801684,45.0131363 200.999479,48.7263008 201.454641,52.6790243 L206.269777,52.6790243 C205.742748,47.1691673 203.993967,42.1623842 201.382774,37.9701017 L208.665367,29.7771838 Z" id="Page-1"></path>
                                        <path d="M282.56031,9.58236004 L282.56031,57.4941602 C270.414669,56.2963652 261,46.0192841 261,33.5382601 C261,21.0572362 270.414669,10.780155 282.56031,9.58236004 Z M287.423358,9.58236004 L287.423358,31.1187142 L308.9118,31.1187142 C307.785873,19.7636176 298.754499,10.7082873 287.423358,9.58236004 Z M287.423358,35.9578061 L287.423358,57.4941602 C298.778454,56.3682341 307.785873,47.3129027 308.9118,35.9578061 L287.423358,35.9578061 Z" id="Page-1"></path>
                                    </g>
                                </g>
                                <g id="row-5" transform="translate(6.000000, 421.000000)" fill="#000000">
                                    <g id="Group-2-Copy" transform="translate(353.000000, 0.000000)">
                                        <path d="M310.321659,47.9118002 L315.112839,47.9118002 L315.112839,19.1647201 L310.321659,19.1647201 L310.321659,47.9118002 Z M319.904019,57.4941602 L324.695199,57.4941602 L324.695199,9.58236004 L319.904019,9.58236004 L319.904019,57.4941602 Z M300.739299,38.3294402 L305.530479,38.3294402 L305.530479,28.7470801 L300.739299,28.7470801 L300.739299,38.3294402 Z M329.486379,47.9118002 L334.277559,47.9118002 L334.277559,19.1647201 L329.486379,19.1647201 L329.486379,47.9118002 Z M339.068739,28.7470801 L339.068739,38.3294402 L343.859919,38.3294402 L343.859919,28.7470801 L339.068739,28.7470801 Z" id="Page-1"></path>
                                        <path d="M138.575873,14.3735401 L105.037613,14.3735401 C102.390486,14.3735401 100.246433,16.5175931 100.246433,19.1647201 L100.246433,52.7029802 C100.246433,55.350106 102.390486,57.4941602 105.037613,57.4941602 L138.575873,57.4941602 C141.223,57.4941602 143.367053,55.350106 143.367053,52.7029802 L143.367053,19.1647201 C143.367053,16.5175931 141.223,14.3735401 138.575873,14.3735401 Z M114.619973,47.9118002 L109.828793,47.9118002 L109.828793,31.1426701 L114.619973,31.1426701 L114.619973,47.9118002 Z M124.202333,47.9118002 L119.411153,47.9118002 L119.411153,23.9559001 L124.202333,23.9559001 L124.202333,47.9118002 Z M133.784693,47.9118002 L128.993513,47.9118002 L128.993513,38.3294402 L133.784693,38.3294402 L133.784693,47.9118002 Z" id="Page-1"></path>
                                        <path d="M23.9559001,9.58236004 C10.780155,9.58236004 0,20.3625151 0,33.5382601 C0,46.7140052 10.780155,57.4941602 23.9559001,57.4941602 C37.1316452,57.4941602 47.9118002,46.7140052 47.9118002,33.5382601 C47.9118002,20.3625151 37.1316452,9.58236004 23.9559001,9.58236004 Z M26.3514901,14.5412314 C34.99957,15.6192469 41.8749134,22.5185461 42.9529289,31.1426701 L26.3514901,31.1426701 L26.3514901,14.5412314 Z M4.79118002,33.5382601 C4.79118002,23.8121647 12.1456414,15.7150705 21.5603101,14.5412314 L21.5603101,52.5592412 C12.1456414,51.3614462 4.79118002,43.2643556 4.79118002,33.5382601 Z M26.3514901,52.5352901 L26.3514901,35.9338502 L42.9529289,35.9338502 C41.8749134,44.5819301 34.99957,51.4572722 26.3514901,52.5352901 Z" id="Page-1"></path>
                                        <polygon id="Page-1" transform="translate(229.239946, 28.747080) scale(-1, 1) translate(-229.239946, -28.747080) " points="204.086251 57.4941602 218.459791 43.0966643 228.042151 52.6790243 248.404666 29.7771838 245.026884 26.3994019 228.042151 45.4922543 218.459791 35.9098943 200.492866 53.9007752"></polygon>
                                    </g>
                                    <g id="Group-3-Copy">
                                        <g id="Graph" transform="translate(100.034369, 29.170233) scale(-1, 1) translate(-100.034369, -29.170233) translate(82.067444, 13.000000)" fill-rule="nonzero">
                                            <g id="Layer_1">
                                                <rect id="Rectangle-path" x="0" y="0" width="9.58236004" height="32.3404651"></rect>
                                                <rect id="Rectangle-path" x="13.1757451" y="5.98897503" width="9.58236004" height="26.3514901"></rect>
                                                <rect id="Rectangle-path" x="26.3514901" y="10.780155" width="9.58236004" height="21.5603101"></rect>
                                            </g>
                                        </g>
                                        <g id="Page-1" transform="translate(0.985732, 10.000000)">
                                            <path d="M15.3317761,24.9141361 C15.3317761,29.1478863 11.8996382,32.5800241 7.66588803,32.5800241 C3.43213785,32.5800241 0,29.1478863 0,24.9141361 C0,20.6803859 3.43213785,17.2482481 7.66588803,17.2482481 C11.8996382,17.2482481 15.3317761,20.6803859 15.3317761,24.9141361 Z" id="Fill-1"></path>
                                            <path d="M30.6635521,33.5382601 C30.6635521,36.1843558 28.518469,38.3294402 25.8723721,38.3294402 C23.2262753,38.3294402 21.0811921,36.1843558 21.0811921,33.5382601 C21.0811921,30.8921633 23.2262753,28.7470801 25.8723721,28.7470801 C28.518469,28.7470801 30.6635521,30.8921633 30.6635521,33.5382601 Z" id="Fill-3"></path>
                                            <path d="M38.3294402,11.498832 C38.3294402,17.8494573 33.1812334,22.9976641 26.8306081,22.9976641 C20.4799828,22.9976641 15.3317761,17.8494573 15.3317761,11.498832 C15.3317761,5.14820678 20.4799828,0 26.8306081,0 C33.1812334,0 38.3294402,5.14820678 38.3294402,11.498832 Z" id="Fill-4"></path>
                                        </g>
                                        <path d="M208.665367,29.7771838 L205.287585,26.3994019 L198.460154,34.0892458 C193.525238,28.531477 186.697807,25.177651 178.984007,25.177651 C172.060752,25.177651 165.712438,27.9565354 160.753567,32.364421 L164.155305,35.7661589 C168.227808,32.1967297 173.378326,29.968831 178.984007,29.968831 C185.547924,29.968831 191.17756,32.9872744 195.202151,37.7305427 L188.302852,45.4922543 L178.720492,35.9098943 L160.753567,53.9007752 L164.346952,57.4941602 L178.720492,43.0966643 L188.302852,52.6790243 L198.004992,41.7790898 C199.801684,45.0131363 200.999479,48.7263008 201.454641,52.6790243 L206.269777,52.6790243 C205.742748,47.1691673 203.993967,42.1623842 201.382774,37.9701017 L208.665367,29.7771838 Z" id="Page-1"></path>
                                        <path d="M282.56031,9.58236004 L282.56031,57.4941602 C270.414669,56.2963652 261,46.0192841 261,33.5382601 C261,21.0572362 270.414669,10.780155 282.56031,9.58236004 Z M287.423358,9.58236004 L287.423358,31.1187142 L308.9118,31.1187142 C307.785873,19.7636176 298.754499,10.7082873 287.423358,9.58236004 Z M287.423358,35.9578061 L287.423358,57.4941602 C298.778454,56.3682341 307.785873,47.3129027 308.9118,35.9578061 L287.423358,35.9578061 Z" id="Page-1"></path>
                                    </g>
                                </g>
                            </g>
                        </g>
                    </g>
                    <g id="download-window" mask="url(#mask-2)">
                        <g transform="translate(82.000000, 197.000000)">
                            <g id="Combined-Shape" fill="none">
                                <use fill="black" fill-opacity="1" filter="url(#filter-7)" xlink:href="#path-6"></use>
                                <use fill="#F7F7F7" fill-rule="evenodd" xlink:href="#path-6"></use>
                            </g>
                            <path d="M199.48989,11.7325307 L196.158618,11.7325307 C195.703024,11.7325307 195.323223,12.1056267 195.323223,12.565864 C195.323223,13.02931 195.697242,13.3991973 196.158618,13.3991973 L199.48989,13.3991973 L199.48989,16.7304696 C199.48989,17.1860632 199.862986,17.565864 200.323223,17.565864 C200.786669,17.565864 201.156557,17.1918452 201.156557,16.7304696 L201.156557,13.3991973 L204.487829,13.3991973 C204.943423,13.3991973 205.323223,13.0261013 205.323223,12.565864 C205.323223,12.102418 204.949204,11.7325307 204.487829,11.7325307 L201.156557,11.7325307 L201.156557,8.4012584 C201.156557,7.94566479 200.783461,7.56586399 200.323223,7.56586399 C199.859777,7.56586399 199.48989,7.93988281 199.48989,8.4012584 L199.48989,11.7325307 Z" id="Combined-Shape" fill="#C3BFBF" fill-rule="evenodd" transform="translate(200.323223, 12.565864) rotate(-45.000000) translate(-200.323223, -12.565864) "></path>
                            <rect id="Rectangle-4" fill="#D8D8D8" fill-rule="evenodd" x="20" y="20" width="108" height="22" rx="5"></rect>
                            <rect id="Rectangle-4-Copy" fill="#D8D8D8" fill-rule="evenodd" x="20" y="57" width="160" height="8" rx="4"></rect>
                            <rect id="Rectangle-4-Copy-2" fill="#D8D8D8" fill-rule="evenodd" x="20" y="75" width="140" height="8" rx="4"></rect>
                            <rect id="Rectangle-4-Copy-3" fill="#D8D8D8" fill-rule="evenodd" x="20" y="93" width="150" height="8" rx="4"></rect>
                            <rect id="Rectangle-4-Copy-4" fill="#D8D8D8" fill-rule="evenodd" x="20" y="111" width="80" height="8" rx="4"></rect>
                            <g id="btn/download" fill="none" transform="translate(20.000000, 142.000000)" stroke-width="1" fill-rule="evenodd">
                                <g id="Group-2">
                                    <rect id="Rectangle-4" fill="#FF7948" x="0" y="0" width="90" height="25" rx="1"></rect>
                                    <text id="DOWNLOAD" font-family="Futura-Medium, Futura" font-size="10" font-weight="400" fill="#FFFFFF">
                                        <tspan x="13.3647461" y="16.5">DOWNLOAD</tspan>
                                    </text>
                                </g>
                            </g>
                            <g id="cancel-btn" stroke-width="1" fill="none" fill-rule="evenodd" transform="translate(125.000000, 147.000000)">
                                <text id="cancel" font-family="Futura-Medium, Futura" font-size="10" font-weight="400" letter-spacing="0.25" fill="#9B9B9B">
                                    <tspan x="0" y="10">cance</tspan>
                                    <tspan x="27.7929688" y="10">l</tspan>
                                </text>
                                <path d="M0.75883191,13.375 L29.703257,13.375" id="Path-8" stroke="#979797" stroke-width="0.75"></path>
                            </g>
                        </g>
                    </g>
                </g>
            </g>
        </g>
    </g>
</svg>