<?xml version="1.0" encoding="UTF-8"?>
<svg width="50px" height="50px" viewBox="0 0 50 50" version="1.1" xmlns="http://www.w3.org/2000/svg" xmlns:xlink="http://www.w3.org/1999/xlink">
    <!-- Generator: Sketch 44 (41411) - http://www.bohemiancoding.com/sketch -->
    <title>block-4/play-btn</title>
    <desc>Created with Sketch.</desc>
    <defs></defs>
    <g id="Desktop" stroke="none" stroke-width="1" fill="none" fill-rule="evenodd">
        <g id="RISE-Home-Page" transform="translate(-675.000000, -3383.000000)" fill="#FFFFFF">
            <g id="block-video" transform="translate(0.000000, 2979.000000)">
                <g id="text+btn" transform="translate(179.000000, 166.000000)">
                    <g id="btn/play-white" transform="translate(496.000000, 238.000000)">
                        <path d="M25,50 C11.1928813,50 0,38.8071187 0,25 C0,11.1928813 11.1928813,0 25,0 C38.8071187,0 50,11.1928813 50,25 C50,38.8071187 38.8071187,50 25,50 Z M25.2358491,47.1698113 C37.3496419,47.1698113 47.1698113,37.3496419 47.1698113,25.2358491 C47.1698113,13.1220562 37.3496419,3.30188679 25.2358491,3.30188679 C13.1220562,3.30188679 3.30188679,13.1220562 3.30188679,25.2358491 C3.30188679,37.3496419 13.1220562,47.1698113 25.2358491,47.1698113 Z" id="Combined-Shape"></path>
                        <polygon id="Triangle" points="31.1320755 25 19.3396226 31.1320755 19.3396226 18.8679245"></polygon>
                    </g>
                </g>
            </g>
        </g>
    </g>
</svg>