<?xml version="1.0" encoding="UTF-8"?>
<svg width="441px" height="330px" viewBox="0 0 441 330" version="1.1" xmlns="http://www.w3.org/2000/svg" xmlns:xlink="http://www.w3.org/1999/xlink">
    <!-- Generator: Sketch 44 (41411) - http://www.bohemiancoding.com/sketch -->
    <title>hero/logo/rise-logo/rise-logo</title>
    <desc>Created with Sketch.</desc>
    <defs>
        <filter x="-56.8%" y="-107.1%" width="213.6%" height="314.3%" filterUnits="objectBoundingBox" id="filter-1">
            <feOffset dx="0" dy="0" in="SourceAlpha" result="shadowOffsetOuter1"></feOffset>
            <feGaussianBlur stdDeviation="50" in="shadowOffsetOuter1" result="shadowBlurOuter1"></feGaussianBlur>
            <feColorMatrix values="0 0 0 0 1   0 0 0 0 1   0 0 0 0 1  0 0 0 0.5 0" type="matrix" in="shadowBlurOuter1" result="shadowMatrixOuter1"></feColorMatrix>
            <feMerge>
                <feMergeNode in="shadowMatrixOuter1"></feMergeNode>
                <feMergeNode in="SourceGraphic"></feMergeNode>
            </feMerge>
        </filter>
        <linearGradient x1="50%" y1="0%" x2="50%" y2="100%" id="linearGradient-2">
            <stop stop-color="#FFD03B" offset="0%"></stop>
            <stop stop-color="#FF7B4B" offset="46.2749825%"></stop>
            <stop stop-color="#7D3039" offset="100%"></stop>
        </linearGradient>
        <linearGradient x1="100%" y1="0%" x2="0%" y2="100%" id="linearGradient-3">
            <stop stop-color="#7E2A35" offset="0%"></stop>
            <stop stop-color="#80303A" offset="100%"></stop>
        </linearGradient>
        <linearGradient x1="100%" y1="0%" x2="0%" y2="100%" id="linearGradient-4">
            <stop stop-color="#DB6443" offset="0%"></stop>
            <stop stop-color="#A6423A" offset="100%"></stop>
        </linearGradient>
        <linearGradient x1="100%" y1="0%" x2="0%" y2="100%" id="linearGradient-5">
            <stop stop-color="#FF9647" offset="0%"></stop>
            <stop stop-color="#FF9F43" offset="100%"></stop>
        </linearGradient>
        <linearGradient x1="100%" y1="0%" x2="0%" y2="100%" id="linearGradient-6">
            <stop stop-color="#FFC83C" offset="0%"></stop>
            <stop stop-color="#FFA342" offset="100%"></stop>
        </linearGradient>
    </defs>
    <g id="Desktop" stroke="none" stroke-width="1" fill="none" fill-rule="evenodd">
        <g id="RISE-Home-Page" transform="translate(-481.000000, -194.000000)">
            <g id="Hero-Copy-2">
                <g id="logo-tagline" transform="translate(450.000000, 290.000000)">
                    <g id="hero/logo/rise-logo/rise-logo" filter="url(#filter-1)" transform="translate(118.000000, 0.000000)">
                        <g id="Group-2">
                            <path d="M74.017744,1.61928332 L93.1640847,1.61928332 C101.083535,1.61928332 106.97645,3.53754253 110.843005,7.37411848 C115.734431,12.3474577 118.180107,19.9494478 118.180107,30.1803171 C118.180107,38.0429295 116.887392,44.3542391 114.301924,49.1144352 C111.716457,53.8746313 108.024651,56.8230667 103.226395,57.95983 L123.071507,111.316388 L108.327428,111.316388 L88.5521924,57.6045932 L88.5521924,111.316388 L74.017744,111.316388 L74.017744,1.61928332 Z M88.5521924,50.2156691 C94.1889778,50.2156691 98.1719359,48.8894652 100.501186,46.2370176 C102.830436,43.58457 103.995044,39.1086319 103.995044,32.8090689 C103.995044,29.3987792 103.750476,26.4858671 103.261334,24.0702452 C102.772191,21.6546233 102.00355,19.6889996 100.955388,18.1733153 C99.907225,16.657631 98.5562802,15.544567 96.9025126,14.83409 C95.2487449,14.1236129 93.2805581,13.7683798 90.9978929,13.7683798 L88.5521924,13.7683798 L88.5521924,50.2156691 Z M134.922184,1.61928332 L149.456633,1.61928332 L149.456633,111.316388 L134.922184,111.316388 L134.922184,1.61928332 Z M202.674586,3.89279845 L202.674586,18.31541 C198.249011,15.0945808 194.266053,13.4841904 190.725593,13.4841904 C186.905622,13.4841904 183.784474,14.8577587 181.362054,17.6049365 C178.939634,20.210019 177.728442,23.6913042 177.728442,28.0488966 C177.728442,31.8854726 178.590251,35.1773001 180.313896,37.9244779 C181.199011,39.3927971 182.654771,41.2873741 184.681219,43.6082658 C186.707666,45.9291574 189.328033,48.7236584 192.542399,51.9918528 C198.458694,58.1019552 202.488236,63.3830886 204.631147,67.8354113 C206.774057,72.1456386 207.845496,77.4267719 207.845496,83.6789698 C207.845496,92.157329 205.492988,99.1435817 200.787903,104.637937 C196.082818,109.990198 190.05015,112.666288 182.68972,112.666288 C176.493914,112.666288 171.206596,110.937486 166.827605,107.479831 L166.827605,92.8440776 C171.998541,96.6806536 176.703555,98.5989128 180.942791,98.5989128 C184.902516,98.5989128 188.000372,97.2608678 190.236453,94.5847377 C192.472533,91.9086075 193.590556,88.2733879 193.590556,83.6789698 C193.590556,79.7002984 192.728746,76.1242844 191.005101,72.9508203 C190.119986,71.435136 188.885502,69.6944934 187.301612,67.7288403 C185.717722,65.7631872 183.737889,63.5725825 181.362054,61.1569606 C177.681838,57.4624801 174.630566,54.1943348 172.208146,51.3524266 C169.785726,48.5105185 167.99223,46.0238862 166.827605,43.8924551 C164.591525,39.7243232 163.473502,34.4668721 163.473502,28.119944 C163.473502,19.5468545 165.662964,12.7500596 170.041954,7.72935522 C174.46753,2.66128575 180.407029,0.127289024 187.860629,0.127289024 C193.031565,0.127289024 197.969501,1.38244628 202.674586,3.89279845 Z M220.674453,1.61928332 L259.31652,1.61928332 L259.31652,14.1236165 L235.208901,14.1236165 L235.208901,48.8657695 L256.591311,48.8657695 L256.591311,61.3701027 L235.208901,61.3701027 L235.208901,98.8120548 L259.31652,98.8120548 L259.31652,111.316388 L220.674453,111.316388 L220.674453,1.61928332 Z" id="RISE" fill="url(#linearGradient-2)"></path>
                            <g id="Group" transform="translate(3.802881, 1.221021)">
                                <polygon id="Path-Copy" fill="url(#linearGradient-3)" points="13.570078 86.2608046 13.570078 110.909381 0.155373736 110.909381"></polygon>
                                <polygon id="Path-Copy-2" fill="url(#linearGradient-4)" points="29.0484707 57.4271038 29.0484707 110.909381 15.6337665 110.909381 15.6337665 81.9919808"></polygon>
                                <polygon id="Path-Copy-3" fill="url(#linearGradient-5)" points="44.5268634 28.8299325 44.5268634 110.909381 31.1121592 110.909381 31.1121592 53.8785195"></polygon>
                                <polygon id="Path-Copy-4" fill="url(#linearGradient-6)" points="60.0052561 0.0561020164 60.0052561 110.909381 46.5905519 110.909381 46.5905519 25.1295207"></polygon>
                            </g>
                            <path d="M4.87224578,132.001003 L1.90515424,132.001003 L1.90515424,133.980393 L4.608374,133.980393 L4.608374,135.48282 L1.90515424,135.48282 L1.90515424,139.399864 L0.175328137,139.399864 L0.175328137,130.462804 L4.87224578,130.462804 L4.87224578,132.001003 Z M18.3195425,134.928353 C18.3195425,136.283725 17.870965,137.412521 16.9737964,138.314778 C16.0766279,139.217034 14.9674002,139.668155 13.6460801,139.668155 C12.32476,139.668155 11.2155323,139.217034 10.3183638,138.314778 C9.42119529,137.412521 8.97261775,136.283725 8.97261775,134.928353 C8.97261775,133.572981 9.42119529,132.445178 10.3183638,131.544909 C11.2155323,130.644641 12.32476,130.194513 13.6460801,130.194513 C14.9674002,130.194513 16.0766279,130.644641 16.9737964,131.544909 C17.870965,132.445178 18.3195425,133.572981 18.3195425,134.928353 Z M16.4783039,134.928353 C16.4783039,133.98635 16.2183439,133.230175 15.6984162,132.659806 C15.1784884,132.089437 14.4943833,131.804257 13.6460801,131.804257 C12.797777,131.804257 12.1136718,132.089437 11.5937441,132.659806 C11.0738163,133.230175 10.8138564,133.98635 10.8138564,134.928353 C10.8138564,135.858432 11.0747936,136.612619 11.596676,137.190938 C12.1185583,137.769256 12.8016862,138.058411 13.6460801,138.058411 C14.490474,138.058411 15.1736019,137.769256 15.6954843,137.190938 C16.2173666,136.612619 16.4783039,135.858432 16.4783039,134.928353 Z M29.397857,139.399864 L27.3748401,139.399864 L25.2521382,135.48282 L24.9999941,135.48282 L24.9999941,139.399864 L23.270168,139.399864 L23.270168,130.462804 L25.9030219,130.462804 C26.5988651,130.462804 27.1852409,130.597941 27.6621671,130.868221 C28.3931933,131.289538 28.758701,131.997024 28.758701,132.990698 C28.758701,134.294399 28.1703705,135.115161 26.993692,135.45301 L29.397857,139.399864 Z M26.993692,132.990698 C26.993692,132.291151 26.5812743,131.941383 25.7564265,131.941383 L24.9999941,131.941383 L24.9999941,134.123481 L25.7564265,134.123481 C26.2059881,134.123481 26.5245856,134.036039 26.7122287,133.861152 C26.8998718,133.686266 26.993692,133.396117 26.993692,132.990698 Z M46.1832295,136.663299 C46.1832295,137.450289 45.9486791,138.084244 45.4795714,138.565182 C44.9361883,139.12164 44.1269896,139.399864 43.0519511,139.399864 L40.1083148,139.399864 L40.1083148,130.462804 L42.7411687,130.462804 C44.6215089,130.462804 45.5616649,131.24382 45.5616649,132.805876 C45.5616649,133.580941 45.2606586,134.139378 44.658637,134.481202 C45.1394724,134.64019 45.5186621,134.928351 45.7962175,135.345694 C46.0542268,135.735214 46.1832295,136.174412 46.1832295,136.663299 Z M43.7966558,132.87742 C43.7966558,132.269291 43.4155115,131.965231 42.6532115,131.965231 L41.8146856,131.965231 L41.8146856,133.902886 L42.893628,133.902886 C43.4956496,133.902886 43.7966558,133.561068 43.7966558,132.87742 Z M44.3830376,136.663299 C44.3830376,135.776942 43.9471648,135.33377 43.0754063,135.33377 L41.8146856,135.33377 L41.8146856,137.897437 L42.9288109,137.897437 C43.8983002,137.897437 44.3830376,137.486062 44.3830376,136.663299 Z M60.0468572,134.928353 C60.0468572,136.283725 59.5982797,137.412521 58.7011112,138.314778 C57.8039426,139.217034 56.694715,139.668155 55.3733949,139.668155 C54.0520748,139.668155 52.9428471,139.217034 52.0456785,138.314778 C51.14851,137.412521 50.6999325,136.283725 50.6999325,134.928353 C50.6999325,133.572981 51.14851,132.445178 52.0456785,131.544909 C52.9428471,130.644641 54.0520748,130.194513 55.3733949,130.194513 C56.694715,130.194513 57.8039426,130.644641 58.7011112,131.544909 C59.5982797,132.445178 60.0468572,133.572981 60.0468572,134.928353 Z M58.2056186,134.928353 C58.2056186,133.98635 57.9456586,133.230175 57.4257309,132.659806 C56.9058032,132.089437 56.221698,131.804257 55.3733949,131.804257 C54.5250917,131.804257 53.8409865,132.089437 53.3210588,132.659806 C52.8011311,133.230175 52.5411711,133.98635 52.5411711,134.928353 C52.5411711,135.858432 52.8021084,136.612619 53.3239907,137.190938 C53.8458731,137.769256 54.5290009,138.058411 55.3733949,138.058411 C56.2177888,138.058411 56.9009166,137.769256 57.422799,137.190938 C57.9446813,136.612619 58.2056186,135.858432 58.2056186,134.928353 Z M71.2072652,130.462804 L68.3750415,135.345694 L68.3750415,139.399864 L66.6452154,139.399864 L66.6452154,135.345694 L63.8071278,130.462804 L65.695277,130.462804 L67.5071965,133.79557 L69.319116,130.462804 L71.2072652,130.462804 Z M81.153863,136.860046 C81.153863,137.666909 80.8860847,138.326699 80.35052,138.839435 C79.7719538,139.391918 78.9783918,139.668155 77.9698102,139.668155 C76.9964117,139.668155 76.2419414,139.423715 75.7063768,138.934827 C75.1512659,138.430041 74.8737147,137.698707 74.8737147,136.740806 L76.6739066,136.740806 C76.6739066,137.265466 76.7774997,137.637094 76.9846889,137.855702 C77.1801505,138.062387 77.508521,138.165727 77.9698102,138.165727 C78.4584641,138.165727 78.8132215,138.069342 79.0340931,137.876569 C79.2549646,137.683797 79.3653987,137.348933 79.3653987,136.87197 C79.3653987,136.557969 79.2657148,136.29763 79.0663441,136.090946 C78.8356994,135.860413 78.3744171,135.580202 77.6824832,135.250302 C76.7716323,134.81706 76.1461648,134.403698 75.8060616,134.010203 C75.4815955,133.632606 75.3193648,133.145713 75.3193648,132.549509 C75.3193648,131.925482 75.5539152,131.386918 76.0230229,130.933803 C76.5312229,130.44094 77.1801455,130.194513 77.9698102,130.194513 C78.7047457,130.194513 79.3380316,130.421067 79.869687,130.874183 C80.4130701,131.343197 80.6847576,131.913557 80.6847576,132.585281 L78.9197486,132.585281 C78.9197486,131.993051 78.6031057,131.696941 77.9698102,131.696941 C77.6883456,131.696941 77.4684546,131.773452 77.3101308,131.926478 C77.1518069,132.079504 77.0726462,132.263331 77.0726462,132.477965 C77.0726462,132.776067 77.1635344,133.012558 77.3453137,133.187445 C77.5270929,133.362331 77.9326696,133.600809 78.5620558,133.902886 C79.5745466,134.387799 80.2723339,134.864756 80.6554385,135.33377 C80.9877232,135.739189 81.153863,136.247943 81.153863,136.860046 Z M99.8742952,139.399864 L98.0741033,139.399864 L97.2179859,137.420475 L93.7524699,137.420475 L92.884625,139.399864 L91.084433,139.399864 L95.4764322,130.021614 L99.8742952,139.399864 Z M96.5964213,135.995554 L95.4764322,133.431887 L94.3740345,135.995554 L96.5964213,135.995554 Z M111.926003,139.841053 L105.692766,134.123481 L105.692766,139.399864 L103.998122,139.399864 L103.998122,130.021614 L110.23136,135.727263 L110.23136,130.45088 L111.926003,130.45088 L111.926003,139.841053 Z M124.693097,134.928353 C124.693097,136.247952 124.341272,137.295269 123.63761,138.070335 C122.832309,138.956692 121.624374,139.399864 120.013771,139.399864 L117.345734,139.399864 L117.345734,130.462804 L120.013771,130.462804 C121.616556,130.462804 122.82449,130.911938 123.63761,131.810219 C124.341272,132.58926 124.693097,133.628627 124.693097,134.928353 Z M122.892905,134.928353 C122.892905,133.914805 122.68181,133.183472 122.259613,132.734331 C121.802233,132.245444 121.016489,132.001003 119.902359,132.001003 L119.052105,132.001003 L119.052105,137.861664 L119.902359,137.861664 C121.016489,137.861664 121.802233,137.615237 122.259613,137.122375 C122.68181,136.673234 122.892905,135.941901 122.892905,134.928353 Z M145.231313,139.399864 L143.501487,139.399864 L142.81542,134.892581 L140.247068,139.841053 L137.678716,134.892581 L136.992649,139.399864 L135.262823,139.399864 L136.881237,130.021614 L140.247068,136.544059 L143.607035,130.021614 L145.231313,139.399864 Z M154.937494,139.399864 L149.859428,139.399864 L149.859428,130.462804 L154.937494,130.462804 L154.937494,132.001003 L151.589254,132.001003 L151.589254,133.902886 L154.568074,133.902886 L154.568074,135.369542 L151.589254,135.369542 L151.589254,137.861664 L154.937494,137.861664 L154.937494,139.399864 Z M167.997779,139.841053 L161.764541,134.123481 L161.764541,139.399864 L160.069898,139.399864 L160.069898,130.021614 L166.303136,135.727263 L166.303136,130.45088 L167.997779,130.45088 L167.997779,139.841053 Z M188.700181,134.928353 C188.700181,136.283725 188.251604,137.412521 187.354435,138.314778 C186.457267,139.217034 185.348039,139.668155 184.026719,139.668155 C182.705399,139.668155 181.596171,139.217034 180.699003,138.314778 C179.801834,137.412521 179.353256,136.283725 179.353256,134.928353 C179.353256,133.572981 179.801834,132.445178 180.699003,131.544909 C181.596171,130.644641 182.705399,130.194513 184.026719,130.194513 C185.348039,130.194513 186.457267,130.644641 187.354435,131.544909 C188.251604,132.445178 188.700181,133.572981 188.700181,134.928353 Z M186.858943,134.928353 C186.858943,133.98635 186.598983,133.230175 186.079055,132.659806 C185.559127,132.089437 184.875022,131.804257 184.026719,131.804257 C183.178416,131.804257 182.494311,132.089437 181.974383,132.659806 C181.454455,133.230175 181.194495,133.98635 181.194495,134.928353 C181.194495,135.858432 181.455432,136.612619 181.977315,137.190938 C182.499197,137.769256 183.182325,138.058411 184.026719,138.058411 C184.871113,138.058411 185.554241,137.769256 186.076123,137.190938 C186.598005,136.612619 186.858943,135.858432 186.858943,134.928353 Z M198.347724,132.001003 L195.380633,132.001003 L195.380633,133.980393 L198.083853,133.980393 L198.083853,135.48282 L195.380633,135.48282 L195.380633,139.399864 L193.650807,139.399864 L193.650807,130.462804 L198.347724,130.462804 L198.347724,132.001003 Z M215.989214,139.11965 C215.269916,139.485322 214.437262,139.668155 213.491228,139.668155 C212.119088,139.668155 210.997155,139.207097 210.125397,138.284967 C209.277094,137.386686 208.852948,136.267826 208.852948,134.928353 C208.852948,133.636577 209.277094,132.535602 210.125397,131.625397 C211.016702,130.671469 212.146452,130.194513 213.514683,130.194513 C214.472445,130.194513 215.29728,130.373372 215.989214,130.731094 L215.989214,132.644901 C215.180003,132.084469 214.355168,131.804257 213.514683,131.804257 C212.736746,131.804257 212.068278,132.102355 211.509258,132.698559 C210.93851,133.306688 210.65314,134.049945 210.65314,134.928353 C210.65314,135.846508 210.91701,136.597714 211.444756,137.181995 C211.972502,137.766275 212.658562,138.058411 213.502956,138.058411 C214.29653,138.058411 215.125274,137.772237 215.989214,137.199881 L215.989214,139.11965 Z M229.741429,134.928353 C229.741429,136.283725 229.292852,137.412521 228.395683,138.314778 C227.498515,139.217034 226.389287,139.668155 225.067967,139.668155 C223.746647,139.668155 222.637419,139.217034 221.740251,138.314778 C220.843082,137.412521 220.394505,136.283725 220.394505,134.928353 C220.394505,133.572981 220.843082,132.445178 221.740251,131.544909 C222.637419,130.644641 223.746647,130.194513 225.067967,130.194513 C226.389287,130.194513 227.498515,130.644641 228.395683,131.544909 C229.292852,132.445178 229.741429,133.572981 229.741429,134.928353 Z M227.900191,134.928353 C227.900191,133.98635 227.640231,133.230175 227.120303,132.659806 C226.600375,132.089437 225.91627,131.804257 225.067967,131.804257 C224.219664,131.804257 223.535559,132.089437 223.015631,132.659806 C222.495703,133.230175 222.235743,133.98635 222.235743,134.928353 C222.235743,135.858432 222.49668,136.612619 223.018563,137.190938 C223.540445,137.769256 224.223573,138.058411 225.067967,138.058411 C225.912361,138.058411 226.595489,137.769256 227.117371,137.190938 C227.639253,136.612619 227.900191,135.858432 227.900191,134.928353 Z M239.517976,139.399864 L234.727238,139.399864 L234.727238,130.462804 L236.457064,130.462804 L236.457064,137.861664 L239.517976,137.861664 L239.517976,139.399864 Z M252.859724,134.928353 C252.859724,136.283725 252.411147,137.412521 251.513978,138.314778 C250.61681,139.217034 249.507582,139.668155 248.186262,139.668155 C246.864942,139.668155 245.755714,139.217034 244.858546,138.314778 C243.961377,137.412521 243.5128,136.283725 243.5128,134.928353 C243.5128,133.572981 243.961377,132.445178 244.858546,131.544909 C245.755714,130.644641 246.864942,130.194513 248.186262,130.194513 C249.507582,130.194513 250.61681,130.644641 251.513978,131.544909 C252.411147,132.445178 252.859724,133.572981 252.859724,134.928353 Z M251.018486,134.928353 C251.018486,133.98635 250.758526,133.230175 250.238598,132.659806 C249.71867,132.089437 249.034565,131.804257 248.186262,131.804257 C247.337959,131.804257 246.653854,132.089437 246.133926,132.659806 C245.613998,133.230175 245.354038,133.98635 245.354038,134.928353 C245.354038,135.858432 245.614976,136.612619 246.136858,137.190938 C246.65874,137.769256 247.341868,138.058411 248.186262,138.058411 C249.030656,138.058411 249.713784,137.769256 250.235666,137.190938 C250.757549,136.612619 251.018486,135.858432 251.018486,134.928353 Z M263.938039,139.399864 L261.915022,139.399864 L259.79232,135.48282 L259.540176,135.48282 L259.540176,139.399864 L257.81035,139.399864 L257.81035,130.462804 L260.443204,130.462804 C261.139047,130.462804 261.725423,130.597941 262.202349,130.868221 C262.933375,131.289538 263.298883,131.997024 263.298883,132.990698 C263.298883,134.294399 262.710552,135.115161 261.533874,135.45301 L263.938039,139.399864 Z M261.533874,132.990698 C261.533874,132.291151 261.121456,131.941383 260.296608,131.941383 L259.540176,131.941383 L259.540176,134.123481 L260.296608,134.123481 C260.74617,134.123481 261.064768,134.036039 261.252411,133.861152 C261.440054,133.686266 261.533874,133.396117 261.533874,132.990698 Z" id="FOR-BOYS-AND-MEN-OF" fill="#BB4F3E"></path>
                            <rect id="Rectangle" fill="#BB4F3E" x="0.40030326" y="119.863533" width="263.199393" height="4.27357248"></rect>
                        </g>
                    </g>
                </g>
            </g>
        </g>
    </g>
</svg>