<?xml version="1.0" encoding="UTF-8"?>
<svg width="285px" height="285px" viewBox="0 0 285 285" version="1.1" xmlns="http://www.w3.org/2000/svg" xmlns:xlink="http://www.w3.org/1999/xlink">
    <!-- Generator: Sketch 42 (36781) - http://www.bohemiancoding.com/sketch -->
    <title>feat2/data-sqr</title>
    <desc>Created with Sketch.</desc>
    <defs>
        <rect id="path-1" x="0.49700891" y="0.133566927" width="255.158747" height="255.168483"></rect>
        <filter x="-50%" y="-50%" width="200%" height="200%" filterUnits="objectBoundingBox" id="filter-3">
            <feOffset dx="10" dy="12" in="SourceAlpha" result="shadowOffsetOuter1"></feOffset>
            <feGaussianBlur stdDeviation="7.5" in="shadowOffsetOuter1" result="shadowBlurOuter1"></feGaussianBlur>
            <feColorMatrix values="0 0 0 0 0   0 0 0 0 0   0 0 0 0 0  0 0 0 0.1 0" type="matrix" in="shadowBlurOuter1"></feColorMatrix>
        </filter>
        <linearGradient x1="50%" y1="0%" x2="50%" y2="100%" id="linearGradient-4">
            <stop stop-color="#F2F5FA" stop-opacity="0.75" offset="0%"></stop>
            <stop stop-color="#CED7E3" stop-opacity="0.9" offset="100%"></stop>
        </linearGradient>
        <rect id="path-5" x="0.49700891" y="0.133566927" width="255.158747" height="255.168483"></rect>
        <filter x="-50%" y="-50%" width="200%" height="200%" filterUnits="objectBoundingBox" id="filter-6">
            <feOffset dx="10" dy="12" in="SourceAlpha" result="shadowOffsetOuter1"></feOffset>
            <feGaussianBlur stdDeviation="7.5" in="shadowOffsetOuter1" result="shadowBlurOuter1"></feGaussianBlur>
            <feColorMatrix values="0 0 0 0 0   0 0 0 0 0   0 0 0 0 0  0 0 0 0.1 0" type="matrix" in="shadowBlurOuter1"></feColorMatrix>
        </filter>
    </defs>
    <g id="Home-Page" stroke="none" stroke-width="1" fill="none" fill-rule="evenodd">
        <g id="RISE-Home-Page-Concept-3" transform="translate(-709.000000, -1033.000000)">
            <g id="Content-Block-1" transform="translate(145.000000, 1035.000000)">
                <g id="quadrant" transform="translate(568.000000, 0.000000)">
                    <g id="feat2" transform="translate(0.477658, 0.840359)">
                        <g id="feat2/data-sqr">
                            <mask id="mask-2" fill="white">
                                <use xlink:href="#path-1"></use>
                            </mask>
                            <g id="Mask">
                                <use fill="black" fill-opacity="1" filter="url(#filter-3)" xlink:href="#path-1"></use>
                                <use fill="#FFFFFF" fill-rule="evenodd" xlink:href="#path-1"></use>
                            </g>
                            <g id="icons/data-backdrop-black" opacity="0.300000012" mask="url(#mask-2)">
                                <g transform="translate(-2.477658, -6.840359)" id="Group-9">
                                    <g>
                                        <g id="row-1" fill="#000000">
                                            <g id="Group-2-Copy-2">
                                                <path d="M172.782973,26.7065776 L175.450639,26.7065776 L175.450639,10.682631 L172.782973,10.682631 L172.782973,26.7065776 Z M178.118304,32.0478931 L180.785969,32.0478931 L180.785969,5.34131551 L178.118304,5.34131551 L178.118304,32.0478931 Z M167.447643,21.3652621 L170.115308,21.3652621 L170.115308,16.0239465 L167.447643,16.0239465 L167.447643,21.3652621 Z M183.453635,26.7065776 L186.1213,26.7065776 L186.1213,10.682631 L183.453635,10.682631 L183.453635,26.7065776 Z M188.788965,16.0239465 L188.788965,21.3652621 L191.456631,21.3652621 L191.456631,16.0239465 L188.788965,16.0239465 Z" id="Page-1"></path>
                                                <path d="M77.1572036,8.01197327 L58.4835462,8.01197327 C57.0096611,8.01197327 55.8158809,9.20709262 55.8158809,10.682631 L55.8158809,29.3772353 C55.8158809,30.8527731 57.0096611,32.0478931 58.4835462,32.0478931 L77.1572036,32.0478931 C78.6310886,32.0478931 79.8248689,30.8527731 79.8248689,29.3772353 L79.8248689,10.682631 C79.8248689,9.20709262 78.6310886,8.01197327 77.1572036,8.01197327 Z M63.8188769,26.7065776 L61.1512116,26.7065776 L61.1512116,17.3592754 L63.8188769,17.3592754 L63.8188769,26.7065776 Z M69.1542076,26.7065776 L66.4865422,26.7065776 L66.4865422,13.3532888 L69.1542076,13.3532888 L69.1542076,26.7065776 Z M74.4895382,26.7065776 L71.8218729,26.7065776 L71.8218729,21.3652621 L74.4895382,21.3652621 L74.4895382,26.7065776 Z" id="Page-1"></path>
                                                <path d="M13.3383266,5.34131551 C6.00224699,5.34131551 0,11.3502955 0,18.6946043 C0,26.0389131 6.00224699,32.0478931 13.3383266,32.0478931 C20.6744063,32.0478931 26.6766533,26.0389131 26.6766533,18.6946043 C26.6766533,11.3502955 20.6744063,5.34131551 13.3383266,5.34131551 Z M14.6721593,8.10544629 C19.4872952,8.70634429 23.315395,12.5520915 23.9156197,17.3592754 L14.6721593,17.3592754 L14.6721593,8.10544629 Z M2.66766533,18.6946043 C2.66766533,13.2731691 6.76253161,8.75975744 12.004494,8.10544629 L12.004494,29.2971136 C6.76253161,28.6294491 2.66766533,24.1160395 2.66766533,18.6946043 Z M14.6721593,29.283763 L14.6721593,20.0299332 L23.9156197,20.0299332 C23.315395,24.8504704 19.4872952,28.6828636 14.6721593,29.283763 Z" id="Page-1"></path>
                                                <polygon id="Page-1" transform="translate(127.637754, 16.023947) scale(-1, 1) translate(-127.637754, -16.023947) " points="113.632511 32.0478931 121.635507 24.0225665 126.970837 29.363882 138.308415 16.598138 136.427711 14.7153242 126.970837 25.3578954 121.635507 20.0165799 111.631762 30.0448998"></polygon>
                                            </g>
                                            <g id="Group-3-Copy-2" transform="translate(218.817175, 0.000000)">
                                                <g id="Graph" transform="translate(55.679391, 16.443633) scale(-1, 1) translate(-55.679391, -16.443633) translate(45.657230, 7.246347)" fill-rule="nonzero">
                                                    <g id="Layer_1">
                                                        <rect id="Rectangle-path" x="-2.05722789e-13" y="0" width="5.33533066" height="18.0269399"></rect>
                                                        <rect id="Rectangle-path" x="7.33607966" y="3.3383222" width="5.33533066" height="14.6886177"></rect>
                                                        <rect id="Rectangle-path" x="14.6721593" y="6.00897995" width="5.33533066" height="12.0179599"></rect>
                                                    </g>
                                                </g>
                                                <g id="Page-1" transform="translate(0.548842, 5.574113)">
                                                    <path d="M8.53652906,13.8874203 C8.53652906,16.2473604 6.62556033,18.1604727 4.26826453,18.1604727 C1.91096872,18.1604727 0,16.2473604 0,13.8874203 C0,11.5274803 1.91096872,9.61436792 4.26826453,9.61436792 C6.62556033,9.61436792 8.53652906,11.5274803 8.53652906,13.8874203 Z" id="Fill-1"></path>
                                                    <path d="M17.0730581,18.6946043 C17.0730581,20.1695678 15.8787043,21.3652621 14.4053928,21.3652621 C12.9320812,21.3652621 11.7377275,20.1695678 11.7377275,18.6946043 C11.7377275,17.2196401 12.9320812,16.0239465 14.4053928,16.0239465 C15.8787043,16.0239465 17.0730581,17.2196401 17.0730581,18.6946043 Z" id="Fill-3"></path>
                                                    <path d="M21.3413226,6.40957862 C21.3413226,9.94948874 18.4748696,12.8191572 14.9389258,12.8191572 C11.4029821,12.8191572 8.53652906,9.94948874 8.53652906,6.40957862 C8.53652906,2.8696685 11.4029821,0 14.9389258,0 C18.4748696,0 21.3413226,2.8696685 21.3413226,6.40957862 Z" id="Fill-4"></path>
                                                </g>
                                                <path d="M116.182102,16.598138 L114.301398,14.7153242 L110.499975,19.0017299 C107.75228,15.9037669 103.950856,14.0343065 99.6559153,14.0343065 C95.8011389,14.0343065 92.2664823,15.583288 89.5054487,18.0402931 L91.3994911,19.9364602 C93.6670066,17.9468201 96.5347469,16.7049643 99.6559153,16.7049643 C103.310617,16.7049643 106.445124,18.3874787 108.685962,21.0314298 L104.844524,25.3578954 L99.5091937,20.0165799 L89.5054487,30.0448998 L91.5061977,32.0478931 L99.5091937,24.0225665 L104.844524,29.363882 L110.246547,23.2881356 C111.246921,25.0908296 111.913837,27.1605894 112.167266,29.363882 L114.848269,29.363882 C114.554826,26.2926256 113.581128,23.5017883 112.127251,21.1649627 L116.182102,16.598138 Z" id="Page-1"></path>
                                                <path d="M157.325824,5.34131551 L157.325824,32.0478931 C150.563292,31.3802286 145.32133,25.6516678 145.32133,18.6946043 C145.32133,11.7375408 150.563292,6.00897995 157.325824,5.34131551 Z M160.033504,5.34131551 L160.033504,17.3459221 L171.997983,17.3459221 C171.371082,11.0164632 166.342532,5.96892009 160.033504,5.34131551 Z M160.033504,20.0432865 L160.033504,32.0478931 C166.355871,31.4202892 171.371082,26.3727453 171.997983,20.0432865 L160.033504,20.0432865 Z" id="Page-1"></path>
                                            </g>
                                        </g>
                                        <g id="row-2" transform="translate(5.567867, 61.872651)" fill="#000000">
                                            <g id="Group-2-Copy" transform="translate(196.545706, 0.000000)">
                                                <path d="M172.782973,26.7065776 L175.450639,26.7065776 L175.450639,10.682631 L172.782973,10.682631 L172.782973,26.7065776 Z M178.118304,32.0478931 L180.785969,32.0478931 L180.785969,5.34131551 L178.118304,5.34131551 L178.118304,32.0478931 Z M167.447643,21.3652621 L170.115308,21.3652621 L170.115308,16.0239465 L167.447643,16.0239465 L167.447643,21.3652621 Z M183.453635,26.7065776 L186.1213,26.7065776 L186.1213,10.682631 L183.453635,10.682631 L183.453635,26.7065776 Z M188.788965,16.0239465 L188.788965,21.3652621 L191.456631,21.3652621 L191.456631,16.0239465 L188.788965,16.0239465 Z" id="Page-1"></path>
                                                <path d="M77.1572036,8.01197327 L58.4835462,8.01197327 C57.0096611,8.01197327 55.8158809,9.20709262 55.8158809,10.682631 L55.8158809,29.3772353 C55.8158809,30.8527731 57.0096611,32.0478931 58.4835462,32.0478931 L77.1572036,32.0478931 C78.6310886,32.0478931 79.8248689,30.8527731 79.8248689,29.3772353 L79.8248689,10.682631 C79.8248689,9.20709262 78.6310886,8.01197327 77.1572036,8.01197327 Z M63.8188769,26.7065776 L61.1512116,26.7065776 L61.1512116,17.3592754 L63.8188769,17.3592754 L63.8188769,26.7065776 Z M69.1542076,26.7065776 L66.4865422,26.7065776 L66.4865422,13.3532888 L69.1542076,13.3532888 L69.1542076,26.7065776 Z M74.4895382,26.7065776 L71.8218729,26.7065776 L71.8218729,21.3652621 L74.4895382,21.3652621 L74.4895382,26.7065776 Z" id="Page-1"></path>
                                                <path d="M13.3383266,5.34131551 C6.00224699,5.34131551 0,11.3502955 0,18.6946043 C0,26.0389131 6.00224699,32.0478931 13.3383266,32.0478931 C20.6744063,32.0478931 26.6766533,26.0389131 26.6766533,18.6946043 C26.6766533,11.3502955 20.6744063,5.34131551 13.3383266,5.34131551 Z M14.6721593,8.10544629 C19.4872952,8.70634429 23.315395,12.5520915 23.9156197,17.3592754 L14.6721593,17.3592754 L14.6721593,8.10544629 Z M2.66766533,18.6946043 C2.66766533,13.2731691 6.76253161,8.75975744 12.004494,8.10544629 L12.004494,29.2971136 C6.76253161,28.6294491 2.66766533,24.1160395 2.66766533,18.6946043 Z M14.6721593,29.283763 L14.6721593,20.0299332 L23.9156197,20.0299332 C23.315395,24.8504704 19.4872952,28.6828636 14.6721593,29.283763 Z" id="Page-1"></path>
                                                <polygon id="Page-1" transform="translate(127.637754, 16.023947) scale(-1, 1) translate(-127.637754, -16.023947) " points="113.632511 32.0478931 121.635507 24.0225665 126.970837 29.363882 138.308415 16.598138 136.427711 14.7153242 126.970837 25.3578954 121.635507 20.0165799 111.631762 30.0448998"></polygon>
                                            </g>
                                            <g id="Group-3-Copy">
                                                <g id="Graph" transform="translate(55.697807, 16.259816) scale(-1, 1) translate(-55.697807, -16.259816) translate(45.694062, 7.246347)" fill-rule="nonzero">
                                                    <g id="Layer_1">
                                                        <rect id="Rectangle-path" x="0" y="0" width="5.33533066" height="18.0269399"></rect>
                                                        <rect id="Rectangle-path" x="7.33607966" y="3.3383222" width="5.33533066" height="14.6886177"></rect>
                                                        <rect id="Rectangle-path" x="14.6721593" y="6.00897995" width="5.33533066" height="12.0179599"></rect>
                                                    </g>
                                                </g>
                                                <g id="Page-1" transform="translate(0.548842, 5.574113)">
                                                    <path d="M8.53652906,13.8874203 C8.53652906,16.2473604 6.62556033,18.1604727 4.26826453,18.1604727 C1.91096872,18.1604727 0,16.2473604 0,13.8874203 C0,11.5274803 1.91096872,9.61436792 4.26826453,9.61436792 C6.62556033,9.61436792 8.53652906,11.5274803 8.53652906,13.8874203 Z" id="Fill-1"></path>
                                                    <path d="M17.0730581,18.6946043 C17.0730581,20.1695678 15.8787043,21.3652621 14.4053928,21.3652621 C12.9320812,21.3652621 11.7377275,20.1695678 11.7377275,18.6946043 C11.7377275,17.2196401 12.9320812,16.0239465 14.4053928,16.0239465 C15.8787043,16.0239465 17.0730581,17.2196401 17.0730581,18.6946043 Z" id="Fill-3"></path>
                                                    <path d="M21.3413226,6.40957862 C21.3413226,9.94948874 18.4748696,12.8191572 14.9389258,12.8191572 C11.4029821,12.8191572 8.53652906,9.94948874 8.53652906,6.40957862 C8.53652906,2.8696685 11.4029821,0 14.9389258,0 C18.4748696,0 21.3413226,2.8696685 21.3413226,6.40957862 Z" id="Fill-4"></path>
                                                </g>
                                                <path d="M116.182102,16.598138 L114.301398,14.7153242 L110.499975,19.0017299 C107.75228,15.9037669 103.950856,14.0343065 99.6559153,14.0343065 C95.8011389,14.0343065 92.2664823,15.583288 89.5054487,18.0402931 L91.3994911,19.9364602 C93.6670066,17.9468201 96.5347469,16.7049643 99.6559153,16.7049643 C103.310617,16.7049643 106.445124,18.3874787 108.685962,21.0314298 L104.844524,25.3578954 L99.5091937,20.0165799 L89.5054487,30.0448998 L91.5061977,32.0478931 L99.5091937,24.0225665 L104.844524,29.363882 L110.246547,23.2881356 C111.246921,25.0908296 111.913837,27.1605894 112.167266,29.363882 L114.848269,29.363882 C114.554826,26.2926256 113.581128,23.5017883 112.127251,21.1649627 L116.182102,16.598138 Z" id="Page-1"></path>
                                                <path d="M157.325824,5.34131551 L157.325824,32.0478931 C150.563292,31.3802286 145.32133,25.6516678 145.32133,18.6946043 C145.32133,11.7375408 150.563292,6.00897995 157.325824,5.34131551 Z M160.033504,5.34131551 L160.033504,17.3459221 L171.997983,17.3459221 C171.371082,11.0164632 166.342532,5.96892009 160.033504,5.34131551 Z M160.033504,20.0432865 L160.033504,32.0478931 C166.355871,31.4202892 171.371082,26.3727453 171.997983,20.0432865 L160.033504,20.0432865 Z" id="Page-1"></path>
                                            </g>
                                        </g>
                                        <g id="row-3" transform="translate(3.340720, 117.613779)" fill="#000000">
                                            <g id="Group-4">
                                                <path d="M61.4256327,26.7065776 L64.093298,26.7065776 L64.093298,10.682631 L61.4256327,10.682631 L61.4256327,26.7065776 Z M66.7609633,32.0478931 L69.4286287,32.0478931 L69.4286287,5.34131551 L66.7609633,5.34131551 L66.7609633,32.0478931 Z M56.090302,21.3652621 L58.7579673,21.3652621 L58.7579673,16.0239465 L56.090302,16.0239465 L56.090302,21.3652621 Z M72.096294,26.7065776 L74.7639593,26.7065776 L74.7639593,10.682631 L72.096294,10.682631 L72.096294,26.7065776 Z M77.4316247,16.0239465 L77.4316247,21.3652621 L80.09929,21.3652621 L80.09929,16.0239465 L77.4316247,16.0239465 Z" id="Page-1"></path>
                                                <polygon id="Page-1" transform="translate(16.280413, 16.023947) scale(-1, 1) translate(-16.280413, -16.023947) " points="2.2751701 32.0478931 10.2781661 24.0225665 15.6134968 29.363882 26.9510744 16.598138 25.0703703 14.7153242 15.6134968 25.3578954 10.2781661 20.0165799 0.274421104 30.0448998"></polygon>
                                                <g id="Group-7" transform="translate(158.127424, 11.705637)" fill-rule="nonzero">
                                                    <rect id="Rectangle-path" x="15.0339617" y="0" width="5.33533066" height="18.0269399"></rect>
                                                    <rect id="Rectangle-path" x="7.69788209" y="3.3383222" width="5.33533066" height="14.6886177"></rect>
                                                    <rect id="Rectangle-path" x="0.361802432" y="6.00897995" width="5.33533066" height="12.0179599"></rect>
                                                </g>
                                                <g id="Group-6" transform="translate(107.459834, 10.033403)">
                                                    <path d="M9.08537126,13.8874203 C9.08537126,16.2473604 7.17440254,18.1604727 4.81710674,18.1604727 C2.45981093,18.1604727 0.548842208,16.2473604 0.548842208,13.8874203 C0.548842208,11.5274803 2.45981093,9.61436792 4.81710674,9.61436792 C7.17440254,9.61436792 9.08537126,11.5274803 9.08537126,13.8874203 Z" id="Fill-1"></path>
                                                    <path d="M17.6219003,18.6946043 C17.6219003,20.1695678 16.4275465,21.3652621 14.954235,21.3652621 C13.4809234,21.3652621 12.2865697,20.1695678 12.2865697,18.6946043 C12.2865697,17.2196401 13.4809234,16.0239465 14.954235,16.0239465 C16.4275465,16.0239465 17.6219003,17.2196401 17.6219003,18.6946043 Z" id="Fill-3"></path>
                                                    <path d="M21.8901648,6.40957862 C21.8901648,9.94948874 19.0237118,12.8191572 15.4877681,12.8191572 C11.9518243,12.8191572 9.08537126,9.94948874 9.08537126,6.40957862 C9.08537126,2.8696685 11.9518243,0 15.4877681,0 C19.0237118,0 21.8901648,2.8696685 21.8901648,6.40957862 Z" id="Fill-4"></path>
                                                </g>
                                            </g>
                                            <g id="Group-8" transform="translate(194.318560, 0.000000)">
                                                <path d="M183.92304,8.01197327 L165.249383,8.01197327 C163.775498,8.01197327 162.581717,9.20709262 162.581717,10.682631 L162.581717,29.3772353 C162.581717,30.8527731 163.775498,32.0478931 165.249383,32.0478931 L183.92304,32.0478931 C185.396925,32.0478931 186.590705,30.8527731 186.590705,29.3772353 L186.590705,10.682631 C186.590705,9.20709262 185.396925,8.01197327 183.92304,8.01197327 Z M170.584713,26.7065776 L167.917048,26.7065776 L167.917048,17.3592754 L170.584713,17.3592754 L170.584713,26.7065776 Z M175.920044,26.7065776 L173.252379,26.7065776 L173.252379,13.3532888 L175.920044,13.3532888 L175.920044,26.7065776 Z M181.255375,26.7065776 L178.587709,26.7065776 L178.587709,21.3652621 L181.255375,21.3652621 L181.255375,26.7065776 Z" id="Page-1-Copy-3"></path>
                                                <path d="M99.6402657,5.34131551 C92.3041861,5.34131551 86.3019391,11.3502955 86.3019391,18.6946043 C86.3019391,26.0389131 92.3041861,32.0478931 99.6402657,32.0478931 C106.976345,32.0478931 112.978592,26.0389131 112.978592,18.6946043 C112.978592,11.3502955 106.976345,5.34131551 99.6402657,5.34131551 Z M100.974098,8.10544629 C105.789234,8.70634429 109.617334,12.5520915 110.217559,17.3592754 L100.974098,17.3592754 L100.974098,8.10544629 Z M88.9696044,18.6946043 C88.9696044,13.2731691 93.0644707,8.75975744 98.306433,8.10544629 L98.306433,29.2971136 C93.0644707,28.6294491 88.9696044,24.1160395 88.9696044,18.6946043 Z M100.974098,29.283763 L100.974098,20.0299332 L110.217559,20.0299332 C109.617334,24.8504704 105.789234,28.6828636 100.974098,29.283763 Z" id="Page-1-Copy-2"></path>
                                                <path d="M48.7646935,26.7065776 L51.4323589,26.7065776 L51.4323589,10.682631 L48.7646935,10.682631 L48.7646935,26.7065776 Z M54.1000242,32.0478931 L56.7676895,32.0478931 L56.7676895,5.34131551 L54.1000242,5.34131551 L54.1000242,32.0478931 Z M43.4293629,21.3652621 L46.0970282,21.3652621 L46.0970282,16.0239465 L43.4293629,16.0239465 L43.4293629,21.3652621 Z M59.4353549,26.7065776 L62.1030202,26.7065776 L62.1030202,10.682631 L59.4353549,10.682631 L59.4353549,26.7065776 Z M64.7706855,16.0239465 L64.7706855,21.3652621 L67.4383508,21.3652621 L67.4383508,16.0239465 L64.7706855,16.0239465 Z" id="Page-1-Copy"></path>
                                                <g id="Group-5" transform="translate(129.731302, 5.016701)">
                                                    <path d="M8.53652906,13.8874203 C8.53652906,16.2473604 6.62556033,18.1604727 4.26826453,18.1604727 C1.91096872,18.1604727 0,16.2473604 0,13.8874203 C0,11.5274803 1.91096872,9.61436792 4.26826453,9.61436792 C6.62556033,9.61436792 8.53652906,11.5274803 8.53652906,13.8874203 Z" id="Fill-1-Copy"></path>
                                                    <path d="M17.0730581,18.6946043 C17.0730581,20.1695678 15.8787043,21.3652621 14.4053928,21.3652621 C12.9320812,21.3652621 11.7377275,20.1695678 11.7377275,18.6946043 C11.7377275,17.2196401 12.9320812,16.0239465 14.4053928,16.0239465 C15.8787043,16.0239465 17.0730581,17.2196401 17.0730581,18.6946043 Z" id="Fill-3-Copy"></path>
                                                    <path d="M21.3413226,6.40957862 C21.3413226,9.94948874 18.4748696,12.8191572 14.9389258,12.8191572 C11.4029821,12.8191572 8.53652906,9.94948874 8.53652906,6.40957862 C8.53652906,2.8696685 11.4029821,0 14.9389258,0 C18.4748696,0 21.3413226,2.8696685 21.3413226,6.40957862 Z" id="Fill-4-Copy"></path>
                                                </g>
                                                <path d="M26.6766533,16.598138 L24.7959492,14.7153242 L20.9945261,19.0017299 C18.2468309,15.9037669 14.4454078,14.0343065 10.1504666,14.0343065 C6.29569018,14.0343065 2.76103362,15.583288 0,18.0402931 L1.89404238,19.9364602 C4.16155791,17.9468201 7.02929814,16.7049643 10.1504666,16.7049643 C13.8051681,16.7049643 16.9396748,18.3874787 19.1805137,21.0314298 L15.3390756,25.3578954 L10.003745,20.0165799 L0,30.0448998 L2.000749,32.0478931 L10.003745,24.0225665 L15.3390756,29.363882 L20.7410979,23.2881356 C21.7414724,25.0908296 22.4083888,27.1605894 22.661817,29.363882 L25.3428206,29.363882 C25.0493774,26.2926256 24.0756796,23.5017883 22.621802,21.1649627 L26.6766533,16.598138 Z" id="Page-1-Copy-4"></path>
                                            </g>
                                        </g>
                                        <g id="row-4" transform="translate(0.000000, 180.601253)" fill="#000000">
                                            <g id="Group-2">
                                                <path d="M172.782973,26.7065776 L175.450639,26.7065776 L175.450639,10.682631 L172.782973,10.682631 L172.782973,26.7065776 Z M178.118304,32.0478931 L180.785969,32.0478931 L180.785969,5.34131551 L178.118304,5.34131551 L178.118304,32.0478931 Z M167.447643,21.3652621 L170.115308,21.3652621 L170.115308,16.0239465 L167.447643,16.0239465 L167.447643,21.3652621 Z M183.453635,26.7065776 L186.1213,26.7065776 L186.1213,10.682631 L183.453635,10.682631 L183.453635,26.7065776 Z M188.788965,16.0239465 L188.788965,21.3652621 L191.456631,21.3652621 L191.456631,16.0239465 L188.788965,16.0239465 Z" id="Page-1"></path>
                                                <path d="M77.1572036,8.01197327 L58.4835462,8.01197327 C57.0096611,8.01197327 55.8158809,9.20709262 55.8158809,10.682631 L55.8158809,29.3772353 C55.8158809,30.8527731 57.0096611,32.0478931 58.4835462,32.0478931 L77.1572036,32.0478931 C78.6310886,32.0478931 79.8248689,30.8527731 79.8248689,29.3772353 L79.8248689,10.682631 C79.8248689,9.20709262 78.6310886,8.01197327 77.1572036,8.01197327 Z M63.8188769,26.7065776 L61.1512116,26.7065776 L61.1512116,17.3592754 L63.8188769,17.3592754 L63.8188769,26.7065776 Z M69.1542076,26.7065776 L66.4865422,26.7065776 L66.4865422,13.3532888 L69.1542076,13.3532888 L69.1542076,26.7065776 Z M74.4895382,26.7065776 L71.8218729,26.7065776 L71.8218729,21.3652621 L74.4895382,21.3652621 L74.4895382,26.7065776 Z" id="Page-1"></path>
                                                <path d="M13.3383266,5.34131551 C6.00224699,5.34131551 0,11.3502955 0,18.6946043 C0,26.0389131 6.00224699,32.0478931 13.3383266,32.0478931 C20.6744063,32.0478931 26.6766533,26.0389131 26.6766533,18.6946043 C26.6766533,11.3502955 20.6744063,5.34131551 13.3383266,5.34131551 Z M14.6721593,8.10544629 C19.4872952,8.70634429 23.315395,12.5520915 23.9156197,17.3592754 L14.6721593,17.3592754 L14.6721593,8.10544629 Z M2.66766533,18.6946043 C2.66766533,13.2731691 6.76253161,8.75975744 12.004494,8.10544629 L12.004494,29.2971136 C6.76253161,28.6294491 2.66766533,24.1160395 2.66766533,18.6946043 Z M14.6721593,29.283763 L14.6721593,20.0299332 L23.9156197,20.0299332 C23.315395,24.8504704 19.4872952,28.6828636 14.6721593,29.283763 Z" id="Page-1"></path>
                                                <polygon id="Page-1" transform="translate(127.637754, 16.023947) scale(-1, 1) translate(-127.637754, -16.023947) " points="113.632511 32.0478931 121.635507 24.0225665 126.970837 29.363882 138.308415 16.598138 136.427711 14.7153242 126.970837 25.3578954 121.635507 20.0165799 111.631762 30.0448998"></polygon>
                                            </g>
                                            <g id="Group-3" transform="translate(218.817175, 0.000000)">
                                                <g id="Graph" transform="translate(55.697807, 16.259816) scale(-1, 1) translate(-55.697807, -16.259816) translate(45.694062, 7.246347)" fill-rule="nonzero">
                                                    <g id="Layer_1">
                                                        <rect id="Rectangle-path" x="0" y="0" width="5.33533066" height="18.0269399"></rect>
                                                        <rect id="Rectangle-path" x="7.33607966" y="3.3383222" width="5.33533066" height="14.6886177"></rect>
                                                        <rect id="Rectangle-path" x="14.6721593" y="6.00897995" width="5.33533066" height="12.0179599"></rect>
                                                    </g>
                                                </g>
                                                <g id="Page-1" transform="translate(0.548842, 5.574113)">
                                                    <path d="M8.53652906,13.8874203 C8.53652906,16.2473604 6.62556033,18.1604727 4.26826453,18.1604727 C1.91096872,18.1604727 0,16.2473604 0,13.8874203 C0,11.5274803 1.91096872,9.61436792 4.26826453,9.61436792 C6.62556033,9.61436792 8.53652906,11.5274803 8.53652906,13.8874203 Z" id="Fill-1"></path>
                                                    <path d="M17.0730581,18.6946043 C17.0730581,20.1695678 15.8787043,21.3652621 14.4053928,21.3652621 C12.9320812,21.3652621 11.7377275,20.1695678 11.7377275,18.6946043 C11.7377275,17.2196401 12.9320812,16.0239465 14.4053928,16.0239465 C15.8787043,16.0239465 17.0730581,17.2196401 17.0730581,18.6946043 Z" id="Fill-3"></path>
                                                    <path d="M21.3413226,6.40957862 C21.3413226,9.94948874 18.4748696,12.8191572 14.9389258,12.8191572 C11.4029821,12.8191572 8.53652906,9.94948874 8.53652906,6.40957862 C8.53652906,2.8696685 11.4029821,0 14.9389258,0 C18.4748696,0 21.3413226,2.8696685 21.3413226,6.40957862 Z" id="Fill-4"></path>
                                                </g>
                                                <path d="M116.182102,16.598138 L114.301398,14.7153242 L110.499975,19.0017299 C107.75228,15.9037669 103.950856,14.0343065 99.6559153,14.0343065 C95.8011389,14.0343065 92.2664823,15.583288 89.5054487,18.0402931 L91.3994911,19.9364602 C93.6670066,17.9468201 96.5347469,16.7049643 99.6559153,16.7049643 C103.310617,16.7049643 106.445124,18.3874787 108.685962,21.0314298 L104.844524,25.3578954 L99.5091937,20.0165799 L89.5054487,30.0448998 L91.5061977,32.0478931 L99.5091937,24.0225665 L104.844524,29.363882 L110.246547,23.2881356 C111.246921,25.0908296 111.913837,27.1605894 112.167266,29.363882 L114.848269,29.363882 C114.554826,26.2926256 113.581128,23.5017883 112.127251,21.1649627 L116.182102,16.598138 Z" id="Page-1"></path>
                                                <path d="M157.325824,5.34131551 L157.325824,32.0478931 C150.563292,31.3802286 145.32133,25.6516678 145.32133,18.6946043 C145.32133,11.7375408 150.563292,6.00897995 157.325824,5.34131551 Z M160.033504,5.34131551 L160.033504,17.3459221 L171.997983,17.3459221 C171.371082,11.0164632 166.342532,5.96892009 160.033504,5.34131551 Z M160.033504,20.0432865 L160.033504,32.0478931 C166.355871,31.4202892 171.371082,26.3727453 171.997983,20.0432865 L160.033504,20.0432865 Z" id="Page-1"></path>
                                            </g>
                                        </g>
                                        <g id="row-5" transform="translate(3.340720, 234.670146)" fill="#000000">
                                            <g id="Group-2-Copy" transform="translate(196.545706, 0.000000)">
                                                <path d="M172.782973,26.7065776 L175.450639,26.7065776 L175.450639,10.682631 L172.782973,10.682631 L172.782973,26.7065776 Z M178.118304,32.0478931 L180.785969,32.0478931 L180.785969,5.34131551 L178.118304,5.34131551 L178.118304,32.0478931 Z M167.447643,21.3652621 L170.115308,21.3652621 L170.115308,16.0239465 L167.447643,16.0239465 L167.447643,21.3652621 Z M183.453635,26.7065776 L186.1213,26.7065776 L186.1213,10.682631 L183.453635,10.682631 L183.453635,26.7065776 Z M188.788965,16.0239465 L188.788965,21.3652621 L191.456631,21.3652621 L191.456631,16.0239465 L188.788965,16.0239465 Z" id="Page-1"></path>
                                                <path d="M77.1572036,8.01197327 L58.4835462,8.01197327 C57.0096611,8.01197327 55.8158809,9.20709262 55.8158809,10.682631 L55.8158809,29.3772353 C55.8158809,30.8527731 57.0096611,32.0478931 58.4835462,32.0478931 L77.1572036,32.0478931 C78.6310886,32.0478931 79.8248689,30.8527731 79.8248689,29.3772353 L79.8248689,10.682631 C79.8248689,9.20709262 78.6310886,8.01197327 77.1572036,8.01197327 Z M63.8188769,26.7065776 L61.1512116,26.7065776 L61.1512116,17.3592754 L63.8188769,17.3592754 L63.8188769,26.7065776 Z M69.1542076,26.7065776 L66.4865422,26.7065776 L66.4865422,13.3532888 L69.1542076,13.3532888 L69.1542076,26.7065776 Z M74.4895382,26.7065776 L71.8218729,26.7065776 L71.8218729,21.3652621 L74.4895382,21.3652621 L74.4895382,26.7065776 Z" id="Page-1"></path>
                                                <path d="M13.3383266,5.34131551 C6.00224699,5.34131551 0,11.3502955 0,18.6946043 C0,26.0389131 6.00224699,32.0478931 13.3383266,32.0478931 C20.6744063,32.0478931 26.6766533,26.0389131 26.6766533,18.6946043 C26.6766533,11.3502955 20.6744063,5.34131551 13.3383266,5.34131551 Z M14.6721593,8.10544629 C19.4872952,8.70634429 23.315395,12.5520915 23.9156197,17.3592754 L14.6721593,17.3592754 L14.6721593,8.10544629 Z M2.66766533,18.6946043 C2.66766533,13.2731691 6.76253161,8.75975744 12.004494,8.10544629 L12.004494,29.2971136 C6.76253161,28.6294491 2.66766533,24.1160395 2.66766533,18.6946043 Z M14.6721593,29.283763 L14.6721593,20.0299332 L23.9156197,20.0299332 C23.315395,24.8504704 19.4872952,28.6828636 14.6721593,29.283763 Z" id="Page-1"></path>
                                                <polygon id="Page-1" transform="translate(127.637754, 16.023947) scale(-1, 1) translate(-127.637754, -16.023947) " points="113.632511 32.0478931 121.635507 24.0225665 126.970837 29.363882 138.308415 16.598138 136.427711 14.7153242 126.970837 25.3578954 121.635507 20.0165799 111.631762 30.0448998"></polygon>
                                            </g>
                                            <g id="Group-3-Copy">
                                                <g id="Graph" transform="translate(55.697807, 16.259816) scale(-1, 1) translate(-55.697807, -16.259816) translate(45.694062, 7.246347)" fill-rule="nonzero">
                                                    <g id="Layer_1">
                                                        <rect id="Rectangle-path" x="0" y="0" width="5.33533066" height="18.0269399"></rect>
                                                        <rect id="Rectangle-path" x="7.33607966" y="3.3383222" width="5.33533066" height="14.6886177"></rect>
                                                        <rect id="Rectangle-path" x="14.6721593" y="6.00897995" width="5.33533066" height="12.0179599"></rect>
                                                    </g>
                                                </g>
                                                <g id="Page-1" transform="translate(0.548842, 5.574113)">
                                                    <path d="M8.53652906,13.8874203 C8.53652906,16.2473604 6.62556033,18.1604727 4.26826453,18.1604727 C1.91096872,18.1604727 0,16.2473604 0,13.8874203 C0,11.5274803 1.91096872,9.61436792 4.26826453,9.61436792 C6.62556033,9.61436792 8.53652906,11.5274803 8.53652906,13.8874203 Z" id="Fill-1"></path>
                                                    <path d="M17.0730581,18.6946043 C17.0730581,20.1695678 15.8787043,21.3652621 14.4053928,21.3652621 C12.9320812,21.3652621 11.7377275,20.1695678 11.7377275,18.6946043 C11.7377275,17.2196401 12.9320812,16.0239465 14.4053928,16.0239465 C15.8787043,16.0239465 17.0730581,17.2196401 17.0730581,18.6946043 Z" id="Fill-3"></path>
                                                    <path d="M21.3413226,6.40957862 C21.3413226,9.94948874 18.4748696,12.8191572 14.9389258,12.8191572 C11.4029821,12.8191572 8.53652906,9.94948874 8.53652906,6.40957862 C8.53652906,2.8696685 11.4029821,0 14.9389258,0 C18.4748696,0 21.3413226,2.8696685 21.3413226,6.40957862 Z" id="Fill-4"></path>
                                                </g>
                                                <path d="M116.182102,16.598138 L114.301398,14.7153242 L110.499975,19.0017299 C107.75228,15.9037669 103.950856,14.0343065 99.6559153,14.0343065 C95.8011389,14.0343065 92.2664823,15.583288 89.5054487,18.0402931 L91.3994911,19.9364602 C93.6670066,17.9468201 96.5347469,16.7049643 99.6559153,16.7049643 C103.310617,16.7049643 106.445124,18.3874787 108.685962,21.0314298 L104.844524,25.3578954 L99.5091937,20.0165799 L89.5054487,30.0448998 L91.5061977,32.0478931 L99.5091937,24.0225665 L104.844524,29.363882 L110.246547,23.2881356 C111.246921,25.0908296 111.913837,27.1605894 112.167266,29.363882 L114.848269,29.363882 C114.554826,26.2926256 113.581128,23.5017883 112.127251,21.1649627 L116.182102,16.598138 Z" id="Page-1"></path>
                                                <path d="M157.325824,5.34131551 L157.325824,32.0478931 C150.563292,31.3802286 145.32133,25.6516678 145.32133,18.6946043 C145.32133,11.7375408 150.563292,6.00897995 157.325824,5.34131551 Z M160.033504,5.34131551 L160.033504,17.3459221 L171.997983,17.3459221 C171.371082,11.0164632 166.342532,5.96892009 160.033504,5.34131551 Z M160.033504,20.0432865 L160.033504,32.0478931 C166.355871,31.4202892 171.371082,26.3727453 171.997983,20.0432865 L160.033504,20.0432865 Z" id="Page-1"></path>
                                            </g>
                                        </g>
                                    </g>
                                </g>
                            </g>
                            <g id="Rectangle-6-Copy-9" mask="url(#mask-2)">
                                <use fill="black" fill-opacity="1" filter="url(#filter-6)" xlink:href="#path-5"></use>
                                <use fill="url(#linearGradient-4)" fill-rule="evenodd" xlink:href="#path-5"></use>
                            </g>
                        </g>
                    </g>
                </g>
            </g>
        </g>
    </g>
</svg>