<?xml version="1.0" encoding="UTF-8"?>
<svg width="20px" height="20px" viewBox="0 0 20 20" version="1.1" xmlns="http://www.w3.org/2000/svg" xmlns:xlink="http://www.w3.org/1999/xlink">
    <!-- Generator: Sketch 42 (36781) - http://www.bohemiancoding.com/sketch -->
    <title>feat2/icon</title>
    <desc>Created with Sketch.</desc>
    <defs></defs>
    <g id="Home-Page" stroke="none" stroke-width="1" fill="none" fill-rule="evenodd">
        <g id="RISE-Home-Page-Concept-3" transform="translate(-829.000000, -1101.000000)" fill-rule="nonzero" fill="#526276">
            <g id="Content-Block-1" transform="translate(145.000000, 1035.000000)">
                <g id="quadrant" transform="translate(568.000000, 0.000000)">
                    <g id="feat2" transform="translate(0.477658, 0.840359)">
                        <g id="feat2/icon" transform="translate(125.522342, 75.159641) scale(-1, 1) rotate(-180.000000) translate(-125.522342, -75.159641) translate(115.522342, 65.159641)">
                            <path d="M8.28125,16.28125 C3.84375,16.28125 0.28125,12.6875 0.28125,8.28125 C0.28125,3.84375 3.875,0.28125 8.28125,0.28125 C12.71875,0.28125 16.28125,3.875 16.28125,8.28125 L8.28125,8.28125 L8.28125,16.28125 L8.28125,16.28125 Z M19.75,10.875 C19.75,15.75 15.78125,19.75 10.875,19.75 L10,19.75 L10,10 L19.71875,10 L19.71875,10.875 L19.75,10.875 Z M12.53125,17.8125 L11.71875,17 L11.71875,17.96875 C12,17.9375 12.28125,17.875 12.53125,17.8125 Z M13.96875,17.3125 L11.75,15.09375 L11.75,16.0625 L13.3125,17.625 C13.5,17.53125 13.75,17.4375 13.96875,17.3125 Z M15.15625,16.59375 L11.71875,13.15625 L11.71875,14.125 L14.5625,16.96875 C14.78125,16.875 14.96875,16.71875 15.15625,16.59375 Z M16.15625,15.65625 L12.21875,11.71875 L11.71875,11.71875 L11.71875,12.1875 L15.6875,16.15625 C15.84375,16 16,15.84375 16.15625,15.65625 Z M17,14.5625 L14.15625,11.71875 L13.1875,11.71875 L16.59375,15.125 C16.75,14.96875 16.875,14.78125 17,14.5625 Z M17.59375,13.25 L16.0625,11.71875 L15.09375,11.71875 L17.3125,13.9375 C17.4375,13.71875 17.53125,13.5 17.59375,13.25 Z M17.96875,11.71875 L17.03125,11.71875 L17.8125,12.5 C17.875,12.25 17.9375,12 17.96875,11.71875 Z" id="Shape"></path>
                        </g>
                    </g>
                </g>
            </g>
        </g>
    </g>
</svg>