<?xml version="1.0" encoding="UTF-8"?>
<svg width="243px" height="64px" viewBox="0 0 243 64" version="1.1" xmlns="http://www.w3.org/2000/svg" xmlns:xlink="http://www.w3.org/1999/xlink">
    <!-- Generator: Sketch 44 (41411) - http://www.bohemiancoding.com/sketch -->
    <title>block-9 footer-features/news/usc-rossier logo/usc-rossier-logo</title>
    <desc>Created with Sketch.</desc>
    <defs></defs>
    <g id="Desktop" stroke="none" stroke-width="1" fill="none" fill-rule="evenodd">
        <g id="RISE-Home-Page" transform="translate(-750.000000, -5696.000000)">
            <g id="block-footer-features" transform="translate(0.000000, 5446.000000)">
                <g id="Feature" transform="translate(700.000000, 0.000000)">
                    <g id="News-RISE">
                        <g id="logo+text" transform="translate(50.000000, 49.000000)">
                            <g id="logo/USC/knockout" transform="translate(0.000000, 201.000000)">
                                <g id="logo-rossier-knockout">
                                    <g id="Layer_1" fill-rule="nonzero">
                                        <path d="M111.472205,19.3360541 C112.256437,19.4894595 112.833261,19.5408851 113.824901,19.5408851 C123.340723,19.5408851 125.170004,13.1405676 125.170004,10.9928919 C125.170004,8.63602703 124.071545,6.38462838 122.554711,5.15825676 C120.515352,3.57103378 118.215175,2.80139189 113.87742,2.80139189 C113.250747,2.80139189 112.569774,2.90598649 112.097988,3.21018243 C111.735693,3.46818243 111.470425,4.02863514 111.470425,4.84795946 L111.472205,19.3360541 Z M106.766813,14.2701892 C106.766813,10.4821216 106.766813,7.20656757 106.714294,5.71958108 C106.659994,4.02863514 106.03243,3.1605 104.726564,3.1605 L102.635576,3.1605 C102.374758,3.1605 102.322239,3.00622297 102.322239,2.80052027 L102.322239,1.52446622 C102.322239,1.26908108 102.374758,1.16361486 102.635576,1.16361486 C103.106471,1.16361486 104.726564,1.31527703 109.115058,1.31527703 C112.046359,1.31527703 116.906638,1.16361486 117.848429,1.16361486 C122.187964,1.16187162 125.639119,2.44402703 127.624178,4.28576351 C129.350201,5.92441216 130.34362,8.22810811 130.34362,10.1212703 C130.34362,16.518973 127.361581,18.9272635 120.67202,20.3575946 L120.67202,20.4630608 C121.927147,20.9189189 122.65886,21.8428378 123.076345,22.406777 C123.702128,23.0726959 127.41588,28.290223 127.833366,28.9570135 C128.099524,29.4703986 131.442969,34.1239865 132.433719,34.8439459 C133.532177,35.6118446 134.735675,35.7155676 136.20088,35.7155676 C136.564066,35.7155676 136.618366,35.919527 136.618366,36.1243581 L136.618366,37.2496216 C136.618366,37.5581757 136.565847,37.7107095 136.20088,37.7107095 C135.781615,37.7107095 134.420558,37.5573041 132.120382,37.5573041 C130.604438,37.5573041 128.672788,37.6592838 127.884995,37.7107095 C127.310841,37.1964527 126.161643,35.4584392 125.692529,34.7942635 C125.275043,34.178027 122.447891,29.3161216 122.187074,28.9064595 C121.978776,28.5456081 119.467632,24.8630068 118.840068,24.148277 C117.483463,22.5575676 116.227446,21.1777905 113.196447,21.1777905 C112.722881,21.1777905 112.205698,21.1777905 111.470425,21.3294527 L111.470425,24.1997027 C111.470425,27.2181284 111.525615,32.9516554 111.576354,33.7151959 C111.678722,34.7942635 112.097098,35.7155676 112.884,35.7155676 L116.176706,35.7155676 C116.540782,35.7155676 116.595972,35.8707162 116.595972,36.1261014 L116.595972,37.2513649 C116.595972,37.6069865 116.541672,37.7107095 116.020038,37.7107095 C115.444104,37.7107095 114.140018,37.5573041 109.172919,37.5573041 C104.417678,37.5573041 103.21329,37.7107095 102.637356,37.7107095 C102.21898,37.7107095 102.21898,37.5573041 102.21898,37.3019189 L102.21898,36.1287162 C102.21898,35.8715878 102.21898,35.7164392 102.480688,35.7164392 L104.620635,35.7164392 C105.775174,35.7164392 106.659994,35.3555878 106.659994,33.9766824 C106.765923,28.9090743 106.765923,24.0959797 106.765923,19.2340743 L106.765923,14.2701892 L106.766813,14.2701892 Z" id="Shape" fill="#FFFFFF"></path>
                                        <path d="M151.564171,26.3979324 C151.564171,20.7140878 147.330565,17.131723 144.661862,17.131723 C143.250066,17.131723 141.896131,17.440277 140.638334,18.7712432 C138.598974,20.8178108 137.865482,22.9184189 137.865482,26.8075946 C137.865482,29.6734865 138.181489,31.6189459 139.854102,33.9749392 C141.055819,35.6641419 142.573544,36.636 145.031279,36.636 C149.004958,36.636 151.564171,31.8760743 151.564171,26.3979324 M136.457247,34.6408581 C134.052922,31.823777 133.582026,29.9306149 133.582026,26.2959527 C133.582026,23.6863176 134.993822,20.4107635 138.07823,18.0547703 C140.794112,16.0082027 143.356886,15.5976689 145.082908,15.5976689 C147.957238,15.5976689 150.830678,17.0306149 152.402703,18.5655405 C154.755399,20.9189189 155.959787,23.5799797 155.959787,26.9087027 C155.959787,32.4888243 150.832459,38.1709257 144.401935,38.1709257 C141.896131,38.1709257 138.651494,37.1973243 136.457247,34.6408581" id="Shape" fill="#FFFFFF"></path>
                                        <path d="M159.090483,36.6848108 C158.831446,36.5331486 158.831446,36.223723 158.775366,35.9683378 L157.885205,31.1073041 C157.830905,30.8519189 157.992915,30.7473243 158.201212,30.6985135 L158.877735,30.5424932 C159.086032,30.4893243 159.246261,30.5921757 159.35041,30.8510473 L160.656277,33.3560878 C161.701326,35.2527365 162.434818,36.5331486 165.20411,36.5331486 C167.036951,36.5331486 169.337128,35.4558243 169.337128,33.0501486 C169.337128,30.7473243 168.184369,29.4181014 164.2641,28.3399054 C161.179691,27.470027 158.093503,25.8871622 158.093503,21.8419662 C158.093503,18.3092838 161.490357,15.5967973 165.411517,15.5967973 C167.921771,15.5967973 169.280157,16.2095473 170.221948,16.6688919 C171.00796,17.0288716 171.112109,17.2842568 171.162848,17.5884527 L171.94708,21.1734324 C171.94708,21.3800068 171.844711,21.5316689 171.580334,21.6353919 L170.95455,21.8393514 C170.746253,21.8925203 170.639433,21.8393514 170.483655,21.5839662 L168.708674,19.227973 C168.082891,18.2578581 167.08324,17.2328311 165.047441,17.2328311 C163.062382,17.2328311 161.023913,18.407777 161.023913,20.6112365 C161.023913,23.5782365 163.478977,24.1447905 166.039971,24.8603919 C169.857872,25.9351014 172.263977,27.4674122 172.316497,31.4106284 C172.263977,35.5569324 168.811042,38.1665676 164.369139,38.1683108 C161.809925,38.1700541 159.716266,37.145027 159.090483,36.6848108" id="Shape" fill="#FFFFFF"></path>
                                        <path d="M175.605642,36.6848108 C175.346605,36.5314054 175.346605,36.223723 175.289635,35.9665946 L174.401254,31.1029459 C174.350515,30.8519189 174.507183,30.7473243 174.717261,30.6941554 L175.397344,30.5424932 C175.605642,30.4893243 175.762311,30.5921757 175.866459,30.8510473 L177.170545,33.3560878 C178.219155,35.24925 178.950868,36.5314054 181.720159,36.5314054 C183.554781,36.5314054 185.854957,35.4540811 185.854957,33.0484054 C185.854957,30.7473243 184.700418,29.4163581 180.781929,28.3390338 C177.697521,27.4682838 174.609552,25.8854189 174.609552,21.840223 C174.609552,18.3084122 178.006407,15.5959257 181.929347,15.5959257 C184.439601,15.5959257 185.797987,16.2095473 186.739777,16.6688919 C187.524009,17.0288716 187.628158,17.2816419 187.680678,17.5884527 L188.46669,21.1708176 C188.46669,21.3800068 188.362541,21.5307973 188.098163,21.6336486 L187.47238,21.8393514 C187.264082,21.890777 187.157263,21.8393514 187.003265,21.5839662 L185.224723,19.227973 C184.59894,18.2569865 183.60285,17.2328311 181.565271,17.2328311 C179.578431,17.2328311 177.540852,18.407777 177.540852,20.6112365 C177.540852,23.5782365 179.995917,24.1430473 182.560471,24.8603919 C186.374811,25.9324865 188.782697,27.4674122 188.835217,31.4088851 C188.782697,35.5551892 185.331542,38.1665676 180.887858,38.1665676 C178.325084,38.1683108 176.231425,37.145027 175.605642,36.6848108" id="Shape" fill="#FFFFFF"></path>
                                        <path d="M191.701535,7.04531757 C191.701535,5.76577703 192.801774,4.38164189 194.890092,4.38164189 C196.722934,4.38164189 197.609535,5.76577703 197.609535,6.89191216 C197.609535,8.22287838 196.668634,9.70637838 194.575866,9.70637838 C193.429338,9.70637838 191.701535,8.68483784 191.701535,7.04531757 L191.701535,7.04531757 Z M194.055121,22.6578041 C194.055121,20.9197905 193.741785,19.9967432 191.127381,19.5862095 C190.762415,19.5356554 190.658266,19.4336757 190.658266,19.2288446 L190.658266,18.7695 C190.658266,18.6134797 190.762415,18.5141149 191.023233,18.4095203 C192.697626,17.7941554 194.679124,16.9757027 196.668634,15.9036081 C197.08612,15.6996486 197.350498,15.5950541 197.661164,15.5950541 C197.921981,15.5950541 197.976281,15.8504392 197.921981,16.2078041 C197.817832,17.0785541 197.821393,20.3061689 197.821393,24.5527095 L197.821393,30.1319595 C197.821393,32.1262297 197.821393,33.9697095 197.873912,34.5345203 C197.976281,35.5046351 198.132949,35.862 198.708884,35.862 L201.113209,35.862 C201.532475,35.862 201.636623,36.0171486 201.638404,36.3230878 L201.638404,37.1964527 C201.638404,37.5520743 201.534255,37.707223 201.169289,37.707223 C200.750023,37.707223 198.342137,37.5520743 196.14967,37.5520743 C193.117782,37.5520743 191.076642,37.707223 190.502488,37.707223 C190.241671,37.707223 190.085003,37.6035 190.085003,37.2966892 L190.085003,36.2734054 C190.083222,35.9665946 190.239891,35.8646149 190.606637,35.8646149 L193.169411,35.8646149 C193.743565,35.8646149 193.951863,35.6571689 194.005272,34.8378446 C194.055121,33.3055338 194.055121,31.7209257 194.055121,30.1833851 L194.055121,22.6578041 Z" id="Shape" fill="#FFFFFF"></path>
                                        <path d="M213.866547,22.4006757 C214.859076,22.4006757 215.276562,22.1444189 215.276562,21.6859459 C215.276562,20.5057703 214.650779,17.1291081 211.252144,17.1291081 C208.953748,17.1291081 206.759501,18.615223 205.765191,22.4006757 L213.866547,22.4006757 L213.866547,22.4006757 Z M205.556003,23.9373446 C205.450074,24.3966892 205.397554,25.2186284 205.397554,26.3961892 C205.397554,31.4115 208.642191,35.1969527 212.821498,35.1969527 C216.011835,35.1969527 218.257712,33.4057703 219.147873,31.7156959 C219.250241,31.5134797 219.46299,31.4106284 219.618768,31.4594392 L220.297071,31.8194189 C220.453739,31.8691014 220.559668,32.0233784 220.297071,32.5855743 C219.357951,34.6347568 216.639399,38.1674392 211.986527,38.1674392 C209.006267,38.1674392 205.715342,37.2975608 203.778351,34.5310338 C201.94729,31.9240135 201.478175,30.0273649 201.478175,26.4467432 C201.478175,24.4463716 201.999809,21.0174122 204.7691,18.3040541 C207.014977,16.0552703 209.63027,15.5906959 212.244673,15.5906959 C218.255041,15.5906959 219.931214,21.1185203 219.931214,23.1188919 C219.931214,23.8318784 219.301871,23.936473 218.466899,23.936473 L205.556003,23.936473 L205.556003,23.9373446 Z" id="Shape" fill="#FFFFFF"></path>
                                        <path d="M224.790604,23.9373446 C224.790604,21.3250946 224.371338,20.8125811 222.907913,20.0455541 L221.915384,19.5347838 C221.602047,19.4328041 221.497898,19.3813784 221.497898,19.1748041 L221.497898,18.86625 C221.497898,18.6614189 221.602047,18.5611824 221.915384,18.4086486 L227.09078,15.795527 C227.402337,15.6421216 227.612415,15.5915676 227.820712,15.5915676 C228.134049,15.5915676 228.185678,15.89925 228.185678,16.2051892 L228.448276,19.7396149 L228.658354,19.7396149 C230.225038,17.3853649 232.682772,15.2865 234.929539,15.2865 C236.708081,15.2865 237.594681,16.3585946 237.598242,17.5387703 C237.598242,19.0222703 236.343115,20.0464257 235.398654,20.0464257 C234.82628,20.0464257 234.303756,19.8424662 233.88449,19.6376351 C233.467004,19.38225 232.839441,19.2262297 232.159358,19.2262297 C231.323496,19.2262297 229.96333,19.7396149 229.074949,21.3791351 C228.763393,21.9387162 228.555095,22.8626351 228.555095,23.0142973 L228.555095,33.7640068 C228.555095,35.3468716 228.916501,35.8646149 230.01585,35.8646149 L232.476255,35.8646149 C232.786031,35.8646149 232.839441,36.016277 232.839441,36.3239595 L232.839441,37.2452635 C232.839441,37.5538176 232.788702,37.7063514 232.580404,37.7063514 C232.265287,37.7063514 229.859181,37.5529459 227.039151,37.5529459 C223.798074,37.5529459 221.601157,37.7063514 221.28782,37.7063514 C221.079522,37.7063514 220.974483,37.6043716 220.974483,37.1920946 L220.974483,36.3239595 C220.974483,35.9631081 221.076852,35.8646149 221.549527,35.8646149 L223.585326,35.8646149 C224.369558,35.8646149 224.736304,35.5534459 224.736304,34.8910135 C224.788824,33.2018108 224.788824,31.4115 224.788824,28.7486959 L224.788824,23.9373446 L224.790604,23.9373446 Z" id="Shape" fill="#FFFFFF"></path>
                                        <path d="M4.65732291,5.28638514 C4.65732291,3.52483784 4.23271606,2.69592568 2.85830731,2.69592568 L0.423716687,2.69592568 C0.105929172,2.6967973 0,2.5922027 0,2.23135135 L0,1.03548649 C0,0.726932432 0.105929172,0.622337838 0.526975375,0.622337838 C1.06018188,0.622337838 3.59536071,0.778358108 8.67729047,0.778358108 C13.1209747,0.778358108 15.664165,0.622337838 16.2988499,0.622337838 C16.6139669,0.622337838 16.7216764,0.726932432 16.7216764,0.984060811 L16.7216764,2.27929054 C16.7216764,2.59045946 16.6139669,2.69592568 16.2988499,2.69592568 L14.0761176,2.69592568 C12.48718,2.69592568 11.5355978,3.62507432 11.4804078,4.71285811 C11.4305588,5.33693919 11.3237394,8.44601351 11.3237394,11.4496216 L11.3237394,17.8752162 C11.3237394,20.4682905 11.3735885,24.1456622 11.4804078,25.8034865 C11.6424171,28.1865 12.0643535,30.5712568 13.3328331,32.2264662 C15.1318487,34.6094797 17.9892658,35.4383919 20.5297856,35.4383919 C22.9652664,35.4383919 25.9277226,34.5075 27.6190287,32.952527 C29.6316829,30.9844054 30.6909746,27.9799257 30.6909746,24.194473 L30.6909746,14.8716081 C30.6909746,10.7261757 30.2663678,6.16933784 30.107029,4.97521622 C29.9485803,3.62681757 29.1020371,2.69766892 27.9368162,2.69766892 L26.0345419,2.69766892 C25.7149741,2.69766892 25.609935,2.53903378 25.609935,2.33245946 L25.609935,1.03548649 C25.609935,0.726932432 25.7140839,0.622337838 26.0345419,0.622337838 C26.5632976,0.622337838 28.9943276,0.778358108 32.4891001,0.778358108 C35.7702339,0.778358108 37.46154,0.622337838 37.8852567,0.622337838 C38.3614929,0.622337838 38.417573,0.778358108 38.417573,1.03548649 L38.417573,2.23135135 C38.417573,2.53903378 38.3623831,2.6967973 38.097115,2.6967973 L36.1939506,2.6967973 C34.2890058,2.6967973 34.074477,4.14630405 33.9712183,4.71372973 C33.8661793,5.33781081 33.8661793,12.5914459 33.8661793,13.2660811 C33.8661793,13.989527 33.7620305,23.0055811 33.549282,25.0774257 C33.2314944,29.3283243 31.9603444,32.54025 29.1029272,35.0243716 C26.8793048,36.9959797 23.4975827,38.2389122 19.471384,38.2389122 C16.9326446,38.2389122 13.8651494,37.8248919 11.8533853,36.9959797 C8.78589012,35.7513041 6.66997717,33.3700338 5.60712481,30.0517703 C4.86651077,27.774223 4.65821307,24.3565946 4.65821307,17.5657905 L4.65821307,5.28638514 L4.65732291,5.28638514 Z" id="Shape" fill="#FFCD05"></path>
                                        <path d="M39.9005814,25.9080811 C40.1097693,25.9080811 40.2156985,26.0100608 40.2156985,26.322973 C40.3225178,27.9799257 40.7462345,29.9497905 42.2292429,32.2290811 C43.8146198,34.7158176 46.566998,35.9570068 49.2134469,35.9570068 C52.0717543,35.9570068 56.092612,34.1980743 56.092612,29.8966216 C56.092612,25.1279797 53.8698797,23.5756216 48.2627549,21.503777 C46.5678881,20.8823108 43.074896,19.4301892 40.533486,17.150027 C38.7362507,15.4948176 37.8888173,12.9034865 37.8888173,9.7395 C37.8888173,6.83961486 39.0531481,4.45747297 41.5927777,2.48760811 C43.710471,0.725189189 46.0382423,0 49.1066276,0 C52.5996198,0 54.7146426,0.831527027 55.7730441,1.2455473 C56.3044703,1.45125 56.6186972,1.34927027 56.8848554,1.08778378 L57.5729499,0.414891892 C57.7848082,0.207445946 57.9957764,0.105466216 58.3117836,0.105466216 C58.6313515,0.105466216 58.7355003,0.414891892 58.7355003,0.934378378 C58.7355003,1.76329054 59.5829337,9.01692568 59.5829337,9.53466892 C59.5829337,9.7395 59.4770045,9.84583784 59.2669265,9.89813514 L58.418603,10.1578784 C58.2085249,10.2093041 57.9957764,10.1578784 57.8907374,9.84670946 C57.3610916,8.39633108 56.5145483,6.32361486 54.6087134,4.35200676 C53.2325243,2.90424324 51.5403281,2.17731081 49.1057375,2.17731081 C44.8721312,2.17731081 43.1790448,5.49383108 43.1790448,7.41227027 C43.1790448,9.17381757 43.3909031,10.7270473 44.6620532,12.0745743 C46.0373521,13.4221014 49.0015886,14.6650338 51.1157212,15.2873716 C54.186777,16.2191351 56.7272968,17.2581081 58.7355003,19.3299527 C60.4312572,21.0906284 61.3828394,23.2661959 61.3828394,26.7378649 C61.3828394,33.0588649 57.1492332,38.2397838 50.1650292,38.2397838 C45.8254938,38.2397838 43.2858641,37.3071486 41.1699512,35.7521757 C40.5325958,35.3381554 40.2156985,35.1307095 39.9005814,35.1307095 C39.5819038,35.1307095 39.3700454,35.5447297 39.0522579,36.0633446 C38.7362507,36.5828311 38.5235022,36.6848108 38.1015659,36.6848108 C37.676959,36.6848108 37.4651007,36.3753851 37.4651007,35.8558986 C37.5710298,35.2361757 38.3116439,26.8424595 38.4157927,26.21925 C38.4683122,25.9098243 38.5235022,25.8026149 38.7353606,25.8026149 L39.9005814,25.9080811 Z" id="Shape" fill="#FFCD05"></path>
                                        <path d="M97.57679,29.0162838 C97.7343486,29.1714324 97.7868681,29.3248378 97.681829,29.534027 C94.5075145,33.9906284 89.4264749,38.2380405 81.9135152,38.2380405 C75.14384,38.2380405 71.3303898,36.2716622 68.0528166,33.3691622 C64.1343274,29.9480473 62.3353118,23.9373446 62.3353118,19.3770203 C62.3353118,14.3015676 64.0283982,9.43094595 67.7323586,5.49295946 C70.5897758,2.48760811 75.1429498,0.000871621622 81.487128,0.000871621622 C86.3580896,0.000871621622 90.272128,1.45125 92.1788531,2.48760811 C92.9203573,2.90162838 93.1331058,2.90162838 93.2363645,2.48760811 L93.6600812,1.14182432 C93.7651202,0.832398649 93.8701592,0.832398649 94.5066244,0.832398649 C95.1413092,0.832398649 95.2481286,0.934378378 95.2481286,1.66043919 C95.2481286,2.5922027 96.30564,10.8813243 96.5174983,12.4336824 C96.5682375,12.7474662 96.5174983,12.9017432 96.3065301,12.9549122 L95.3024284,13.2634662 C95.0362702,13.3680608 94.8760412,13.1614865 94.7193729,12.7474662 C94.0837979,10.8804527 92.8126478,8.29173649 90.5916958,6.0107027 C88.2630344,3.83513514 85.5106562,2.17818243 81.3856497,2.17818243 C72.9202175,2.17818243 69.4236647,9.63752027 69.4236647,17.0986014 C69.4236647,20.3113986 70.3779174,26.4249527 74.2946263,30.5712568 C77.7876185,34.1980743 80.8560038,34.611223 83.3965236,34.611223 C89.2172871,34.611223 93.8203102,31.7610203 96.0439326,28.6022635 C96.3074203,28.2379257 96.5183885,28.0836486 96.6768372,28.2379257 L97.57679,29.0162838 Z" id="Shape" fill="#FFCD05"></path>
                                        <g id="Group" transform="translate(153.997871, 51.425676)" fill="#FFFFFF">
                                            <path d="M1.52751646,11.2317162 C0.748625491,10.3208716 0.597298103,9.70899324 0.597298103,8.53230405 C0.597298103,7.6877027 1.05306059,6.62781081 2.05093119,5.86601351 C2.93041036,5.20358108 3.76004051,5.07109459 4.31817153,5.07109459 C5.24838989,5.07109459 6.17860824,5.53566892 6.68421975,6.03249324 C7.4453075,6.79429054 7.83519806,7.6554527 7.83519806,8.73190541 C7.83519806,10.5361622 6.17860824,12.3752838 4.09741157,12.3752838 C3.28558464,12.3752838 2.23697486,12.0597568 1.52751646,11.2317162 Z M6.4153911,8.5662973 C6.4153911,6.72891892 5.04543315,5.56966216 4.18286704,5.56966216 C3.72532423,5.56966216 3.28558464,5.66902703 2.88056134,6.09873649 C2.22184212,6.76204054 1.98327895,7.44016216 1.98327895,8.69878378 C1.98327895,9.62531757 2.08564747,10.2555 2.62686543,11.0164257 C3.01675599,11.5629324 3.5063446,11.8775878 4.30125847,11.8775878 C5.58576094,11.8775878 6.4153911,10.3374324 6.4153911,8.5662973 Z" id="Shape"></path>
                                            <path d="M10.2368527,6.06561486 L9.06985152,6.06561486 C8.98617637,6.06561486 8.95146009,6.03249324 8.98617637,5.88344595 L9.05382862,5.38662162 C9.06985152,5.28812838 9.11970054,5.27069595 9.25589519,5.27069595 L10.2368527,5.27069595 L10.2368527,4.95604054 C10.2368527,3.31652027 10.7113086,2.24093919 11.3700278,1.51226351 C12.2673102,0.551736486 13.1975286,0.204831081 14.1428797,0.204831081 C14.9377935,0.204831081 15.6819682,0.502925676 15.6819682,1.13136486 C15.6819682,1.52882432 15.2422286,1.84260811 14.9725098,1.84260811 C14.8042694,1.84260811 14.6333584,1.80948649 14.4980539,1.74324324 C14.3467266,1.66131081 14.1606829,1.44514865 14.0930306,1.36234459 C13.874051,1.09737162 13.6354878,0.981445946 13.31592,0.981445946 C12.8761804,0.981445946 12.4186376,1.09737162 12.0465503,1.5602027 C11.420767,2.33943243 11.4554833,3.78022297 11.4554833,4.93860811 L11.4554833,5.26982432 L13.5019637,5.26982432 C13.6203551,5.26982432 13.6354878,5.36918919 13.6203551,5.43456081 L13.5348996,5.98106757 C13.5170964,6.04731081 13.4494442,6.06474324 13.31592,6.06474324 L11.4554833,6.06474324 L11.4554833,7.53778378 C11.4554833,9.49108784 11.4554833,11.0146824 11.4715062,11.1968514 C11.5062225,11.4783851 11.5569616,11.6274324 11.9112458,11.6274324 L12.8761804,11.6274324 C13.0275078,11.6274324 13.0622241,11.6605541 13.0622241,11.7599189 L13.0622241,12.0248919 C13.0622241,12.1565068 13.0275078,12.2236216 12.9438327,12.2236216 C12.8414641,12.2236216 12.2156809,12.1739392 10.9133752,12.1739392 C9.98315681,12.1739392 9.1205907,12.2236216 8.98706653,12.2236216 C8.88469801,12.2236216 8.85176205,12.1913716 8.85176205,12.1076959 L8.85176205,11.7433581 C8.85176205,11.6605541 8.88469801,11.6274324 9.02000249,11.6274324 L9.83182942,11.6274324 C10.1531776,11.6274324 10.22172,11.4278311 10.2368527,11.0478041 L10.2368527,7.93524324 L10.2368527,6.06561486 L10.2368527,6.06561486 Z" id="Shape"></path>
                                            <path d="M21.9914301,5.83463514 C22.1267346,5.83463514 23.9373223,5.76839189 24.1384987,5.73439865 C24.6289775,5.65246622 24.764282,5.51997973 24.9173897,5.00659459 C24.9681289,4.84098649 25.0357811,4.50977027 25.0526942,4.19511486 C25.0526942,4.11143919 25.1034334,4.07918919 25.1710856,4.07918919 L25.5939121,4.09575 C25.6775873,4.09575 25.7123036,4.16112162 25.6945003,4.22736486 C25.6437612,4.50889865 25.6437612,5.86688514 25.6437612,6.1152973 C25.6437612,6.69492568 25.7114134,7.48984459 25.7443494,7.83849324 C25.7443494,7.92042568 25.7114134,7.95441892 25.6437612,7.97010811 L25.2716738,8.02066216 C25.1862184,8.03635135 25.1532824,7.98666892 25.1363693,7.87074324 C25.1034334,7.65632432 25.0010648,7.27455405 24.9503257,7.09238514 C24.8497375,6.74547973 24.6636938,6.49619595 24.2239542,6.44651351 C23.4290403,6.36370946 22.2629293,6.36370946 21.9914301,6.36370946 L21.9914301,7.39047973 C21.9914301,8.28389189 22.0261464,9.89116216 22.0261464,10.2215068 C22.0421693,11.0826689 22.4641057,11.4138851 22.9893007,11.51325 C23.3266718,11.5794932 23.8189309,11.6291757 24.2408673,11.6291757 C24.5274991,11.6291757 25.372262,11.6117432 25.7292166,11.5794932 C26.0158485,11.5463716 26.7600232,11.3642027 27.1997628,10.9998649 C27.4036097,10.8342568 28.3489608,9.64187838 28.5857436,9.26097973 C28.6382631,9.17817568 28.6881121,9.11193243 28.7895905,9.16248649 L29.0610897,9.31066216 C29.1447648,9.36121622 29.1447648,9.41089865 29.0940256,9.54338514 L28.1985235,11.9769527 C28.1477844,12.1268716 28.0285028,12.2253649 27.8264362,12.2253649 C27.7409807,12.2253649 27.3688934,12.2088041 26.35589,12.1931149 C25.3402162,12.1931149 23.6996493,12.1756824 21.0621019,12.1756824 C20.4363187,12.1756824 19.9636431,12.1931149 19.6244918,12.1931149 C19.2702076,12.2096757 19.0503378,12.2253649 18.8981203,12.2253649 C18.7975321,12.2253649 18.7467929,12.1931149 18.7467929,12.1094392 L18.7467929,11.6622973 C18.7467929,11.5960541 18.7975321,11.5794932 18.9150334,11.5794932 L19.5915558,11.5794932 C20.3686664,11.5794932 20.4363187,11.4635676 20.4363187,10.8508176 L20.4363187,6.92677703 L20.4363187,5.30381757 C20.4363187,3.92927027 20.4033827,1.85916892 20.3855795,1.69356081 C20.3179273,1.16448649 20.1487967,1.04856081 19.5230134,1.04856081 L18.9141432,1.04856081 C18.8286877,1.04856081 18.7788387,1.03112838 18.7788387,0.932635135 L18.7788387,0.484621622 C18.7788387,0.434939189 18.8117747,0.401817568 18.8972301,0.401817568 C19.2693175,0.401817568 19.8621648,0.4515 20.9766465,0.4515 L21.7208212,0.4515 C23.3952142,0.4515 25.0696072,0.434939189 26.7440003,0.434939189 C27.0154994,0.434939189 27.3368476,0.401817568 27.4205227,0.401817568 C27.5059782,0.401817568 27.5389142,0.434939189 27.5558272,0.484621622 C27.6234795,0.716472973 28.3676541,2.98530405 28.4183933,3.15091216 C28.4361966,3.21715541 28.4361966,3.26683784 28.3676541,3.29995946 L28.1139582,3.43244595 C28.0632191,3.46556757 27.9955668,3.41588514 27.9786537,3.38189189 C27.9457178,3.31564865 26.6941513,1.74237162 26.289128,1.49395946 C25.9330635,1.26210811 25.4594978,1.06425 25.0028452,1.04768919 L21.9932105,0.981445946 L21.9932105,5.83463514 L21.9914301,5.83463514 Z" id="Shape"></path>
                                            <path d="M35.7746847,2.09189189 C35.7746847,1.46258108 35.6562933,1.26385135 34.7091619,1.11567568 C34.6085737,1.09824324 34.5907704,1.06512162 34.5907704,0.998878378 L34.5907704,0.717344595 C34.5907704,0.651101351 34.6254867,0.618851351 34.7260749,0.601418919 C35.3847942,0.468932432 36.2651635,0.320756757 36.5865116,0.254513514 C36.7396194,0.237081081 36.8580108,0.204831081 36.9764022,0.204831081 C37.0600774,0.204831081 37.0769904,0.320756757 37.0600774,0.502925676 C37.0093382,1.33009459 36.9924251,3.73141216 36.9924251,5.83463514 L36.9924251,9.49283108 C36.9924251,10.1055811 37.0271414,10.8342568 37.1624459,10.9998649 C37.3137733,11.165473 37.6680574,11.2648378 37.9066206,11.2813986 C38.1434034,11.2979595 38.2110557,11.3136486 38.2439916,11.3973243 L38.2787079,11.5298108 C38.2947308,11.6283041 38.2609047,11.6779865 38.1603165,11.7119797 L36.2482504,12.3404189 C36.1476622,12.3744122 36.0622068,12.3238581 36.0292708,12.2088041 L35.8102912,11.4801284 C35.268183,12.0100743 34.1866373,12.3744122 33.3240712,12.3744122 C32.7659402,12.3744122 32.1223537,12.4066622 31.32833,11.6117432 C30.4657639,10.7845743 30.2628071,10.0384662 30.2628071,8.92976351 C30.2628071,7.90299324 30.6526977,6.89278378 31.4467214,6.1152973 C32.1054406,5.41974324 33.0205263,5.07196622 33.9658773,5.07196622 C34.6593129,5.07196622 35.268183,5.1722027 35.7755749,5.32037838 L35.7755749,2.09189189 L35.7746847,2.09189189 Z M35.7746847,7.3407973 C35.7746847,7.10894595 35.7746847,6.79429054 35.6233573,6.52844595 C35.3847942,6.08130405 34.8444664,5.63503378 33.8465958,5.63503378 C33.323181,5.63503378 32.748137,5.78408108 32.3075072,6.23122297 C31.648788,6.92764865 31.5303966,7.8045 31.5303966,8.43381081 C31.5303966,10.3043108 32.847835,11.6622973 33.8305729,11.6622973 C34.775924,11.6622973 35.5031856,11.1820338 35.6732064,10.7514527 C35.7568815,10.5030405 35.7737946,10.3705541 35.7737946,10.1883851 L35.7737946,7.3407973 L35.7746847,7.3407973 Z" id="Shape"></path>
                                            <path d="M45.500585,8.81470946 C45.500585,9.60962838 45.500585,10.4211081 45.5335209,10.7680135 C45.5842601,11.2822703 45.7703038,11.3485135 45.9732605,11.3485135 C46.0738487,11.3485135 46.3275446,11.3485135 46.5313915,11.2979595 C46.666696,11.2648378 46.7174352,11.2979595 46.7352384,11.3642027 L46.7859776,11.5794932 C46.8037808,11.6779865 46.7681744,11.7119797 46.7005221,11.7285405 L44.9255409,12.3081689 C44.8249527,12.3404189 44.721694,12.3744122 44.5863895,12.3744122 C44.5187373,12.3744122 44.4528653,12.3404189 44.4350621,12.1748108 L44.2997576,11.2142838 L44.2668217,11.2142838 C43.7923658,11.8592838 42.8114083,12.3735405 41.9666454,12.3735405 C41.4921895,12.3735405 40.9340585,12.3229865 40.3759275,11.6108716 C39.6842723,10.7340203 39.7172083,10.1875135 39.7172083,8.36582432 L39.7172083,6.44477027 C39.699405,5.98106757 39.4635123,5.86514189 39.0754021,5.81545946 C38.7869899,5.79802703 38.7033148,5.78233784 38.7033148,5.69953378 L38.7033148,5.40405405 C38.7033148,5.30468919 38.7362507,5.27156757 38.8893584,5.27156757 L40.3928405,5.27156757 C40.4952091,5.27156757 40.561081,5.25413514 40.6296234,5.23844595 C40.6972756,5.23844595 40.7649279,5.22188514 40.8156671,5.22188514 C40.9340585,5.22188514 41.019514,5.30468919 41.0017107,5.42061486 C40.9856878,5.56966216 40.9340585,6.34714865 40.9340585,7.32510811 L40.9340585,8.5017973 C40.9340585,9.16422973 40.765818,10.22325 41.3061458,10.9859189 C41.7307527,11.5821081 42.2034282,11.6143581 42.6600809,11.6143581 C43.1158434,11.6143581 43.7914756,11.1846486 44.113714,10.7871892 C44.1813662,10.7035135 44.2819544,10.4890946 44.2819544,10.3391757 L44.2819544,6.39857432 C44.2490185,5.93487162 43.9775193,5.85206757 43.555583,5.81894595 C43.2689511,5.81894595 43.1834956,5.78582432 43.1834956,5.70302027 L43.1834956,5.42148649 C43.1834956,5.28987162 43.2182119,5.27243919 43.3873425,5.27243919 L44.959367,5.27243919 C45.0777584,5.27243919 45.1632139,5.25500676 45.2477792,5.23931757 C45.3314544,5.23931757 45.3991066,5.22275676 45.4498458,5.22275676 C45.5522143,5.22275676 45.6198666,5.30556081 45.6029535,5.38749324 C45.5851503,5.53741216 45.5023653,5.96712162 45.5023653,7.59008108 L45.5023653,8.81470946 L45.500585,8.81470946 Z" id="Shape"></path>
                                            <path d="M48.8662841,8.16883784 C48.8662841,9.06312162 49.2713074,10.0742027 49.7288502,10.6860811 C50.2869812,11.3981959 50.9964396,11.5315541 51.5714837,11.5315541 C52.4162466,11.5315541 52.8559862,11.3493851 53.4319204,10.8194392 C53.4648564,10.7863176 53.5173759,10.7688851 53.5672249,10.8194392 L53.7354654,10.9850473 C53.8031176,11.0504189 53.8209208,11.100973 53.7354654,11.1994662 C53.2449866,11.745973 52.1616605,12.3761554 51.0124625,12.3761554 C50.1169605,12.3761554 49.1698291,12.1765541 48.3909381,11.2168986 C47.7669351,10.4045473 47.6307405,9.70986486 47.6307405,8.96462838 C47.6307405,7.02701351 49.0167213,5.07283784 51.2483552,5.07283784 C53.0082037,5.07283784 53.5485315,6.06735811 53.5485315,6.41426351 C53.5307283,6.79603378 53.2770324,6.99389189 52.9227483,6.99389189 C52.5328577,6.99389189 52.2462258,6.77860135 51.9925299,6.33145946 C51.6204426,5.65333784 51.2661585,5.60278378 50.8611352,5.60278378 C49.8970907,5.60191216 48.8662841,6.46307432 48.8662841,8.16883784 Z" id="Shape"></path>
                                            <path d="M59.8090346,10.2049459 C59.8090346,11.1489122 60.0111012,11.4470068 60.3146461,11.4470068 C60.5861452,11.4470068 60.8220379,11.3145203 60.9074934,11.1985946 C60.9751456,11.1157905 61.0080816,11.0826689 61.0757339,11.1323514 L61.2439743,11.2648378 C61.2947135,11.3145203 61.3294298,11.3973243 61.2279514,11.5629324 C61.0926469,11.8113446 60.7704086,12.3752838 59.9087326,12.3752838 C59.2998624,12.3752838 58.8601229,11.9447027 58.7070151,11.2657095 L58.6740792,11.2657095 C58.3197951,11.6797297 57.7616641,12.0275068 56.9996861,12.2750473 C56.678338,12.3752838 56.3739029,12.3752838 56.0018155,12.3752838 C55.5967922,12.3752838 54.9861417,12.0431959 54.9861417,11.0007365 C54.9861417,10.2389392 55.3422062,9.57650676 56.6774478,8.99687838 C57.4385356,8.66566216 58.3189049,8.2682027 58.5877336,8.03547973 L58.5877336,6.97645946 C58.5547976,6.69492568 58.5369944,6.26434459 58.3509507,6.04905405 C58.164907,5.83463514 57.8257557,5.68471622 57.3352769,5.68471622 C56.9979058,5.68471622 56.4727108,5.8172027 56.2368181,6.03249324 C56.0009254,6.24778378 56.1531429,6.49619595 56.1531429,6.79429054 C56.1531429,7.3730473 55.949296,7.73738514 55.2558605,7.73738514 C54.9843614,7.73738514 54.8508372,7.58920946 54.8508372,7.20831081 C54.8508372,6.67923649 55.3235128,6.04905405 56.0178384,5.65246622 C56.7272968,5.23757432 57.3201441,5.07196622 58.0794516,5.07196622 C58.8761458,5.07196622 59.1957136,5.30468919 59.4333866,5.51997973 C59.7876707,5.86688514 59.805474,6.24865541 59.805474,6.6957973 L59.805474,9.22960135 L59.805474,10.2049459 L59.8090346,10.2049459 Z M58.5726008,8.53317568 C57.9637306,8.98118919 56.3071408,9.31153378 56.3071408,10.6860811 C56.3071408,11.2988311 56.6792281,11.5969257 57.18662,11.5969257 C57.6770987,11.5969257 58.5726008,11.0172973 58.5726008,10.5701554 L58.5726008,8.53317568 Z" id="Shape"></path>
                                            <path d="M64.2055403,10.1055811 C64.2055403,11.3485135 64.7805844,11.5629324 65.0850195,11.5629324 C65.4731297,11.5629324 65.9627183,11.4966892 66.2012815,11.3485135 C66.2849567,11.2979595 66.3526089,11.3145203 66.4033481,11.3807635 L66.4888035,11.5306824 C66.5395427,11.5960541 66.5066068,11.6622973 66.4558676,11.7128514 C66.2858468,11.8775878 65.5915211,12.3752838 64.5785178,12.3752838 C63.7488877,12.3752838 62.9370607,11.5960541 62.9370607,10.9676149 C62.9370607,10.2886216 62.9895802,8.83127027 62.9895802,8.59941892 L62.9895802,8.23508108 C62.9895802,7.93698649 63.0056031,6.82741216 63.0225162,6.13272973 L61.9917096,6.13272973 C61.8386019,6.13272973 61.7380137,6.06648649 61.7380137,5.93312838 C61.7380137,5.79977027 61.8386019,5.75095946 62.0424488,5.63503378 C62.4474721,5.40318243 63.7497778,4.11143919 63.9705378,3.54837162 C64.021277,3.41675676 64.1058423,3.38276351 64.2073206,3.38276351 C64.3426251,3.38276351 64.3755611,3.49868919 64.3755611,3.63117568 L64.2918859,5.27069595 L66.6428014,5.27069595 C66.7433896,5.27069595 66.7941288,5.35437162 66.7611928,5.41974324 L66.5911721,5.99937162 C66.5751492,6.08217568 66.5404329,6.13185811 66.4398447,6.13185811 L64.2580598,6.13185811 C64.2251239,6.89278378 64.2073206,7.6877027 64.2073206,8.4495 L64.2073206,10.1055811 L64.2055403,10.1055811 Z" id="Shape"></path>
                                            <path d="M68.4676317,7.35735811 C68.4676317,6.79429054 68.3670435,6.49706757 67.5222806,6.36370946 C67.4021088,6.34627703 67.3691729,6.31402703 67.3691729,6.24778378 L67.3691729,6.09786486 C67.3691729,6.04818243 67.4021088,6.01593243 67.4875643,5.98193919 C68.0278921,5.78320946 68.6714786,5.51910811 69.3150651,5.17133108 C69.4485892,5.10508784 69.5340447,5.07109459 69.6346329,5.07109459 C69.7200884,5.07109459 69.7370014,5.15477027 69.7200884,5.27069595 C69.6871524,5.55222973 69.6871524,6.59556081 69.6871524,7.97010811 L69.6871524,9.77523649 C69.6871524,10.4202365 69.6871524,11.0164257 69.7031753,11.1985946 C69.7378916,11.51325 69.7886308,11.6291757 69.9746744,11.6291757 L70.7517851,11.6291757 C70.8870896,11.6291757 70.9218059,11.6788581 70.9218059,11.778223 L70.9218059,12.0597568 C70.9218059,12.1756824 70.8870896,12.2244932 70.7686981,12.2244932 C70.6333937,12.2244932 69.856283,12.1748108 69.1450443,12.1748108 C68.1640867,12.1748108 67.5053675,12.2244932 67.3193239,12.2244932 C67.2338684,12.2244932 67.1840194,12.1922432 67.1840194,12.0920068 L67.1840194,11.7616622 C67.1840194,11.6622973 67.2347586,11.6291757 67.3522598,11.6291757 L68.18189,11.6291757 C68.3679336,11.6291757 68.4355859,11.5629324 68.4533891,11.2979595 C68.469412,10.8020068 68.469412,10.28775 68.469412,9.79092568 L68.469412,7.35735811 L68.4676317,7.35735811 Z M67.7074341,2.30718243 C67.7074341,1.89316216 68.0617182,1.44602027 68.7382407,1.44602027 C69.3293076,1.44602027 69.6177198,1.89403378 69.6177198,2.25837162 C69.6177198,2.6889527 69.3132847,3.16921622 68.6367623,3.16921622 C68.2655651,3.16834459 67.7074341,2.83625676 67.7074341,2.30718243 Z" id="Shape"></path>
                                            <path d="M72.7804622,11.2317162 C72.0033516,10.3208716 71.8502439,9.70899324 71.8502439,8.53230405 C71.8502439,7.6877027 72.3077867,6.62781081 73.3056573,5.86601351 C74.1833562,5.20358108 75.0129863,5.07109459 75.5711173,5.07109459 C76.5013357,5.07109459 77.431554,5.53566892 77.9389459,6.03249324 C78.6991434,6.79429054 79.0881438,7.6554527 79.0881438,8.73190541 C79.0881438,10.5361622 77.431554,12.3752838 75.3503574,12.3752838 C74.5403108,12.3752838 73.491701,12.0597568 72.7804622,11.2317162 Z M77.6674467,8.5662973 C77.6674467,6.72891892 76.2974888,5.56966216 75.4349227,5.56966216 C74.9773799,5.56966216 74.5394206,5.66902703 74.132617,6.09873649 C73.4738977,6.76204054 73.2371149,7.44016216 73.2371149,8.69878378 C73.2371149,9.62531757 73.3377031,10.2555 73.8789211,11.0164257 C74.2688116,11.5629324 74.7584002,11.8775878 75.5533141,11.8775878 C76.8387067,11.8775878 77.6674467,10.3374324 77.6674467,8.5662973 Z" id="Shape"></path>
                                            <path d="M87.172587,11.2822703 C87.172587,11.5472432 87.3239144,11.6291757 87.5446744,11.6291757 L88.0850022,11.6291757 C88.2381099,11.6291757 88.2710458,11.6788581 88.2710458,11.778223 L88.2710458,12.0431959 C88.2710458,12.1591216 88.2381099,12.2253649 88.1357413,12.2253649 C88.0173499,12.2253649 87.4939352,12.1756824 86.5290005,12.1756824 C85.6664344,12.1756824 85.1261066,12.2253649 85.0077152,12.2253649 C84.907127,12.2253649 84.8724107,12.1756824 84.8724107,12.0431959 L84.8724107,11.778223 C84.8724107,11.6622973 84.9231499,11.6291757 85.0931707,11.6291757 L85.5836494,11.6291757 C85.7696931,11.6291757 85.9032173,11.5463716 85.9210205,11.2474054 C85.9388237,10.8176959 85.9557368,10.2868784 85.9557368,9.8562973 L85.9557368,7.67114189 C85.9557368,7.00783784 85.9557368,6.52757432 85.4634777,6.18066892 C85.0584544,5.88257432 84.6534311,5.88257432 84.2288242,5.88257432 C83.9591054,5.88257432 83.3662581,5.9985 82.8606466,6.52757432 C82.5214952,6.89191216 82.4707561,7.33992568 82.4707561,7.65458108 L82.4707561,11.0817973 C82.4707561,11.5298108 82.5214952,11.6283041 82.8757794,11.6283041 L83.2986059,11.6283041 C83.4339104,11.6283041 83.4686267,11.6779865 83.4686267,11.7930405 L83.4686267,12.0754459 C83.4686267,12.1739392 83.4339104,12.2236216 83.3502352,12.2236216 C83.2318438,12.2236216 82.7751912,12.1739392 81.8779088,12.1739392 C81.0153426,12.1739392 80.4750149,12.2236216 80.3744266,12.2236216 C80.2889712,12.2236216 80.2560352,12.1739392 80.2560352,12.0754459 L80.2560352,11.7764797 C80.2560352,11.6771149 80.2889712,11.6274324 80.4242757,11.6274324 L80.9147544,11.6274324 C81.1337341,11.6274324 81.2539058,11.57775 81.2539058,11.2962162 L81.2539058,7.42185811 C81.2539058,6.92590541 80.9824067,6.64262838 80.5604703,6.44477027 L80.4251658,6.37939865 C80.3067744,6.32884459 80.2898613,6.27916216 80.2898613,6.22947973 L80.2898613,6.14667568 C80.2898613,6.06387162 80.3575136,6.01506081 80.4429691,5.98106757 L81.8966021,5.18702027 C82.0319066,5.12077703 82.133385,5.07022297 82.2010372,5.07022297 C82.2864927,5.07022297 82.3194287,5.13646622 82.3363417,5.26982432 L82.4547332,6.27916216 L82.4894494,6.27916216 C82.9799282,5.68297297 83.9599956,5.07022297 84.8056486,5.07022297 C85.3130405,5.07022297 85.8364552,5.17045946 86.2432588,5.43456081 C86.7506507,5.76664865 87.1734772,6.59381757 87.1734772,7.00783784 L87.1734772,11.2822703 L87.172587,11.2822703 Z" id="Shape"></path>
                                        </g>
                                        <path d="M106.268323,62.9886081 C106.065366,62.8395608 105.963888,62.7898784 105.879323,62.7898784 C105.777844,62.7898784 105.710192,62.9058041 105.608714,63.0714122 C105.507235,63.2535811 105.42267,63.2701419 105.304279,63.2701419 C105.20191,63.2701419 105.118235,63.1873378 105.151171,63.0051689 C105.218823,62.5911486 105.387954,60.4879257 105.438693,60.0076622 C105.455606,59.9091689 105.490322,59.9091689 105.557084,59.9091689 L105.81078,59.9266014 C105.878433,59.9266014 105.912259,59.9588514 105.912259,60.0582162 C105.929172,60.5881622 105.962998,61.1346689 106.521129,61.9792703 C107.028521,62.7576284 107.958739,63.2038986 108.888957,63.2038986 C109.902851,63.2038986 111.188244,62.5920203 111.188244,61.1006757 C111.188244,59.3957838 109.937567,58.766473 108.584522,58.3027703 C108.059327,58.1206014 106.842477,57.7057095 106.115215,56.9622162 C105.557084,56.4157095 105.269562,55.6364797 105.269562,54.5443378 C105.269562,53.7162973 105.794757,52.9056892 106.318172,52.4245541 C106.927932,51.8614865 107.773586,51.6305068 108.686001,51.6305068 C109.650045,51.6305068 110.39422,51.9111689 110.681742,52.044527 C110.833069,52.1273311 110.918525,52.1107703 111.0022,52.0270946 L111.22207,51.8283649 C111.307525,51.7621216 111.357374,51.729 111.441939,51.729 C111.526505,51.729 111.576354,51.8614865 111.576354,52.0105338 C111.576354,52.5901622 111.797114,54.2793649 111.814027,54.6437027 C111.814027,54.7265068 111.797114,54.7596284 111.729461,54.7761892 L111.525615,54.8258716 C111.474875,54.8433041 111.441049,54.8258716 111.425026,54.7761892 C111.289722,54.2959257 111.069852,53.6491824 110.376417,52.9379392 C109.918874,52.4576757 109.327807,52.2266959 108.532893,52.2266959 C107.028521,52.2266959 106.486413,53.3197095 106.486413,54.1643108 C106.486413,54.6271419 106.587891,55.1736486 107.010717,55.6042297 C107.501196,56.0844932 108.448328,56.4488311 108.938806,56.59875 C110.105808,56.9630878 111.052939,57.24375 111.661809,57.9724257 C112.101549,58.4858108 112.405984,59.1316824 112.405984,60.2246959 C112.405984,62.178 111.188244,63.8506419 108.95661,63.8506419 C107.774476,63.8497703 106.944846,63.5028649 106.268323,62.9886081 Z" id="Shape" fill="#FFFFFF"></path>
                                        <path d="M114.918019,59.5945135 C114.918019,60.4887973 115.323932,61.4998784 115.780585,62.1117568 C116.338716,62.8238716 117.049954,62.9572297 117.624108,62.9572297 C118.469761,62.9572297 118.909501,62.7750608 119.483655,62.2451149 C119.518371,62.2119932 119.56911,62.1945608 119.618959,62.2451149 L119.78809,62.410723 C119.854852,62.4760946 119.872655,62.5266486 119.78809,62.6251419 C119.296721,63.1716486 118.215175,63.8018311 117.065087,63.8018311 C116.168695,63.8018311 115.221563,63.6022297 114.444453,62.6425743 C113.81867,61.830223 113.683365,61.1355405 113.683365,60.3903041 C113.683365,58.4526892 115.071126,56.4985135 117.30187,56.4985135 C119.060828,56.4985135 119.602046,57.4930338 119.602046,57.8399392 C119.585133,58.2217095 119.331437,58.4195676 118.976263,58.4195676 C118.587263,58.4195676 118.299741,58.204277 118.046045,57.7571351 C117.673957,57.0790135 117.318783,57.0284595 116.91376,57.0284595 C115.949715,57.0275878 114.918019,57.88875 114.918019,59.5945135 Z" id="Shape" fill="#FFFFFF"></path>
                                        <path d="M121.750005,54.5774595 C121.750005,53.5681216 121.547048,53.3859527 120.938178,53.1863514 L120.651546,53.0878581 C120.550068,53.0538649 120.533155,53.0373041 120.533155,52.9876216 L120.533155,52.8394459 C120.533155,52.7732027 120.583894,52.7557703 120.736112,52.6738378 L122.49507,51.7629932 C122.630374,51.69675 122.748766,51.6313784 122.88496,51.6313784 C122.985549,51.6313784 123.053201,51.7629932 123.020265,52.0453986 C122.985549,52.3260608 122.967745,55.688777 122.967745,56.5159459 L122.967745,57.5758378 L123.053201,57.5758378 C123.644268,56.8802838 124.627006,56.4993851 125.37118,56.4993851 C126.080639,56.4993851 126.571118,56.7155473 127.043793,57.1618176 C127.804881,57.8582432 127.771945,58.7028446 127.771945,59.5962568 L127.771945,60.540223 C127.771945,61.4667568 127.804881,62.493527 127.804881,62.8090541 C127.804881,63.0086554 128.07638,63.0574662 128.430664,63.0574662 L128.717296,63.0574662 C128.852601,63.0574662 128.90334,63.0905878 128.90334,63.2065135 L128.90334,63.4549257 C128.90334,63.5865405 128.870404,63.6536554 128.769816,63.6536554 C128.651424,63.6536554 128.109316,63.603973 127.146162,63.603973 C126.316532,63.603973 125.708551,63.6536554 125.557224,63.6536554 C125.437052,63.6536554 125.404116,63.603973 125.404116,63.4714865 L125.404116,63.1908243 C125.404116,63.1071486 125.42192,63.0583378 125.522508,63.0583378 L125.912398,63.0583378 C126.19903,63.0583378 126.538182,63.0252162 126.554205,62.7436824 C126.572008,62.5118311 126.554205,61.6349797 126.554205,61.1041622 L126.554205,59.7636081 C126.554205,58.8370743 126.488333,58.1746419 125.996074,57.7266284 C125.658702,57.411973 125.304418,57.2637973 124.879812,57.2637973 C124.389333,57.2637973 123.781353,57.4285338 123.307787,57.9584797 C123.154679,58.1406486 122.968636,58.4727365 122.968636,58.7708311 L122.968636,62.3802162 C122.968636,62.9101622 123.021155,63.0592095 123.340723,63.0592095 L123.848115,63.0592095 C123.966506,63.0592095 124.034158,63.0923311 124.034158,63.1916959 L124.034158,63.4723581 C124.034158,63.5882838 124.001222,63.654527 123.898854,63.654527 C123.76533,63.654527 123.071004,63.6048446 122.292113,63.6048446 C121.44646,63.6048446 120.804654,63.654527 120.652436,63.654527 C120.584784,63.654527 120.534045,63.6048446 120.534045,63.4897905 L120.534045,63.1916959 C120.534045,63.0757703 120.601697,63.0592095 120.787741,63.0592095 L121.142025,63.0592095 C121.413524,63.0592095 121.66633,62.9929662 121.700156,62.7942365 C121.750895,62.4795811 121.750895,60.6587635 121.750895,59.5814392 L121.750895,54.5774595 L121.750005,54.5774595 Z" id="Shape" fill="#FFFFFF"></path>
                                        <path d="M130.732621,62.6573919 C129.95373,61.7465473 129.802402,61.1346689 129.802402,59.9579797 C129.802402,59.1133784 130.258165,58.0534865 131.256036,57.2916892 C132.135515,56.6292568 132.963365,56.4967703 133.521496,56.4967703 C134.451714,56.4967703 135.381932,56.9613446 135.889324,57.4581689 C136.650412,58.2199662 137.040302,59.0811284 137.040302,60.1575811 C137.040302,61.9618378 135.381932,63.8009595 133.302516,63.8009595 C132.489799,63.8009595 131.442079,63.4854324 130.732621,62.6573919 Z M135.617825,59.991973 C135.617825,58.1545946 134.249647,56.9953378 133.387081,56.9953378 C132.929538,56.9953378 132.489799,57.0947027 132.084775,57.5244122 C131.424276,58.1877162 131.187493,58.8658378 131.187493,60.1244595 C131.187493,61.0509932 131.288081,61.6811757 131.83108,62.4421014 C132.21919,62.9886081 132.710559,63.3032635 133.505473,63.3032635 C134.789975,63.3032635 135.617825,61.7631081 135.617825,59.991973 Z" id="Shape" fill="#FFFFFF"></path>
                                        <path d="M139.154435,62.6573919 C138.375544,61.7465473 138.224217,61.1346689 138.224217,59.9579797 C138.224217,59.1133784 138.679979,58.0534865 139.67785,57.2916892 C140.557329,56.6292568 141.386959,56.4967703 141.94509,56.4967703 C142.875308,56.4967703 143.805527,56.9613446 144.311138,57.4581689 C145.072226,58.2199662 145.462117,59.0811284 145.462117,60.1575811 C145.462117,61.9618378 143.805527,63.8009595 141.72433,63.8009595 C140.911613,63.8009595 139.863893,63.4854324 139.154435,62.6573919 Z M144.041419,59.991973 C144.041419,58.1545946 142.671462,56.9953378 141.808895,56.9953378 C141.351353,56.9953378 140.911613,57.0947027 140.50659,57.5244122 C139.847871,58.1877162 139.609307,58.8658378 139.609307,60.1244595 C139.609307,61.0509932 139.711676,61.6811757 140.252894,62.4421014 C140.642784,62.9886081 141.132373,63.3032635 141.927287,63.3032635 C143.211789,63.3032635 144.041419,61.7631081 144.041419,59.991973 Z" id="Shape" fill="#FFFFFF"></path>
                                        <path d="M148.895468,58.6671081 C148.895468,59.5273986 148.895468,62.0280811 148.913271,62.5414662 C148.929294,62.823 148.996946,63.0548514 149.353011,63.0548514 L150.113208,63.0548514 C150.266316,63.0548514 150.299252,63.1045338 150.299252,63.2038986 L150.299252,63.4854324 C150.299252,63.5839257 150.266316,63.6501689 150.198664,63.6501689 C150.080272,63.6501689 149.336098,63.6004865 148.288378,63.6004865 C147.205052,63.6004865 146.52853,63.6501689 146.378092,63.6501689 C146.292637,63.6501689 146.259701,63.5839257 146.259701,63.4854324 L146.259701,63.2038986 C146.259701,63.087973 146.292637,63.0548514 146.478681,63.0548514 L147.290508,63.0548514 C147.476551,63.0548514 147.644792,62.9389257 147.662595,62.6408311 C147.680398,62.1265743 147.680398,59.2789865 147.680398,58.3184595 L147.680398,57.276 C147.680398,56.1001824 147.662595,54.5940203 147.627879,54.1634392 C147.594943,53.6003716 147.323443,53.3353986 146.783116,53.1689189 L146.445745,53.0529932 C146.360289,53.0207432 146.343376,53.0033108 146.343376,52.9701892 L146.343376,52.8385743 C146.343376,52.7880203 146.394115,52.7548986 146.496484,52.7226486 C147.087551,52.4568041 147.849529,52.1595811 148.475312,51.76125 C148.626639,51.6618851 148.729008,51.6296351 148.829596,51.6296351 C148.947988,51.6296351 148.982704,51.7115676 148.964901,51.9277297 C148.947097,52.8385743 148.897248,56.2823514 148.897248,57.1931959 L148.897248,58.6671081 L148.895468,58.6671081 Z" id="Shape" fill="#FFFFFF"></path>
                                    </g>
                                </g>
                            </g>
                        </g>
                    </g>
                </g>
            </g>
        </g>
    </g>
</svg>