<?xml version="1.0" encoding="UTF-8"?>
<svg width="21px" height="22px" viewBox="0 0 21 22" version="1.1" xmlns="http://www.w3.org/2000/svg" xmlns:xlink="http://www.w3.org/1999/xlink">
    <!-- Generator: Sketch 42 (36781) - http://www.bohemiancoding.com/sketch -->
    <title>feat3/icon</title>
    <desc>Created with Sketch.</desc>
    <defs></defs>
    <g id="Home-Page" stroke="none" stroke-width="1" fill="none" fill-rule="evenodd">
        <g id="RISE-Home-Page-Concept-3" transform="translate(-1113.000000, -1100.000000)" fill-rule="nonzero" fill="#7A6001">
            <g id="Content-Block-1" transform="translate(145.000000, 1035.000000)">
                <g id="quadrant" transform="translate(568.000000, 0.000000)">
                    <g id="feat3" transform="translate(284.193880, 0.973926)">
                        <g id="feat3/icon" transform="translate(125.822581, 75.026074) rotate(-180.000000) translate(-125.822581, -75.026074) translate(115.322581, 64.526074)">
                            <g id="8---Spotlight-(Solid)" transform="translate(0.000000, -0.000000)">
                                <g id="Group" transform="translate(0.000000, 0.000000)">
                                    <g id="Shape">
                                        <path d="M18.1531452,16.7414032 C16.6875484,14.387371 15.2216129,12.0336774 13.7560161,9.67964516 L10.5467419,12.495 C12.9536129,14.6065161 15.3608226,16.7176935 17.7676935,18.8292097 C18.3116613,19.3061129 18.8552903,19.7833548 19.3992581,20.2605968 C19.5120484,20.3595 19.6248387,20.4587419 19.7379677,20.5573065 C20.0356935,20.8184516 20.4838065,20.4844839 20.262629,20.1295161 C19.5594677,18.9999194 18.8563065,17.8706613 18.1531452,16.7414032"></path>
                                        <path d="M0.673016129,3.83385484 C0.890129032,4.05198387 1.13603226,4.23996774 1.36737097,4.44319355 C2.10169355,5.08741935 2.83601613,5.73130645 3.57033871,6.37519355 C4.53058065,7.21790323 5.49116129,8.06027419 6.45174194,8.90298387 L9.86220968,3.42537097 C9.65085484,3.08632258 9.43983871,2.74727419 9.22882258,2.40822581 C9.02356452,2.079 8.89383871,1.73487097 8.59577419,1.46593548 C7.94240323,0.876580645 7.01908065,0.610354839 6.1706129,0.467080645 C5.05896774,0.279096774 3.89109677,0.287225806 2.78385484,0.501290323 C1.96891935,0.658790323 1.07709677,0.937887097 0.470806452,1.53469355 C0.254709677,1.74706452 0.0806129032,2.01091935 0.022016129,2.31237097 C-0.0135483871,2.49527419 -0.00541935484,2.68596774 0.0464032258,2.86514516 C0.106016129,3.07277419 0.328209677,3.48769355 0.673016129,3.83385484 L0.673016129,3.83385484 Z M3.60116129,1.06591935 C3.9236129,1.03204839 4.24809677,1.01612903 4.57258065,1.01612903 C5.46575806,1.01612903 6.38433871,1.12587097 7.22366129,1.44459677 C7.66059677,1.61090323 8.28551613,1.88830645 8.44166129,2.37909677 C8.5818871,2.81874194 8.12293548,3.17404839 7.79506452,3.36677419 C7.12103226,3.76272581 6.31320968,3.93343548 5.544,4.01472581 C4.01912903,4.17527419 2.01532258,4.07637097 0.845419355,2.95456452 C-0.130064516,1.73453226 2.99995161,1.12959677 3.60116129,1.06591935 L3.60116129,1.06591935 Z"></path>
                                        <path d="M20.3225806,2.54032258 C20.3225806,1.07370968 18.1372258,0.523306452 17.0350645,0.42 C15.374371,0.264532258 13.3895323,0.301790323 12.0123387,1.2423871 C11.5605,1.55095161 11.3698065,1.96519355 11.0971452,2.40314516 C10.8525968,2.79570968 10.6083871,3.18793548 10.3638387,3.58083871 C8.25367742,6.96962903 6.14385484,10.3584194 4.03369355,13.7472097 C3.05787097,15.3147581 2.08170968,16.8823065 1.1058871,18.4495161 C0.827467742,18.8969516 0.548709677,19.3443871 0.269951613,19.7918226 C0.206951613,19.8934355 0.143612903,19.9950484 0.0802741935,20.0966613 C-0.118548387,20.4160645 0.229645161,20.8679032 0.562258065,20.5772903 C1.1268871,20.1925161 1.62919355,19.6414355 2.14166129,19.191629 C3.44129032,18.0515323 4.74125806,16.9114355 6.04122581,15.7713387 C9.28437097,12.9261774 12.5275161,10.0813548 15.771,7.23619355 C16.8071129,6.32709677 17.8435645,5.418 18.8796774,4.50924194 L19.5449032,3.92564516 C19.7864032,3.71395161 19.9787903,3.45517742 20.1400161,3.17709677 C20.1410323,3.17574194 20.1417097,3.1743871 20.1427258,3.17269355 C20.2551774,2.98098387 20.3225806,2.76387097 20.3225806,2.54032258 L20.3225806,2.54032258 Z M15.75,1.01612903 C16.6374194,1.01612903 17.5492258,1.12451613 18.3838065,1.43883871 C18.8237903,1.60446774 19.4412581,1.87746774 19.6102742,2.36351613 C19.8504194,3.05414516 18.7377581,3.51648387 18.2605161,3.68380645 C17.5014677,3.95070968 16.6848387,4.05096774 15.8834516,4.0635 C14.9750323,4.07772581 14.0395161,3.97509677 13.1808871,3.66619355 C12.7239677,3.50191935 12.0899032,3.23332258 11.8951452,2.74219355 C11.7254516,2.31304839 12.1427419,1.95232258 12.4672258,1.7501129 C13.1178871,1.34535484 13.9125,1.16854839 14.6644355,1.07879032 C15.0244839,1.03577419 15.3872419,1.01612903 15.75,1.01612903 L15.75,1.01612903 Z"></path>
                                    </g>
                                </g>
                            </g>
                        </g>
                    </g>
                </g>
            </g>
        </g>
    </g>
</svg>