<?xml version="1.0" encoding="UTF-8"?>
<svg width="690px" height="603px" viewBox="0 0 690 603" version="1.1" xmlns="http://www.w3.org/2000/svg" xmlns:xlink="http://www.w3.org/1999/xlink">
    <!-- Generator: Sketch 42 (36781) - http://www.bohemiancoding.com/sketch -->
    <title>expert-directory-prototype</title>
    <desc>Created with Sketch.</desc>
    <defs>
        <rect id="path-1" x="1.13686838e-13" y="0" width="691" height="603"></rect>
        <linearGradient x1="44.1835026%" y1="94.652798%" x2="69.4581488%" y2="0%" id="linearGradient-3">
            <stop stop-color="#790861" offset="0%"></stop>
            <stop stop-color="#9E1B11" offset="18.1566367%"></stop>
            <stop stop-color="#9E1B11" offset="38.8843688%"></stop>
            <stop stop-color="#BC4422" offset="59.6551199%"></stop>
            <stop stop-color="#F3790D" offset="80.8404849%"></stop>
            <stop stop-color="#FFEA00" offset="100%"></stop>
        </linearGradient>
        <rect id="path-4" x="-1.13686838e-13" y="0" width="1038.2" height="602" rx="4"></rect>
        <filter x="-50%" y="-50%" width="200%" height="200%" filterUnits="objectBoundingBox" id="filter-5">
            <feOffset dx="-5" dy="-2" in="SourceAlpha" result="shadowOffsetOuter1"></feOffset>
            <feGaussianBlur stdDeviation="7.5" in="shadowOffsetOuter1" result="shadowBlurOuter1"></feGaussianBlur>
            <feColorMatrix values="0 0 0 0 0   0 0 0 0 0   0 0 0 0 0  0 0 0 0.2 0" type="matrix" in="shadowBlurOuter1"></feColorMatrix>
        </filter>
        <path d="M183,23.9205862 L183,3.99261888 C183,1.79099276 181.21254,0 179.007596,0 L3.99240442,0 C1.78175751,0 0,1.78755636 0,3.99261888 L0,183.023563 C0,185.225189 1.78746034,187.016182 3.99240442,187.016182 L179.007596,187.016182 C181.218242,187.016182 183,185.228625 183,183.023563 L183,37.2361659 C183.054467,37.2041921 183.105814,37.1647978 183.152596,37.1180156 L189.160705,31.1099065 C189.456917,30.8136942 189.454233,30.3404757 189.160705,30.0469478 L183.152596,24.0388387 C183.105696,23.9919388 183.054359,23.9525319 183,23.9205862 Z" id="path-6"></path>
        <filter x="-50%" y="-50%" width="200%" height="200%" filterUnits="objectBoundingBox" id="filter-7">
            <feOffset dx="5" dy="2" in="SourceAlpha" result="shadowOffsetOuter1"></feOffset>
            <feGaussianBlur stdDeviation="7.5" in="shadowOffsetOuter1" result="shadowBlurOuter1"></feGaussianBlur>
            <feColorMatrix values="0 0 0 0 0   0 0 0 0 0   0 0 0 0 0  0 0 0 0.2 0" type="matrix" in="shadowBlurOuter1"></feColorMatrix>
        </filter>
    </defs>
    <g id="Home-Page" stroke="none" stroke-width="1" fill="none" fill-rule="evenodd">
        <g id="RISE-Home-Page-Concept-3" transform="translate(0.000000, -2296.000000)">
            <g id="Expert-Directory" transform="translate(-1.000000, 2296.000000)">
                <g id="expert-directory-prototype">
                    <g id="Group-11">
                        <mask id="mask-2" fill="white">
                            <use xlink:href="#path-1"></use>
                        </mask>
                        <g id="Mask"></g>
                        <g id="prototype-window-outline-gradient2" mask="url(#mask-2)">
                            <g transform="translate(-348.000000, 1.000000)">
                                <g id="prototype-window-copy" stroke="none" fill-rule="evenodd">
                                    <g id="window">
                                        <g id="Rectangle-7" opacity="0.25">
                                            <use fill="black" fill-opacity="1" filter="url(#filter-5)" xlink:href="#path-4"></use>
                                            <use fill="url(#linearGradient-3)" fill-rule="evenodd" xlink:href="#path-4"></use>
                                        </g>
                                        <rect id="Rectangle-7-Copy" fill="#FFFFFF" x="4" y="4" width="1030.19995" height="594"></rect>
                                    </g>
                                    <g id="Circles" transform="translate(22.000000, 18.000000)" fill="#C7C8CA">
                                        <ellipse id="Oval" cx="6" cy="6" rx="6" ry="6"></ellipse>
                                        <ellipse id="Oval-Copy" cx="26" cy="6" rx="6" ry="6"></ellipse>
                                        <ellipse id="Oval-Copy-2" cx="46" cy="6" rx="6" ry="6"></ellipse>
                                    </g>
                                    <g id="Lines" transform="translate(983.000000, 14.000000)" fill="#C7C8CA">
                                        <rect id="line-one" x="0" y="0" width="26" height="3"></rect>
                                        <rect id="line-two" x="0" y="8" width="26" height="3"></rect>
                                        <rect id="line-three" x="0" y="16" width="26" height="3"></rect>
                                    </g>
                                </g>
                                <path d="M3.99,47 L1035.43996,46.8834205" id="Path-3" stroke="#C7C8CA"></path>
                            </g>
                        </g>
                        <g id="Group-2" opacity="0.2" mask="url(#mask-2)">
                            <g transform="translate(-18.000000, 103.000000)" opacity="0.249999985">
                                <g id="Group">
                                    <g id="Group-7">
                                        <g id="Group-6" transform="translate(0.000000, 86.666667)">
                                            <path d="M57.7514,6.66666667 L23.5886,6.66666667 C21.7550138,6.66666667 20.2686,5.17433333 20.2686,3.33333333 C20.2686,1.49233333 21.7550138,0 23.5886,0 L57.7514,0 C59.5849862,0 61.0714,1.49233333 61.0714,3.33333333 C61.0714,5.17433333 59.5849862,6.66666667 57.7514,6.66666667 Z" id="Fill-3" fill="#000000"></path>
                                            <path d="M63.91,33.3333333 L16.9486,33.3333333 C15.1150138,33.3333333 13.6286,31.841 13.6286,30 C13.6286,28.159 15.1150138,26.6666667 16.9486,26.6666667 L63.91,26.6666667 C65.7435862,26.6666667 67.23,28.159 67.23,30 C67.23,31.841 65.7435862,33.3333333 63.91,33.3333333 Z" id="Fill-4" fill="#000000"></path>
                                            <path d="M78.85,20 L4.15,20 C2.3164138,20 0.83,18.5076667 0.83,16.6666667 C0.83,14.8256667 2.3164138,13.3333333 4.15,13.3333333 L78.85,13.3333333 C80.6835862,13.3333333 82.17,14.8256667 82.17,16.6666667 C82.17,18.5076667 80.6835862,20 78.85,20 Z" id="Fill-5" fill="#393939"></path>
                                        </g>
                                        <g id="Group-5" transform="translate(8.300000, 0.000000)">
                                            <path d="M66.4,33.3333333 C66.4,51.7428333 51.5358454,66.6666667 33.2,66.6666667 C14.8641546,66.6666667 0,51.7428333 0,33.3333333 C0,14.9238333 14.8641546,0 33.2,0 C51.5358454,0 66.4,14.9238333 66.4,33.3333333 Z" id="Fill-6" fill="#565656"></path>
                                            <path d="M33.2,5 C48.7854744,5 61.4200166,17.6853333 61.4200166,33.3333333 C61.4200166,48.9813333 48.7854744,61.6666667 33.2,61.6666667 C17.6145256,61.6666667 4.98,48.9813333 4.98,33.3333333 C4.98,17.6853333 17.6145256,5 33.2,5 L33.2,5 Z M33.2,0 C14.864138,0 0,14.9238333 0,33.3333333 C0,51.7428333 14.864138,66.6666667 33.2,66.6666667 C51.535862,66.6666667 66.4,51.7428333 66.4,33.3333333 C66.4,14.9238333 51.5358454,0 33.2,0 L33.2,0 Z" id="Fill-7" fill="#000000"></path>
                                            <path d="M48.306,59.0166667 C48.306,50.6833333 41.5332,46.05 33.2,46.05 C24.8668,46.05 18.094,50.6666667 18.094,59.0166667 C22.6804804,61.725 27.8804968,63.211 33.2,63.3333333 C38.5149216,63.1806667 43.7075842,61.6968333 48.306,59.0166667 Z" id="Fill-8" fill="#D8D8D8"></path>
                                            <path d="M33.2,65.8333333 C27.4029646,65.7126667 21.735708,64.0876667 16.7494,61.1166667 L15.604,60.3833333 L15.604,59.0166667 C15.604,49.9 22.8416,43.55 33.2,43.55 C43.5584,43.55 50.796,49.9166667 50.796,59.0166667 L50.796,60.4 L49.6174,61.1333333 C44.627274,64.065 38.9796718,65.6818333 33.2,65.8333333 Z M20.667,57.5833333 C24.5430502,59.6123333 28.8300998,60.724 33.2,60.8333333 C37.574266,60.6831667 41.8583774,59.5438333 45.733,57.5 C44.9362,50.8333333 38.6448,48.4666667 33.2,48.4666667 C27.7552,48.4666667 21.4472,50.9333333 20.667,57.5833333 Z" id="Fill-9" fill="#000000"></path>
                                            <path d="M43.99,34.15 C43.99,40.1238333 39.159151,44.9666667 33.2,44.9666667 C27.240849,44.9666667 22.41,40.1238333 22.41,34.15 C22.41,28.1761667 27.240849,23.3333333 33.2,23.3333333 C39.159151,23.3333333 43.99,28.1761667 43.99,34.15 Z" id="Fill-10" fill="#D8D8D8"></path>
                                            <path d="M33.2,47.45 C25.8656552,47.45 19.92,41.4805 19.92,34.1166667 C19.92,26.7528333 25.8656552,20.7833333 33.2,20.7833333 C40.5343448,20.7833333 46.48,26.7528333 46.48,34.1166667 C46.48,41.4805 40.5343448,47.45 33.2,47.45 Z M33.2,25.7833333 C28.6160262,25.7833333 24.9,29.5143333 24.9,34.1166667 C24.9,38.719 28.6160262,42.45 33.2,42.45 C37.7839738,42.45 41.5,38.719 41.5,34.1166667 C41.47261,29.5338333 37.764585,25.8333333 33.2,25.8333333 L33.2,25.7833333 Z" id="Fill-11" fill="#000000"></path>
                                        </g>
                                    </g>
                                    <g id="Group-7-Copy" transform="translate(143.000000, 0.000000)">
                                        <g id="Group-6" transform="translate(0.000000, 86.666667)">
                                            <path d="M57.7514,6.66666667 L23.5886,6.66666667 C21.7550138,6.66666667 20.2686,5.17433333 20.2686,3.33333333 C20.2686,1.49233333 21.7550138,0 23.5886,0 L57.7514,0 C59.5849862,0 61.0714,1.49233333 61.0714,3.33333333 C61.0714,5.17433333 59.5849862,6.66666667 57.7514,6.66666667 Z" id="Fill-3" fill="#000000"></path>
                                            <path d="M63.91,33.3333333 L16.9486,33.3333333 C15.1150138,33.3333333 13.6286,31.841 13.6286,30 C13.6286,28.159 15.1150138,26.6666667 16.9486,26.6666667 L63.91,26.6666667 C65.7435862,26.6666667 67.23,28.159 67.23,30 C67.23,31.841 65.7435862,33.3333333 63.91,33.3333333 Z" id="Fill-4" fill="#000000"></path>
                                            <path d="M78.85,20 L4.15,20 C2.3164138,20 0.83,18.5076667 0.83,16.6666667 C0.83,14.8256667 2.3164138,13.3333333 4.15,13.3333333 L78.85,13.3333333 C80.6835862,13.3333333 82.17,14.8256667 82.17,16.6666667 C82.17,18.5076667 80.6835862,20 78.85,20 Z" id="Fill-5" fill="#393939"></path>
                                        </g>
                                        <g id="Group-5" transform="translate(8.300000, 0.000000)">
                                            <path d="M66.4,33.3333333 C66.4,51.7428333 51.5358454,66.6666667 33.2,66.6666667 C14.8641546,66.6666667 0,51.7428333 0,33.3333333 C0,14.9238333 14.8641546,0 33.2,0 C51.5358454,0 66.4,14.9238333 66.4,33.3333333 Z" id="Fill-6" fill="#565656"></path>
                                            <path d="M33.2,5 C48.7854744,5 61.4200166,17.6853333 61.4200166,33.3333333 C61.4200166,48.9813333 48.7854744,61.6666667 33.2,61.6666667 C17.6145256,61.6666667 4.98,48.9813333 4.98,33.3333333 C4.98,17.6853333 17.6145256,5 33.2,5 L33.2,5 Z M33.2,0 C14.864138,0 0,14.9238333 0,33.3333333 C0,51.7428333 14.864138,66.6666667 33.2,66.6666667 C51.535862,66.6666667 66.4,51.7428333 66.4,33.3333333 C66.4,14.9238333 51.5358454,0 33.2,0 L33.2,0 Z" id="Fill-7" fill="#000000"></path>
                                            <path d="M48.306,59.0166667 C48.306,50.6833333 41.5332,46.05 33.2,46.05 C24.8668,46.05 18.094,50.6666667 18.094,59.0166667 C22.6804804,61.725 27.8804968,63.211 33.2,63.3333333 C38.5149216,63.1806667 43.7075842,61.6968333 48.306,59.0166667 Z" id="Fill-8" fill="#D8D8D8"></path>
                                            <path d="M33.2,65.8333333 C27.4029646,65.7126667 21.735708,64.0876667 16.7494,61.1166667 L15.604,60.3833333 L15.604,59.0166667 C15.604,49.9 22.8416,43.55 33.2,43.55 C43.5584,43.55 50.796,49.9166667 50.796,59.0166667 L50.796,60.4 L49.6174,61.1333333 C44.627274,64.065 38.9796718,65.6818333 33.2,65.8333333 Z M20.667,57.5833333 C24.5430502,59.6123333 28.8300998,60.724 33.2,60.8333333 C37.574266,60.6831667 41.8583774,59.5438333 45.733,57.5 C44.9362,50.8333333 38.6448,48.4666667 33.2,48.4666667 C27.7552,48.4666667 21.4472,50.9333333 20.667,57.5833333 Z" id="Fill-9" fill="#000000"></path>
                                            <path d="M43.99,34.15 C43.99,40.1238333 39.159151,44.9666667 33.2,44.9666667 C27.240849,44.9666667 22.41,40.1238333 22.41,34.15 C22.41,28.1761667 27.240849,23.3333333 33.2,23.3333333 C39.159151,23.3333333 43.99,28.1761667 43.99,34.15 Z" id="Fill-10" fill="#D8D8D8"></path>
                                            <path d="M33.2,47.45 C25.8656552,47.45 19.92,41.4805 19.92,34.1166667 C19.92,26.7528333 25.8656552,20.7833333 33.2,20.7833333 C40.5343448,20.7833333 46.48,26.7528333 46.48,34.1166667 C46.48,41.4805 40.5343448,47.45 33.2,47.45 Z M33.2,25.7833333 C28.6160262,25.7833333 24.9,29.5143333 24.9,34.1166667 C24.9,38.719 28.6160262,42.45 33.2,42.45 C37.7839738,42.45 41.5,38.719 41.5,34.1166667 C41.47261,29.5338333 37.764585,25.8333333 33.2,25.8333333 L33.2,25.7833333 Z" id="Fill-11" fill="#000000"></path>
                                        </g>
                                    </g>
                                    <g id="Avi/title" transform="translate(286.000000, 0.000000)">
                                        <g id="Group-7-Copy-3">
                                            <g id="Group-6" transform="translate(0.000000, 86.666667)">
                                                <path d="M57.7514,6.66666667 L23.5886,6.66666667 C21.7550138,6.66666667 20.2686,5.17433333 20.2686,3.33333333 C20.2686,1.49233333 21.7550138,0 23.5886,0 L57.7514,0 C59.5849862,0 61.0714,1.49233333 61.0714,3.33333333 C61.0714,5.17433333 59.5849862,6.66666667 57.7514,6.66666667 Z" id="Fill-3" fill="#000000"></path>
                                                <path d="M63.91,33.3333333 L16.9486,33.3333333 C15.1150138,33.3333333 13.6286,31.841 13.6286,30 C13.6286,28.159 15.1150138,26.6666667 16.9486,26.6666667 L63.91,26.6666667 C65.7435862,26.6666667 67.23,28.159 67.23,30 C67.23,31.841 65.7435862,33.3333333 63.91,33.3333333 Z" id="Fill-4" fill="#000000"></path>
                                                <path d="M78.85,20 L4.15,20 C2.3164138,20 0.83,18.5076667 0.83,16.6666667 C0.83,14.8256667 2.3164138,13.3333333 4.15,13.3333333 L78.85,13.3333333 C80.6835862,13.3333333 82.17,14.8256667 82.17,16.6666667 C82.17,18.5076667 80.6835862,20 78.85,20 Z" id="Fill-5" fill="#393939"></path>
                                            </g>
                                            <g id="Avi" transform="translate(8.000000, 0.000000)">
                                                <g id="Group-5" transform="translate(0.300000, 0.000000)">
                                                    <path d="M66.4,33.3333333 C66.4,51.7428333 51.5358454,66.6666667 33.2,66.6666667 C14.8641546,66.6666667 0,51.7428333 0,33.3333333 C0,14.9238333 14.8641546,0 33.2,0 C51.5358454,0 66.4,14.9238333 66.4,33.3333333 Z" id="Fill-6" fill="#565656"></path>
                                                    <path d="M33.2,5 C48.7854744,5 61.4200166,17.6853333 61.4200166,33.3333333 C61.4200166,48.9813333 48.7854744,61.6666667 33.2,61.6666667 C17.6145256,61.6666667 4.98,48.9813333 4.98,33.3333333 C4.98,17.6853333 17.6145256,5 33.2,5 L33.2,5 Z M33.2,0 C14.864138,0 0,14.9238333 0,33.3333333 C0,51.7428333 14.864138,66.6666667 33.2,66.6666667 C51.535862,66.6666667 66.4,51.7428333 66.4,33.3333333 C66.4,14.9238333 51.5358454,0 33.2,0 L33.2,0 Z" id="Fill-7" fill="#000000"></path>
                                                    <path d="M48.306,59.0166667 C48.306,50.6833333 41.5332,46.05 33.2,46.05 C24.8668,46.05 18.094,50.6666667 18.094,59.0166667 C22.6804804,61.725 27.8804968,63.211 33.2,63.3333333 C38.5149216,63.1806667 43.7075842,61.6968333 48.306,59.0166667 Z" id="Fill-8" fill="#D8D8D8"></path>
                                                    <path d="M33.2,65.8333333 C27.4029646,65.7126667 21.735708,64.0876667 16.7494,61.1166667 L15.604,60.3833333 L15.604,59.0166667 C15.604,49.9 22.8416,43.55 33.2,43.55 C43.5584,43.55 50.796,49.9166667 50.796,59.0166667 L50.796,60.4 L49.6174,61.1333333 C44.627274,64.065 38.9796718,65.6818333 33.2,65.8333333 Z M20.667,57.5833333 C24.5430502,59.6123333 28.8300998,60.724 33.2,60.8333333 C37.574266,60.6831667 41.8583774,59.5438333 45.733,57.5 C44.9362,50.8333333 38.6448,48.4666667 33.2,48.4666667 C27.7552,48.4666667 21.4472,50.9333333 20.667,57.5833333 Z" id="Fill-9" fill="#000000"></path>
                                                    <path d="M43.99,34.15 C43.99,40.1238333 39.159151,44.9666667 33.2,44.9666667 C27.240849,44.9666667 22.41,40.1238333 22.41,34.15 C22.41,28.1761667 27.240849,23.3333333 33.2,23.3333333 C39.159151,23.3333333 43.99,28.1761667 43.99,34.15 Z" id="Fill-10" fill="#D8D8D8"></path>
                                                    <path d="M33.2,47.45 C25.8656552,47.45 19.92,41.4805 19.92,34.1166667 C19.92,26.7528333 25.8656552,20.7833333 33.2,20.7833333 C40.5343448,20.7833333 46.48,26.7528333 46.48,34.1166667 C46.48,41.4805 40.5343448,47.45 33.2,47.45 Z M33.2,25.7833333 C28.6160262,25.7833333 24.9,29.5143333 24.9,34.1166667 C24.9,38.719 28.6160262,42.45 33.2,42.45 C37.7839738,42.45 41.5,38.719 41.5,34.1166667 C41.47261,29.5338333 37.764585,25.8333333 33.2,25.8333333 L33.2,25.7833333 Z" id="Fill-11" fill="#000000"></path>
                                                </g>
                                            </g>
                                        </g>
                                    </g>
                                    <g id="Group-7-Copy-2" transform="translate(429.000000, 0.000000)">
                                        <g id="Group-6" transform="translate(0.000000, 86.666667)">
                                            <path d="M57.7514,6.66666667 L23.5886,6.66666667 C21.7550138,6.66666667 20.2686,5.17433333 20.2686,3.33333333 C20.2686,1.49233333 21.7550138,0 23.5886,0 L57.7514,0 C59.5849862,0 61.0714,1.49233333 61.0714,3.33333333 C61.0714,5.17433333 59.5849862,6.66666667 57.7514,6.66666667 Z" id="Fill-3" fill="#000000"></path>
                                            <path d="M63.91,33.3333333 L16.9486,33.3333333 C15.1150138,33.3333333 13.6286,31.841 13.6286,30 C13.6286,28.159 15.1150138,26.6666667 16.9486,26.6666667 L63.91,26.6666667 C65.7435862,26.6666667 67.23,28.159 67.23,30 C67.23,31.841 65.7435862,33.3333333 63.91,33.3333333 Z" id="Fill-4" fill="#000000"></path>
                                            <path d="M78.85,20 L4.15,20 C2.3164138,20 0.83,18.5076667 0.83,16.6666667 C0.83,14.8256667 2.3164138,13.3333333 4.15,13.3333333 L78.85,13.3333333 C80.6835862,13.3333333 82.17,14.8256667 82.17,16.6666667 C82.17,18.5076667 80.6835862,20 78.85,20 Z" id="Fill-5" fill="#393939"></path>
                                        </g>
                                        <g id="Group-5" transform="translate(8.300000, 0.000000)">
                                            <path d="M66.4,33.3333333 C66.4,51.7428333 51.5358454,66.6666667 33.2,66.6666667 C14.8641546,66.6666667 0,51.7428333 0,33.3333333 C0,14.9238333 14.8641546,0 33.2,0 C51.5358454,0 66.4,14.9238333 66.4,33.3333333 Z" id="Fill-6" fill="#565656"></path>
                                            <path d="M33.2,5 C48.7854744,5 61.4200166,17.6853333 61.4200166,33.3333333 C61.4200166,48.9813333 48.7854744,61.6666667 33.2,61.6666667 C17.6145256,61.6666667 4.98,48.9813333 4.98,33.3333333 C4.98,17.6853333 17.6145256,5 33.2,5 L33.2,5 Z M33.2,0 C14.864138,0 0,14.9238333 0,33.3333333 C0,51.7428333 14.864138,66.6666667 33.2,66.6666667 C51.535862,66.6666667 66.4,51.7428333 66.4,33.3333333 C66.4,14.9238333 51.5358454,0 33.2,0 L33.2,0 Z" id="Fill-7" fill="#000000"></path>
                                            <path d="M48.306,59.0166667 C48.306,50.6833333 41.5332,46.05 33.2,46.05 C24.8668,46.05 18.094,50.6666667 18.094,59.0166667 C22.6804804,61.725 27.8804968,63.211 33.2,63.3333333 C38.5149216,63.1806667 43.7075842,61.6968333 48.306,59.0166667 Z" id="Fill-8" fill="#D8D8D8"></path>
                                            <path d="M33.2,65.8333333 C27.4029646,65.7126667 21.735708,64.0876667 16.7494,61.1166667 L15.604,60.3833333 L15.604,59.0166667 C15.604,49.9 22.8416,43.55 33.2,43.55 C43.5584,43.55 50.796,49.9166667 50.796,59.0166667 L50.796,60.4 L49.6174,61.1333333 C44.627274,64.065 38.9796718,65.6818333 33.2,65.8333333 Z M20.667,57.5833333 C24.5430502,59.6123333 28.8300998,60.724 33.2,60.8333333 C37.574266,60.6831667 41.8583774,59.5438333 45.733,57.5 C44.9362,50.8333333 38.6448,48.4666667 33.2,48.4666667 C27.7552,48.4666667 21.4472,50.9333333 20.667,57.5833333 Z" id="Fill-9" fill="#000000"></path>
                                            <path d="M43.99,34.15 C43.99,40.1238333 39.159151,44.9666667 33.2,44.9666667 C27.240849,44.9666667 22.41,40.1238333 22.41,34.15 C22.41,28.1761667 27.240849,23.3333333 33.2,23.3333333 C39.159151,23.3333333 43.99,28.1761667 43.99,34.15 Z" id="Fill-10" fill="#D8D8D8"></path>
                                            <path d="M33.2,47.45 C25.8656552,47.45 19.92,41.4805 19.92,34.1166667 C19.92,26.7528333 25.8656552,20.7833333 33.2,20.7833333 C40.5343448,20.7833333 46.48,26.7528333 46.48,34.1166667 C46.48,41.4805 40.5343448,47.45 33.2,47.45 Z M33.2,25.7833333 C28.6160262,25.7833333 24.9,29.5143333 24.9,34.1166667 C24.9,38.719 28.6160262,42.45 33.2,42.45 C37.7839738,42.45 41.5,38.719 41.5,34.1166667 C41.47261,29.5338333 37.764585,25.8333333 33.2,25.8333333 L33.2,25.7833333 Z" id="Fill-11" fill="#000000"></path>
                                        </g>
                                    </g>
                                    <g id="Group-7-Copy-4" transform="translate(572.000000, 0.000000)">
                                        <g id="Group-6" transform="translate(0.000000, 86.666667)">
                                            <path d="M57.7514,6.66666667 L23.5886,6.66666667 C21.7550138,6.66666667 20.2686,5.17433333 20.2686,3.33333333 C20.2686,1.49233333 21.7550138,0 23.5886,0 L57.7514,0 C59.5849862,0 61.0714,1.49233333 61.0714,3.33333333 C61.0714,5.17433333 59.5849862,6.66666667 57.7514,6.66666667 Z" id="Fill-3" fill="#000000"></path>
                                            <path d="M63.91,33.3333333 L16.9486,33.3333333 C15.1150138,33.3333333 13.6286,31.841 13.6286,30 C13.6286,28.159 15.1150138,26.6666667 16.9486,26.6666667 L63.91,26.6666667 C65.7435862,26.6666667 67.23,28.159 67.23,30 C67.23,31.841 65.7435862,33.3333333 63.91,33.3333333 Z" id="Fill-4" fill="#000000"></path>
                                            <path d="M78.85,20 L4.15,20 C2.3164138,20 0.83,18.5076667 0.83,16.6666667 C0.83,14.8256667 2.3164138,13.3333333 4.15,13.3333333 L78.85,13.3333333 C80.6835862,13.3333333 82.17,14.8256667 82.17,16.6666667 C82.17,18.5076667 80.6835862,20 78.85,20 Z" id="Fill-5" fill="#393939"></path>
                                        </g>
                                        <g id="Group-5" transform="translate(8.300000, 0.000000)">
                                            <path d="M66.4,33.3333333 C66.4,51.7428333 51.5358454,66.6666667 33.2,66.6666667 C14.8641546,66.6666667 0,51.7428333 0,33.3333333 C0,14.9238333 14.8641546,0 33.2,0 C51.5358454,0 66.4,14.9238333 66.4,33.3333333 Z" id="Fill-6" fill="#565656"></path>
                                            <path d="M33.2,5 C48.7854744,5 61.4200166,17.6853333 61.4200166,33.3333333 C61.4200166,48.9813333 48.7854744,61.6666667 33.2,61.6666667 C17.6145256,61.6666667 4.98,48.9813333 4.98,33.3333333 C4.98,17.6853333 17.6145256,5 33.2,5 L33.2,5 Z M33.2,0 C14.864138,0 0,14.9238333 0,33.3333333 C0,51.7428333 14.864138,66.6666667 33.2,66.6666667 C51.535862,66.6666667 66.4,51.7428333 66.4,33.3333333 C66.4,14.9238333 51.5358454,0 33.2,0 L33.2,0 Z" id="Fill-7" fill="#000000"></path>
                                            <path d="M48.306,59.0166667 C48.306,50.6833333 41.5332,46.05 33.2,46.05 C24.8668,46.05 18.094,50.6666667 18.094,59.0166667 C22.6804804,61.725 27.8804968,63.211 33.2,63.3333333 C38.5149216,63.1806667 43.7075842,61.6968333 48.306,59.0166667 Z" id="Fill-8" fill="#D8D8D8"></path>
                                            <path d="M33.2,65.8333333 C27.4029646,65.7126667 21.735708,64.0876667 16.7494,61.1166667 L15.604,60.3833333 L15.604,59.0166667 C15.604,49.9 22.8416,43.55 33.2,43.55 C43.5584,43.55 50.796,49.9166667 50.796,59.0166667 L50.796,60.4 L49.6174,61.1333333 C44.627274,64.065 38.9796718,65.6818333 33.2,65.8333333 Z M20.667,57.5833333 C24.5430502,59.6123333 28.8300998,60.724 33.2,60.8333333 C37.574266,60.6831667 41.8583774,59.5438333 45.733,57.5 C44.9362,50.8333333 38.6448,48.4666667 33.2,48.4666667 C27.7552,48.4666667 21.4472,50.9333333 20.667,57.5833333 Z" id="Fill-9" fill="#000000"></path>
                                            <path d="M43.99,34.15 C43.99,40.1238333 39.159151,44.9666667 33.2,44.9666667 C27.240849,44.9666667 22.41,40.1238333 22.41,34.15 C22.41,28.1761667 27.240849,23.3333333 33.2,23.3333333 C39.159151,23.3333333 43.99,28.1761667 43.99,34.15 Z" id="Fill-10" fill="#D8D8D8"></path>
                                            <path d="M33.2,47.45 C25.8656552,47.45 19.92,41.4805 19.92,34.1166667 C19.92,26.7528333 25.8656552,20.7833333 33.2,20.7833333 C40.5343448,20.7833333 46.48,26.7528333 46.48,34.1166667 C46.48,41.4805 40.5343448,47.45 33.2,47.45 Z M33.2,25.7833333 C28.6160262,25.7833333 24.9,29.5143333 24.9,34.1166667 C24.9,38.719 28.6160262,42.45 33.2,42.45 C37.7839738,42.45 41.5,38.719 41.5,34.1166667 C41.47261,29.5338333 37.764585,25.8333333 33.2,25.8333333 L33.2,25.7833333 Z" id="Fill-11" fill="#000000"></path>
                                        </g>
                                    </g>
                                </g>
                                <g id="Group-Copy" transform="translate(0.000000, 160.000000)">
                                    <g id="Group-7">
                                        <g id="Group-6" transform="translate(0.000000, 86.666667)">
                                            <path d="M57.7514,6.66666667 L23.5886,6.66666667 C21.7550138,6.66666667 20.2686,5.17433333 20.2686,3.33333333 C20.2686,1.49233333 21.7550138,0 23.5886,0 L57.7514,0 C59.5849862,0 61.0714,1.49233333 61.0714,3.33333333 C61.0714,5.17433333 59.5849862,6.66666667 57.7514,6.66666667 Z" id="Fill-3" fill="#000000"></path>
                                            <path d="M63.91,33.3333333 L16.9486,33.3333333 C15.1150138,33.3333333 13.6286,31.841 13.6286,30 C13.6286,28.159 15.1150138,26.6666667 16.9486,26.6666667 L63.91,26.6666667 C65.7435862,26.6666667 67.23,28.159 67.23,30 C67.23,31.841 65.7435862,33.3333333 63.91,33.3333333 Z" id="Fill-4" fill="#000000"></path>
                                            <path d="M78.85,20 L4.15,20 C2.3164138,20 0.83,18.5076667 0.83,16.6666667 C0.83,14.8256667 2.3164138,13.3333333 4.15,13.3333333 L78.85,13.3333333 C80.6835862,13.3333333 82.17,14.8256667 82.17,16.6666667 C82.17,18.5076667 80.6835862,20 78.85,20 Z" id="Fill-5" fill="#393939"></path>
                                        </g>
                                        <g id="Group-5" transform="translate(8.300000, 0.000000)">
                                            <path d="M66.4,33.3333333 C66.4,51.7428333 51.5358454,66.6666667 33.2,66.6666667 C14.8641546,66.6666667 0,51.7428333 0,33.3333333 C0,14.9238333 14.8641546,0 33.2,0 C51.5358454,0 66.4,14.9238333 66.4,33.3333333 Z" id="Fill-6" fill="#565656"></path>
                                            <path d="M33.2,5 C48.7854744,5 61.4200166,17.6853333 61.4200166,33.3333333 C61.4200166,48.9813333 48.7854744,61.6666667 33.2,61.6666667 C17.6145256,61.6666667 4.98,48.9813333 4.98,33.3333333 C4.98,17.6853333 17.6145256,5 33.2,5 L33.2,5 Z M33.2,0 C14.864138,0 0,14.9238333 0,33.3333333 C0,51.7428333 14.864138,66.6666667 33.2,66.6666667 C51.535862,66.6666667 66.4,51.7428333 66.4,33.3333333 C66.4,14.9238333 51.5358454,0 33.2,0 L33.2,0 Z" id="Fill-7" fill="#000000"></path>
                                            <path d="M48.306,59.0166667 C48.306,50.6833333 41.5332,46.05 33.2,46.05 C24.8668,46.05 18.094,50.6666667 18.094,59.0166667 C22.6804804,61.725 27.8804968,63.211 33.2,63.3333333 C38.5149216,63.1806667 43.7075842,61.6968333 48.306,59.0166667 Z" id="Fill-8" fill="#D8D8D8"></path>
                                            <path d="M33.2,65.8333333 C27.4029646,65.7126667 21.735708,64.0876667 16.7494,61.1166667 L15.604,60.3833333 L15.604,59.0166667 C15.604,49.9 22.8416,43.55 33.2,43.55 C43.5584,43.55 50.796,49.9166667 50.796,59.0166667 L50.796,60.4 L49.6174,61.1333333 C44.627274,64.065 38.9796718,65.6818333 33.2,65.8333333 Z M20.667,57.5833333 C24.5430502,59.6123333 28.8300998,60.724 33.2,60.8333333 C37.574266,60.6831667 41.8583774,59.5438333 45.733,57.5 C44.9362,50.8333333 38.6448,48.4666667 33.2,48.4666667 C27.7552,48.4666667 21.4472,50.9333333 20.667,57.5833333 Z" id="Fill-9" fill="#000000"></path>
                                            <path d="M43.99,34.15 C43.99,40.1238333 39.159151,44.9666667 33.2,44.9666667 C27.240849,44.9666667 22.41,40.1238333 22.41,34.15 C22.41,28.1761667 27.240849,23.3333333 33.2,23.3333333 C39.159151,23.3333333 43.99,28.1761667 43.99,34.15 Z" id="Fill-10" fill="#D8D8D8"></path>
                                            <path d="M33.2,47.45 C25.8656552,47.45 19.92,41.4805 19.92,34.1166667 C19.92,26.7528333 25.8656552,20.7833333 33.2,20.7833333 C40.5343448,20.7833333 46.48,26.7528333 46.48,34.1166667 C46.48,41.4805 40.5343448,47.45 33.2,47.45 Z M33.2,25.7833333 C28.6160262,25.7833333 24.9,29.5143333 24.9,34.1166667 C24.9,38.719 28.6160262,42.45 33.2,42.45 C37.7839738,42.45 41.5,38.719 41.5,34.1166667 C41.47261,29.5338333 37.764585,25.8333333 33.2,25.8333333 L33.2,25.7833333 Z" id="Fill-11" fill="#000000"></path>
                                        </g>
                                    </g>
                                    <g id="Group-7-Copy" transform="translate(143.000000, 0.000000)">
                                        <g id="Group-6" transform="translate(0.000000, 86.666667)">
                                            <path d="M57.7514,6.66666667 L23.5886,6.66666667 C21.7550138,6.66666667 20.2686,5.17433333 20.2686,3.33333333 C20.2686,1.49233333 21.7550138,0 23.5886,0 L57.7514,0 C59.5849862,0 61.0714,1.49233333 61.0714,3.33333333 C61.0714,5.17433333 59.5849862,6.66666667 57.7514,6.66666667 Z" id="Fill-3" fill="#000000"></path>
                                            <path d="M63.91,33.3333333 L16.9486,33.3333333 C15.1150138,33.3333333 13.6286,31.841 13.6286,30 C13.6286,28.159 15.1150138,26.6666667 16.9486,26.6666667 L63.91,26.6666667 C65.7435862,26.6666667 67.23,28.159 67.23,30 C67.23,31.841 65.7435862,33.3333333 63.91,33.3333333 Z" id="Fill-4" fill="#000000"></path>
                                            <path d="M78.85,20 L4.15,20 C2.3164138,20 0.83,18.5076667 0.83,16.6666667 C0.83,14.8256667 2.3164138,13.3333333 4.15,13.3333333 L78.85,13.3333333 C80.6835862,13.3333333 82.17,14.8256667 82.17,16.6666667 C82.17,18.5076667 80.6835862,20 78.85,20 Z" id="Fill-5" fill="#393939"></path>
                                        </g>
                                        <g id="Group-5" transform="translate(8.300000, 0.000000)">
                                            <path d="M66.4,33.3333333 C66.4,51.7428333 51.5358454,66.6666667 33.2,66.6666667 C14.8641546,66.6666667 0,51.7428333 0,33.3333333 C0,14.9238333 14.8641546,0 33.2,0 C51.5358454,0 66.4,14.9238333 66.4,33.3333333 Z" id="Fill-6" fill="#565656"></path>
                                            <path d="M33.2,5 C48.7854744,5 61.4200166,17.6853333 61.4200166,33.3333333 C61.4200166,48.9813333 48.7854744,61.6666667 33.2,61.6666667 C17.6145256,61.6666667 4.98,48.9813333 4.98,33.3333333 C4.98,17.6853333 17.6145256,5 33.2,5 L33.2,5 Z M33.2,0 C14.864138,0 0,14.9238333 0,33.3333333 C0,51.7428333 14.864138,66.6666667 33.2,66.6666667 C51.535862,66.6666667 66.4,51.7428333 66.4,33.3333333 C66.4,14.9238333 51.5358454,0 33.2,0 L33.2,0 Z" id="Fill-7" fill="#000000"></path>
                                            <path d="M48.306,59.0166667 C48.306,50.6833333 41.5332,46.05 33.2,46.05 C24.8668,46.05 18.094,50.6666667 18.094,59.0166667 C22.6804804,61.725 27.8804968,63.211 33.2,63.3333333 C38.5149216,63.1806667 43.7075842,61.6968333 48.306,59.0166667 Z" id="Fill-8" fill="#D8D8D8"></path>
                                            <path d="M33.2,65.8333333 C27.4029646,65.7126667 21.735708,64.0876667 16.7494,61.1166667 L15.604,60.3833333 L15.604,59.0166667 C15.604,49.9 22.8416,43.55 33.2,43.55 C43.5584,43.55 50.796,49.9166667 50.796,59.0166667 L50.796,60.4 L49.6174,61.1333333 C44.627274,64.065 38.9796718,65.6818333 33.2,65.8333333 Z M20.667,57.5833333 C24.5430502,59.6123333 28.8300998,60.724 33.2,60.8333333 C37.574266,60.6831667 41.8583774,59.5438333 45.733,57.5 C44.9362,50.8333333 38.6448,48.4666667 33.2,48.4666667 C27.7552,48.4666667 21.4472,50.9333333 20.667,57.5833333 Z" id="Fill-9" fill="#000000"></path>
                                            <path d="M43.99,34.15 C43.99,40.1238333 39.159151,44.9666667 33.2,44.9666667 C27.240849,44.9666667 22.41,40.1238333 22.41,34.15 C22.41,28.1761667 27.240849,23.3333333 33.2,23.3333333 C39.159151,23.3333333 43.99,28.1761667 43.99,34.15 Z" id="Fill-10" fill="#D8D8D8"></path>
                                            <path d="M33.2,47.45 C25.8656552,47.45 19.92,41.4805 19.92,34.1166667 C19.92,26.7528333 25.8656552,20.7833333 33.2,20.7833333 C40.5343448,20.7833333 46.48,26.7528333 46.48,34.1166667 C46.48,41.4805 40.5343448,47.45 33.2,47.45 Z M33.2,25.7833333 C28.6160262,25.7833333 24.9,29.5143333 24.9,34.1166667 C24.9,38.719 28.6160262,42.45 33.2,42.45 C37.7839738,42.45 41.5,38.719 41.5,34.1166667 C41.47261,29.5338333 37.764585,25.8333333 33.2,25.8333333 L33.2,25.7833333 Z" id="Fill-11" fill="#000000"></path>
                                        </g>
                                    </g>
                                    <g id="Group-7-Copy-3" transform="translate(286.000000, 0.000000)">
                                        <g id="Group-6" transform="translate(0.000000, 86.666667)">
                                            <path d="M57.7514,6.66666667 L23.5886,6.66666667 C21.7550138,6.66666667 20.2686,5.17433333 20.2686,3.33333333 C20.2686,1.49233333 21.7550138,0 23.5886,0 L57.7514,0 C59.5849862,0 61.0714,1.49233333 61.0714,3.33333333 C61.0714,5.17433333 59.5849862,6.66666667 57.7514,6.66666667 Z" id="Fill-3" fill="#000000"></path>
                                            <path d="M63.91,33.3333333 L16.9486,33.3333333 C15.1150138,33.3333333 13.6286,31.841 13.6286,30 C13.6286,28.159 15.1150138,26.6666667 16.9486,26.6666667 L63.91,26.6666667 C65.7435862,26.6666667 67.23,28.159 67.23,30 C67.23,31.841 65.7435862,33.3333333 63.91,33.3333333 Z" id="Fill-4" fill="#000000"></path>
                                            <path d="M78.85,20 L4.15,20 C2.3164138,20 0.83,18.5076667 0.83,16.6666667 C0.83,14.8256667 2.3164138,13.3333333 4.15,13.3333333 L78.85,13.3333333 C80.6835862,13.3333333 82.17,14.8256667 82.17,16.6666667 C82.17,18.5076667 80.6835862,20 78.85,20 Z" id="Fill-5" fill="#393939"></path>
                                        </g>
                                        <g id="Group-5" transform="translate(8.300000, 0.000000)">
                                            <path d="M66.4,33.3333333 C66.4,51.7428333 51.5358454,66.6666667 33.2,66.6666667 C14.8641546,66.6666667 0,51.7428333 0,33.3333333 C0,14.9238333 14.8641546,0 33.2,0 C51.5358454,0 66.4,14.9238333 66.4,33.3333333 Z" id="Fill-6" fill="#565656"></path>
                                            <path d="M33.2,5 C48.7854744,5 61.4200166,17.6853333 61.4200166,33.3333333 C61.4200166,48.9813333 48.7854744,61.6666667 33.2,61.6666667 C17.6145256,61.6666667 4.98,48.9813333 4.98,33.3333333 C4.98,17.6853333 17.6145256,5 33.2,5 L33.2,5 Z M33.2,0 C14.864138,0 0,14.9238333 0,33.3333333 C0,51.7428333 14.864138,66.6666667 33.2,66.6666667 C51.535862,66.6666667 66.4,51.7428333 66.4,33.3333333 C66.4,14.9238333 51.5358454,0 33.2,0 L33.2,0 Z" id="Fill-7" fill="#000000"></path>
                                            <path d="M48.306,59.0166667 C48.306,50.6833333 41.5332,46.05 33.2,46.05 C24.8668,46.05 18.094,50.6666667 18.094,59.0166667 C22.6804804,61.725 27.8804968,63.211 33.2,63.3333333 C38.5149216,63.1806667 43.7075842,61.6968333 48.306,59.0166667 Z" id="Fill-8" fill="#D8D8D8"></path>
                                            <path d="M33.2,65.8333333 C27.4029646,65.7126667 21.735708,64.0876667 16.7494,61.1166667 L15.604,60.3833333 L15.604,59.0166667 C15.604,49.9 22.8416,43.55 33.2,43.55 C43.5584,43.55 50.796,49.9166667 50.796,59.0166667 L50.796,60.4 L49.6174,61.1333333 C44.627274,64.065 38.9796718,65.6818333 33.2,65.8333333 Z M20.667,57.5833333 C24.5430502,59.6123333 28.8300998,60.724 33.2,60.8333333 C37.574266,60.6831667 41.8583774,59.5438333 45.733,57.5 C44.9362,50.8333333 38.6448,48.4666667 33.2,48.4666667 C27.7552,48.4666667 21.4472,50.9333333 20.667,57.5833333 Z" id="Fill-9" fill="#000000"></path>
                                            <path d="M43.99,34.15 C43.99,40.1238333 39.159151,44.9666667 33.2,44.9666667 C27.240849,44.9666667 22.41,40.1238333 22.41,34.15 C22.41,28.1761667 27.240849,23.3333333 33.2,23.3333333 C39.159151,23.3333333 43.99,28.1761667 43.99,34.15 Z" id="Fill-10" fill="#D8D8D8"></path>
                                            <path d="M33.2,47.45 C25.8656552,47.45 19.92,41.4805 19.92,34.1166667 C19.92,26.7528333 25.8656552,20.7833333 33.2,20.7833333 C40.5343448,20.7833333 46.48,26.7528333 46.48,34.1166667 C46.48,41.4805 40.5343448,47.45 33.2,47.45 Z M33.2,25.7833333 C28.6160262,25.7833333 24.9,29.5143333 24.9,34.1166667 C24.9,38.719 28.6160262,42.45 33.2,42.45 C37.7839738,42.45 41.5,38.719 41.5,34.1166667 C41.47261,29.5338333 37.764585,25.8333333 33.2,25.8333333 L33.2,25.7833333 Z" id="Fill-11" fill="#000000"></path>
                                        </g>
                                    </g>
                                    <g id="Group-7-Copy-2" transform="translate(429.000000, 0.000000)">
                                        <g id="Group-6" transform="translate(0.000000, 86.666667)">
                                            <path d="M57.7514,6.66666667 L23.5886,6.66666667 C21.7550138,6.66666667 20.2686,5.17433333 20.2686,3.33333333 C20.2686,1.49233333 21.7550138,0 23.5886,0 L57.7514,0 C59.5849862,0 61.0714,1.49233333 61.0714,3.33333333 C61.0714,5.17433333 59.5849862,6.66666667 57.7514,6.66666667 Z" id="Fill-3" fill="#000000"></path>
                                            <path d="M63.91,33.3333333 L16.9486,33.3333333 C15.1150138,33.3333333 13.6286,31.841 13.6286,30 C13.6286,28.159 15.1150138,26.6666667 16.9486,26.6666667 L63.91,26.6666667 C65.7435862,26.6666667 67.23,28.159 67.23,30 C67.23,31.841 65.7435862,33.3333333 63.91,33.3333333 Z" id="Fill-4" fill="#000000"></path>
                                            <path d="M78.85,20 L4.15,20 C2.3164138,20 0.83,18.5076667 0.83,16.6666667 C0.83,14.8256667 2.3164138,13.3333333 4.15,13.3333333 L78.85,13.3333333 C80.6835862,13.3333333 82.17,14.8256667 82.17,16.6666667 C82.17,18.5076667 80.6835862,20 78.85,20 Z" id="Fill-5" fill="#393939"></path>
                                        </g>
                                        <g id="Group-5" transform="translate(8.300000, 0.000000)">
                                            <path d="M66.4,33.3333333 C66.4,51.7428333 51.5358454,66.6666667 33.2,66.6666667 C14.8641546,66.6666667 0,51.7428333 0,33.3333333 C0,14.9238333 14.8641546,0 33.2,0 C51.5358454,0 66.4,14.9238333 66.4,33.3333333 Z" id="Fill-6" fill="#565656"></path>
                                            <path d="M33.2,5 C48.7854744,5 61.4200166,17.6853333 61.4200166,33.3333333 C61.4200166,48.9813333 48.7854744,61.6666667 33.2,61.6666667 C17.6145256,61.6666667 4.98,48.9813333 4.98,33.3333333 C4.98,17.6853333 17.6145256,5 33.2,5 L33.2,5 Z M33.2,0 C14.864138,0 0,14.9238333 0,33.3333333 C0,51.7428333 14.864138,66.6666667 33.2,66.6666667 C51.535862,66.6666667 66.4,51.7428333 66.4,33.3333333 C66.4,14.9238333 51.5358454,0 33.2,0 L33.2,0 Z" id="Fill-7" fill="#000000"></path>
                                            <path d="M48.306,59.0166667 C48.306,50.6833333 41.5332,46.05 33.2,46.05 C24.8668,46.05 18.094,50.6666667 18.094,59.0166667 C22.6804804,61.725 27.8804968,63.211 33.2,63.3333333 C38.5149216,63.1806667 43.7075842,61.6968333 48.306,59.0166667 Z" id="Fill-8" fill="#D8D8D8"></path>
                                            <path d="M33.2,65.8333333 C27.4029646,65.7126667 21.735708,64.0876667 16.7494,61.1166667 L15.604,60.3833333 L15.604,59.0166667 C15.604,49.9 22.8416,43.55 33.2,43.55 C43.5584,43.55 50.796,49.9166667 50.796,59.0166667 L50.796,60.4 L49.6174,61.1333333 C44.627274,64.065 38.9796718,65.6818333 33.2,65.8333333 Z M20.667,57.5833333 C24.5430502,59.6123333 28.8300998,60.724 33.2,60.8333333 C37.574266,60.6831667 41.8583774,59.5438333 45.733,57.5 C44.9362,50.8333333 38.6448,48.4666667 33.2,48.4666667 C27.7552,48.4666667 21.4472,50.9333333 20.667,57.5833333 Z" id="Fill-9" fill="#000000"></path>
                                            <path d="M43.99,34.15 C43.99,40.1238333 39.159151,44.9666667 33.2,44.9666667 C27.240849,44.9666667 22.41,40.1238333 22.41,34.15 C22.41,28.1761667 27.240849,23.3333333 33.2,23.3333333 C39.159151,23.3333333 43.99,28.1761667 43.99,34.15 Z" id="Fill-10" fill="#D8D8D8"></path>
                                            <path d="M33.2,47.45 C25.8656552,47.45 19.92,41.4805 19.92,34.1166667 C19.92,26.7528333 25.8656552,20.7833333 33.2,20.7833333 C40.5343448,20.7833333 46.48,26.7528333 46.48,34.1166667 C46.48,41.4805 40.5343448,47.45 33.2,47.45 Z M33.2,25.7833333 C28.6160262,25.7833333 24.9,29.5143333 24.9,34.1166667 C24.9,38.719 28.6160262,42.45 33.2,42.45 C37.7839738,42.45 41.5,38.719 41.5,34.1166667 C41.47261,29.5338333 37.764585,25.8333333 33.2,25.8333333 L33.2,25.7833333 Z" id="Fill-11" fill="#000000"></path>
                                        </g>
                                    </g>
                                    <g id="Group-7-Copy-4" transform="translate(572.000000, 0.000000)">
                                        <g id="Group-6" transform="translate(0.000000, 86.666667)">
                                            <path d="M57.7514,6.66666667 L23.5886,6.66666667 C21.7550138,6.66666667 20.2686,5.17433333 20.2686,3.33333333 C20.2686,1.49233333 21.7550138,0 23.5886,0 L57.7514,0 C59.5849862,0 61.0714,1.49233333 61.0714,3.33333333 C61.0714,5.17433333 59.5849862,6.66666667 57.7514,6.66666667 Z" id="Fill-3" fill="#000000"></path>
                                            <path d="M63.91,33.3333333 L16.9486,33.3333333 C15.1150138,33.3333333 13.6286,31.841 13.6286,30 C13.6286,28.159 15.1150138,26.6666667 16.9486,26.6666667 L63.91,26.6666667 C65.7435862,26.6666667 67.23,28.159 67.23,30 C67.23,31.841 65.7435862,33.3333333 63.91,33.3333333 Z" id="Fill-4" fill="#000000"></path>
                                            <path d="M78.85,20 L4.15,20 C2.3164138,20 0.83,18.5076667 0.83,16.6666667 C0.83,14.8256667 2.3164138,13.3333333 4.15,13.3333333 L78.85,13.3333333 C80.6835862,13.3333333 82.17,14.8256667 82.17,16.6666667 C82.17,18.5076667 80.6835862,20 78.85,20 Z" id="Fill-5" fill="#393939"></path>
                                        </g>
                                        <g id="Group-5" transform="translate(8.300000, 0.000000)">
                                            <path d="M66.4,33.3333333 C66.4,51.7428333 51.5358454,66.6666667 33.2,66.6666667 C14.8641546,66.6666667 0,51.7428333 0,33.3333333 C0,14.9238333 14.8641546,0 33.2,0 C51.5358454,0 66.4,14.9238333 66.4,33.3333333 Z" id="Fill-6" fill="#565656"></path>
                                            <path d="M33.2,5 C48.7854744,5 61.4200166,17.6853333 61.4200166,33.3333333 C61.4200166,48.9813333 48.7854744,61.6666667 33.2,61.6666667 C17.6145256,61.6666667 4.98,48.9813333 4.98,33.3333333 C4.98,17.6853333 17.6145256,5 33.2,5 L33.2,5 Z M33.2,0 C14.864138,0 0,14.9238333 0,33.3333333 C0,51.7428333 14.864138,66.6666667 33.2,66.6666667 C51.535862,66.6666667 66.4,51.7428333 66.4,33.3333333 C66.4,14.9238333 51.5358454,0 33.2,0 L33.2,0 Z" id="Fill-7" fill="#000000"></path>
                                            <path d="M48.306,59.0166667 C48.306,50.6833333 41.5332,46.05 33.2,46.05 C24.8668,46.05 18.094,50.6666667 18.094,59.0166667 C22.6804804,61.725 27.8804968,63.211 33.2,63.3333333 C38.5149216,63.1806667 43.7075842,61.6968333 48.306,59.0166667 Z" id="Fill-8" fill="#D8D8D8"></path>
                                            <path d="M33.2,65.8333333 C27.4029646,65.7126667 21.735708,64.0876667 16.7494,61.1166667 L15.604,60.3833333 L15.604,59.0166667 C15.604,49.9 22.8416,43.55 33.2,43.55 C43.5584,43.55 50.796,49.9166667 50.796,59.0166667 L50.796,60.4 L49.6174,61.1333333 C44.627274,64.065 38.9796718,65.6818333 33.2,65.8333333 Z M20.667,57.5833333 C24.5430502,59.6123333 28.8300998,60.724 33.2,60.8333333 C37.574266,60.6831667 41.8583774,59.5438333 45.733,57.5 C44.9362,50.8333333 38.6448,48.4666667 33.2,48.4666667 C27.7552,48.4666667 21.4472,50.9333333 20.667,57.5833333 Z" id="Fill-9" fill="#000000"></path>
                                            <path d="M43.99,34.15 C43.99,40.1238333 39.159151,44.9666667 33.2,44.9666667 C27.240849,44.9666667 22.41,40.1238333 22.41,34.15 C22.41,28.1761667 27.240849,23.3333333 33.2,23.3333333 C39.159151,23.3333333 43.99,28.1761667 43.99,34.15 Z" id="Fill-10" fill="#D8D8D8"></path>
                                            <path d="M33.2,47.45 C25.8656552,47.45 19.92,41.4805 19.92,34.1166667 C19.92,26.7528333 25.8656552,20.7833333 33.2,20.7833333 C40.5343448,20.7833333 46.48,26.7528333 46.48,34.1166667 C46.48,41.4805 40.5343448,47.45 33.2,47.45 Z M33.2,25.7833333 C28.6160262,25.7833333 24.9,29.5143333 24.9,34.1166667 C24.9,38.719 28.6160262,42.45 33.2,42.45 C37.7839738,42.45 41.5,38.719 41.5,34.1166667 C41.47261,29.5338333 37.764585,25.8333333 33.2,25.8333333 L33.2,25.7833333 Z" id="Fill-11" fill="#000000"></path>
                                        </g>
                                    </g>
                                </g>
                                <g id="Group-Copy-2" transform="translate(0.000000, 330.000000)">
                                    <g id="Group-7">
                                        <g id="Group-6" transform="translate(0.000000, 86.666667)">
                                            <path d="M57.7514,6.66666667 L23.5886,6.66666667 C21.7550138,6.66666667 20.2686,5.17433333 20.2686,3.33333333 C20.2686,1.49233333 21.7550138,0 23.5886,0 L57.7514,0 C59.5849862,0 61.0714,1.49233333 61.0714,3.33333333 C61.0714,5.17433333 59.5849862,6.66666667 57.7514,6.66666667 Z" id="Fill-3" fill="#000000"></path>
                                            <path d="M63.91,33.3333333 L16.9486,33.3333333 C15.1150138,33.3333333 13.6286,31.841 13.6286,30 C13.6286,28.159 15.1150138,26.6666667 16.9486,26.6666667 L63.91,26.6666667 C65.7435862,26.6666667 67.23,28.159 67.23,30 C67.23,31.841 65.7435862,33.3333333 63.91,33.3333333 Z" id="Fill-4" fill="#000000"></path>
                                            <path d="M78.85,20 L4.15,20 C2.3164138,20 0.83,18.5076667 0.83,16.6666667 C0.83,14.8256667 2.3164138,13.3333333 4.15,13.3333333 L78.85,13.3333333 C80.6835862,13.3333333 82.17,14.8256667 82.17,16.6666667 C82.17,18.5076667 80.6835862,20 78.85,20 Z" id="Fill-5" fill="#393939"></path>
                                        </g>
                                        <g id="Group-5" transform="translate(8.300000, 0.000000)">
                                            <path d="M66.4,33.3333333 C66.4,51.7428333 51.5358454,66.6666667 33.2,66.6666667 C14.8641546,66.6666667 0,51.7428333 0,33.3333333 C0,14.9238333 14.8641546,0 33.2,0 C51.5358454,0 66.4,14.9238333 66.4,33.3333333 Z" id="Fill-6" fill="#565656"></path>
                                            <path d="M33.2,5 C48.7854744,5 61.4200166,17.6853333 61.4200166,33.3333333 C61.4200166,48.9813333 48.7854744,61.6666667 33.2,61.6666667 C17.6145256,61.6666667 4.98,48.9813333 4.98,33.3333333 C4.98,17.6853333 17.6145256,5 33.2,5 L33.2,5 Z M33.2,0 C14.864138,0 0,14.9238333 0,33.3333333 C0,51.7428333 14.864138,66.6666667 33.2,66.6666667 C51.535862,66.6666667 66.4,51.7428333 66.4,33.3333333 C66.4,14.9238333 51.5358454,0 33.2,0 L33.2,0 Z" id="Fill-7" fill="#000000"></path>
                                            <path d="M48.306,59.0166667 C48.306,50.6833333 41.5332,46.05 33.2,46.05 C24.8668,46.05 18.094,50.6666667 18.094,59.0166667 C22.6804804,61.725 27.8804968,63.211 33.2,63.3333333 C38.5149216,63.1806667 43.7075842,61.6968333 48.306,59.0166667 Z" id="Fill-8" fill="#D8D8D8"></path>
                                            <path d="M33.2,65.8333333 C27.4029646,65.7126667 21.735708,64.0876667 16.7494,61.1166667 L15.604,60.3833333 L15.604,59.0166667 C15.604,49.9 22.8416,43.55 33.2,43.55 C43.5584,43.55 50.796,49.9166667 50.796,59.0166667 L50.796,60.4 L49.6174,61.1333333 C44.627274,64.065 38.9796718,65.6818333 33.2,65.8333333 Z M20.667,57.5833333 C24.5430502,59.6123333 28.8300998,60.724 33.2,60.8333333 C37.574266,60.6831667 41.8583774,59.5438333 45.733,57.5 C44.9362,50.8333333 38.6448,48.4666667 33.2,48.4666667 C27.7552,48.4666667 21.4472,50.9333333 20.667,57.5833333 Z" id="Fill-9" fill="#000000"></path>
                                            <path d="M43.99,34.15 C43.99,40.1238333 39.159151,44.9666667 33.2,44.9666667 C27.240849,44.9666667 22.41,40.1238333 22.41,34.15 C22.41,28.1761667 27.240849,23.3333333 33.2,23.3333333 C39.159151,23.3333333 43.99,28.1761667 43.99,34.15 Z" id="Fill-10" fill="#D8D8D8"></path>
                                            <path d="M33.2,47.45 C25.8656552,47.45 19.92,41.4805 19.92,34.1166667 C19.92,26.7528333 25.8656552,20.7833333 33.2,20.7833333 C40.5343448,20.7833333 46.48,26.7528333 46.48,34.1166667 C46.48,41.4805 40.5343448,47.45 33.2,47.45 Z M33.2,25.7833333 C28.6160262,25.7833333 24.9,29.5143333 24.9,34.1166667 C24.9,38.719 28.6160262,42.45 33.2,42.45 C37.7839738,42.45 41.5,38.719 41.5,34.1166667 C41.47261,29.5338333 37.764585,25.8333333 33.2,25.8333333 L33.2,25.7833333 Z" id="Fill-11" fill="#000000"></path>
                                        </g>
                                    </g>
                                    <g id="Group-7-Copy" transform="translate(143.000000, 0.000000)">
                                        <g id="Group-6" transform="translate(0.000000, 86.666667)">
                                            <path d="M57.7514,6.66666667 L23.5886,6.66666667 C21.7550138,6.66666667 20.2686,5.17433333 20.2686,3.33333333 C20.2686,1.49233333 21.7550138,0 23.5886,0 L57.7514,0 C59.5849862,0 61.0714,1.49233333 61.0714,3.33333333 C61.0714,5.17433333 59.5849862,6.66666667 57.7514,6.66666667 Z" id="Fill-3" fill="#000000"></path>
                                            <path d="M63.91,33.3333333 L16.9486,33.3333333 C15.1150138,33.3333333 13.6286,31.841 13.6286,30 C13.6286,28.159 15.1150138,26.6666667 16.9486,26.6666667 L63.91,26.6666667 C65.7435862,26.6666667 67.23,28.159 67.23,30 C67.23,31.841 65.7435862,33.3333333 63.91,33.3333333 Z" id="Fill-4" fill="#000000"></path>
                                            <path d="M78.85,20 L4.15,20 C2.3164138,20 0.83,18.5076667 0.83,16.6666667 C0.83,14.8256667 2.3164138,13.3333333 4.15,13.3333333 L78.85,13.3333333 C80.6835862,13.3333333 82.17,14.8256667 82.17,16.6666667 C82.17,18.5076667 80.6835862,20 78.85,20 Z" id="Fill-5" fill="#393939"></path>
                                        </g>
                                        <g id="Group-5" transform="translate(8.300000, 0.000000)">
                                            <path d="M66.4,33.3333333 C66.4,51.7428333 51.5358454,66.6666667 33.2,66.6666667 C14.8641546,66.6666667 0,51.7428333 0,33.3333333 C0,14.9238333 14.8641546,0 33.2,0 C51.5358454,0 66.4,14.9238333 66.4,33.3333333 Z" id="Fill-6" fill="#565656"></path>
                                            <path d="M33.2,5 C48.7854744,5 61.4200166,17.6853333 61.4200166,33.3333333 C61.4200166,48.9813333 48.7854744,61.6666667 33.2,61.6666667 C17.6145256,61.6666667 4.98,48.9813333 4.98,33.3333333 C4.98,17.6853333 17.6145256,5 33.2,5 L33.2,5 Z M33.2,0 C14.864138,0 0,14.9238333 0,33.3333333 C0,51.7428333 14.864138,66.6666667 33.2,66.6666667 C51.535862,66.6666667 66.4,51.7428333 66.4,33.3333333 C66.4,14.9238333 51.5358454,0 33.2,0 L33.2,0 Z" id="Fill-7" fill="#000000"></path>
                                            <path d="M48.306,59.0166667 C48.306,50.6833333 41.5332,46.05 33.2,46.05 C24.8668,46.05 18.094,50.6666667 18.094,59.0166667 C22.6804804,61.725 27.8804968,63.211 33.2,63.3333333 C38.5149216,63.1806667 43.7075842,61.6968333 48.306,59.0166667 Z" id="Fill-8" fill="#D8D8D8"></path>
                                            <path d="M33.2,65.8333333 C27.4029646,65.7126667 21.735708,64.0876667 16.7494,61.1166667 L15.604,60.3833333 L15.604,59.0166667 C15.604,49.9 22.8416,43.55 33.2,43.55 C43.5584,43.55 50.796,49.9166667 50.796,59.0166667 L50.796,60.4 L49.6174,61.1333333 C44.627274,64.065 38.9796718,65.6818333 33.2,65.8333333 Z M20.667,57.5833333 C24.5430502,59.6123333 28.8300998,60.724 33.2,60.8333333 C37.574266,60.6831667 41.8583774,59.5438333 45.733,57.5 C44.9362,50.8333333 38.6448,48.4666667 33.2,48.4666667 C27.7552,48.4666667 21.4472,50.9333333 20.667,57.5833333 Z" id="Fill-9" fill="#000000"></path>
                                            <path d="M43.99,34.15 C43.99,40.1238333 39.159151,44.9666667 33.2,44.9666667 C27.240849,44.9666667 22.41,40.1238333 22.41,34.15 C22.41,28.1761667 27.240849,23.3333333 33.2,23.3333333 C39.159151,23.3333333 43.99,28.1761667 43.99,34.15 Z" id="Fill-10" fill="#D8D8D8"></path>
                                            <path d="M33.2,47.45 C25.8656552,47.45 19.92,41.4805 19.92,34.1166667 C19.92,26.7528333 25.8656552,20.7833333 33.2,20.7833333 C40.5343448,20.7833333 46.48,26.7528333 46.48,34.1166667 C46.48,41.4805 40.5343448,47.45 33.2,47.45 Z M33.2,25.7833333 C28.6160262,25.7833333 24.9,29.5143333 24.9,34.1166667 C24.9,38.719 28.6160262,42.45 33.2,42.45 C37.7839738,42.45 41.5,38.719 41.5,34.1166667 C41.47261,29.5338333 37.764585,25.8333333 33.2,25.8333333 L33.2,25.7833333 Z" id="Fill-11" fill="#000000"></path>
                                        </g>
                                    </g>
                                    <g id="Group-7-Copy-3" transform="translate(286.000000, 0.000000)">
                                        <g id="Group-6" transform="translate(0.000000, 86.666667)">
                                            <path d="M57.7514,6.66666667 L23.5886,6.66666667 C21.7550138,6.66666667 20.2686,5.17433333 20.2686,3.33333333 C20.2686,1.49233333 21.7550138,0 23.5886,0 L57.7514,0 C59.5849862,0 61.0714,1.49233333 61.0714,3.33333333 C61.0714,5.17433333 59.5849862,6.66666667 57.7514,6.66666667 Z" id="Fill-3" fill="#000000"></path>
                                            <path d="M63.91,33.3333333 L16.9486,33.3333333 C15.1150138,33.3333333 13.6286,31.841 13.6286,30 C13.6286,28.159 15.1150138,26.6666667 16.9486,26.6666667 L63.91,26.6666667 C65.7435862,26.6666667 67.23,28.159 67.23,30 C67.23,31.841 65.7435862,33.3333333 63.91,33.3333333 Z" id="Fill-4" fill="#000000"></path>
                                            <path d="M78.85,20 L4.15,20 C2.3164138,20 0.83,18.5076667 0.83,16.6666667 C0.83,14.8256667 2.3164138,13.3333333 4.15,13.3333333 L78.85,13.3333333 C80.6835862,13.3333333 82.17,14.8256667 82.17,16.6666667 C82.17,18.5076667 80.6835862,20 78.85,20 Z" id="Fill-5" fill="#393939"></path>
                                        </g>
                                        <g id="Group-5" transform="translate(8.300000, 0.000000)">
                                            <path d="M66.4,33.3333333 C66.4,51.7428333 51.5358454,66.6666667 33.2,66.6666667 C14.8641546,66.6666667 0,51.7428333 0,33.3333333 C0,14.9238333 14.8641546,0 33.2,0 C51.5358454,0 66.4,14.9238333 66.4,33.3333333 Z" id="Fill-6" fill="#565656"></path>
                                            <path d="M33.2,5 C48.7854744,5 61.4200166,17.6853333 61.4200166,33.3333333 C61.4200166,48.9813333 48.7854744,61.6666667 33.2,61.6666667 C17.6145256,61.6666667 4.98,48.9813333 4.98,33.3333333 C4.98,17.6853333 17.6145256,5 33.2,5 L33.2,5 Z M33.2,0 C14.864138,0 0,14.9238333 0,33.3333333 C0,51.7428333 14.864138,66.6666667 33.2,66.6666667 C51.535862,66.6666667 66.4,51.7428333 66.4,33.3333333 C66.4,14.9238333 51.5358454,0 33.2,0 L33.2,0 Z" id="Fill-7" fill="#000000"></path>
                                            <path d="M48.306,59.0166667 C48.306,50.6833333 41.5332,46.05 33.2,46.05 C24.8668,46.05 18.094,50.6666667 18.094,59.0166667 C22.6804804,61.725 27.8804968,63.211 33.2,63.3333333 C38.5149216,63.1806667 43.7075842,61.6968333 48.306,59.0166667 Z" id="Fill-8" fill="#D8D8D8"></path>
                                            <path d="M33.2,65.8333333 C27.4029646,65.7126667 21.735708,64.0876667 16.7494,61.1166667 L15.604,60.3833333 L15.604,59.0166667 C15.604,49.9 22.8416,43.55 33.2,43.55 C43.5584,43.55 50.796,49.9166667 50.796,59.0166667 L50.796,60.4 L49.6174,61.1333333 C44.627274,64.065 38.9796718,65.6818333 33.2,65.8333333 Z M20.667,57.5833333 C24.5430502,59.6123333 28.8300998,60.724 33.2,60.8333333 C37.574266,60.6831667 41.8583774,59.5438333 45.733,57.5 C44.9362,50.8333333 38.6448,48.4666667 33.2,48.4666667 C27.7552,48.4666667 21.4472,50.9333333 20.667,57.5833333 Z" id="Fill-9" fill="#000000"></path>
                                            <path d="M43.99,34.15 C43.99,40.1238333 39.159151,44.9666667 33.2,44.9666667 C27.240849,44.9666667 22.41,40.1238333 22.41,34.15 C22.41,28.1761667 27.240849,23.3333333 33.2,23.3333333 C39.159151,23.3333333 43.99,28.1761667 43.99,34.15 Z" id="Fill-10" fill="#D8D8D8"></path>
                                            <path d="M33.2,47.45 C25.8656552,47.45 19.92,41.4805 19.92,34.1166667 C19.92,26.7528333 25.8656552,20.7833333 33.2,20.7833333 C40.5343448,20.7833333 46.48,26.7528333 46.48,34.1166667 C46.48,41.4805 40.5343448,47.45 33.2,47.45 Z M33.2,25.7833333 C28.6160262,25.7833333 24.9,29.5143333 24.9,34.1166667 C24.9,38.719 28.6160262,42.45 33.2,42.45 C37.7839738,42.45 41.5,38.719 41.5,34.1166667 C41.47261,29.5338333 37.764585,25.8333333 33.2,25.8333333 L33.2,25.7833333 Z" id="Fill-11" fill="#000000"></path>
                                        </g>
                                    </g>
                                    <g id="Group-7-Copy-2" transform="translate(429.000000, 0.000000)">
                                        <g id="Group-6" transform="translate(0.000000, 86.666667)">
                                            <path d="M57.7514,6.66666667 L23.5886,6.66666667 C21.7550138,6.66666667 20.2686,5.17433333 20.2686,3.33333333 C20.2686,1.49233333 21.7550138,0 23.5886,0 L57.7514,0 C59.5849862,0 61.0714,1.49233333 61.0714,3.33333333 C61.0714,5.17433333 59.5849862,6.66666667 57.7514,6.66666667 Z" id="Fill-3" fill="#000000"></path>
                                            <path d="M63.91,33.3333333 L16.9486,33.3333333 C15.1150138,33.3333333 13.6286,31.841 13.6286,30 C13.6286,28.159 15.1150138,26.6666667 16.9486,26.6666667 L63.91,26.6666667 C65.7435862,26.6666667 67.23,28.159 67.23,30 C67.23,31.841 65.7435862,33.3333333 63.91,33.3333333 Z" id="Fill-4" fill="#000000"></path>
                                            <path d="M78.85,20 L4.15,20 C2.3164138,20 0.83,18.5076667 0.83,16.6666667 C0.83,14.8256667 2.3164138,13.3333333 4.15,13.3333333 L78.85,13.3333333 C80.6835862,13.3333333 82.17,14.8256667 82.17,16.6666667 C82.17,18.5076667 80.6835862,20 78.85,20 Z" id="Fill-5" fill="#393939"></path>
                                        </g>
                                        <g id="Group-5" transform="translate(8.300000, 0.000000)">
                                            <path d="M66.4,33.3333333 C66.4,51.7428333 51.5358454,66.6666667 33.2,66.6666667 C14.8641546,66.6666667 0,51.7428333 0,33.3333333 C0,14.9238333 14.8641546,0 33.2,0 C51.5358454,0 66.4,14.9238333 66.4,33.3333333 Z" id="Fill-6" fill="#565656"></path>
                                            <path d="M33.2,5 C48.7854744,5 61.4200166,17.6853333 61.4200166,33.3333333 C61.4200166,48.9813333 48.7854744,61.6666667 33.2,61.6666667 C17.6145256,61.6666667 4.98,48.9813333 4.98,33.3333333 C4.98,17.6853333 17.6145256,5 33.2,5 L33.2,5 Z M33.2,0 C14.864138,0 0,14.9238333 0,33.3333333 C0,51.7428333 14.864138,66.6666667 33.2,66.6666667 C51.535862,66.6666667 66.4,51.7428333 66.4,33.3333333 C66.4,14.9238333 51.5358454,0 33.2,0 L33.2,0 Z" id="Fill-7" fill="#000000"></path>
                                            <path d="M48.306,59.0166667 C48.306,50.6833333 41.5332,46.05 33.2,46.05 C24.8668,46.05 18.094,50.6666667 18.094,59.0166667 C22.6804804,61.725 27.8804968,63.211 33.2,63.3333333 C38.5149216,63.1806667 43.7075842,61.6968333 48.306,59.0166667 Z" id="Fill-8" fill="#D8D8D8"></path>
                                            <path d="M33.2,65.8333333 C27.4029646,65.7126667 21.735708,64.0876667 16.7494,61.1166667 L15.604,60.3833333 L15.604,59.0166667 C15.604,49.9 22.8416,43.55 33.2,43.55 C43.5584,43.55 50.796,49.9166667 50.796,59.0166667 L50.796,60.4 L49.6174,61.1333333 C44.627274,64.065 38.9796718,65.6818333 33.2,65.8333333 Z M20.667,57.5833333 C24.5430502,59.6123333 28.8300998,60.724 33.2,60.8333333 C37.574266,60.6831667 41.8583774,59.5438333 45.733,57.5 C44.9362,50.8333333 38.6448,48.4666667 33.2,48.4666667 C27.7552,48.4666667 21.4472,50.9333333 20.667,57.5833333 Z" id="Fill-9" fill="#000000"></path>
                                            <path d="M43.99,34.15 C43.99,40.1238333 39.159151,44.9666667 33.2,44.9666667 C27.240849,44.9666667 22.41,40.1238333 22.41,34.15 C22.41,28.1761667 27.240849,23.3333333 33.2,23.3333333 C39.159151,23.3333333 43.99,28.1761667 43.99,34.15 Z" id="Fill-10" fill="#D8D8D8"></path>
                                            <path d="M33.2,47.45 C25.8656552,47.45 19.92,41.4805 19.92,34.1166667 C19.92,26.7528333 25.8656552,20.7833333 33.2,20.7833333 C40.5343448,20.7833333 46.48,26.7528333 46.48,34.1166667 C46.48,41.4805 40.5343448,47.45 33.2,47.45 Z M33.2,25.7833333 C28.6160262,25.7833333 24.9,29.5143333 24.9,34.1166667 C24.9,38.719 28.6160262,42.45 33.2,42.45 C37.7839738,42.45 41.5,38.719 41.5,34.1166667 C41.47261,29.5338333 37.764585,25.8333333 33.2,25.8333333 L33.2,25.7833333 Z" id="Fill-11" fill="#000000"></path>
                                        </g>
                                    </g>
                                    <g id="Group-7-Copy-4" transform="translate(572.000000, 0.000000)">
                                        <g id="Group-6" transform="translate(0.000000, 86.666667)">
                                            <path d="M57.7514,6.66666667 L23.5886,6.66666667 C21.7550138,6.66666667 20.2686,5.17433333 20.2686,3.33333333 C20.2686,1.49233333 21.7550138,0 23.5886,0 L57.7514,0 C59.5849862,0 61.0714,1.49233333 61.0714,3.33333333 C61.0714,5.17433333 59.5849862,6.66666667 57.7514,6.66666667 Z" id="Fill-3" fill="#000000"></path>
                                            <path d="M63.91,33.3333333 L16.9486,33.3333333 C15.1150138,33.3333333 13.6286,31.841 13.6286,30 C13.6286,28.159 15.1150138,26.6666667 16.9486,26.6666667 L63.91,26.6666667 C65.7435862,26.6666667 67.23,28.159 67.23,30 C67.23,31.841 65.7435862,33.3333333 63.91,33.3333333 Z" id="Fill-4" fill="#000000"></path>
                                            <path d="M78.85,20 L4.15,20 C2.3164138,20 0.83,18.5076667 0.83,16.6666667 C0.83,14.8256667 2.3164138,13.3333333 4.15,13.3333333 L78.85,13.3333333 C80.6835862,13.3333333 82.17,14.8256667 82.17,16.6666667 C82.17,18.5076667 80.6835862,20 78.85,20 Z" id="Fill-5" fill="#393939"></path>
                                        </g>
                                        <g id="Group-5" transform="translate(8.300000, 0.000000)">
                                            <path d="M66.4,33.3333333 C66.4,51.7428333 51.5358454,66.6666667 33.2,66.6666667 C14.8641546,66.6666667 0,51.7428333 0,33.3333333 C0,14.9238333 14.8641546,0 33.2,0 C51.5358454,0 66.4,14.9238333 66.4,33.3333333 Z" id="Fill-6" fill="#565656"></path>
                                            <path d="M33.2,5 C48.7854744,5 61.4200166,17.6853333 61.4200166,33.3333333 C61.4200166,48.9813333 48.7854744,61.6666667 33.2,61.6666667 C17.6145256,61.6666667 4.98,48.9813333 4.98,33.3333333 C4.98,17.6853333 17.6145256,5 33.2,5 L33.2,5 Z M33.2,0 C14.864138,0 0,14.9238333 0,33.3333333 C0,51.7428333 14.864138,66.6666667 33.2,66.6666667 C51.535862,66.6666667 66.4,51.7428333 66.4,33.3333333 C66.4,14.9238333 51.5358454,0 33.2,0 L33.2,0 Z" id="Fill-7" fill="#000000"></path>
                                            <path d="M48.306,59.0166667 C48.306,50.6833333 41.5332,46.05 33.2,46.05 C24.8668,46.05 18.094,50.6666667 18.094,59.0166667 C22.6804804,61.725 27.8804968,63.211 33.2,63.3333333 C38.5149216,63.1806667 43.7075842,61.6968333 48.306,59.0166667 Z" id="Fill-8" fill="#D8D8D8"></path>
                                            <path d="M33.2,65.8333333 C27.4029646,65.7126667 21.735708,64.0876667 16.7494,61.1166667 L15.604,60.3833333 L15.604,59.0166667 C15.604,49.9 22.8416,43.55 33.2,43.55 C43.5584,43.55 50.796,49.9166667 50.796,59.0166667 L50.796,60.4 L49.6174,61.1333333 C44.627274,64.065 38.9796718,65.6818333 33.2,65.8333333 Z M20.667,57.5833333 C24.5430502,59.6123333 28.8300998,60.724 33.2,60.8333333 C37.574266,60.6831667 41.8583774,59.5438333 45.733,57.5 C44.9362,50.8333333 38.6448,48.4666667 33.2,48.4666667 C27.7552,48.4666667 21.4472,50.9333333 20.667,57.5833333 Z" id="Fill-9" fill="#000000"></path>
                                            <path d="M43.99,34.15 C43.99,40.1238333 39.159151,44.9666667 33.2,44.9666667 C27.240849,44.9666667 22.41,40.1238333 22.41,34.15 C22.41,28.1761667 27.240849,23.3333333 33.2,23.3333333 C39.159151,23.3333333 43.99,28.1761667 43.99,34.15 Z" id="Fill-10" fill="#D8D8D8"></path>
                                            <path d="M33.2,47.45 C25.8656552,47.45 19.92,41.4805 19.92,34.1166667 C19.92,26.7528333 25.8656552,20.7833333 33.2,20.7833333 C40.5343448,20.7833333 46.48,26.7528333 46.48,34.1166667 C46.48,41.4805 40.5343448,47.45 33.2,47.45 Z M33.2,25.7833333 C28.6160262,25.7833333 24.9,29.5143333 24.9,34.1166667 C24.9,38.719 28.6160262,42.45 33.2,42.45 C37.7839738,42.45 41.5,38.719 41.5,34.1166667 C41.47261,29.5338333 37.764585,25.8333333 33.2,25.8333333 L33.2,25.7833333 Z" id="Fill-11" fill="#000000"></path>
                                        </g>
                                    </g>
                                </g>
                            </g>
                        </g>
                    </g>
                    <g id="Group-29" transform="translate(423.000000, 187.000000)">
                        <g id="contact-card-popup">
                            <g id="download-window" transform="translate(95.000000, 94.000000) scale(-1, 1) translate(-95.000000, -94.000000) ">
                                <g id="Combined-Shape">
                                    <use fill="black" fill-opacity="1" filter="url(#filter-7)" xlink:href="#path-6"></use>
                                    <use fill="#F7F7F7" fill-rule="evenodd" xlink:href="#path-6"></use>
                                </g>
                                <path d="M169.48989,11.7325307 L166.158618,11.7325307 C165.703024,11.7325307 165.323223,12.1056267 165.323223,12.565864 C165.323223,13.02931 165.697242,13.3991973 166.158618,13.3991973 L169.48989,13.3991973 L169.48989,16.7304696 C169.48989,17.1860632 169.862986,17.565864 170.323223,17.565864 C170.786669,17.565864 171.156557,17.1918452 171.156557,16.7304696 L171.156557,13.3991973 L174.487829,13.3991973 C174.943423,13.3991973 175.323223,13.0261013 175.323223,12.565864 C175.323223,12.102418 174.949204,11.7325307 174.487829,11.7325307 L171.156557,11.7325307 L171.156557,8.4012584 C171.156557,7.94566479 170.783461,7.56586399 170.323223,7.56586399 C169.859777,7.56586399 169.48989,7.93988281 169.48989,8.4012584 L169.48989,11.7325307 Z" id="Combined-Shape" fill="#C3BFBF" transform="translate(170.323223, 12.565864) rotate(-45.000000) translate(-170.323223, -12.565864) "></path>
                                <rect id="Rectangle-4-Copy-3" fill="#D8D8D8" x="20" y="93" width="110" height="8" rx="4"></rect>
                                <rect id="Rectangle-4-Copy-4" fill="#D8D8D8" x="20" y="111" width="80" height="8" rx="4"></rect>
                            </g>
                            <g id="Group-5" transform="translate(102.000000, 14.298276)">
                                <path d="M63.7549357,32.0054898 C63.7549357,49.6816417 49.4828992,64.0109796 31.8774678,64.0109796 C14.2720364,64.0109796 0,49.6816417 0,32.0054898 C0,14.3293379 14.2720364,0 31.8774678,0 C49.4828992,0 63.7549357,14.3293379 63.7549357,32.0054898 Z" id="Fill-6" fill="#EFA78C"></path>
                                <path d="M31.8774678,4.80082347 C46.8420901,4.80082347 58.9733314,16.9808327 58.9733314,32.0054898 C58.9733314,47.0301469 46.8420901,59.2101561 31.8774678,59.2101561 C16.9128456,59.2101561 4.78162017,47.0301469 4.78162017,32.0054898 C4.78162017,16.9808327 16.9128456,4.80082347 31.8774678,4.80082347 L31.8774678,4.80082347 Z M31.8774678,0 C14.2720205,0 0,14.3293379 0,32.0054898 C0,49.6816417 14.2720205,64.0109796 31.8774678,64.0109796 C49.4829152,64.0109796 63.7549357,49.6816417 63.7549357,32.0054898 C63.7549357,14.3293379 49.4828992,0 31.8774678,0 L31.8774678,0 Z" id="Fill-7" fill="#BB4F3E"></path>
                                <path d="M46.3817157,56.6657197 C46.3817157,48.6643472 39.8787123,44.2155841 31.8774678,44.2155841 C23.8762234,44.2155841 17.37322,48.6483445 17.37322,56.6657197 C21.7769965,59.2661657 26.7698687,60.6929705 31.8774678,60.8104306 C36.9806679,60.6638455 41.9664792,59.2391211 46.3817157,56.6657197 Z" id="Fill-8" fill="#D8D8D8"></path>
                                <path d="M31.8774678,63.2108423 C26.3113591,63.0949825 20.8698594,61.5347148 16.0821825,58.6820655 L14.9824099,57.9779448 L14.9824099,56.6657197 C14.9824099,47.9122182 21.9316979,41.8151724 31.8774678,41.8151724 C41.8232378,41.8151724 48.7725258,47.928221 48.7725258,56.6657197 L48.7725258,57.9939475 L47.6408757,58.6980683 C42.8495329,61.5129511 37.4269046,63.0653774 31.8774678,63.2108423 Z M19.8437237,55.2894836 C23.5653703,57.2376578 27.6816439,58.3050409 31.8774678,58.4100189 C36.0774836,58.2658341 40.1909361,57.1718865 43.9112119,55.2094699 C43.1461527,48.8083719 37.1053726,46.5359822 31.8774678,46.5359822 C26.6495631,46.5359822 20.5928442,48.9043884 19.8437237,55.2894836 Z" id="Fill-9" fill="#BB4F3E"></path>
                                <path d="M42.2376449,32.7896243 C42.2376449,38.5254881 37.5992342,43.1754057 31.8774678,43.1754057 C26.1557014,43.1754057 21.5172908,38.5254881 21.5172908,32.7896243 C21.5172908,27.0537604 26.1557014,22.4038429 31.8774678,22.4038429 C37.5992342,22.4038429 42.2376449,27.0537604 42.2376449,32.7896243 Z" id="Fill-10" fill="#D8D8D8"></path>
                                <path d="M31.8774678,45.5598147 C24.8352889,45.5598147 19.1264807,39.8281116 19.1264807,32.7576188 C19.1264807,25.687126 24.8352889,19.9554229 31.8774678,19.9554229 C38.9196468,19.9554229 44.628455,25.687126 44.628455,32.7576188 C44.628455,39.8281116 38.9196468,45.5598147 31.8774678,45.5598147 Z M31.8774678,24.7562464 C27.476098,24.7562464 23.9081009,28.3386208 23.9081009,32.7576188 C23.9081009,37.1766168 27.476098,40.7589913 31.8774678,40.7589913 C36.2788376,40.7589913 39.8468348,37.1766168 39.8468348,32.7576188 C39.8205359,28.357344 36.2602212,24.8042546 31.8774678,24.8042546 L31.8774678,24.7562464 Z" id="Fill-11" fill="#BB4F3E"></path>
                            </g>
                        </g>
                        <g id="btn/download-orng" transform="translate(80.000000, 142.000000)">
                            <g id="Group-2">
                                <rect id="Rectangle-4" fill="#FF7948" x="0" y="0" width="90" height="25" rx="1"></rect>
                                <text id="DOWNLOAD" font-family="Futura-Medium, Futura" font-size="10" font-weight="400" fill="#FFFFFF">
                                    <tspan x="20.6816406" y="16.5">CONTACT</tspan>
                                </text>
                            </g>
                        </g>
                        <g id="cancel-btn" transform="translate(34.000000, 148.000000)">
                            <text id="cancel" font-family="Futura-Medium, Futura" font-size="10" font-weight="400" letter-spacing="0.25" fill="#9B9B9B">
                                <tspan x="0" y="10">cance</tspan>
                                <tspan x="27.7929688" y="10">l</tspan>
                            </text>
                            <path d="M0.75883191,13.375 L29.703257,13.375" id="Path-8" stroke="#979797" stroke-width="0.75"></path>
                        </g>
                    </g>
                </g>
            </g>
        </g>
    </g>
</svg>